<svg xmlns="http://www.w3.org/2000/svg" width="512" height="512" style="fill:none;stroke:none"><g><path d="M-22.576 43.954C13.571 39.619 23.5 26.73 32.289 14.924c5.828-7.833 8.203-23.238-2.907-29.562-6.663-3.79-5.763 14.972-14.919 19.573-5.674 2.856-.24-8.619 4.578-24.278 4.822-15.661-7.621-26.34-14.853-26.145-7.233.195-2.213 15.904-2.213 15.904l.043 1.114C.74-35.229-7.627-42.053-14.845-40.751c-10.713 1.931 9.898 15.604 2.115 49.53-3.176 13.852-10.451 26.206-24.701 28.911 0 0-3.061 2.338 3.566 6.019 3.551 1.974 11.289.245 11.289.245z" style="fill-opacity:1;fill:#b9772b;fill-rule:nonzero" transform="translate(438.025 412.584)"/><path d="M7.041-32.207c-1.22-3.66.167-7.316 2.795-8.706-1.856-.591-3.772-.793-5.614-.461-10.714 1.931 9.897 15.604 2.114 49.53C3.16 22.008-4.115 34.362-18.365 37.067c0 0-2.299 1.765 1.432 4.639C13.373 32.461 20.664-3.359 7.041-32.207z" style="fill-opacity:1;fill:#ecb445;fill-rule:nonzero" transform="translate(418.959 413.207)"/><path d="M-19.329 41.493C6.239 35.978 11.847 2.43 6.682-19.201c-.496-2.078-6.845-16.142-4.738-17.382 6.35-3.739 14.643 5.378 15.961 10.66 1.619 6.488-.418 11.361-1.864 17.488-.533 2.258 2.938 3.216 3.471.957 1.289-5.455 3.043-9.844 2.459-15.577-.727-7.127-4.244-12.472-10.574-15.884C5.752-41.981-3.9-41.302-1.755-33.068c.977 3.748 2.716 7.317 3.894 11.006 2.112 6.62 2.924 13.465 2.694 20.398-.54 16.324-7.368 35.858-25.119 39.687-2.269.49-1.307 3.958.957 3.47z" style="fill-opacity:1;fill:#57331b;fill-rule:nonzero" transform="translate(420.402 410.516)"/><path d="M-3.66-27.844c-1.237-3.95-4.313-15.204 3.01-13.233 4.104 1.104 7.327 4.699 9.382 8.222 3.539 6.07 2.046 12.668.041 18.925C7.067-8.611 5.074-3.376 3.568 2.006c-.569 2.033-1.428 5.044.333 6.733 4.306 4.133 10.417-6.745 11.521-9.38 1.319-3.15 2.191-6.575 3.924-9.532 2.43-4.147 7.827 6.539 8.3 8.44 2.174 8.757-2.996 16.71-8.279 23.091C7.027 36.263-11.572 41.27-30.107 43.591c-2.272.284-2.3 3.887 0 3.599 18.951-2.372 37.91-7.309 50.989-22.079 5.162-5.83 9.459-12.025 10.522-19.923 1.002-7.438-2.011-17.429-10.08-19.798-5.889-1.728-8.12 10.191-9.61 13.514-.891 1.987-2.037 3.79-3.569 5.341-2.501 2.532-1.697 1.058-1.107-1.282 1.675-6.641 4.327-13.074 6.367-19.608 2.852-9.128.064-18.927-7.444-24.888-4.288-3.404-11.967-5.945-14.393.707-1.512 4.142.034 9.901 1.3 13.94.692 2.207 4.168 1.264 3.472-.958z" style="fill-opacity:1;fill:#57331b;fill-rule:nonzero" transform="translate(445.396 410.365)"/></g><g><path d="M20.386-96.473C-22.205-93.637-2.235 4.94-6.183 19.454c-7.255 26.666-42.532 17.345-52.901 21.81-6.603 2.85-9.407 7.514 3.352 13.082 6.767 2.952 12.001 2.31 12.83 4.09 3.464 7.444-19.759 3.266-14.082 12.054 6.546 10.123 23.339 8.275 32.311 4.151 7.036-3.227 9.111-1.972 10.814.248 1.705 2.22-19.093 9.469-1.353 17.164 10.936 4.736 53.315 3.809 70.598-19.596 13.105-17.746 11.833-41.78 6.362-52.092C39.482-21.574 41.017-21.453 35.24-46.648 31.027-65.02 25.161-96.79 20.386-96.473z" style="fill-opacity:1;fill:#a86728;fill-rule:nonzero" transform="translate(72.104 403.63)"/><path d="M40.12 20.701C17.854-21.237 19.39-21.118 13.613-46.313 10.872-58.264 4.179-83.901.793-94.671-28.908-80.675 7.819 30.247 11.28 54.588c4.011 28.209-27.275 32.654-55.097 29.767-.832 2.47.494 5.221 6.977 8.034 10.936 4.736 53.315 3.809 70.598-19.596 13.105-17.746 11.834-41.779 6.362-52.092z" style="fill-opacity:1;fill:#7c401f;fill-rule:nonzero" transform="translate(93.732 403.294)"/><path d="M16.321 56.777c10.297-11.718 6.271-27.06 6.36-41.656-.835-28.481-8.234-74.862 18.906-87.116C1.581-66.538 20.676 29.438 16.784 43.747 9.529 70.413-25.748 61.093-36.117 65.558c-2.838 1.225-4.968 2.784-5.47 4.607 16.85-1.957 46.3 1.829 57.908-13.388z" style="fill-opacity:1;fill:#ecb445;fill-rule:nonzero" transform="translate(49.138 379.336)"/><path d="M21.41-98.124C-9.046-95.653-8.571-51.858-8.234-29.811c.213 13.919 1.652 27.793 1.824 41.708.074 6.027-1.009 11.243-4.967 16.132-5.59 6.906-15.152 8.748-23.512 9.498-5.725.513-35.722-1.258-29.829 11.956 1.747 3.918 7.598 5.971 11.189 7.414 2.568 1.033 5.347 1.5 8.05 2.025 1.795.349 3.036 1.132.769 2.066-3.643 1.501-12.402 1.028-13.733 5.882-2.018 7.368 9.516 11.897 14.815 12.709 4.37.67 8.826.209 13.129-.662 3.816-.772 12.293-6.2 15.487-3.62 1.067.862.391-.24.391-.24-.36.392-.812.718-1.225 1.05-1.107.89-2.252 1.725-3.34 2.638-2.13 1.789-3.909 4.029-4.007 6.9-.216 6.364 9.778 9.08 14.645 9.877 17.021 2.79 36.428-.787 51.481-9.035 19.228-10.536 27.678-33.121 25.062-54.241-1.329-10.723-7.474-19.73-12.318-29.158-3.945-7.676-7.87-15.424-10.862-23.53-5.405-14.646-7.702-30.69-11.07-45.87-1.718-7.746-3.454-15.54-5.986-23.066-.993-2.953-2.518-8.481-6.349-8.746-2.318-.16-2.303 3.44 0 3.6 1.339.092 3.128 6.838 3.514 8.035 1.659 5.148 2.89 10.441 4.118 15.705 2.372 10.165 4.526 20.385 6.797 30.573 3 13.46 7.073 25.667 13.178 38.074C54.025 8.042 61.39 18.177 63.874 29.314c2.651 11.89.458 25.018-4.933 35.812C49.06 84.908 25.367 91.87 4.785 92.639c-7.463.279-15.385-.02-21.902-4.015-8.08-4.952 5.89-8.553 6.162-13.143.123-2.09-2.394-3.565-4.056-4.198-4.109-1.562-9.368 2.058-13.079 3.276-5.028 1.649-10.544 2.168-15.775 1.366-1.804-.277-14.416-5.711-10.677-8.424 4.141-3.006 11.157-.908 14.327-5.617 1.023-1.522.437-4.246-1.051-5.251-1.285-.868-2.825-1.099-4.323-1.389-4.058-.788-7.74-1.971-11.442-3.869-1.742-.893-6.216-3.328-4.211-5.823 1.077-1.341 3.065-2.231 4.653-2.768 2.988-1.01 6.384-.967 9.498-1.089 7.877-.311 15.77-.411 23.45-2.394 12.334-3.186 20.669-12.988 20.832-25.75.16-12.481-1.263-25.002-1.679-37.472-.505-15.152-.486-30.73 3.097-45.547C1.475-81.323 7.963-93.434 21.41-94.524c2.297-.187 2.315-3.788 0-3.6z" style="fill-opacity:1;fill:#57331b;fill-rule:nonzero" transform="translate(71.081 403.481)"/><path d="M-9.531 1.617c1.014 7.442 6.106 12.753 11.366 11.86 5.266-.893 8.707-7.647 7.695-15.09C8.512-9.061 3.421-14.37-1.839-13.477c-5.264.895-8.703 7.654-7.692 15.094z" style="fill-opacity:1;fill:#925624;fill-rule:nonzero" transform="translate(89.518 436.395)"/><path d="M.771-8.311c-2.7-.667-5.237 2.515-5.662 7.104-.428 4.589 1.418 8.854 4.123 9.519 2.703.665 5.239-2.514 5.664-7.105.423-4.59-1.42-8.849-4.125-9.518z" style="fill-opacity:1;fill:#925624;fill-rule:nonzero" transform="translate(78.718 373.042)"/><path d="M.564-6.429c-2.089-.526-4.036 1.927-4.348 5.478-.313 3.549 1.129 6.857 3.221 7.381 2.091.525 4.039-1.926 4.351-5.478.309-3.551-1.131-6.853-3.224-7.381z" style="fill-opacity:1;fill:#925624;fill-rule:nonzero" transform="translate(76.652 423.19)"/><path d="M-6.594-.715C-6.465 5.138-3.411 10.201.23 10.598c3.638.395 6.489-4.03 6.36-9.879-.13-5.856-3.179-10.917-6.819-11.318-3.641-.395-6.49 4.03-6.365 9.884z" style="fill-opacity:1;fill:#925624;fill-rule:nonzero" transform="translate(82.622 401.185)"/></g><g><path d="M182.552 187.459c-4.92-14.688-15.956-39.36-30.851-57.447-14.894-18.083-35.276-36.701-40.595-44.148-5.319-7.448-8.312-12.447-16.766-44.149C89.602 23.947 83.841 7.687 78.188-6.228c-12.118-29.823-21.78-49.043-21.78-49.043-23.597-64.05-47.159-105.055-72.478-129.224-23.661-22.587-28.253-22.744-46.06-28.047-19.379-5.771-65.427 5.319-78.725 30.317 0 0-13.83 26.597-19.148 58.512-2.202 13.212-23.429 35.244-25.711 48.179-3.242 18.395-.169 35.107 5.319 50.531 4.07 11.44 10.024 24.643 17.022 28.725 3.193 1.863 12.395 1.839 12.395 1.839s7.247 41.761 9.059 60.623c2.66 27.658 9.043 70.743 36.701 103.721 27.659 32.98 73.94 43.086 114.366 45.748 40.425 2.66 79.256-4.788 105.852-9.576 26.597-4.787 43.615-7.847 54.786-5.453 0 0 19.17 5.951 12.766-13.165z" style="fill-opacity:1;fill:#b9772b;fill-rule:nonzero" transform="translate(237.095 269.553)"/><path d="M-43.724 62.738c-101.333-19.333-108-95.999-117.763-144.182-.953-1.905-2.37-3.803-4.122-5.492.407 8.479.877 16.346 1.395 21.744 2.66 27.659 9.043 70.743 36.701 103.722 27.659 32.98 73.94 43.085 114.366 45.747 40.424 2.659 79.509-3.542 105.852-9.575 52.238-11.963 66.238 3.37 68.904-9.296 0 0 4-24.668-26-24.001-38.232.85-138.022 29.215-179.333 21.333z" style="fill-opacity:1;fill:#9f6127;fill-rule:nonzero" transform="translate(259.391 400.928)"/><path d="M-16.225-79.002C5.62-26.127 6.075-28.368 26.408 25.563c20.5 47.5 18.54 73.321 31.742 86.525 32.587 32.306 55.062 54.499 72.479 83.715-5.693-12.121-16.886-33.116-25.923-44.089-14.895-18.083-35.277-36.701-40.595-44.149-5.319-7.447-8.314-12.446-16.767-44.148C32.45 7.563 9.55-34.273 9.55-34.273-9.552-86.244-37.328-138.205-62.646-162.374c-20.154-19.239-42.7-33.429-67.982-28.092 43.823-.281 89.717 51.712 114.403 111.464z" style="fill-opacity:1;fill:#f9cc74;fill-rule:nonzero" transform="translate(283.109 246.869)"/><path d="M171.119 197.661c-21.479-2.92-43.533 2.749-64.56 6.518-29.114 5.216-58.466 9.128-88.111 8.198-25.341-.795-51.12-4.757-74.853-13.881-25.3-9.726-45.247-26.778-58.842-50.204-15.174-26.15-20.489-56.154-23.558-85.81-2.055-19.85-5.532-39.612-8.939-59.268-.135-.78-.994-1.321-1.736-1.322-3.468-.006-6.997-.218-10.354-1.126-5.773-1.558-9.518-10.133-11.915-14.959-6.586-13.257-10.849-28.218-11.842-42.982-.474-7.026-.246-14.651 1.513-21.486 1.28-4.975 4.369-9.584 7.076-13.878 5.575-8.842 12.476-17.254 16.485-26.984 2.121-5.148 2.639-10.776 3.849-16.183 1.566-6.999 3.604-13.889 5.871-20.69 2.847-8.538 6.208-16.94 10.126-25.044 7.965-16.468 26.615-25.053 43.415-29.552 9.054-2.425 18.614-3.691 27.979-2.856 7.318.652 15.283 3.469 21.993 6.412 8.593 3.769 15.75 10.24 22.608 16.488 8.933 8.139 16.852 16.84 23.98 26.609 16.663 22.834 29.687 48.41 41.3 74.103 3.249 7.188 6.327 14.453 9.298 21.76 1.903 4.68 3.268 10.028 5.701 14.443 2.027 3.676 3.894 7.443 5.731 11.216C73.555-21.818 81.955.075 88.917 22.356c4.146 13.274 7.312 26.826 11.53 40.078 1.926 6.05 4.099 12.118 7.348 17.6 3.316 5.596 7.724 10.329 12.195 15.013 9.242 9.683 18.722 19.127 27.55 29.198 16.139 18.41 28.685 40.737 35.583 64.266 1.554 5.3-.023 8.561-5.724 9.204-2.218.25-4.544.149-6.759-.118-2.301-.28-2.274 3.324 0 3.599 5.638.683 16.064.66 16.673-7.011.618-7.774-3.949-16.965-6.918-23.862-5.321-12.366-11.853-24.177-19.604-35.187-7.855-11.16-17.428-21.086-26.875-30.888-10.802-11.207-22.105-21.24-27.691-36.059-4.21-11.172-6.97-22.866-10.163-34.35C92.2 19.942 87.609 6.249 82.506-7.239c-5.991-15.832-12.743-31.473-20.637-46.458-4.064-7.715-6.664-16.277-10.044-24.322a598.282 598.282 0 0 0-18.736-40.315c-11.51-22.536-24.548-45.132-41.677-63.922-12.2-13.383-26.392-26.127-43.919-31.607-7.602-2.377-14.671-4.017-22.686-3.804-9.557.254-19.107 2.338-28.151 5.34-15.263 5.065-31.133 14.112-38.435 29.071-3.651 7.48-6.74 15.248-9.52 23.088-2.146 6.05-3.985 12.204-5.605 18.414-1.658 6.353-2.223 13.123-4.317 19.329-3.432 10.171-11.164 19.129-16.889 28.069-2.454 3.831-4.704 7.763-6.475 11.958-2.334 5.531-2.526 12.122-2.729 18.028-.616 17.917 4.834 35.953 12.456 51.994 2.815 5.924 6.435 12.155 12.075 15.784 3.522 2.265 9.278 2.076 13.303 2.084l-1.735-1.321c2.63 15.173 5.09 30.384 7.223 45.635 2.879 20.593 4.365 41.111 9.802 61.288 6.554 24.322 18.127 48.074 36.309 65.823 17.204 16.794 40.161 26.437 63.197 32.1 36.047 8.863 73.762 8.503 110.354 3.706 16.923-2.218 33.673-5.474 50.479-8.405 14.443-2.517 29.336-5.181 44.013-3.186 2.269.308 3.249-3.159.957-3.471z" style="fill-opacity:1;fill:#57331b;fill-rule:nonzero" transform="translate(235.597 271.421)"/></g><g><path d="M53.585-6.319a19.889 19.889 0 0 0-.11-1.724c.198-5.43-3.099-9.276-11.792-4.949-1.455.61-3.297 1.515-5.719 2.86 10.374-5.186 11.57-21.143 5.586-21.941-5.895-.784-15.957 13.563-27.526 15.693-17.033 3.131-31.384 5.851-47.875 5.318 0 0-14.964-.838-16.927 6.524-.682 2.555-2.946 11.781 12.271 13.744 2.266.291 38.961 19.377 50.557 21.108 17.058 2.543 24.029.624 28.369-3.715 4.339-4.34 6.881-10.322 6.582-13.764a8.93 8.93 0 0 0-.305-1.606c-.031-1.282-.262-2.351-.757-3.01a4.997 4.997 0 0 0-1.285-1.198c1.283-.834 9.07-6.198 8.931-13.34z" style="fill-opacity:1;fill:#9f6127;fill-rule:nonzero" transform="translate(444.887 461.654)"/><path d="M-47.601-8.784C-32.414-4.687-18.432 2.728-4.153 9.146c11.805 5.304 25.631 7.639 37.964 2.471C41.237 8.506 49.84-5.354 43.07-12.592c-3.923-4.193-11.499.374-15.716 1.438-8.297 2.091-18.712 2.918-25.841-2.563-1.841-1.415-3.63 1.715-1.816 3.11C8.42-3.901 22.189-5.36 32.001-8.816c2.214-.78 8.078-3.733 9.418.008.849 2.369-.295 5.572-1.009 7.829-2.621 8.288-10.032 10.975-18.129 11.686C10.025 11.784.21 7.278-10.536 2.26-22.273-3.222-34.095-8.87-46.644-12.255c-2.245-.605-3.196 2.867-.957 3.471z" style="fill-opacity:1;fill:#57331b;fill-rule:nonzero" transform="translate(447.771 480.393)"/><path d="M-38.459 12.664c6.759.192 13.482-.294 20.194-1.068 4.37-.505 8.724-1.158 13.068-1.846C.134 8.905 6.1 8.516 11.099 6.384c3.844-1.64 7.254-3.959 10.536-6.528 3.385-2.649 6.769-6.153 10.861-7.677 3.96-1.476 3.436 5.31 3.067 7.368-.847 4.735-3.833 8.748-8.003 11.049-2.034 1.122-.218 4.23 1.816 3.109C36.424 9.817 40.782 1.313 39.06-6.694c-1.748-8.131-9.928-3.884-14.069-.667C20.308-3.723 15.849.158 10.477 2.766 4.311 5.76-3.984 5.972-10.704 6.981c-9.182 1.38-18.46 2.348-27.755 2.083-2.323-.066-2.316 3.535 0 3.6z" style="fill-opacity:1;fill:#57331b;fill-rule:nonzero" transform="translate(451.956 439.461)"/><path d="M-21.306.542c5.434.006 11.246.546 16.536-.999C.665-2.045 5.077-6.046 10.534-7.556c5.281-1.462 5.896 3.613 5.015 7.49-.996 4.39-4.045 9.087-8.611 10.237-2.25.566-1.295 4.038.957 3.471 8.304-2.089 15.732-15.68 9.549-23.047-4.03-4.803-11.884-.177-15.867 1.984-3.03 1.645-6.02 3.335-9.432 4.015-4.311.857-9.092.351-13.451.347-2.321-.003-2.321 3.599 0 3.601z" style="fill-opacity:1;fill:#57331b;fill-rule:nonzero" transform="translate(480.188 456.46)"/></g><g><path d="M-31.473 27.679c7.791 1.912 21.081-.433 32.799.985 13.675 1.655 8.5 1.108 24.532 3.835s9.023-13.881-2.143-20.976C12.55 4.429-25.76-22.793-35.144-19.352c0 0 3.809 24.345 3.809 32.427 0 8.081-.138 14.604-.138 14.604z" style="fill-opacity:1;fill:#a13422;fill-rule:nonzero" transform="matrix(.49 0 0 1 204.854 203.659)"/><path d="M-3.035 18.735c10.954 1.585 22.527 6.524 26.981 13.319 1.189 1.814 3.907 1.729 3.508-.087C25.66 23.806 8.827 15.85-5.087 15.611c-3.248-.056-3.677 2.241-.356 2.723l2.408.401z" style="fill-opacity:1;fill:#b77261;fill-rule:nonzero" transform="matrix(.49 0 0 1 205.595 193.773)"/><path d="M-13.584 5.66c5.178-8.245 29.19 11.497 37.11 14.832 1.99.838 4.072-.47 2.067-1.314-9.676-4.074-35.937-25.444-42.285-15.335-1.239 1.972 1.877 3.777 3.108 1.817z" style="fill-opacity:1;fill:#721d14;fill-rule:nonzero" transform="matrix(.49 0 0 1 196.494 198.798)"/><path d="M-29.438-19.819c12.794-5.839 41.089 23.627 52.717 29.32 9.055 4.433 14.719 12.798 13.559 18.443-1.335 6.494-19.959.541-27.617.279-12.464-.426-27.259 2.092-37.609-1.425-2.2-.748-.145.809 2.089 1.318 17.971 4.097 34.024-.38 46.415 2.511 5.33 1.244 12.357 3.057 16.929 1.482 3.444-1.187 3.644-4.025 3.418-6.298-.639-6.413-7.226-14.05-17.27-18.643-12.24-5.598-41.452-36.027-54.448-30.095-2.11.962-.279 4.065 1.817 3.108z" style="fill-opacity:1;fill:#721d14;fill-rule:nonzero" transform="matrix(.49 0 0 1 203.08 205.287)"/></g><g><path d="M-83.292 14.109c.98 6.694 5.195 30.925 16.653 47.1 6.537 9.23 12.708 10.446 26.098 4.401 13.392-6.043 20.777-11.959 24.947-13.747 4.173-1.786 17.788 2.528 26.591 4.406 8.238 1.757 8.837 5.292 36.877.361 28.038-4.931 35.787-25.124 36.508-39.542.83-16.572.137-23.196-4.871-49.26-2.026-10.539-14.907-39.483-98.237-23.484-56.921 10.929-61.236 34.515-64.333 43.332-.892 2.539-2.153 13.327-.233 26.433z" style="fill-opacity:1;fill:#8f5123;fill-rule:nonzero" transform="rotate(-2 5960.95 -3779.137)"/><path d="M77.843-48.803c-.337-1.755-1.315-3.908-3.034-6.221 3.263 14.146 4.795 54.072-8.538 62.072-26.667 22.667-55.002 5.003-85.333 10-27.669 14.336-56 22-64.482-11.606 2.141 10.401 6.658 27.026 15.237 39.136 6.537 9.23 12.709 10.446 26.098 4.401 13.392-6.043 20.778-11.959 24.948-13.747 4.172-1.786 17.788 2.528 26.59 4.406 8.239 1.757 8.837 5.292 36.877.361C74.244 35.068 81.993 14.876 82.714.457c.83-16.572.137-23.196-4.871-49.26z" style="fill-opacity:1;fill:#7a411f;fill-rule:nonzero" transform="rotate(-2 6436.483 -3835.203)"/><path d="M-7.755-25.904C-6.516-8.593-2.79 9.962 3.595 26.09c.844 2.132 4.327 1.204 3.471-.957C.803 9.311-2.941-8.925-4.156-25.904c-.165-2.302-3.765-2.318-3.599 0z" style="fill-opacity:1;fill:#57331b;fill-rule:nonzero" transform="rotate(-2 6559.734 -3287.89)"/><path d="M-29.225-44.262S-20.108-12.814-13.512.689c3.996 8.186 8.96 19.028 20.346 34.308 5.25 7.06 15.109 16.126 18.75 12.766 3.641-3.355-2.993-18.064-7.58-28.323C2.846-14.47-4.517-51.123-4.517-51.123" style="fill-opacity:1;fill:#dccca5;fill-rule:nonzero" transform="rotate(-2 9222.14 -3068.6)"/><path d="M-29.602-43.071C-25.321-28.336-20.808-13.406-14.51.607A196.388 196.388 0 0 0-.561 26.304c5.319 8.27 12.714 20.605 22.633 24.081 7.932 2.779 8.18-5.379 6.832-10.852-3.128-12.711-10.147-24.648-14.736-36.86C7.649-14.668 2.252-32.715-1.423-50.889c-.46-2.275-3.93-1.31-3.472.957C-2.023-35.726 2.059-21.703 6.61-7.957c3.71 11.204 8.137 22.093 12.917 32.876 2.251 5.076 4.412 10.213 5.905 15.571.518 1.859.975 3.902.662 5.836-.473 2.924-5.542-.827-6.505-1.5-9.162-6.402-15.474-17.427-21.064-26.839-4.287-7.22-8.179-14.859-11.405-22.615-5.31-12.764-9.397-26.132-13.251-39.4-.647-2.225-4.12-1.277-3.471.957z" style="fill-opacity:1;fill:#8a5c2b;fill-rule:nonzero" transform="rotate(-2 9202.423 -3029.316)"/><path d="M-12.762-26.795C-7.415-7.615.988 10.759 10.557 28.177c1.155 2.099 2.848.915 1.701-1.171C2.847 9.881-3.975-9.108-9.236-27.966c-.642-2.311-4.169-1.131-3.526 1.171z" style="fill-opacity:1;fill:#fff;fill-rule:nonzero" transform="rotate(-2 8872.505 -2779.771)"/><path d="M-31.453-39.871s11.771 29.636 19.05 42.781c4.408 7.972 9.919 18.549 22.075 33.225 5.603 6.781 14.852 14.904 18.318 11.362 3.463-3.537-2.854-17.459-7.961-27.471C3.156-13.065-6.319-51.039-6.319-51.039" style="fill-opacity:1;fill:#dccca5;fill-rule:nonzero" transform="rotate(-2 8737.315 -6043.304)"/><path d="M-33.237-37.826c5.691 14.311 11.513 28.772 18.771 42.368 4.716 8.835 9.875 17.387 15.794 25.472 3.687 5.035 7.578 9.976 12.032 14.355 2.942 2.893 7.327 7.043 11.712 7.302 9.023.532 4.727-12.026 3.089-16.456-4.615-12.482-11.523-24.087-16.574-36.416C5.115-16.999-.476-33.379-4.632-49.952c-.564-2.251-4.036-1.295-3.471.957C-4.88-36.139-.663-23.488 3.915-11.061 7.928-.174 12.472 10.525 17.629 20.92c2.715 5.473 5.449 10.895 7.572 16.635 1.134 3.067 4.608 12.848-2.065 9.769C13.241 42.76 5.763 30.41-.089 21.78-4.802 14.829-8.97 7.437-12.801-.035c-6.422-12.524-11.766-25.676-16.964-38.748-.847-2.131-4.33-1.202-3.472.957z" style="fill-opacity:1;fill:#8a5c2b;fill-rule:nonzero" transform="rotate(-2 8692.433 -6043.896)"/><path d="M-13.409-27.11C-7.693-7.643 1.122 10.963 11.116 28.577c1.206 2.122 2.98.42 1.783-1.688C3.07 9.571-4.21-9.21-9.831-28.351c-.688-2.348-4.265-1.095-3.578 1.241z" style="fill-opacity:1;fill:#fff;fill-rule:nonzero" transform="rotate(-2 8441.753 -5762.525)"/><path d="M76.28-51.486c2.541 5.836 3.353 12.754 4.361 18.976 1.56 9.62 2.491 19.377 2.63 29.123.104 7.326.242 16.323-3.649 22.831-5.084 8.501-14.451 15.346-23.689 18.424-11.854 3.95-25.765 4.126-38.135 3.108-4.22-.346-8.515-.854-12.676-1.64-4.79-.905-9.169-2.878-14.093-3.384-7.658-.787-13.532 3.968-19.92 7.31-7.908 4.136-16.92 8.07-26.019 7.725-8.809-.334-12.882-9.045-16.472-15.91-3.982-7.616-6.668-15.487-8.487-23.861-2.146-9.884-3.27-20.075-2.963-30.19.292-9.649 5.085-19.577 10.99-27.062 1.421-1.802-1.108-4.368-2.546-2.546-6.602 8.367-11.513 18.871-12.044 29.608-.602 12.148 1.382 24.688 4.327 36.443 2.614 10.433 7.486 20.426 13.561 29.264 4.534 6.597 11.301 8.694 19.095 7.592 8.501-1.201 16.495-4.818 24.015-8.82 2.391-1.273 4.724-2.647 7.06-4.016 5.645-3.308 12.115-1.847 17.996-.058 8.19 2.489 16.949 3.329 25.497 3.529 11.718.274 24.92-.422 35.823-5.121 8.759-3.776 16.477-10.666 21.788-18.578 4.304-6.412 4.129-16.174 4.148-23.531.025-10.083-1.082-20.184-2.599-30.141-1.056-6.928-2.07-14.412-4.891-20.892-.924-2.124-4.025-.289-3.108 1.817z" style="fill-opacity:1;fill:#57331b;fill-rule:nonzero" transform="rotate(-2 6387.9 -3788.452)"/><path d="M1.637-.051C1.673 1.113.968 2.075.065 2.102c-.903.029-1.666-.891-1.701-2.053-.037-1.162.669-2.124 1.572-2.156.904-.024 1.667.896 1.701 2.056z" style="fill-opacity:1;fill:#fcb930;fill-rule:nonzero" transform="rotate(-2 6405.345 -1978.1)"/><path d="M1.252-.046C1.242.713.933 1.641.055 1.732-.817 1.823-1.221.727-1.271.054c-.057-.755.369-1.691 1.196-1.781.87-.094 1.277 1.012 1.327 1.681h.75C1.912-1.25 1.24-2.415-.075-2.477-1.381-2.538-2.007-1.009-2.021.054c-.016 1.203.835 2.376 2.076 2.428 1.308.056 1.932-1.46 1.947-2.528h-.75z" style="fill-opacity:1;fill:#fcb930;fill-rule:nonzero" transform="rotate(-2 6405.225 -1978.384)"/><path d="M1.636-.052C1.673 1.112.967 2.075.064 2.104c-.904.03-1.666-.892-1.701-2.055-.036-1.163.669-2.123 1.572-2.153.903-.03 1.665.892 1.701 2.052z" style="fill-opacity:1;fill:#fcb930;fill-rule:nonzero" transform="rotate(-2 6184.474 -2546.574)"/><path d="M1.252-.053C1.242.706.932 1.635.055 1.728-.818 1.821-1.221.72-1.271.048c-.057-.754.369-1.689 1.196-1.777.871-.093 1.276 1.003 1.327 1.676h.75c-.091-1.201-.761-2.372-2.077-2.426-1.306-.053-1.931 1.457-1.946 2.527-.017 1.203.835 2.379 2.076 2.43 1.307.055 1.932-1.463 1.947-2.531h-.75z" style="fill-opacity:1;fill:#fcb930;fill-rule:nonzero" transform="rotate(-2 6184.497 -2546.86)"/><path d="M1.898-.058c.041 1.348-.774 2.468-1.823 2.5-1.05.031-1.931-1.036-1.973-2.384-.041-1.348.774-2.465 1.823-2.499C.972-2.473 1.858-1.407 1.898-.058z" style="fill-opacity:1;fill:#fcb930;fill-rule:nonzero" transform="rotate(-2 6521.881 -2284.98)"/><path d="M1.515-.059C1.501.857 1.12 1.956.067 2.066-.981 2.176-1.469.869-1.531.057c-.07-.912.457-2.018 1.448-2.124C.964-2.178 1.454-.87 1.515-.059h.75c-.102-1.362-.856-2.693-2.348-2.758-1.483-.064-2.181 1.67-2.198 2.874-.02 1.363.943 2.697 2.348 2.759 1.483.065 2.18-1.671 2.198-2.875h-.75z" style="fill-opacity:1;fill:#fcb930;fill-rule:nonzero" transform="rotate(-2 6521.906 -2285.21)"/><path d="M1.784-.201C1.928 1.065 1.245 2.183.26 2.296c-.982.108-1.898-.827-2.042-2.093-.146-1.267.535-2.383 1.524-2.496.984-.111 1.898.825 2.042 2.092z" style="fill-opacity:1;fill:#fcb930;fill-rule:nonzero" transform="rotate(-2 6795.879 -2561.802)"/><path d="M1.409-.201c.057.837-.156 1.787-1.042 2.096-.932.324-1.565-.816-1.746-1.526-.215-.851.135-1.956 1.014-2.259C.685-2.255 1.298-.881 1.422-.101L2.146-.3c-.197-1.238-1.04-2.42-2.404-2.367-1.414.055-1.981 1.699-1.899 2.871.088 1.279 1.07 2.516 2.417 2.467C1.671 2.62 2.239.965 2.159-.201h-.75z" style="fill-opacity:1;fill:#fcb930;fill-rule:nonzero" transform="rotate(-2 6795.85 -2561.801)"/><path d="M1.599-.05C1.634 1.088.945 2.028.063 2.055c-.882.025-1.626-.872-1.66-2.004-.037-1.136.652-2.078 1.533-2.107.885-.024 1.627.873 1.663 2.006z" style="fill-opacity:1;fill:#fcb930;fill-rule:nonzero" transform="rotate(-2 6431.103 -2881.055)"/><path d="M1.212-.051C1.201.684.903 1.591.051 1.68-.793 1.769-1.185.701-1.234.051c-.055-.732.355-1.646 1.158-1.732.845-.091 1.238.98 1.288 1.63h.75c-.091-1.182-.748-2.32-2.038-2.38C-1.357-2.489-1.971-.992-1.984.051c-.015 1.18.821 2.324 2.035 2.379C1.334 2.49 1.947.994 1.962-.051h-.75z" style="fill-opacity:1;fill:#fcb930;fill-rule:nonzero" transform="rotate(-2 6431.097 -2881.399)"/><path d="M-1.652.563c.4 1.174 1.465 1.871 2.373 1.561.916-.311 1.33-1.513.932-2.689C1.254-1.74.188-2.434-.724-2.125c-.911.31-1.327 1.514-.928 2.688z" style="fill-opacity:1;fill:#fcb930;fill-rule:nonzero" transform="rotate(-2 5884.517 -5139.14)"/><path d="M-1.988.667C-1.528 1.843-.5 2.842.846 2.49 2.184 2.142 2.356.431 2.039-.66 1.736-1.707.565-2.842-.614-2.531-2.043-2.155-2.356-.596-1.988.667l.723-.198c-.229-.786-.205-1.711.568-2.186.728-.445 1.525.347 1.858.903.43.718.414 1.741-.163 2.365-.843.912-1.971-.337-2.263-1.082l-.723.198z" style="fill-opacity:1;fill:#fcb930;fill-rule:nonzero" transform="rotate(-2 5884.387 -5138.422)"/><path d="M-1.651.563C-1.253 1.736-.188 2.434.726 2.124c.91-.311 1.326-1.516.928-2.688-.399-1.173-1.465-1.87-2.377-1.56-.911.31-1.329 1.513-.928 2.687z" style="fill-opacity:1;fill:#fcb930;fill-rule:nonzero" transform="rotate(-2 5985.457 -4364.76)"/><path d="M-2.013.653c.461 1.18 1.49 2.172 2.838 1.822C2.159 2.13 2.33.411 2.014-.674 1.662-1.887.445-2.825-.824-2.496-2.159-2.151-2.33-.433-2.013.653l.723-.199c-.23-.787-.206-1.711.568-2.186.867-.531 1.749.581 2.014 1.257.295.754.157 1.74-.569 2.186-.868.532-1.749-.581-2.013-1.257l-.723.199z" style="fill-opacity:1;fill:#fcb930;fill-rule:nonzero" transform="rotate(-2 5985.743 -4364.793)"/><path d="M-1.915.65C-1.451 2.011-.217 2.826.842 2.464 1.9 2.104 2.382.706 1.919-.656 1.456-2.017.221-2.825-.836-2.466-1.895-2.106-2.382-.709-1.915.65z" style="fill-opacity:1;fill:#fcb930;fill-rule:nonzero" transform="rotate(-2 6210.762 -4760.33)"/><path d="M-2.276.738C-1.754 2.074-.59 3.212.941 2.813c1.516-.394 1.697-2.35 1.34-3.58C1.881-2.141.503-3.212-.936-2.84c-1.517.391-1.701 2.349-1.34 3.578l.723-.199c-.277-.942-.235-2.037.688-2.601 1.046-.639 2.102.674 2.423 1.494.353.903.179 2.074-.688 2.604-1.046.64-2.102-.677-2.423-1.497l-.723.199z" style="fill-opacity:1;fill:#fcb930;fill-rule:nonzero" transform="rotate(-2 6211.105 -4760.337)"/><path d="M-1.915.65C-1.451 2.011-.217 2.826.842 2.464 1.9 2.104 2.382.706 1.919-.656 1.456-2.017.221-2.825-.836-2.466-1.895-2.106-2.382-.709-1.915.65z" style="fill-opacity:1;fill:#fcb930;fill-rule:nonzero" transform="rotate(-2 6487.562 -5063.677)"/><path d="M-2.276.738C-1.754 2.074-.59 3.212.941 2.813c1.516-.394 1.697-2.35 1.34-3.58C1.881-2.141.503-3.212-.936-2.84c-1.517.391-1.701 2.349-1.34 3.578l.723-.199c-.277-.942-.235-2.037.688-2.601 1.046-.639 2.102.674 2.423 1.494.353.903.179 2.074-.688 2.604-1.046.64-2.102-.677-2.423-1.497l-.723.199z" style="fill-opacity:1;fill:#fcb930;fill-rule:nonzero" transform="rotate(-2 6487.906 -5063.683)"/><path d="M-1.855.466c.33 1.317 1.429 2.178 2.453 1.923C1.623 2.13 2.187.851 1.854-.466 1.527-1.786.427-2.644-.6-2.388c-1.026.26-1.587 1.535-1.255 2.854z" style="fill-opacity:1;fill:#fcb930;fill-rule:nonzero" transform="rotate(-2 6593.77 -4599.822)"/><path d="M-2.217.559C-1.821 1.888-.78 2.997.698 2.744 2.172 2.492 2.457.6 2.216-.572 1.937-1.929.696-2.997-.699-2.755c-1.474.254-1.758 2.14-1.518 3.314l.723-.199c-.188-.921-.021-2.054.994-2.393 1.01-.336 1.762.884 1.993 1.66.266.898-.037 2.075-.994 2.394-1.007.335-1.762-.889-1.993-1.661l-.723.199z" style="fill-opacity:1;fill:#fcb930;fill-rule:nonzero" transform="rotate(-2 6593.97 -4599.854)"/><path d="M-1.615.551c.392 1.146 1.434 1.827 2.32 1.521.893-.302 1.299-1.476.909-2.62-.391-1.147-1.428-1.83-2.32-1.527-.891.306-1.298 1.48-.909 2.626z" style="fill-opacity:1;fill:#fcb930;fill-rule:nonzero" transform="rotate(-2 6418.377 -4102.599)"/><path d="M-1.948.649c.387.995 1.383 2.159 2.603 1.832C1.956 2.13 2.31.795 2.075-.404 1.859-1.516.656-2.809-.584-2.488-1.992-2.123-2.31-.597-1.948.649l.723-.198c-.222-.766-.199-1.664.553-2.125.843-.518 1.697.571 1.953 1.224.288.734.154 1.689-.553 2.121-.84.511-1.697-.561-1.953-1.22l-.723.198z" style="fill-opacity:1;fill:#fcb930;fill-rule:nonzero" transform="rotate(-2 6418.42 -4101.797)"/><path d="M19.654-4.758C6.187-12.469-10.879-1.636-20.086 8.223c-1.582 1.695.958 4.245 2.546 2.545C-9.538 2.199 5.937-8.464 17.837-1.65c2.018 1.156 3.831-1.955 1.817-3.108z" style="fill-opacity:1;fill:#fcb930;fill-rule:nonzero" transform="rotate(-2 6640.426 -1235.774)"/><path d="M-13.152 12.575c2.536-10.304 15.39-23.48 27.112-20.75 2.259.525 3.218-2.946.957-3.472C1.25-14.829-13.59-.705-16.624 11.618c-.554 2.254 2.917 3.211 3.472.957z" style="fill-opacity:1;fill:#fcb930;fill-rule:nonzero" transform="rotate(-2 7152.384 -1289.811)"/><path d="M-3.656 17.299C-4.961 7.268-5.03-11.036 6.658-15.324c2.161-.793 1.228-4.273-.957-3.471C-7.852-13.823-8.818 5.283-7.255 17.299c.295 2.269 3.898 2.297 3.599 0z" style="fill-opacity:1;fill:#fcb930;fill-rule:nonzero" transform="rotate(-2 7809.942 -1861.985)"/><path d="M-3.714-18.828C.782-7.841 1.006 7.08-1.196 18.667c-.431 2.269 3.039 3.236 3.472.957C4.593 7.432 4.507-8.177-.242-19.785c-.867-2.118-4.351-1.192-3.472.957z" style="fill-opacity:1;fill:#fcb930;fill-rule:nonzero" transform="rotate(-2 7640.554 -2790.388)"/><path d="M-3.655-13.082C1.3-5.724 1.058 5.172-.316 13.569c-.372 2.27 3.097 3.244 3.472.957 1.519-9.289 1.8-21.253-3.703-29.425-1.289-1.914-4.409-.115-3.108 1.817z" style="fill-opacity:1;fill:#fcb930;fill-rule:nonzero" transform="rotate(-2 7574.257 -3162.589)"/><path d="M2.986-21.714C-1.636-19.626-3.365-13.883-4.5-9.381-6.916.211-6.79 10.537-6.405 20.34c.091 2.314 3.691 2.322 3.599 0-.329-8.381-.285-16.815 1.041-25.117.716-4.482 1.89-11.715 6.568-13.829 2.113-.954.281-4.056-1.817-3.108z" style="fill-opacity:1;fill:#fcb930;fill-rule:nonzero" transform="rotate(-2 7771.798 -2338.403)"/><path d="M15.415-20.749C8.43-22.722.545-15.974-4.001-11.571c-8.606 8.334-13.644 19.984-13.353 31.97.056 2.317 3.656 2.323 3.6 0C-14.009 9.915-9.953.379-3.029-7.386c3.495-3.92 11.453-11.596 17.487-9.891 2.239.632 3.187-2.842.957-3.472z" style="fill-opacity:1;fill:#fcb930;fill-rule:nonzero" transform="rotate(-2 7452.466 -1658.006)"/><path d="M24.279 10.334C15.818-7.437-5.765-14.248-23.184-5.812c-2.089 1.012-.262 4.117 1.817 3.11 15.78-7.643 34.968-1.044 42.538 14.854.997 2.096 4.101.266 3.108-1.818z" style="fill-opacity:1;fill:#fcb930;fill-rule:nonzero" transform="rotate(-2 6031.01 -6195.438)"/><path d="M23.192 10.203C19.127 1.513 13.165-5.767 4.408-9.973c-8.115-3.898-17.487-4.149-26.27-3.215-2.284.243-2.308 3.845 0 3.599 7.69-.816 15.316-.629 22.667 1.984C9.972-4.347 16.093 3.491 20.084 12.02c.983 2.101 4.086.272 3.108-1.817z" style="fill-opacity:1;fill:#fcb930;fill-rule:nonzero" transform="rotate(-2 6540.256 -5963.291)"/><path d="M15.343 18.125C12.896 3.024 4.795-19.851-13.393-21.197c-2.317-.172-2.301 3.429 0 3.599C2.862-16.394 9.738 5.913 11.871 19.081c.371 2.287 3.84 1.315 3.472-.956z" style="fill-opacity:1;fill:#fcb930;fill-rule:nonzero" transform="rotate(-2 7240.228 -5274.382)"/><path d="M-6.332-16.897C-7.408-5.018-2.258 6.888 3.21 17.16c1.091 2.049 4.198.232 3.108-1.816C1.135 5.608-3.751-5.634-2.732-16.897c.209-2.313-3.392-2.292-3.6 0z" style="fill-opacity:1;fill:#fcb930;fill-rule:nonzero" transform="rotate(-2 7522.666 -4443.856)"/><path d="M-3.082-15.488c-3.141 9.97.787 22.127 5.18 31.097 1.021 2.085 4.125.26 3.108-1.816C1.231 5.676-2.45-5.52.39-14.531c.699-2.221-2.777-3.163-3.472-.957z" style="fill-opacity:1;fill:#fcb930;fill-rule:nonzero" transform="rotate(-2 7465.87 -3992.629)"/><path d="M-7.408-13.727C3.359-10.623 4.745 6.545 5.771 15.538c.259 2.279 3.863 2.305 3.599 0C8.131 4.675 6.342-13.509-6.451-17.198c-2.236-.644-3.184 2.829-.957 3.471z" style="fill-opacity:1;fill:#fcb930;fill-rule:nonzero" transform="rotate(-2 7407.148 -4848.493)"/><path d="M-13.913-13.025C1.324-14.375 8.965 3.822 12.16 15.888c.593 2.242 4.067 1.29 3.472-.957C12.024 1.303 3.078-18.13-13.913-16.625c-2.293.204-2.313 3.805 0 3.6z" style="fill-opacity:1;fill:#fcb930;fill-rule:nonzero" transform="rotate(-2 7022.843 -5735.064)"/></g><g><path d="M-6.391 9.8C-5.88 8.5-2.366 6.29.792 5.675-1.811-3.212 6.477-9.796 6.477-9.796-.716-9.706-6.816 2.564-6.391 9.8z" style="fill-opacity:1;fill:#f9cc74;fill-rule:nonzero" transform="translate(89.768 124.359)"/><path d="M-18.811 9.312s-.532-10.87 14.334-14.748C10.391-9.312 19.342.919 19.342.919S5.809-3.519-3.107-1.703C-15.086.737-14.953 6.79-18.811 9.312z" style="fill-opacity:1;fill:#f9cc74;fill-rule:nonzero" transform="translate(99.984 133.364)"/><path d="M-16.936 14.051C-13.339-3.162 6.152-2.75 17.875 5.835c1.342.984 3.007-.629 2.644-2.034-2.798-10.815-9.843-20.124-22.02-18.442-2.291.317-1.312 3.785.957 3.472C9.551-12.564 14.833-3.804 17.047 4.76l2.645-2.033c-13.619-9.974-36.05-9.009-40.1 10.368-.473 2.265 2.997 3.228 3.472.956z" style="fill-opacity:1;fill:#57331b;fill-rule:nonzero" transform="translate(99.382 128.792)"/></g><g><path d="M9.82 11.031C8.941 9.591 4.377 7.755.58 7.747 1.639-3.503-9.425-9.479-9.425-9.479-1.064-11.031 8.717 2.264 9.82 11.031z" style="fill-opacity:1;fill:#f9cc74;fill-rule:nonzero" transform="translate(193.853 111.145)"/><path d="M22.361 3.948s-.403-8.681-18.5-9.896C-14.236-7.162-22.361 7.163-22.361 7.163S-7.827-2.854 2.914-2.736c14.431.159 14.416 4.55 19.447 6.684z" style="fill-opacity:1;fill:#f9cc74;fill-rule:nonzero" transform="translate(184.39 124.125)"/><path d="M22.654 8.247C17.591 1.704 10.537-2.227 2.216-2.485c-10.212-.316-19.238 6.313-25.704 13.56 1.024.424 2.049.847 3.073 1.272.269-10.182 5.925-22.699 17.45-23.402 2.306-.14 2.32-3.741 0-3.599-13.593.828-20.726 14.696-21.051 27.001-.04 1.522 2.023 2.449 3.073 1.273C-15.126 7.1-7.955 1.778 1.021 1.14c7.751-.55 14.502 3.731 19.086 9.654 1.42 1.834 3.949-.735 2.547-2.547z" style="fill-opacity:1;fill:#57331b;fill-rule:nonzero" transform="translate(185.324 117.221)"/></g><g><path d="M17.93 26.16c5.203-7.417 8.047-17.169 6.978-26.221-1.904-16.126-9.536-26.873-26.025-27.031-14.543-.148-26.788 14.28-23.465 34.46 1.864 11.298 4.399 16.623 9.216 19.724 0 0 6.346-5.525 15.084-5.629 13.96-.156 18.212 4.697 18.212 4.697z" style="fill-opacity:1;fill:#7c401f;fill-rule:nonzero" transform="translate(181.9 109.113)"/><path d="M17.314 24.104c4.437-6.33 5.68-16.012 4.767-23.737-1.625-13.763-8.484-24.213-22.56-24.346-12.412-.125-22.515 13.463-19.675 30.686 1.591 9.647 2.284 12.49 5.093 17.311 0 0 8.067-4.139 15.528-4.226 11.916-.137 16.847 4.312 16.847 4.312z" style="fill-opacity:1;fill:#fff;fill-rule:nonzero" transform="translate(182.857 110.737)"/><path d="M17.317 6.789a25.505 25.505 0 0 0 3.248-3.038C18.283-8.367 11.447-17.21-1.493-17.333c-8.748-.087-16.341 6.64-19.072 16.647 9.94 11.18 24.688 18.106 37.882 7.475z" style="fill-opacity:1;fill:#dfe1ec;fill-rule:nonzero" transform="translate(183.872 104.091)"/><path d="M1.497-10.094c2.806 7.42.732 17.057-7.737 19.242-2.246.58-1.293 4.053.957 3.473C5.004 9.967 8.485-1.75 4.968-11.05c-.813-2.15-4.294-1.219-3.471.956z" style="fill-opacity:1;fill:#57331b;fill-rule:nonzero" transform="translate(212.304 129.607)"/><path d="M14.809 2.818C15.031-6.143 8.557-13.576.346-13.777c-8.207-.202-15.036 6.902-15.259 15.868-.117 4.762 1.907 8.844 4.827 11.888 6.54-1.473 13.324-1.671 20.287-1.309 2.764-2.872 4.497-5.365 4.608-9.852z" style="fill-opacity:1;fill:#231f20;fill-rule:nonzero" transform="translate(185.4 122.014)"/><path d="M3.051.662A3.122 3.122 0 1 1-3.05-.666 3.122 3.122 0 0 1 3.05.662z" style="fill-opacity:1;fill:#fff;fill-rule:nonzero" transform="translate(191.092 116.363)"/><path d="M-4.986-9.889S4.688-3.354 9.508 8.531C8.82 8.468 7.41 9.889 7.41 9.889S-4.22-.826-9.508-2.186c.304-2.998 2.871-6.875 4.522-7.703z" style="fill-opacity:1;fill:#fff;fill-rule:nonzero" transform="translate(174.049 102.579)"/><path d="M15.752 24.722C27.317 6.905 20.468-26.662-4.751-26.042c-10.268.252-17.309 9.445-19.813 18.535-2.752 9.988-.258 23.2 4.834 32.143.507.892 1.594 1.082 2.462.647 8.25-4.139 22.606-6.762 30.192-.197 1.746 1.511 4.305-1.024 2.547-2.546-9.102-7.876-24.825-5.249-34.556-.367l2.463.646C-24.348 9.25-25.747-20.476-4.751-22.442c22.885-2.144 26.733 30.96 17.395 45.347-1.268 1.953 1.849 3.756 3.108 1.817z" style="fill-opacity:1;fill:#57331b;fill-rule:nonzero" transform="translate(185.199 111.574)"/></g><g><path d="M17.93 26.16c5.203-7.417 8.047-17.169 6.978-26.221-1.904-16.126-9.536-26.873-26.025-27.031-14.543-.148-26.788 14.28-23.465 34.46 1.864 11.298 4.399 16.623 9.216 19.724 0 0 6.346-5.525 15.084-5.629 13.96-.156 18.212 4.697 18.212 4.697z" style="fill-opacity:1;fill:#7c401f;fill-rule:nonzero" transform="translate(181.9 109.113)"/><path d="M17.314 20.293c4.437-6.33 5.68-16.012 4.767-23.737-1.625-13.763-8.484-24.212-22.56-24.345-12.412-.125-22.515 13.462-19.675 30.685 1.591 9.647 3.113 12.111 5.922 16.932 0 0 6.789 8.086 14.25 8 11.916-.138 17.296-7.535 17.296-7.535z" style="fill-opacity:1;fill:#fff;fill-rule:nonzero" transform="translate(182.857 114.547)"/><path d="M17.317 6.789a25.505 25.505 0 0 0 3.248-3.038C18.283-8.367 11.447-17.21-1.493-17.333c-8.748-.087-16.341 6.64-19.072 16.647 9.94 11.18 24.688 18.106 37.882 7.475z" style="fill-opacity:1;fill:#dfe1ec;fill-rule:nonzero" transform="translate(183.872 104.091)"/><path d="M1.497-10.094c2.806 7.42.732 17.057-7.737 19.242-2.246.58-1.293 4.053.957 3.473C5.004 9.967 8.485-1.75 4.968-11.05c-.813-2.15-4.294-1.219-3.471.956z" style="fill-opacity:1;fill:#57331b;fill-rule:nonzero" transform="translate(212.304 129.607)"/><path d="M14.809.285C15.031-8.676 8.557-16.109.346-16.31-7.861-16.512-14.69-9.408-14.913-.442c-.117 4.762 1.907 8.844 4.827 11.888 6.447 5.066 15.732 4.816 20.322-.684C13 7.89 14.698 4.772 14.809.285z" style="fill-opacity:1;fill:#231f20;fill-rule:nonzero" transform="translate(185.4 122.014)"/><path d="M3.051.662A3.122 3.122 0 1 1-3.05-.666 3.122 3.122 0 0 1 3.05.662z" style="fill-opacity:1;fill:#fff;fill-rule:nonzero" transform="translate(191.092 116.363)"/><path d="M-4.986-9.889S4.688-3.354 9.508 8.531C8.82 8.468 7.41 9.889 7.41 9.889S-4.22-.826-9.508-2.186c.304-2.998 2.871-6.875 4.522-7.703z" style="fill-opacity:1;fill:#fff;fill-rule:nonzero" transform="translate(174.049 102.579)"/><path d="M23.74-2.451C21.763-17.454 12.324-30.968-4.519-28.218c-17.445 2.85-20.32 25.402-15.886 38.98 2.229 6.827 6.409 13.306 12.831 16.789 6.299 3.417 14.908 2.091 20.857-1.432 9.416-5.574 11.556-18.584 10.457-28.57-.251-2.282-3.855-2.306-3.601 0 .822 7.471-.06 15.969-4.848 22.048-3.62 4.597-9.275 6.129-14.89 6.249-7.51.16-12.612-5.951-15.704-12.058-6.122-12.088-5.231-30.231 7.89-37.252 5.931-3.174 14.02-1.409 19.074 2.603 5.471 4.344 7.605 11.782 8.478 18.41.299 2.267 3.904 2.296 3.601 0z" style="fill-opacity:1;fill:#57331b;fill-rule:nonzero" transform="translate(182.223 114.105)"/></g><g><path d="M17.93 26.16c5.203-7.417 8.047-17.169 6.978-26.221-1.904-16.126-9.536-26.873-26.025-27.031-14.543-.148-26.788 14.28-23.465 34.46 1.864 11.298 4.399 16.623 9.216 19.724 0 0 6.346-5.525 15.084-5.629 13.96-.156 18.212 4.697 18.212 4.697z" style="fill-opacity:1;fill:#7c401f;fill-rule:nonzero" transform="translate(181.9 109.113)"/><path d="M17.314 24.104c4.437-6.33 5.68-16.012 4.767-23.737-1.625-13.763-8.484-24.213-22.56-24.346-12.412-.125-22.515 13.463-19.675 30.686 1.591 9.647 2.284 12.49 5.093 17.311 0 0 8.067-4.139 15.528-4.226 11.916-.137 16.847 4.312 16.847 4.312z" style="fill-opacity:1;fill:#fff;fill-rule:nonzero" transform="translate(182.857 110.737)"/><path d="M17.317 6.789a25.505 25.505 0 0 0 3.248-3.038C18.283-8.367 11.447-17.21-1.493-17.333c-8.748-.087-16.341 6.64-19.072 16.647 9.94 11.18 24.688 18.106 37.882 7.475z" style="fill-opacity:1;fill:#dfe1ec;fill-rule:nonzero" transform="translate(183.872 104.091)"/><path d="M1.497-10.094c2.806 7.42.732 17.057-7.737 19.242-2.246.58-1.293 4.053.957 3.473C5.004 9.967 8.485-1.75 4.968-11.05c-.813-2.15-4.294-1.219-3.471.956z" style="fill-opacity:1;fill:#57331b;fill-rule:nonzero" transform="translate(212.304 129.607)"/><path d="M14.809 2.818C15.031-6.143 8.557-13.576.346-13.777c-8.207-.202-15.036 6.902-15.259 15.868-.117 4.762 1.907 8.844 4.827 11.888 6.54-1.473 13.324-1.671 20.287-1.309 2.764-2.872 4.497-5.365 4.608-9.852z" style="fill-opacity:1;fill:#231f20;fill-rule:nonzero" transform="translate(185.4 122.014)"/><path d="M3.051.662A3.122 3.122 0 1 1-3.05-.666 3.122 3.122 0 0 1 3.05.662z" style="fill-opacity:1;fill:#fff;fill-rule:nonzero" transform="translate(191.092 116.363)"/><path d="M-4.986-9.889S4.688-3.354 9.508 8.531C8.82 8.468 7.41 9.889 7.41 9.889S-4.22-.826-9.508-2.186c.304-2.998 2.871-6.875 4.522-7.703z" style="fill-opacity:1;fill:#fff;fill-rule:nonzero" transform="translate(174.049 102.579)"/><path d="M15.752 24.722C27.317 6.905 20.468-26.662-4.751-26.042c-10.268.252-17.309 9.445-19.813 18.535-2.752 9.988-.258 23.2 4.834 32.143.507.892 1.594 1.082 2.462.647 8.25-4.139 22.606-6.762 30.192-.197 1.746 1.511 4.305-1.024 2.547-2.546-9.102-7.876-24.825-5.249-34.556-.367l2.463.646C-24.348 9.25-25.747-20.476-4.751-22.442c22.885-2.144 26.733 30.96 17.395 45.347-1.268 1.953 1.849 3.756 3.108 1.817z" style="fill-opacity:1;fill:#57331b;fill-rule:nonzero" transform="translate(185.199 111.574)"/></g><g><path d="M17.93 26.16c5.203-7.417 8.047-17.169 6.978-26.221-1.904-16.126-9.536-26.873-26.025-27.031-14.543-.148-26.788 14.28-23.465 34.46 1.864 11.298 4.399 16.623 9.216 19.724 0 0 6.346-5.525 15.084-5.629 13.96-.156 18.212 4.697 18.212 4.697z" style="fill-opacity:1;fill:#7c401f;fill-rule:nonzero" transform="translate(181.9 109.113)"/><path d="M17.314 20.293c4.437-6.33 5.68-16.012 4.767-23.737-1.625-13.763-8.484-24.212-22.56-24.345-12.412-.125-22.515 13.462-19.675 30.685 1.591 9.647 3.113 12.111 5.922 16.932 0 0 6.789 8.086 14.25 8 11.916-.138 17.296-7.535 17.296-7.535z" style="fill-opacity:1;fill:#fff;fill-rule:nonzero" transform="translate(182.857 114.547)"/><path d="M17.317 6.789a25.505 25.505 0 0 0 3.248-3.038C18.283-8.367 11.447-17.21-1.493-17.333c-8.748-.087-16.341 6.64-19.072 16.647 9.94 11.18 24.688 18.106 37.882 7.475z" style="fill-opacity:1;fill:#dfe1ec;fill-rule:nonzero" transform="translate(183.872 104.091)"/><path d="M1.497-10.094c2.806 7.42.732 17.057-7.737 19.242-2.246.58-1.293 4.053.957 3.473C5.004 9.967 8.485-1.75 4.968-11.05c-.813-2.15-4.294-1.219-3.471.956z" style="fill-opacity:1;fill:#57331b;fill-rule:nonzero" transform="translate(212.304 129.607)"/><path d="M14.809.285C15.031-8.676 8.557-16.109.346-16.31-7.861-16.512-14.69-9.408-14.913-.442c-.117 4.762 1.907 8.844 4.827 11.888 6.447 5.066 15.732 4.816 20.322-.684C13 7.89 14.698 4.772 14.809.285z" style="fill-opacity:1;fill:#231f20;fill-rule:nonzero" transform="translate(184.265 121.238)"/><path d="M3.051.662A3.122 3.122 0 1 1-3.05-.666 3.122 3.122 0 0 1 3.05.662z" style="fill-opacity:1;fill:#fff;fill-rule:nonzero" transform="translate(191.092 116.363)"/><path d="M-4.986-9.889S4.688-3.354 9.508 8.531C8.82 8.468 7.41 9.889 7.41 9.889S-4.22-.826-9.508-2.186c.304-2.998 2.871-6.875 4.522-7.703z" style="fill-opacity:1;fill:#fff;fill-rule:nonzero" transform="translate(174.049 102.579)"/><path d="M23.74-2.451C21.763-17.454 12.324-30.968-4.519-28.218c-17.445 2.85-20.32 25.402-15.886 38.98 2.229 6.827 6.409 13.306 12.831 16.789 6.299 3.417 14.908 2.091 20.857-1.432 9.416-5.574 11.556-18.584 10.457-28.57-.251-2.282-3.855-2.306-3.601 0 .822 7.471-.06 15.969-4.848 22.048-3.62 4.597-9.275 6.129-14.89 6.249-7.51.16-12.612-5.951-15.704-12.058-6.122-12.088-5.231-30.231 7.89-37.252 5.931-3.174 14.02-1.409 19.074 2.603 5.471 4.344 7.605 11.782 8.478 18.41.299 2.267 3.904 2.296 3.601 0z" style="fill-opacity:1;fill:#57331b;fill-rule:nonzero" transform="translate(182.223 114.105)"/></g><g><path d="M20.385-4.605c-3.644-13-10.527-22.725-26.327-19.289-9.799 13.858-11.947 24.973-15.332 39.311 2.154 4.177 5.346 7.802 8.463 9.173 0 0 4.944-5.592 12.75-6.79 12.471-1.904 16.922 1.763 16.922 1.763 3.67-7.087 5.684-16.46 3.524-24.168z" style="fill-opacity:1;fill:#7c401f;fill-rule:nonzero" transform="translate(99.986 118.262)"/><path d="M18.773 15.095C21.901 9.047 21.725.499 19.88-6.08 16.596-17.801 9.069-25.987-3.544-24.319-14.668-22.854-21.901-9.799-17.07 4.767c2.706 8.159 3.704 10.536 6.859 14.356 0 0 6.386 6.864 13.05 5.844 10.645-1.629 15.934-9.872 15.934-9.872z" style="fill-opacity:1;fill:#fff;fill-rule:nonzero" transform="translate(98.322 122.311)"/><path d="M-3.996-14.92c-7.232.952-12.815 6.806-14.513 14.786 6.474 8.966 18.495 16.582 29.445 9.836 3.379-2.617 5.581-5.876 7.573-9.249C14.844-9.703 7.56-16.448-3.996-14.92z" style="fill-opacity:1;fill:#dfe1ec;fill-rule:nonzero" transform="translate(98.774 112.912)"/><path d="M13.596-1.654C12.602-9.448 5.82-15.069-1.553-14.202c-7.372.865-12.539 7.886-11.545 15.684.528 4.142 2.882 7.424 5.901 9.692 6.61 3.895 13.545 2.01 17.585-2.235 2.091-2.841 3.705-6.69 3.208-10.593z" style="fill-opacity:1;fill:#231f20;fill-rule:nonzero" transform="translate(101.4 128.014)"/><path d="M2.818.187C2.714 1.691 1.37 2.831-.187 2.726c-1.558-.102-2.734-1.407-2.63-2.915C-2.715-1.696-1.37-2.832.188-2.73c1.558.103 2.733 1.409 2.63 2.917z" style="fill-opacity:1;fill:#fff;fill-rule:nonzero" transform="translate(106.664 123.84)"/><path d="M-5.426-8.932s9.553 5.699 14.76 16.53c-.659-.033-1.928 1.334-1.928 1.334S-3.425-.193-9.333-1.635c.134-2.787 2.378-6.471 3.907-7.297z" style="fill-opacity:1;fill:#fff;fill-rule:nonzero" transform="translate(90.865 111.336)"/><path d="M18.263 15.305c5.896-12.659 2.052-30.985-9.619-39.18-5.066-3.556-12.42-4.037-18.124-1.978-6.108 2.205-9.706 8.305-11.47 14.202-3.209 10.731.548 25.832 9.724 32.732 9.083 6.831 23.842 4.571 29.489-5.776 1.112-2.039-1.996-3.855-3.108-1.817-4.644 8.507-16.128 9.863-23.762 5.042-7.495-4.734-10.089-16.185-9.708-24.347.597-12.753 11.991-21.882 24.145-15.556C16.959-15.58 20.021 3.04 15.155 13.488c-.974 2.09 2.129 3.92 3.108 1.817z" style="fill-opacity:1;fill:#57331b;fill-rule:nonzero" transform="translate(99.764 123.582)"/></g><g><path d="M-11.861 22.044C-13.121 16.586-6.056 6.991.176.211c12.735-13.854 29.109-4.618 29.109-4.618S26.766-24.56 14.171-22.461c-7.465 1.244-5.04 8.396-5.04 8.396s-13.855-5.457-20.712.42c-3.937 3.374 2.824 9.386 2.824 9.386s-8.011.714-11.358 5.759c-3.393 5.109 3.827 6.777 3.827 6.777s-12.997 3.585-7.89 11.247c3.36 5.036 12.317 2.52 12.317 2.52z" style="fill-opacity:1;fill:#80491f;fill-rule:nonzero" transform="translate(86.264 93.491)"/><path d="M-12.059 22.681c-.761-5.356 4.352-11.335 7.396-15.221C-.799 2.529 3.413-1.88 9.546-3.777c5.33-1.647 12.02-.647 16.896 2.04 1.066.586 2.896-.124 2.709-1.555-.879-6.714-3.375-14.047-9.019-18.176-6.738-4.93-17.428.248-14.67 8.997l2.214-2.215c-5.654-2.175-13.357-3.713-19.106-1.156-7.122 3.167-5.515 9.414-.533 13.971l1.274-3.073c-5.319.547-10.822 2.832-13.485 7.693-2.24 4.093 1.885 7.476 5.473 8.38V7.657c-4.734 1.356-10.637 4.543-10.354 10.191.387 7.713 10.1 8.55 15.739 7.047 2.241-.597 1.289-4.07-.957-3.471-3.961 1.055-10.943 1.178-11.224-4.414-.157-3.145 5.357-5.195 7.754-5.881 1.682-.482 1.758-3.03 0-3.472-4.268-1.074-3.223-4.495.035-6.668 1.964-1.31 4.663-2.091 7.019-2.333 1.438-.148 2.54-1.912 1.272-3.073-.999-.913-1.851-1.942-2.608-3.063-3.282-4.86 4.632-5.895 7.328-5.975 3.806-.113 7.867.876 11.416 2.241 1.286.495 2.601-.987 2.214-2.214-.783-2.483-.153-4.849 2.496-5.883 3.946-1.54 7.634.936 9.821 4.027 2.292 3.239 3.928 9.14 4.301 11.992l2.709-1.554c-6.613-3.643-15.581-4.507-22.522-1.39C-.815-3.293-5.263 2.248-9.482 7.879c-3.322 4.431-6.868 9.991-6.049 15.759.326 2.291 3.794 1.313 3.472-.957z" style="fill-opacity:1;fill:#57331b;fill-rule:nonzero" transform="translate(88.198 92.375)"/></g><g><path d="M-24.574 5.963c.577.836 8.377-8.354 18.751-5.983 5.324 1.214 16.408 7.092 21.252 17.596 1.428 3.096 13.99-2.856 12.259-9.619C26.33 2.651 14.946-.72 14.946-.72s7.59-1.971 4.766-5.383C14.601-12.28 3.894-9.967 3.894-9.967s5.648-4.803 2.783-6.786c-5.663-3.919-16.814 3.547-16.814 3.547s4.38-7.428-2.661-5.416C-17.96-17.145-29.419-1.066-24.574 5.963z" style="fill-opacity:1;fill:#80491f;fill-rule:nonzero" transform="translate(186.448 42.199)"/><path d="M-24.416 8.599c1.805.737 4.458-2.082 5.743-2.931 4.705-3.108 9.958-4.21 15.359-2.339 5.091 1.763 9.61 5.267 13.255 9.145 2.152 2.29 3.655 8.23 7.265 8.586 5.979.59 12.981-5.287 13.067-11.285.091-6.35-9.34-9.849-14.212-11.33v3.472c4.771-1.31 8.959-4.774 4.709-9.299-3.973-4.231-11.413-4.5-16.718-3.419l1.751 3.008c3.823-3.341 6.237-8.363.236-10.621-5.15-1.937-12.249 1.791-16.449 4.555l2.463 2.463c1.216-2.123 2.081-4.524 1.077-6.87-1.448-3.384-7.059-.923-8.911.585-6.311 5.136-14.583 17.174-9.711 25.453 1.177 1.998 4.289.188 3.109-1.818-3.11-5.283 1.881-12.806 5.071-16.934 1.435-1.857 3.357-4.178 5.629-5.006 2.946-1.074 1.431 1.369.628 2.772-.864 1.509.91 3.485 2.463 2.463 2.297-1.512 4.795-2.71 7.388-3.615.707-.247 8.572-1.856 7.135 1.001-.583 1.159-1.703 2.178-2.674 3.026-1.458 1.274.12 3.341 1.752 3.008 2.529-.515 5.214-.467 7.748-.047.963.16 7.927 2.685 5.708 4.373-.956.728-2.212 1.134-3.361 1.45-1.751.481-1.686 2.96 0 3.472 4.67 1.42 15.07 5.426 10.077 11.612-.557.691-6.549 5.461-7.561 4.04C14.91 13.765 13.064 10.225 9.504 7 4.689 2.639-1.546-.756-8.077-1.301c-3.305-.276-6.624.9-9.572 2.25-1.552.711-2.986 1.685-4.385 2.654-1.038.721-2.442 1.11-1.425 1.525-2.15-.878-3.076 2.605-.957 3.471z" style="fill-opacity:1;fill:#57331b;fill-rule:nonzero" transform="translate(185.812 41.298)"/></g><g><path d="M6.696 24.798C2.434 19.559.086 12.049-1.683 5.675c-2.801-10.089-3.255-21.856 3.591-30.46 1.43-1.797-1.1-4.362-2.545-2.546-7.268 9.135-7.51 20.585-5.112 31.573 1.692 7.753 4.805 16.839 9.899 23.102 1.466 1.802 3.997-.762 2.546-2.546z" style="fill-opacity:1;fill:#57331b;fill-rule:nonzero" transform="translate(121.303 37.479)"/><path d="M3.226 22.94C-3.535 8.754-2.876-10.018 5.885-23.116c1.295-1.936-1.825-3.736-3.108-1.817C-6.731-10.717-7.18 9.444.118 24.757c.998 2.095 4.101.267 3.108-1.817z" style="fill-opacity:1;fill:#57331b;fill-rule:nonzero" transform="translate(132.901 36.91)"/><path d="M-1.031 18.199C-3.509 4.821-4.395-7.082 6.219-17.283c1.676-1.611-.873-4.154-2.546-2.546C-7.896-8.709-7.221 4.473-4.503 19.156c.423 2.281 3.892 1.312 3.472-.957z" style="fill-opacity:1;fill:#57331b;fill-rule:nonzero" transform="translate(146.513 39.287)"/></g><g><path d="M35.183 11.985S51.043 5.834 49.857-.623C47.657-12.519 23.098-26.064-.519-24.54-25.494-22.933-43.594-4.22-47.32 4.02c-3.724 8.24 6.868 11.857 12.452 13.655 4.362 1.408 33.423 8.389 70.051-5.69z" style="fill-opacity:1;fill:#8f5123;fill-rule:nonzero" transform="rotate(-2 4885.383 -3005.567)"/><path d="M26.285.466C26.419 5.095 14.893 7.862.334 8.288c-14.567.425-26.482-2.983-26.616-7.612-.137-4.629 11.556-8.877 26.123-9.152 12.615-.237 26.31 4.313 26.444 8.942z" style="fill-opacity:1;fill:#a6632a;fill-rule:nonzero" transform="rotate(-2 4435.6 -3158.606)"/><path d="M34.833 16.965c4.269-1.681 8.338-3.864 11.936-6.718 4.876-3.869 4.765-8.574 1.645-13.562-4.192-6.701-12.009-11.072-19.01-14.168-9.12-4.034-19.154-5.9-29.103-5.693-17.065.355-33.697 9.356-44.842 22.016-3.36 3.817-7.105 8.678-5.828 14.043 1.375 5.775 9.343 8.197 14.19 9.777 2.213.722 3.154-2.755.957-3.471-4.59-1.496-13.111-3.962-11.627-10.297.933-3.981 4.953-7.767 7.688-10.547 9.982-10.144 23.626-16.713 37.814-17.838 14.99-1.189 32.28 3.896 43.41 14.217 2.022 1.875 3.763 4.132 4.773 6.711 1.087 2.773-.635 4.537-2.613 6.267-2.897 2.535-6.781 4.388-10.347 5.791-2.134.841-1.206 4.323.957 3.472z" style="fill-opacity:1;fill:#57331b;fill-rule:nonzero" transform="rotate(-2 4808.03 -3029.49)"/><path d="M9.467 5.84S9.382.88 6.776-2.892C2.862-8.548-4.775-10.058-7.547-7.483-9.467-5.693.925 10.057 9.467 5.84z" style="fill-opacity:1;fill:#6d3a18;fill-rule:nonzero" transform="rotate(-2 5140.399 -2521.444)"/><path d="M-8.062 9.271s-2.061-3.704.041-7.771C-5.384-3.604 3.776-9.271 8.305-6.353 10.123-5.187 2.998 8.977-8.062 9.271z" style="fill-opacity:1;fill:#6d3a18;fill-rule:nonzero" transform="rotate(-2 4965.84 -3621.278)"/><path d="M10.704 8.088C10.4-1.918 1.634-10.411-8.588-6.969c-2.187.737-1.249 4.214.958 3.472C.287-6.164 6.868.304 7.104 8.088c.071 2.316 3.671 2.323 3.6 0z" style="fill-opacity:1;fill:#57331b;fill-rule:nonzero" transform="rotate(-2 5055.491 -2523.457)"/><path d="M10.857-9.362C1.501-10.97-13.141-1.881-7.538 8.91c1.071 2.06 4.176.238 3.108-1.819C-8.408-.569 3.713-6.954 9.9-5.89c2.27.39 3.242-3.079.957-3.472z" style="fill-opacity:1;fill:#57331b;fill-rule:nonzero" transform="rotate(-2 4982.997 -3549.456)"/><path d="M6.937-.436C7.103 1.99 4.132 4.149.296 4.39c-3.831.241-7.071-1.526-7.235-3.951C-7.103-1.985-4.13-4.149-.294-4.39c3.829-.241 7.072 1.527 7.231 3.954z" style="fill-opacity:1;fill:#ffe2a9;fill-rule:nonzero" transform="rotate(-2 4401.005 -3126.283)"/><path d="M4.663.739C4.505 2.361 2.29 3.344-.281 2.937-2.86 2.529-4.819.886-4.661-.732c.155-1.625 2.365-2.611 4.946-2.202C2.859-2.524 4.819-.88 4.663.739z" style="fill-opacity:1;fill:#ffe2a9;fill-rule:nonzero" transform="rotate(-2 4406.903 -3587.882)"/></g><g><path d="M-56.998 18.318C-39.375 28.347-12.953 48.949 7.77 51.031c23.647 2.369 37.713-16.37 51.014-36.294 4.85-6.924 11.667-29.431 12.841-38.702 1.387-10.952-20.016-23.663-30.363-25.316-10.346-1.651-23.199-4.119-26.391 10.123C13.693-33.9 6.779-26.627 2.83-24.406c-11.105 7.078-23.412.656-34.976-4-9.265-3.945-27.774-11.381-36.852 9.989-2.344 5.511-4.014 27.624 12 36.735z" style="fill-opacity:1;fill:#a86728;fill-rule:nonzero" transform="rotate(26 -460.569 844.287) scale(.8)"/><path d="M-10.995.109C1.999 2.546 18.95 11.577 31.823 5.243c-9.448 2.303-19.48-2.724-29.007-6.56-8.567-3.647-25.03-10.26-34.64 5.653C-25.838.338-18.165-1.325-10.995.109z" style="fill-opacity:1;fill:#f9cc74;fill-rule:nonzero" transform="rotate(26 -399.648 794.548) scale(.8)"/><path d="M34.952-16.135c1.387-10.952-20.016-23.664-30.363-25.317-10.347-1.651-23.2-4.119-26.391 10.124-1.178 5.257-8.092 12.53-12.04 14.751-4.054 2.585 1.543 59.759 30.21 59.093 8.077 1.469 14-4.666 20.399-12.592a110.09 110.09 0 0 0 5.344-7.357c4.849-6.924 11.668-29.431 12.841-38.702z" style="fill-opacity:1;fill:#7c401f;fill-rule:nonzero" transform="rotate(26 -461.675 910.963) scale(.8)"/><path d="M-40.022 10.707c3.643-9.041 10.293-14.05 20.133-13.154C-12.637-1.786-5.64 1.874.987 4.597c9.875 4.057 20.196 6.881 29.995 1.194 5.419-3.144 13.379-9.274 12.931-16.304-.147-2.305-3.747-2.319-3.599 0 .282 4.429-4.278 8.069-7.379 10.619-4.449 3.661-9.565 5.605-15.358 5.432C7.82 5.247-1.333-.633-10.354-3.83c-5.952-2.108-12.387-3.153-18.584-1.56-7.41 1.905-11.856 8.442-14.555 15.14-.868 2.155 2.616 3.082 3.471.957z" style="fill-opacity:1;fill:#57331b;fill-rule:nonzero" transform="rotate(26 -400.575 808.31) scale(.8)"/><path d="M-64.776.806c25.681 13.653 56.679 44.526 87.75 28.579 13.502-6.929 23.584-21.499 31.32-34.099 3.511-5.716 5.609-12.536 7.641-18.875 2.025-6.32 3.844-12.834 4.621-19.44.272-2.303-3.332-2.277-3.6 0-1.41 11.976-5.651 25.148-11.344 35.753-3.538 6.593-8.559 12.879-13.293 18.637-4.855 5.905-10.449 11.191-17.161 14.916-14.546 8.074-30.431 2.528-44.046-4.564-13.83-7.204-26.312-16.7-40.073-24.016-2.047-1.089-3.866 2.018-1.815 3.109z" style="fill-opacity:1;fill:#57331b;fill-rule:nonzero" transform="rotate(26 -496.884 848.329) scale(.8)"/><path d="M-1.228 12.468c7.427 2.707 13.998-.681 14.677-7.562.677-6.889-4.79-14.661-12.217-17.374-7.434-2.707-14.004.68-14.681 7.563-.677 6.888 4.796 14.66 12.221 17.373z" style="fill-opacity:1;fill:#925624;fill-rule:nonzero" transform="rotate(26 -493.177 804.811) scale(.8)"/><path d="M-7.72-5.429c-1.483 3.188.771 8.208 5.036 11.206C1.578 8.78 6.239 8.625 7.721 5.428 9.203 2.234 6.95-2.783 2.685-5.783-1.578-8.78-6.234-8.626-7.72-5.429z" style="fill-opacity:1;fill:#925624;fill-rule:nonzero" transform="rotate(26 -461.813 758.93) scale(.8)"/><path d="M-2.884 4.784c2.973 2.719 6.671 2.789 8.263.149 1.596-2.644.476-6.993-2.496-9.72-2.976-2.717-6.673-2.786-8.268-.149-1.59 2.649-.472 6.993 2.501 9.72z" style="fill-opacity:1;fill:#925624;fill-rule:nonzero" transform="rotate(26 -493.94 842.83) scale(.8)"/><path d="M-3.616 7.524c5.332 4.056 11.271 3.977 13.27-.178C11.65 3.194 8.947-3.471 3.617-7.523c-5.336-4.057-11.269-3.981-13.271.17-1.997 4.155.706 10.815 6.038 14.877z" style="fill-opacity:1;fill:#925624;fill-rule:nonzero" transform="rotate(26 -534.336 846.491) scale(.8)"/></g><g><path d="M55.412-30.356c.605 8.834-4.793 21.131-2.889 30.279 1.35 8.209 3.201 12.834 1.832 21.196-1.369 8.361-3.738 18.481-11.23 23.186-9.08 6.123-21.764 12.047-32.467 14.767C.262 61.811-4.846 56.102-11.07 48.826c-4.524-5.379-12.784-8.549-14.172-16.161-1.418-7.011 1.086-14.101.884-21.345C-24.973.74-33.365-.034-39.309-6.991c-16.707-19.31 8.047-36.318 24.401-43.24 10.82-4.826 23.285-8.729 35.453-8.881 13.269-.166 32.697-2.699 34.867 28.756z" style="fill-opacity:1;fill:#a86728;fill-rule:nonzero" transform="matrix(.7 0 0 .7 350.024 302.941)"/><path d="M40.395-36.865c-.485-7.032-1.837-12.355-3.785-16.396-4.365 21.096-10.184 29.977-10.184 54.693 0 19.333-26 34.666-47.334 30-6.831 0-13.66-2.336-19.535-6.364l.184 1.088c1.388 7.612 9.648 10.782 14.172 16.161 6.224 7.276 11.332 12.985 21.728 10.246 10.703-2.72 23.387-8.644 32.467-14.767 7.492-4.705 9.861-14.825 11.23-23.186 1.369-8.362-.482-12.987-1.832-21.196-1.904-9.148 3.494-21.445 2.889-30.279z" style="fill-opacity:1;fill:#7c401f;fill-rule:nonzero" transform="matrix(.7 0 0 .7 360.536 307.498)"/><path d="M21.443-23.275C9.275-23.123-3.19-19.22-14.01-14.394-29.221-7.957-51.691 7.207-41.318 24.832-43.208 8.407-30.556-2.851-11.105-9.06c30.213-10.346 52.838-8.34 62.795-3.447-7.033-12.325-20.351-10.891-30.247-10.768z" style="fill-opacity:1;fill:#ecb445;fill-rule:nonzero" transform="matrix(.7 0 0 .7 349.395 277.855)"/><path d="M-20.172 40.082c2.104-5.309 3.499-4.17 1.136-6.648-3.705-3.884-5.755-8.265-6.467-12.77-1.104-9.209 9.041-23.53 35.653-23.99C28.496-3.643 21.916 7.762 17.344 15.3c-3.587 6.263-8.546 11.022-9.592 15.787" style="fill-opacity:1;fill:#a86728;fill-rule:nonzero" transform="matrix(.7 0 0 .7 353.967 238.888)"/><path d="M13.616 5.826c-26.612.457-36.757 14.78-35.653 23.99.652 4.12 2.438 8.133 5.57 11.761-1.838-11.712.932-26.111 24.022-33.66 6.478-1.917 12.193-.922 15.703.341.477.172 1.351.55 1.351.55-1.584-1.902-4.917-3.086-10.993-2.982z" style="fill-opacity:1;fill:#ecb445;fill-rule:nonzero" transform="matrix(.7 0 0 .7 351.54 232.481)"/><path d="M48.638-31.871c.229 6.203-1.51 12.27-2.553 18.34-1.054 6.138-.495 11.558.701 17.617 2.52 12.755 1.057 30.132-10.803 37.981-5.819 3.851-12.152 6.981-18.583 9.66-6.132 2.554-13.788 5.936-20.482 4.161-5.33-1.414-9.043-6.91-12.524-10.779-4.106-4.562-10.325-7.03-12.556-13.139-2.45-6.712.626-15.236.636-22.167.007-4.542-2.084-8.776-5.596-11.441-2.98-2.261-7.777-5.174-11.482-10.177-3.851-5.2-4.323-11.39-1.566-17.149 4.639-9.685 15.787-15.973 25.116-20.312 12.623-5.872 25.629-9.291 39.554-9.61 6.263-.143 12.758-.208 18.481 2.699 8.781 4.459 10.944 15.431 11.657 24.316.184 2.298 3.785 2.316 3.6 0-.72-8.985-2.645-18.539-9.654-24.814-4.875-4.365-11.542-5.567-17.864-5.817-21.657-.858-44.188 5.581-61.779 18.407-7.206 5.254-13.766 12.416-14.557 21.66-.853 9.965 7.426 17.022 14.612 22.28 11.886 8.696.867 24.302 6.556 35.866 2.137 4.341 6.879 7.171 10.446 10.194 4.091 3.467 6.977 8.001 11.36 11.203 8.557 6.252 20.031.993 28.553-2.558 9.903-4.124 21.663-9.189 26.844-19.143 4.811-9.24 5.714-20.646 3.814-30.705C49.21-2.49 48.754-8.367 50.1-15.611c1-5.385 2.343-10.744 2.138-16.26-.086-2.314-3.686-2.323-3.6 0z" style="fill-opacity:1;fill:#57331b;fill-rule:nonzero" transform="matrix(.7 0 0 .7 354.05 303.512)"/><path d="M-15.581 38.04c2.628-7.916 2.165-6.082-.844-9.982-3.201-4.149-4.93-8.982-4.031-13.793C-19.077 6.887-10.96-1.365 4.283-3.91c7.197-1.201 15.866-1.303 18.349 2.412 2.063 3.087-.361 7.322-2.131 10.651-1.858 3.492-4.223 6.944-5.622 10.46-1.61 4.046-5.969 4.977-6.067 8.953-.057 2.32 3.635 2.323 3.599 0-.13-8.364 5.138-6.642 7.493-11.423 2.075-4.213 5.093-8.356 6.595-12.596 1.129-3.186 1.269-6.538-2.014-9C20.679-7.307 11.964-6.88 5.423-6.107-9.787-4.309-19.379 3.17-23.048 10.43c-2.086 4.127-1.836 8.101-.606 11.983.831 2.621 2.292 5.12 4.136 7.511 2.547 3.302 2.705.415.466 7.16-.733 2.209 2.743 3.148 3.471.956z" style="fill-opacity:1;fill:#57331b;fill-rule:nonzero" transform="matrix(.7 0 0 .7 352.513 240.163)"/><path d="M378.114 207.366c-3.571.179-27.857 6.875-31.429 15.625-.859 2.104 3.108 8.91 5.536 3.482 3.036-6.786 27.857-16.964 27.857-16.964s1.607-2.322-1.964-2.143zM377.935 254.152c-3.571.179-13.66 1.428-17.232 10.178-.859 2.104 1.411 7.928 3.839 2.5 3.036-6.786 15.357-10.536 15.357-10.536s1.607-2.321-1.964-2.142z" style="fill-opacity:1;fill:#57331b;fill-rule:nonzero" transform="matrix(.7 0 0 .7 86.2 146.8)"/></g></svg>