<?xml version="1.0" standalone="no"?>
<!DOCTYPE svg PUBLIC "-//W3C//DTD SVG 1.0//EN" "http://www.w3.org/TR/2001/REC-SVG-20010904/DTD/svg10.dtd">
<svg xmlns="http://www.w3.org/2000/svg" xmlns:xlink="http://www.w3.org/1999/xlink" id="body_1" width="128" height="128">

<g transform="matrix(0.25 0 0 0.25 0 0)">
	<g>
        <path transform="matrix(1 0 0 1 438.025 412.584)"  d="M-22.576 43.954C 13.571 39.619 23.5 26.73 32.289 14.924C 38.117 7.0909996 40.492 -8.314001 29.382002 -14.6380005C 22.719002 -18.428001 23.619001 0.33399963 14.463002 4.9349995C 8.789002 7.7909994 14.223002 -3.684001 19.041002 -19.343C 23.863003 -35.004 11.420002 -45.683 4.1880026 -45.488C -3.0449972 -45.293 1.9750025 -29.584 1.9750025 -29.584L1.9750025 -29.584L2.0180025 -28.47C 0.74 -35.229 -7.627 -42.053 -14.845 -40.751C -25.558 -38.82 -4.9470005 -25.147 -12.7300005 8.778999C -15.906 22.631 -23.181 34.985 -37.431 37.69C -37.431 37.69 -40.492 40.028 -33.864998 43.709C -30.313997 45.683 -22.575998 43.954 -22.575998 43.954L-22.575998 43.954L-22.576 43.954z" stroke="none" fill="#B9772B" fill-rule="nonzero" />
        <path transform="matrix(1 0 0 1 418.959 413.207)"  d="M7.041 -32.207C 5.821 -35.867 7.2079997 -39.523003 9.836 -40.913002C 7.9800005 -41.504 6.064 -41.706 4.2220006 -41.374C -6.491999 -39.443 14.119001 -25.77 6.3360004 8.155998C 3.16 22.008 -4.115 34.362 -18.365 37.067C -18.365 37.067 -20.664 38.832 -16.933 41.706C 13.373 32.461 20.664 -3.359 7.041 -32.207z" stroke="none" fill="#ECB445" fill-rule="nonzero" />
        <path transform="matrix(1 0 0 1 420.402 410.516)"  d="M-19.329 41.493C 6.239 35.978 11.847 2.43 6.682 -19.201C 6.1860003 -21.279 -0.16299963 -35.343002 1.9440002 -36.583C 8.294001 -40.322 16.587 -31.205 17.905 -25.923C 19.524 -19.435001 17.487001 -14.562 16.041 -8.434999C 15.508 -6.1769996 18.979 -5.2189994 19.512001 -7.4779997C 20.801 -12.933 22.555 -17.321999 21.971 -23.055C 21.244001 -30.182 17.727001 -35.527 11.397 -38.939C 5.752 -41.981 -3.9 -41.302 -1.755 -33.068C -0.778 -29.320002 0.9610001 -25.751001 2.139 -22.062C 4.251 -15.442 5.0629997 -8.597 4.833 -1.6639996C 4.293 14.66 -2.5349998 34.194 -20.286 38.023003C -22.555 38.513004 -21.592999 41.981003 -19.328999 41.493004L-19.328999 41.493004L-19.329 41.493z" stroke="none" fill="#57331B" fill-rule="nonzero" />
        <path transform="matrix(1 0 0 1 445.396 410.365)"  d="M-3.66 -27.844C -4.8970003 -31.794 -7.9730005 -43.048 -0.6500001 -41.077C 3.454 -39.973 6.677 -36.378 8.732 -32.855C 12.271 -26.785 10.778 -20.187 8.773001 -13.93C 7.067 -8.611 5.074 -3.376 3.568 2.006C 2.999 4.039 2.14 7.05 3.901 8.739C 8.207001 12.872 14.318 1.9940004 15.422 -0.6409998C 16.741 -3.791 17.612999 -7.2159996 19.346 -10.172999C 21.776001 -14.32 27.173 -3.6339993 27.646 -1.7329998C 29.82 7.024 24.65 14.976999 19.367 21.358C 7.027 36.263 -11.572 41.27 -30.107 43.591C -32.379 43.875 -32.407 47.478 -30.107 47.19C -11.156 44.817997 7.8029995 39.880997 20.881998 25.110998C 26.043999 19.280998 30.340998 13.085999 31.404 5.187998C 32.406 -2.2500024 29.393 -12.241003 21.324 -14.6100025C 15.434999 -16.338003 13.2039995 -4.4190025 11.714 -1.0960026C 10.823 0.8909974 9.677 2.6939974 8.1449995 4.2449975C 5.6439996 6.7769976 6.4479995 5.3029976 7.0379996 2.9629974C 8.712999 -3.6780024 11.365 -10.111003 13.405 -16.645002C 16.257 -25.773003 13.469 -35.572002 5.961 -41.533005C 1.6729999 -44.937004 -6.006 -47.478004 -8.431999 -40.826004C -9.943999 -36.684006 -8.397999 -30.925003 -7.131999 -26.886005C -6.439999 -24.679005 -2.9639988 -25.622005 -3.6599991 -27.844006L-3.6599991 -27.844006L-3.66 -27.844z" stroke="none" fill="#57331B" fill-rule="nonzero" />
	</g>
	<g>
        <path transform="matrix(1 0 0 1 72.104 403.63)"  d="M20.386 -96.473C -22.205 -93.637 -2.235 4.94 -6.183 19.454C -13.438 46.120003 -48.715 36.799 -59.084 41.264C -65.687 44.114 -68.491 48.778 -55.732 54.346C -48.964996 57.298 -43.731 56.656002 -42.902 58.436C -39.438 65.88 -62.661003 61.702 -56.984 70.49C -50.438 80.613 -33.645 78.765 -24.673 74.641C -17.637001 71.414 -15.562 72.669 -13.859 74.889C -12.154 77.109 -32.952 84.358 -15.212 92.053C -4.276 96.789 38.102997 95.862 55.386 72.457C 68.491 54.711 67.219 30.677002 61.748 20.365002C 39.482 -21.574 41.017 -21.453 35.24 -46.648C 31.027 -65.02 25.161 -96.79 20.386 -96.473z" stroke="none" fill="#A86728" fill-rule="nonzero" />
        <path transform="matrix(1 0 0 1 93.732 403.294)"  d="M40.12 20.701C 17.854 -21.237 19.39 -21.118 13.613 -46.313C 10.872 -58.264 4.179 -83.901 0.793 -94.671C -28.908 -80.675 7.819 30.247 11.28 54.588C 15.291 82.797 -15.995 87.242004 -43.817 84.355C -44.649002 86.825005 -43.323 89.576004 -36.84 92.38901C -25.904 97.12501 16.474998 96.198006 33.758 72.79301C 46.863 55.047005 45.592 31.014008 40.12 20.701008L40.12 20.701008L40.12 20.701z" stroke="none" fill="#7C401F" fill-rule="nonzero" />
        <path transform="matrix(1 0 0 1 49.138 379.336)"  d="M16.321 56.777C 26.618 45.059 22.592 29.717001 22.681 15.121002C 21.846 -13.359999 14.447 -59.740997 41.586998 -71.994995C 1.581 -66.538 20.676 29.438 16.784 43.747C 9.529 70.413 -25.748 61.093 -36.117 65.558C -38.955 66.783 -41.085 68.341995 -41.587 70.165C -24.737001 68.208 4.7129974 71.994 16.321 56.777z" stroke="none" fill="#ECB445" fill-rule="nonzero" />
        <path transform="matrix(1 0 0 1 71.081 403.481)"  d="M21.41 -98.124C -9.046 -95.653 -8.571 -51.858 -8.234 -29.811C -8.021 -15.892001 -6.5820003 -2.0180016 -6.4100003 11.896999C -6.3360004 17.924 -7.419 23.14 -11.377001 28.029C -16.967001 34.934998 -26.529001 36.777 -34.889 37.527C -40.614 38.04 -70.611 36.269 -64.718 49.483C -62.971 53.401 -57.120003 55.454002 -53.529003 56.897003C -50.961002 57.930004 -48.182003 58.397003 -45.479004 58.922005C -43.684006 59.271004 -42.443005 60.054005 -44.710003 60.988007C -48.353004 62.489006 -57.112003 62.016006 -58.443 66.87001C -60.461002 74.23801 -48.927002 78.76701 -43.628002 79.57901C -39.258003 80.24901 -34.802002 79.78801 -30.499002 78.91701C -26.683002 78.145004 -18.206001 72.71701 -15.012002 75.297005C -13.945002 76.159004 -14.621002 75.05701 -14.621002 75.05701C -14.981002 75.449005 -15.433002 75.77501 -15.846003 76.10701C -16.953003 76.99701 -18.098003 77.83201 -19.186003 78.74501C -21.316002 80.53401 -23.095003 82.77401 -23.193003 85.64501C -23.409002 92.00901 -13.415003 94.72501 -8.548002 95.52201C 8.472998 98.31201 27.88 94.73501 42.933 86.487015C 62.161 75.95101 70.611 53.366016 67.994995 32.246014C 66.66599 21.523014 60.520996 12.516014 55.676994 3.0880127C 51.731995 -4.5879874 47.806995 -12.335987 44.814995 -20.441988C 39.409996 -35.08799 37.112995 -51.13199 33.744995 -66.31199C 32.026997 -74.05799 30.290995 -81.85199 27.758995 -89.37799C 26.765995 -92.33099 25.240995 -97.85899 21.409996 -98.12399C 19.091995 -98.284 19.106997 -94.68399 21.409996 -94.523994C 22.748997 -94.43199 24.537996 -87.686 24.923996 -86.489C 26.582996 -81.340996 27.813995 -76.048 29.041996 -70.784C 31.413996 -60.618996 33.567997 -50.398994 35.838997 -40.211C 38.838997 -26.751 42.911995 -14.543999 49.017 -2.1369972C 54.025 8.042 61.39 18.177 63.874 29.314C 66.525 41.204 64.332 54.332 58.941 65.126C 49.06 84.908 25.367 91.87 4.785 92.639C -2.678 92.918 -10.6 92.619 -17.117 88.624C -25.197 83.672 -11.227001 80.071 -10.955 75.481C -10.832 73.39101 -13.349 71.916 -15.011 71.283005C -19.119999 69.72101 -24.379 73.341 -28.09 74.559006C -33.118 76.20801 -38.634 76.727005 -43.864998 75.925C -45.669 75.648 -58.281 70.214005 -54.542 67.50101C -50.401 64.49501 -43.385002 66.59301 -40.215 61.884007C -39.192 60.362007 -39.778 57.63801 -41.266 56.633007C -42.551 55.765007 -44.091 55.534008 -45.588997 55.244007C -49.646996 54.45601 -53.328995 53.273006 -57.031 51.375008C -58.773 50.482006 -63.246998 48.04701 -61.241997 45.55201C -60.164997 44.21101 -58.177 43.32101 -56.588997 42.784008C -53.600998 41.77401 -50.204998 41.81701 -47.090996 41.695007C -39.213997 41.384007 -31.320995 41.284008 -23.640995 39.301006C -11.306995 36.115005 -2.9719944 26.313007 -2.8089943 13.551006C -2.6489942 1.0700064 -4.0719943 -11.4509945 -4.487994 -23.920994C -4.9929943 -39.072994 -4.9739943 -54.650993 -1.3909943 -69.467995C 1.475 -81.323 7.963 -93.434 21.41 -94.524C 23.707 -94.711 23.725 -98.312004 21.41 -98.124z" stroke="none" fill="#57331B" fill-rule="nonzero" />
        <path transform="matrix(1 0 0 1 89.518 436.395)"  d="M-9.531 1.617C -8.517 9.059 -3.4250002 14.37 1.835 13.476999C 7.101 12.584 10.542 5.8299994 9.530001 -1.6130009C 8.512 -9.061 3.421 -14.37 -1.839 -13.477C -7.1029997 -12.582001 -10.542 -5.8230004 -9.531 1.6169996L-9.531 1.6169996L-9.531 1.617z" stroke="none" fill="#925624" fill-rule="nonzero" />
        <path transform="matrix(1 0 0 1 78.718 373.042)"  d="M0.771 -8.311C -1.929 -8.978 -4.466 -5.7959995 -4.8910003 -1.2069998C -5.3190002 3.3820004 -3.4730003 7.6470003 -0.7680001 8.312C 1.935 8.977 4.4709997 5.7980003 4.896 1.2070003C 5.319 -3.383 3.4759998 -7.6419997 0.7709999 -8.310999L0.7709999 -8.310999L0.771 -8.311z" stroke="none" fill="#925624" fill-rule="nonzero" />
        <path transform="matrix(1 0 0 1 76.652 423.19)"  d="M0.564 -6.429C -1.525 -6.955 -3.4719996 -4.502 -3.784 -0.95099974C -4.097 2.5980003 -2.655 5.906 -0.56299996 6.4300003C 1.5280001 6.9550004 3.476 4.504 3.7879999 0.95200014C 4.0969996 -2.599 2.6569998 -5.901 0.5639999 -6.429L0.5639999 -6.429L0.564 -6.429z" stroke="none" fill="#925624" fill-rule="nonzero" />
        <path transform="matrix(1 0 0 1 82.622 401.185)"  d="M-6.594 -0.715C -6.465 5.138 -3.411 10.201 0.23 10.598C 3.868 10.993 6.719 6.5679994 6.59 0.71899986C 6.46 -5.137 3.4110003 -10.198 -0.22899961 -10.599C -3.8699996 -10.994 -6.7189994 -6.569 -6.5939994 -0.71500015L-6.5939994 -0.71500015L-6.594 -0.715z" stroke="none" fill="#925624" fill-rule="nonzero" />
	</g>
	<g>
        <path transform="matrix(1 0 0 1 237.095 269.553)"  d="M182.552 187.459C 177.632 172.771 166.59601 148.099 151.701 130.012C 136.807 111.92899 116.425 93.31099 111.106 85.864C 105.787 78.416 102.79401 73.417 94.340004 41.715C 89.602 23.947 83.841 7.687 78.188 -6.228C 66.07001 -36.051 56.408005 -55.271 56.408005 -55.271C 32.811005 -119.321 9.249004 -160.326 -16.069992 -184.495C -39.73099 -207.082 -44.32299 -207.239 -62.129993 -212.54199C -81.508995 -218.31299 -127.55699 -207.22299 -140.855 -182.22499C -140.855 -182.22499 -154.685 -155.62799 -160.00299 -123.71299C -162.20499 -110.50099 -183.43199 -88.468994 -185.71399 -75.53399C -188.956 -57.13899 -185.883 -40.42699 -180.39499 -25.00299C -176.32498 -13.562991 -170.37099 -0.35999107 -163.37299 3.7220097C -160.18 5.5850096 -150.97798 5.5610094 -150.97798 5.5610094C -150.97798 5.5610094 -143.73099 47.32201 -141.91898 66.18401C -139.25897 93.84201 -132.87598 136.927 -105.21797 169.90501C -77.558975 202.88501 -31.27797 212.99101 9.1480255 215.65302C 49.573025 218.31302 88.40402 210.86502 115.00002 206.07701C 141.59702 201.29001 158.61502 198.23001 169.78603 200.62401C 169.78603 200.62401 188.95602 206.57501 182.55203 187.45901L182.55203 187.45901L182.552 187.459z" stroke="none" fill="#B9772B" fill-rule="nonzero" />
        <path transform="matrix(1 0 0 1 259.391 400.928)"  d="M-43.724 62.738C -145.057 43.405 -151.724 -33.261 -161.487 -81.44401C -162.44 -83.34901 -163.857 -85.24701 -165.609 -86.936005C -165.202 -78.457 -164.732 -70.590004 -164.21399 -65.192C -161.55399 -37.533 -155.17099 5.550995 -127.512985 38.53C -99.85399 71.509995 -53.572983 81.615 -13.146988 84.277C 27.277012 86.936 66.362015 80.735 92.70501 74.702C 144.94301 62.739002 158.94301 78.07201 161.60901 65.406006C 161.60901 65.406006 165.60901 40.738007 135.60901 41.405006C 97.377014 42.255005 -2.4129944 70.62001 -43.723984 62.738007L-43.723984 62.738007L-43.724 62.738z" stroke="none" fill="#9F6127" fill-rule="nonzero" />
        <path transform="matrix(1 0 0 1 283.109 246.869)"  d="M-16.225 -79.002C 5.62 -26.127 6.075 -28.368 26.408 25.563C 46.908 73.063 44.948 98.884 58.15 112.088C 90.737 144.394 113.212006 166.587 130.629 195.803C 124.936 183.68199 113.743 162.687 104.70599 151.71399C 89.81099 133.63098 69.42899 115.012985 64.11099 107.56499C 58.791992 100.11799 55.796993 95.11899 47.343994 63.41699C 32.45 7.563 9.55 -34.273 9.55 -34.273C -9.552 -86.244 -37.328 -138.205 -62.646 -162.374C -82.8 -181.61299 -105.346 -195.803 -130.628 -190.46599C -86.80501 -190.747 -40.911003 -138.75398 -16.225006 -79.00199L-16.225006 -79.00199L-16.225 -79.002z" stroke="none" fill="#F9CC74" fill-rule="nonzero" />
        <path transform="matrix(1 0 0 1 235.597 271.421)"  d="M171.119 197.661C 149.64 194.741 127.586 200.40999 106.559006 204.179C 77.44501 209.395 48.093006 213.307 18.448006 212.377C -6.892994 211.582 -32.671993 207.62 -56.40499 198.496C -81.70499 188.77 -101.65199 171.718 -115.246994 148.292C -130.42099 122.142006 -135.736 92.13801 -138.805 62.48201C -140.85999 42.63201 -144.33699 22.87001 -147.74399 3.2140083C -147.87898 2.4340084 -148.73799 1.8930084 -149.47998 1.8920083C -152.94798 1.8860083 -156.47697 1.6740084 -159.83398 0.76600826C -165.60698 -0.7919917 -169.35199 -9.366992 -171.74898 -14.192991C -178.33498 -27.449991 -182.59798 -42.41099 -183.59097 -57.174988C -184.06497 -64.20099 -183.83698 -71.82599 -182.07797 -78.66099C -180.79797 -83.63599 -177.70897 -88.24499 -175.00197 -92.53899C -169.42697 -101.38099 -162.52597 -109.792984 -158.51697 -119.52299C -156.39597 -124.67099 -155.87796 -130.29898 -154.66797 -135.706C -153.10197 -142.70499 -151.06396 -149.595 -148.79697 -156.396C -145.94997 -164.93399 -142.58896 -173.336 -138.67096 -181.44C -130.70596 -197.908 -112.05596 -206.493 -95.25596 -210.992C -86.20196 -213.417 -76.64196 -214.683 -67.27696 -213.848C -59.95896 -213.19601 -51.99396 -210.37901 -45.283962 -207.436C -36.690964 -203.667 -29.533962 -197.196 -22.675962 -190.948C -13.742963 -182.80899 -5.823963 -174.108 1.3040371 -164.339C 17.967037 -141.505 30.991037 -115.929 42.604034 -90.23601C 45.853035 -83.048004 48.931034 -75.783005 51.902035 -68.476006C 53.805035 -63.796005 55.170036 -58.448006 57.603035 -54.033005C 59.630035 -50.357006 61.497036 -46.590004 63.334034 -42.817005C 73.555 -21.818 81.955 0.075 88.917 22.356C 93.063 35.63 96.229 49.182 100.447 62.434C 102.373 68.484 104.546 74.552 107.795 80.034C 111.111 85.63 115.519 90.363 119.99 95.047C 129.232 104.729996 138.712 114.173996 147.54 124.244995C 163.67899 142.655 176.22499 164.982 183.12299 188.51099C 184.67699 193.81099 183.09999 197.07199 177.39899 197.71498C 175.18098 197.96498 172.85498 197.86398 170.63998 197.59698C 168.33899 197.31699 168.36598 200.92099 170.63998 201.19598C 176.27798 201.87898 186.70398 201.85599 187.31299 194.18498C 187.93098 186.41098 183.36398 177.21999 180.39499 170.32298C 175.07399 157.95699 168.54199 146.14598 160.79099 135.13599C 152.93599 123.97598 143.36299 114.04999 133.91599 104.247986C 123.11398 93.040985 111.81099 83.00799 106.22498 68.18899C 102.014984 57.016987 99.25498 45.32299 96.06198 33.83899C 92.2 19.942 87.609 6.249 82.506 -7.239C 76.515 -23.071 69.763 -38.711998 61.868996 -53.697C 57.804996 -61.412 55.204994 -69.974 51.824997 -78.019C 46.08127 -91.68469 39.831573 -105.13254 33.088997 -118.334C 21.578997 -140.87 8.540997 -163.466 -8.588001 -182.256C -20.788002 -195.63899 -34.980003 -208.383 -52.507 -213.86299C -60.109 -216.23999 -67.178 -217.87999 -75.193 -217.66699C -84.75 -217.413 -94.3 -215.329 -103.344 -212.327C -118.607 -207.262 -134.477 -198.215 -141.779 -183.256C -145.43001 -175.776 -148.51901 -168.008 -151.29901 -160.168C -153.445 -154.118 -155.28401 -147.964 -156.904 -141.754C -158.56201 -135.401 -159.12701 -128.631 -161.22101 -122.424995C -164.65302 -112.254 -172.38501 -103.296 -178.11002 -94.355995C -180.56401 -90.524994 -182.81401 -86.592995 -184.58502 -82.397995C -186.91902 -76.867 -187.11102 -70.27599 -187.31403 -64.369995C -187.93002 -46.452995 -182.48003 -28.416996 -174.85803 -12.375996C -172.04303 -6.451996 -168.42303 -0.2209959 -162.78304 3.4080048C -159.26103 5.673005 -153.50504 5.484005 -149.48004 5.492005L-149.48004 5.492005L-151.21504 4.171005C -148.58504 19.344006 -146.12505 34.555004 -143.99203 49.806004C -141.11304 70.399 -139.62703 90.91701 -134.19003 111.094C -127.63603 135.416 -116.063034 159.168 -97.881035 176.91699C -80.67703 193.711 -57.720036 203.35399 -34.684036 209.017C 1.3629646 217.88 39.077965 217.52 75.66996 212.72299C 92.59296 210.50499 109.34296 207.249 126.14896 204.318C 140.59195 201.801 155.48495 199.137 170.16196 201.13199C 172.43095 201.43999 173.41095 197.97299 171.11896 197.661L171.11896 197.661L171.119 197.661z" stroke="none" fill="#57331B" fill-rule="nonzero" />
	</g>
	<g>
        <path transform="matrix(1 0 0 1 444.887 461.654)"  d="M53.585 -6.319C 53.57332 -6.894984 53.536613 -7.470202 53.475 -8.042999C 53.673 -13.473 50.376 -17.319 41.683 -12.991999C 40.227997 -12.381999 38.385998 -11.476998 35.963997 -10.131999C 46.337997 -15.317999 47.533997 -31.274998 41.549995 -32.072998C 35.654995 -32.857 25.592995 -18.509998 14.023996 -16.379997C -3.0090046 -13.248997 -17.360004 -10.528997 -33.851006 -11.061997C -33.851006 -11.061997 -48.815006 -11.899998 -50.778008 -4.5379972C -51.460007 -1.9829972 -53.724007 7.243003 -38.507008 9.206003C -36.24101 9.497004 0.45399094 28.583004 12.049992 30.314003C 29.107992 32.857002 36.07899 30.938004 40.41899 26.599003C 44.75799 22.259003 47.29999 16.277004 47.00099 12.835003C 46.94864 12.291472 46.846542 11.753884 46.69599 11.229003C 46.664993 9.947003 46.43399 8.878003 45.93899 8.219003C 45.58477 7.746916 45.149715 7.3413153 44.65399 7.021003C 45.936993 6.1870027 53.72399 0.8230028 53.58499 -6.3189974L53.58499 -6.3189974L53.585 -6.319z" stroke="none" fill="#9F6127" fill-rule="nonzero" />
        <path transform="matrix(1 0 0 1 447.771 480.393)"  d="M-47.601 -8.784C -32.414 -4.687 -18.432 2.728 -4.153 9.146C 7.6520004 14.45 21.478 16.785 33.811 11.617C 41.237 8.506 49.84 -5.354 43.07 -12.592C 39.147 -16.785 31.571 -12.218 27.354 -11.154C 19.057 -9.063 8.642 -8.236 1.5130005 -13.717C -0.32799947 -15.132 -2.1169996 -12.002 -0.3029995 -10.607C 8.42 -3.901 22.189 -5.36 32.001 -8.816C 34.215 -9.596 40.079 -12.549 41.419 -8.808C 42.267998 -6.4389997 41.124 -3.2359996 40.41 -0.9789996C 37.789 7.3090005 30.378 9.996 22.281 10.707001C 10.025 11.784 0.21 7.278 -10.536 2.26C -22.273 -3.222 -34.095 -8.87 -46.644 -12.255C -48.889 -12.860001 -49.84 -9.3880005 -47.601 -8.784z" stroke="none" fill="#57331B" fill-rule="nonzero" />
        <path transform="matrix(1 0 0 1 451.956 439.461)"  d="M-38.459 12.664C -31.7 12.856 -24.977 12.37 -18.265 11.596C -13.8949995 11.091 -9.540999 10.438 -5.1969995 9.75C 0.134 8.905 6.1 8.516 11.099 6.384C 14.943 4.744 18.353 2.4249997 21.635 -0.14400005C 25.02 -2.793 28.404 -6.297 32.496002 -7.821C 36.456 -9.297 35.932003 -2.5110002 35.563004 -0.45300007C 34.716003 4.282 31.730003 8.295 27.560003 10.596C 25.526003 11.717999 27.342003 14.826 29.376003 13.705C 36.424 9.817 40.782 1.313 39.06 -6.694C 37.312 -14.824999 29.132 -10.578 24.991001 -7.3609996C 20.308 -3.723 15.849 0.158 10.477 2.766C 4.311 5.76 -3.984 5.972 -10.704 6.981C -19.886002 8.361 -29.164 9.329 -38.459 9.064C -40.781998 8.998 -40.775 12.599 -38.459 12.664z" stroke="none" fill="#57331B" fill-rule="nonzero" />
        <path transform="matrix(1 0 0 1 480.188 456.46)"  d="M-21.306 0.542C -15.872 0.548 -10.059999 1.088 -4.7700005 -0.45700002C 0.665 -2.045 5.077 -6.046 10.534 -7.556C 15.815001 -9.018001 16.43 -3.9430003 15.549 -0.06600046C 14.5529995 4.3239994 11.504 9.021 6.9379997 10.171C 4.6879997 10.7369995 5.6429996 14.209 7.8949995 13.641999C 16.199 11.5529995 23.626999 -2.038001 17.444 -9.405002C 13.414 -14.208002 5.5600004 -9.582002 1.5770006 -7.4210014C -1.4529994 -5.7760015 -4.4429994 -4.0860014 -7.8549995 -3.4060016C -12.165999 -2.5490017 -16.946999 -3.0550015 -21.306 -3.0590014C -23.626999 -3.0620015 -23.626999 0.53999853 -21.306 0.5419986L-21.306 0.5419986L-21.306 0.542z" stroke="none" fill="#57331B" fill-rule="nonzero" />
	</g>
	<g>
        <path transform="matrix(0.49 0 0 1 204.854 203.659)"  d="M-31.473 27.679C -23.682 29.591002 -10.392 27.246 1.3260002 28.664001C 15.001 30.319002 9.826 29.772001 25.858 32.499C 41.89 35.225998 34.881 18.618 23.715 11.523001C 12.55 4.429 -25.76 -22.793 -35.144 -19.352C -35.144 -19.352 -31.335001 4.993 -31.335001 13.074999C -31.335001 21.155998 -31.473001 27.678999 -31.473001 27.678999L-31.473001 27.678999L-31.473 27.679z" stroke="none" fill="#A13422" fill-rule="nonzero" />
        <path transform="matrix(0.49 0 0 1 205.595 193.773)"  d="M-3.035 18.735C 7.9190006 20.32 19.492 25.259 23.946001 32.054C 25.135 33.868 27.853 33.783 27.454 31.967001C 25.66 23.806 8.827 15.85 -5.087 15.611C -8.335 15.555 -8.764 17.852 -5.443 18.334L-5.443 18.334L-3.0349998 18.734999L-3.035 18.735z" stroke="none" fill="#B77261" fill-rule="nonzero" />
        <path transform="matrix(0.49 0 0 1 196.494 198.798)"  d="M-13.584 5.66C -8.406 -2.585 15.606001 17.157 23.526001 20.492C 25.516 21.33 27.598001 20.022001 25.593 19.178001C 15.917001 15.104002 -10.344 -6.265999 -16.692 3.8430014C -17.931 5.8150015 -14.815 7.6200013 -13.584 5.6600013L-13.584 5.6600013L-13.584 5.66z" stroke="none" fill="#721D14" fill-rule="nonzero" />
        <path transform="matrix(0.49 0 0 1 203.08 205.287)"  d="M-29.438 -19.819C -16.644001 -25.658 11.651001 3.8080006 23.279 9.500999C 32.334 13.934 37.998 22.299 36.837997 27.944C 35.503 34.438 16.878998 28.485 9.220997 28.223C -3.243003 27.796999 -18.038004 30.314999 -28.388004 26.798C -30.588005 26.050001 -28.533005 27.607 -26.299004 28.116001C -8.328003 32.213 7.7249947 27.736002 20.115997 30.627C 25.445997 31.871 32.473 33.684002 37.045 32.109C 40.489 30.922 40.689 28.084002 40.462997 25.811C 39.823997 19.398 33.237 11.761001 23.192997 7.168001C 10.952997 1.5700011 -18.259003 -28.859 -31.255005 -22.926998C -33.365005 -21.964998 -31.534004 -18.861998 -29.438005 -19.818998L-29.438005 -19.818998L-29.438 -19.819z" stroke="none" fill="#721D14" fill-rule="nonzero" />
	</g>
	<g>
        <path transform="matrix(0.9993908 -0.0348995 0.0348995 0.9993908 135.521 205.73145)"  d="M-83.292 14.109C -82.312 20.803 -78.097 45.034 -66.639 61.209C -60.102 70.438995 -53.931 71.655 -40.541 65.61C -27.149 59.567 -19.764 53.651 -15.594 51.863C -11.421 50.077 2.1940002 54.391 10.997 56.268997C 19.235 58.025997 19.834 61.560997 47.874 56.629997C 75.912 51.698997 83.660995 31.505997 84.382 17.087997C 85.212006 0.51599693 84.519005 -6.1080017 79.511 -32.172C 77.485 -42.711 64.604004 -71.655 -18.725998 -55.656C -75.647 -44.726997 -79.962 -21.140999 -83.059 -12.3239975C -83.951 -9.784998 -85.212 1.0030022 -83.292 14.109003L-83.292 14.109003L-83.292 14.109z" stroke="none" fill="#8F5123" fill-rule="nonzero" />
        <path transform="matrix(0.9993908 -0.0348995 0.0348995 0.9993908 137.76709 222.29321)"  d="M77.843 -48.803C 77.506004 -50.558002 76.528 -52.711002 74.809006 -55.024002C 78.07201 -40.878002 79.604004 -0.9520035 66.271 7.0479965C 39.604004 29.714996 11.269005 12.050997 -19.061996 17.047997C -46.730995 31.383997 -75.062 39.047997 -83.544 5.4419966C -81.403 15.842997 -76.886 32.467995 -68.307 44.578C -61.77 53.808 -55.598 55.024 -42.209 48.979C -28.817 42.936 -21.431 37.02 -17.261 35.232002C -13.089 33.446003 0.5270004 37.760002 9.329 39.638C 17.568 41.395 18.166 44.93 46.206 39.999C 74.244 35.068 81.993 14.876 82.714 0.457C 83.544 -16.115 82.851 -22.738998 77.842995 -48.802998L77.842995 -48.802998L77.843 -48.803z" stroke="none" fill="#7A411F" fill-rule="nonzero" />
        <path transform="matrix(0.9993908 -0.0348995 0.0348995 0.9993908 118.7417 226.92822)"  d="M-7.755 -25.904C -6.516 -8.593 -2.79 9.962 3.595 26.09C 4.439 28.222 7.922 27.294 7.066 25.133C 0.803 9.311 -2.941 -8.925 -4.156 -25.904C -4.321 -28.206 -7.9210005 -28.222 -7.755 -25.904z" stroke="none" fill="#57331B" fill-rule="nonzero" />
        <path transform="matrix(0.9993908 -0.0348995 0.0348995 0.9993908 112.70996 319.97827)"  d="M-29.225 -44.262C -29.225 -44.262 -20.108 -12.814 -13.512 0.689C -9.516 8.875 -4.552 19.717 6.8340006 34.996998C 12.084001 42.057 21.943 51.122997 25.584 47.762997C 29.225 44.407997 22.591 29.698997 18.004 19.439997C 2.846 -14.47 -4.517 -51.123 -4.517 -51.123" stroke="none" fill="#DCCCA5" fill-rule="nonzero" />
        <path transform="matrix(0.9993908 -0.0348995 0.0348995 0.9993908 111.32617 319.3142)"  d="M-29.602 -43.071C -25.321 -28.336 -20.808 -13.406 -14.51 0.607C -10.50528 9.507469 -5.842804 18.096756 -0.561 26.304C 4.758 34.574 12.153 46.909 22.071999 50.385002C 30.003998 53.164 30.251999 45.006 28.904 39.533C 25.776 26.822 18.757 14.885 14.167999 2.6730003C 7.649 -14.668 2.252 -32.715 -1.423 -50.889C -1.883 -53.164 -5.353 -52.199 -4.895 -49.932C -2.023 -35.726 2.059 -21.703 6.61 -7.957C 10.32 3.2470007 14.747 14.136001 19.527 24.918999C 21.778 29.994999 23.939001 35.132 25.432001 40.489998C 25.95 42.349 26.407001 44.392 26.094002 46.325996C 25.621002 49.249996 20.552002 45.498997 19.589 44.825996C 10.427001 38.423996 4.1150007 27.398996 -1.4749985 17.986996C -5.7619987 10.766996 -9.653998 3.1279955 -12.879998 -4.628004C -18.189999 -17.392004 -22.276999 -30.760004 -26.130999 -44.028008C -26.777998 -46.253006 -30.251 -45.305008 -29.602 -43.071007L-29.602 -43.071007L-29.602 -43.071z" stroke="none" fill="#8A5C2B" fill-rule="nonzero" />
        <path transform="matrix(0.9993908 -0.0348995 0.0348995 0.9993908 102.41699 307.95215)"  d="M-12.762 -26.795C -7.415 -7.615 0.988 10.759 10.557 28.177C 11.712 30.276001 13.405001 29.092001 12.258 27.006C 2.847 9.881 -3.975 -9.108 -9.236 -27.966C -9.878 -30.277 -13.405001 -29.097 -12.762 -26.795z" stroke="none" fill="#FFFFFF" fill-rule="nonzero" />
        <path transform="matrix(0.9993908 -0.0348995 0.0348995 0.9993908 216.23047 301.2456)"  d="M-31.453 -39.871C -31.453 -39.871 -19.682 -10.234999 -12.403 2.9099998C -7.995 10.882 -2.4840002 21.459 9.672001 36.135C 15.275002 42.916 24.524002 51.038998 27.990002 47.496998C 31.453001 43.96 25.136002 30.037998 20.029001 20.025997C 3.156 -13.065 -6.319 -51.039 -6.319 -51.039" stroke="none" fill="#DCCCA5" fill-rule="nonzero" />
        <path transform="matrix(0.9993908 -0.0348995 0.0348995 0.9993908 216.22363 299.6792)"  d="M-33.237 -37.826C -27.546 -23.515 -21.723999 -9.054001 -14.466 4.542C -9.75 13.377 -4.5909996 21.928999 1.3280001 30.014C 5.0150003 35.049 8.906 39.989998 13.36 44.369C 16.302 47.262 20.687 51.412 25.071999 51.670998C 34.094997 52.203 29.799 39.644997 28.161 35.214996C 23.546 22.732996 16.638 11.127996 11.587 -1.201004C 5.115 -16.999 -0.476 -33.379 -4.632 -49.952C -5.196 -52.203 -8.667999 -51.246998 -8.103 -48.995C -4.88 -36.139 -0.663 -23.488 3.915 -11.061C 7.928 -0.174 12.472 10.525 17.629 20.92C 20.344 26.393 23.078 31.815 25.201 37.555C 26.335001 40.622 29.809 50.403 23.136 47.324C 13.241 42.76 5.763 30.41 -0.089 21.78C -4.802 14.829 -8.97 7.437 -12.801 -0.035C -19.223 -12.559 -24.567 -25.711 -29.765 -38.783C -30.612 -40.914 -34.095 -39.985 -33.237 -37.826z" stroke="none" fill="#8A5C2B" fill-rule="nonzero" />
        <path transform="matrix(0.9993908 -0.0348995 0.0348995 0.9993908 206.25098 291.10205)"  d="M-13.409 -27.11C -7.693 -7.643 1.122 10.963 11.116 28.577C 12.3220005 30.699 14.096001 28.997 12.899 26.889C 3.07 9.571 -4.21 -9.21 -9.831 -28.351C -10.519 -30.699 -14.096001 -29.446 -13.409 -27.11z" stroke="none" fill="#FFFFFF" fill-rule="nonzero" />
        <path transform="matrix(0.9993908 -0.0348995 0.0348995 0.9993908 136.10645 220.62622)"  d="M76.28 -51.486C 78.821 -45.65 79.632996 -38.732002 80.641 -32.510002C 82.201 -22.890003 83.131996 -13.133001 83.270996 -3.387003C 83.37499 3.9389973 83.51299 12.935997 79.621994 19.443996C 74.537994 27.944996 65.17099 34.789997 55.932995 37.867996C 44.078995 41.817997 30.167995 41.993996 17.797997 40.975998C 13.577997 40.629997 9.282996 40.121998 5.121997 39.336C 0.33199692 38.431 -4.047003 36.458 -8.971004 35.952C -16.629004 35.165 -22.503002 39.92 -28.891003 43.262C -36.799004 47.398003 -45.811005 51.332 -54.910004 50.987C -63.719 50.653 -67.79201 41.942 -71.382 35.077C -75.364006 27.460999 -78.05 19.59 -79.869 11.216C -82.015 1.3319998 -83.139 -8.859001 -82.832 -18.974C -82.54 -28.623001 -77.747 -38.551003 -71.842 -46.036003C -70.421005 -47.838005 -72.950005 -50.404003 -74.388 -48.582005C -80.99 -40.215004 -85.901 -29.711004 -86.432 -18.974005C -87.034 -6.826005 -85.05 5.713995 -82.104996 17.468996C -79.491 27.901997 -74.618996 37.894997 -68.544 46.732994C -64.01 53.329994 -57.243 55.426994 -49.448997 54.324993C -40.947998 53.123993 -32.953995 49.506992 -25.433998 45.504993C -23.042997 44.231995 -20.71 42.857994 -18.373999 41.488995C -12.728998 38.180996 -6.258999 39.641994 -0.37799835 41.430996C 7.812001 43.919994 16.571001 44.759995 25.119001 44.959995C 36.837 45.233994 50.039 44.537994 60.942 39.838997C 69.701004 36.062996 77.419 29.172997 82.73 21.260998C 87.034004 14.848997 86.859 5.086998 86.878006 -2.2700024C 86.90301 -12.353003 85.796005 -22.454002 84.27901 -32.411003C 83.22301 -39.339005 82.20901 -46.823 79.38801 -53.303C 78.464005 -55.427002 75.36301 -53.592003 76.28001 -51.486L76.28001 -51.486L76.28 -51.486z" stroke="none" fill="#57331B" fill-rule="nonzero" />
        <path transform="matrix(0.9993908 -0.0348995 0.0348995 0.9993908 72.93652 222.33801)"  d="M1.637 -0.051C 1.673 1.113 0.968 2.075 0.065 2.102C -0.838 2.131 -1.6010001 1.211 -1.6359999 0.049000025C -1.6729999 -1.1129999 -0.9669999 -2.075 -0.06399989 -2.1069999C 0.8400001 -2.1309998 1.6030002 -1.2109998 1.6370001 -0.05099988L1.6370001 -0.05099988L1.637 -0.051z" stroke="none" fill="#FCB930" fill-rule="nonzero" />
        <path transform="matrix(0.9993908 -0.0348995 0.0348995 0.9993908 72.94629 222.33374)"  d="M1.252 -0.046C 1.242 0.713 0.933 1.641 0.055 1.732C -0.817 1.823 -1.221 0.727 -1.271 0.054C -1.3280001 -0.701 -0.90200007 -1.637 -0.07500005 -1.727C 0.79499996 -1.821 1.2019999 -0.71500003 1.252 -0.046000004L1.252 -0.046000004L2.0019999 -0.046000004C 1.912 -1.25 1.24 -2.415 -0.075 -2.477C -1.381 -2.538 -2.007 -1.009 -2.021 0.054C -2.037 1.257 -1.1859999 2.4299998 0.055000067 2.4819999C 1.363 2.5379999 1.9870001 1.0219998 2.002 -0.046000242L2.002 -0.046000242L1.2520001 -0.046000242L1.252 -0.046z" stroke="none" fill="#FCB930" fill-rule="nonzero" />
        <path transform="matrix(0.9993908 -0.0348995 0.0348995 0.9993908 92.6416 214.28345)"  d="M1.636 -0.052C 1.673 1.112 0.967 2.075 0.064 2.104C -0.84 2.134 -1.602 1.2120001 -1.637 0.049000025C -1.673 -1.114 -0.96799994 -2.074 -0.06499994 -2.104C 0.83800006 -2.134 1.6 -1.2120001 1.636 -0.052000046L1.636 -0.052000046L1.636 -0.052z" stroke="none" fill="#FCB930" fill-rule="nonzero" />
        <path transform="matrix(0.9993908 -0.0348995 0.0348995 0.9993908 92.65137 214.28394)"  d="M1.252 -0.053C 1.242 0.706 0.932 1.635 0.055 1.728C -0.818 1.821 -1.221 0.72 -1.271 0.048C -1.3280001 -0.70600003 -0.90200007 -1.641 -0.07500005 -1.729C 0.79599994 -1.822 1.201 -0.72599995 1.252 -0.052999973L1.252 -0.052999973L2.0019999 -0.052999973C 1.9109999 -1.254 1.2409999 -2.425 -0.07500005 -2.479C -1.381 -2.532 -2.006 -1.0220001 -2.021 0.04799986C -2.0379999 1.2509998 -1.1859999 2.4269998 0.055000067 2.478C 1.3620001 2.533 1.9870001 1.0149999 2.002 -0.052999973L2.002 -0.052999973L1.2520001 -0.052999973L1.252 -0.053z" stroke="none" fill="#FCB930" fill-rule="nonzero" />
        <path transform="matrix(0.9993908 -0.0348995 0.0348995 0.9993908 83.71777 226.21826)"  d="M1.898 -0.058C 1.939 1.2900001 1.1240001 2.4099998 0.07500005 2.442C -0.9749999 2.4729998 -1.856 1.4059999 -1.898 0.05799985C -1.939 -1.2900002 -1.1240001 -2.407 -0.07500005 -2.4410002C 0.972 -2.473 1.858 -1.407 1.898 -0.058z" stroke="none" fill="#FCB930" fill-rule="nonzero" />
        <path transform="matrix(0.9993908 -0.0348995 0.0348995 0.9993908 83.725586 226.21875)"  d="M1.515 -0.059C 1.501 0.857 1.12 1.956 0.067 2.066C -0.981 2.176 -1.469 0.869 -1.531 0.057C -1.6010001 -0.855 -1.074 -1.9609998 -0.083000064 -2.0670002C 0.964 -2.178 1.454 -0.87 1.515 -0.059L1.515 -0.059L2.2649999 -0.059C 2.1629999 -1.421 1.4089999 -2.752 -0.08300018 -2.817C -1.5660002 -2.8809998 -2.2640002 -1.147 -2.2810001 0.05700016C -2.301 1.4200002 -1.338 2.7540002 0.06699991 2.8160002C 1.55 2.8810003 2.247 1.1450002 2.2649999 -0.058999777L2.2649999 -0.058999777L1.5149999 -0.058999777L1.515 -0.059z" stroke="none" fill="#FCB930" fill-rule="nonzero" />
        <path transform="matrix(0.9993908 -0.0348995 0.0348995 0.9993908 93.54541 235.61182)"  d="M1.784 -0.201C 1.928 1.065 1.245 2.183 0.26 2.296C -0.722 2.404 -1.638 1.469 -1.7820001 0.20300007C -1.9280001 -1.0639999 -1.247 -2.1799998 -0.25800002 -2.293C 0.726 -2.404 1.64 -1.4679999 1.784 -0.20099998L1.784 -0.20099998L1.784 -0.201z" stroke="none" fill="#FCB930" fill-rule="nonzero" />
        <path transform="matrix(0.9993908 -0.0348995 0.0348995 0.9993908 93.54541 235.61084)"  d="M1.409 -0.201C 1.4660001 0.63600004 1.253 1.586 0.36699998 1.895C -0.565 2.2189999 -1.1980001 1.079 -1.3790001 0.36899996C -1.5940001 -0.48200005 -1.2440001 -1.587 -0.365 -1.8900001C 0.685 -2.255 1.298 -0.881 1.422 -0.101L1.422 -0.101L2.146 -0.3C 1.9489999 -1.5380001 1.106 -2.72 -0.25800014 -2.667C -1.6720002 -2.612 -2.239 -0.96800005 -2.157 0.204C -2.069 1.483 -1.087 2.72 0.26 2.671C 1.671 2.62 2.239 0.965 2.159 -0.201L2.159 -0.201L1.4089999 -0.201L1.409 -0.201z" stroke="none" fill="#FCB930" fill-rule="nonzero" />
        <path transform="matrix(0.9993908 -0.0348995 0.0348995 0.9993908 104.46484 222.68677)"  d="M1.599 -0.05C 1.634 1.088 0.945 2.028 0.063 2.055C -0.819 2.0800002 -1.5630001 1.1830001 -1.597 0.05100012C -1.6340001 -1.0849999 -0.945 -2.027 -0.06400001 -2.056C 0.821 -2.08 1.563 -1.183 1.599 -0.049999952L1.599 -0.049999952L1.599 -0.05z" stroke="none" fill="#FCB930" fill-rule="nonzero" />
        <path transform="matrix(0.9993908 -0.0348995 0.0348995 0.9993908 104.47656 222.68628)"  d="M1.212 -0.051C 1.201 0.684 0.903 1.591 0.051 1.68C -0.793 1.769 -1.185 0.701 -1.234 0.051C -1.2889999 -0.681 -0.87899995 -1.595 -0.075999975 -1.681C 0.76900005 -1.772 1.1620001 -0.701 1.212 -0.051L1.212 -0.051L1.962 -0.051C 1.871 -1.233 1.214 -2.3709998 -0.076000094 -2.4310002C -1.357 -2.489 -1.971 -0.992 -1.984 0.051C -1.999 1.231 -1.163 2.375 0.05100012 2.4299998C 1.334 2.49 1.947 0.994 1.962 -0.051L1.962 -0.051L1.212 -0.051z" stroke="none" fill="#FCB930" fill-rule="nonzero" />
        <path transform="matrix(0.9993908 -0.0348995 0.0348995 0.9993908 182.9375 202.23535)"  d="M-1.652 0.563C -1.252 1.737 -0.18699992 2.434 0.72099996 2.124C 1.637 1.8130001 2.051 0.61100006 1.6529999 -0.5649998C 1.254 -1.74 0.188 -2.434 -0.724 -2.125C -1.635 -1.815 -2.051 -0.61099994 -1.652 0.56299996L-1.652 0.56299996L-1.652 0.563z" stroke="none" fill="#FCB930" fill-rule="nonzero" />
        <path transform="matrix(0.9993908 -0.0348995 0.0348995 0.9993908 182.9126 202.23096)"  d="M-1.988 0.667C -1.528 1.843 -0.5 2.842 0.846 2.49C 2.184 2.142 2.356 0.431 2.039 -0.66C 1.736 -1.707 0.565 -2.842 -0.614 -2.531C -2.043 -2.155 -2.356 -0.596 -1.988 0.667L-1.988 0.667L-1.2650001 0.46899998C -1.4940001 -0.31700003 -1.4700001 -1.242 -0.6970001 -1.7170001C 0.030999899 -2.1620002 0.8279999 -1.3700001 1.161 -0.8140001C 1.5910001 -0.096000135 1.575 0.9269999 0.998 1.5509999C 0.15500003 2.4629998 -0.97299993 1.2139999 -1.265 0.46899986L-1.265 0.46899986L-1.9879999 0.6669999L-1.988 0.667z" stroke="none" fill="#FCB930" fill-rule="nonzero" />
        <path transform="matrix(0.9993908 -0.0348995 0.0348995 0.9993908 155.97363 206.22998)"  d="M-1.651 0.563C -1.253 1.736 -0.188 2.434 0.726 2.124C 1.636 1.8130001 2.052 0.60800004 1.654 -0.5639999C 1.2550001 -1.7369999 0.18900001 -2.434 -0.72300005 -2.1239998C -1.6340001 -1.8139999 -2.052 -0.6109998 -1.651 0.5630002L-1.651 0.5630002L-1.651 0.563z" stroke="none" fill="#FCB930" fill-rule="nonzero" />
        <path transform="matrix(0.9993908 -0.0348995 0.0348995 0.9993908 155.9751 206.24023)"  d="M-2.013 0.653C -1.552 1.833 -0.523 2.8249998 0.82500005 2.475C 2.159 2.13 2.33 0.411 2.014 -0.674C 1.662 -1.887 0.445 -2.825 -0.824 -2.496C -2.159 -2.151 -2.33 -0.433 -2.013 0.653L-2.013 0.653L-1.29 0.454C -1.52 -0.333 -1.4959999 -1.257 -0.72199994 -1.7320001C 0.14500004 -2.263 1.027 -1.1510001 1.292 -0.47500014C 1.587 0.27899987 1.4490001 1.2649999 0.72300005 1.711C -0.14499992 2.243 -1.0259999 1.13 -1.29 0.454L-1.29 0.454L-2.013 0.653z" stroke="none" fill="#FCB930" fill-rule="nonzero" />
        <path transform="matrix(0.9993908 -0.0348995 0.0348995 0.9993908 169.9165 213.85205)"  d="M-1.915 0.65C -1.451 2.011 -0.217 2.826 0.842 2.464C 1.9 2.104 2.382 0.706 1.919 -0.656C 1.456 -2.017 0.221 -2.825 -0.836 -2.466C -1.895 -2.106 -2.382 -0.709 -1.915 0.65z" stroke="none" fill="#FCB930" fill-rule="nonzero" />
        <path transform="matrix(0.9993908 -0.0348995 0.0348995 0.9993908 169.91699 213.86377)"  d="M-2.276 0.738C -1.754 2.074 -0.59 3.212 0.941 2.813C 2.457 2.419 2.638 0.46300006 2.2810001 -0.76699996C 1.881 -2.141 0.503 -3.212 -0.936 -2.84C -2.453 -2.449 -2.637 -0.49099994 -2.276 0.73800015L-2.276 0.73800015L-1.553 0.53900015C -1.8299999 -0.40299982 -1.788 -1.4979998 -0.86499995 -2.0619998C 0.18100005 -2.7009997 1.237 -1.3879998 1.5580001 -0.56799984C 1.911 0.33500016 1.7370001 1.506 0.87000006 2.0360003C -0.17599994 2.676 -1.2319999 1.3590002 -1.553 0.5390003L-1.553 0.5390003L-2.276 0.7380003L-2.276 0.738z" stroke="none" fill="#FCB930" fill-rule="nonzero" />
        <path transform="matrix(0.9993908 -0.0348995 0.0348995 0.9993908 180.67188 223.32764)"  d="M-1.915 0.65C -1.451 2.011 -0.217 2.826 0.842 2.464C 1.9 2.104 2.382 0.706 1.919 -0.656C 1.456 -2.017 0.221 -2.825 -0.836 -2.466C -1.895 -2.106 -2.382 -0.709 -1.915 0.65z" stroke="none" fill="#FCB930" fill-rule="nonzero" />
        <path transform="matrix(0.9993908 -0.0348995 0.0348995 0.9993908 180.67188 223.33936)"  d="M-2.276 0.738C -1.754 2.074 -0.59 3.212 0.941 2.813C 2.457 2.419 2.638 0.46300006 2.2810001 -0.76699996C 1.881 -2.141 0.503 -3.212 -0.936 -2.84C -2.453 -2.449 -2.637 -0.49099994 -2.276 0.73800015L-2.276 0.73800015L-1.553 0.53900015C -1.8299999 -0.40299982 -1.788 -1.4979998 -0.86499995 -2.0619998C 0.18100005 -2.7009997 1.237 -1.3879998 1.5580001 -0.56799984C 1.911 0.33500016 1.7370001 1.506 0.87000006 2.0360003C -0.17599994 2.676 -1.2319999 1.3590002 -1.553 0.5390003L-1.553 0.5390003L-2.276 0.7380003L-2.276 0.738z" stroke="none" fill="#FCB930" fill-rule="nonzero" />
        <path transform="matrix(0.9993908 -0.0348995 0.0348995 0.9993908 164.54785 227.3164)"  d="M-1.855 0.466C -1.525 1.783 -0.426 2.644 0.59800005 2.389C 1.623 2.13 2.187 0.851 1.854 -0.466C 1.527 -1.786 0.427 -2.644 -0.6 -2.388C -1.626 -2.128 -2.187 -0.85300004 -1.855 0.46600008L-1.855 0.46600008L-1.855 0.466z" stroke="none" fill="#FCB930" fill-rule="nonzero" />
        <path transform="matrix(0.9993908 -0.0348995 0.0348995 0.9993908 164.54932 227.32324)"  d="M-2.217 0.559C -1.821 1.888 -0.78 2.997 0.698 2.744C 2.172 2.492 2.457 0.6 2.216 -0.572C 1.937 -1.929 0.696 -2.997 -0.699 -2.755C -2.1729999 -2.5010002 -2.457 -0.615 -2.217 0.5589998L-2.217 0.5589998L-1.494 0.35999978C -1.6819999 -0.5610002 -1.515 -1.6940001 -0.49999994 -2.033C 0.51000005 -2.369 1.2620001 -1.1489999 1.493 -0.37300003C 1.7590001 0.525 1.4560001 1.702 0.499 2.021C -0.50799996 2.356 -1.263 1.132 -1.494 0.3599999L-1.494 0.3599999L-2.217 0.5589999L-2.217 0.559z" stroke="none" fill="#FCB930" fill-rule="nonzero" />
        <path transform="matrix(0.9993908 -0.0348995 0.0348995 0.9993908 147.08838 221.49854)"  d="M-1.615 0.551C -1.223 1.697 -0.181 2.378 0.7049999 2.072C 1.5979999 1.77 2.004 0.5960001 1.6139998 -0.54799986C 1.2229998 -1.6949998 0.18599987 -2.3779998 -0.7060001 -2.0749998C -1.5970001 -1.7689998 -2.0040002 -0.5949998 -1.615 0.5510001L-1.615 0.5510001L-1.615 0.551z" stroke="none" fill="#FCB930" fill-rule="nonzero" />
        <path transform="matrix(0.9993908 -0.0348995 0.0348995 0.9993908 147.06055 221.50049)"  d="M-1.948 0.649C -1.561 1.644 -0.56499994 2.8079998 0.655 2.481C 1.956 2.13 2.31 0.795 2.075 -0.404C 1.859 -1.516 0.656 -2.809 -0.584 -2.488C -1.992 -2.123 -2.31 -0.597 -1.948 0.649L-1.948 0.649L-1.2249999 0.45099998C -1.4469999 -0.315 -1.4239999 -1.213 -0.67199993 -1.674C 0.17100006 -2.192 1.0250001 -1.103 1.281 -0.45000005C 1.569 0.28399998 1.4350001 1.239 0.72800004 1.671C -0.11199993 2.182 -0.969 1.11 -1.2249999 0.45099998L-1.2249999 0.45099998L-1.948 0.649z" stroke="none" fill="#FCB930" fill-rule="nonzero" />
        <path transform="matrix(0.9993908 -0.0348995 0.0348995 0.9993908 47.17285 230.9945)"  d="M19.654 -4.758C 6.187 -12.469 -10.879 -1.636 -20.086 8.223C -21.668001 9.917999 -19.128 12.467999 -17.54 10.768C -9.538 2.199 5.937 -8.464 17.837 -1.65C 19.855 -0.49399996 21.668 -3.605 19.654 -4.758z" stroke="none" fill="#FCB930" fill-rule="nonzero" />
        <path transform="matrix(0.9993908 -0.0348995 0.0348995 0.9993908 49.370605 248.82861)"  d="M-13.152 12.575C -10.616 2.271 2.238 -10.905 13.959999 -8.175C 16.219 -7.65 17.178 -11.121 14.916999 -11.647C 1.25 -14.829 -13.59 -0.705 -16.624 11.618C -17.178001 13.872 -13.707001 14.829 -13.152 12.575z" stroke="none" fill="#FCB930" fill-rule="nonzero" />
        <path transform="matrix(0.9993908 -0.0348995 0.0348995 0.9993908 69.739746 271.4286)"  d="M-3.656 17.299C -4.961 7.268 -5.03 -11.036 6.658 -15.324C 8.819 -16.117 7.886 -19.597 5.701 -18.795C -7.852 -13.823 -8.818 5.283 -7.255 17.299C -6.96 19.568 -3.357 19.596 -3.6560001 17.299L-3.6560001 17.299L-3.656 17.299z" stroke="none" fill="#FCB930" fill-rule="nonzero" />
        <path transform="matrix(0.9993908 -0.0348995 0.0348995 0.9993908 102.03711 264.95117)"  d="M-3.714 -18.828C 0.782 -7.841 1.006 7.08 -1.196 18.667C -1.627 20.936 1.843 21.903 2.276 19.624C 4.593 7.432 4.507 -8.177 -0.242 -19.785C -1.109 -21.903 -4.593 -20.977 -3.714 -18.828z" stroke="none" fill="#FCB930" fill-rule="nonzero" />
        <path transform="matrix(0.9993908 -0.0348995 0.0348995 0.9993908 114.98682 262.4109)"  d="M-3.655 -13.082C 1.3 -5.724 1.058 5.172 -0.316 13.569C -0.688 15.839001 2.781 16.813 3.156 14.526C 4.675 5.2370005 4.956 -6.727 -0.54700017 -14.898999C -1.8360002 -16.813 -4.9560003 -15.013999 -3.6550002 -13.081999L-3.6550002 -13.081999L-3.655 -13.082z" stroke="none" fill="#FCB930" fill-rule="nonzero" />
        <path transform="matrix(0.9993908 -0.0348995 0.0348995 0.9993908 86.34326 269.8069)"  d="M2.986 -21.714C -1.636 -19.626 -3.365 -13.883 -4.5 -9.381C -6.916 0.211 -6.79 10.537 -6.405 20.34C -6.314 22.654 -2.7140002 22.662 -2.8060002 20.34C -3.1350002 11.959001 -3.0910003 3.5249996 -1.7650002 -4.7770004C -1.0490003 -9.259001 0.12499976 -16.492 4.8029995 -18.606C 6.9159994 -19.560001 5.0839996 -22.662 2.9859996 -21.714L2.9859996 -21.714L2.986 -21.714z" stroke="none" fill="#FCB930" fill-rule="nonzero" />
        <path transform="matrix(0.9993908 -0.0348995 0.0348995 0.9993908 62.40332 259.07715)"  d="M15.415 -20.749C 8.43 -22.722 0.545 -15.974 -4.001 -11.571C -12.607 -3.2370005 -17.645 8.412999 -17.354 20.398998C -17.298 22.715998 -13.698 22.721998 -13.754 20.398998C -14.009 9.915 -9.953 0.379 -3.029 -7.386C 0.46599984 -11.306 8.424 -18.982 14.457999 -17.277C 16.696999 -16.645 17.644999 -20.119 15.414999 -20.749L15.414999 -20.749L15.415 -20.749z" stroke="none" fill="#FCB930" fill-rule="nonzero" />
        <path transform="matrix(0.9993908 -0.0348995 0.0348995 0.9993908 219.89111 206.70459)"  d="M24.279 10.334C 15.818 -7.437 -5.765 -14.248 -23.184 -5.812C -25.273 -4.7999997 -23.446 -1.6949997 -21.367 -2.702C -5.587001 -10.345 13.600998 -3.7459998 21.170998 12.152C 22.167997 14.248 25.271997 12.418 24.278997 10.334001L24.278997 10.334001L24.279 10.334z" stroke="none" fill="#FCB930" fill-rule="nonzero" />
        <path transform="matrix(0.9993908 -0.0348995 0.0348995 0.9993908 212.1001 224.61816)"  d="M23.192 10.203C 19.127 1.513 13.165 -5.767 4.408 -9.973C -3.7069998 -13.870999 -13.0789995 -14.122 -21.862 -13.188C -24.146 -12.945 -24.17 -9.342999 -21.862 -9.589C -14.171999 -10.405 -6.5459995 -10.217999 0.8050003 -7.6049995C 9.972 -4.347 16.093 3.491 20.084 12.02C 21.067 14.121 24.17 12.292001 23.192 10.203z" stroke="none" fill="#FCB930" fill-rule="nonzero" />
        <path transform="matrix(0.9993908 -0.0348995 0.0348995 0.9993908 188.48389 249.4668)"  d="M15.343 18.125C 12.896 3.024 4.795 -19.851 -13.393 -21.197C -15.709999 -21.369001 -15.694 -17.768002 -13.393 -17.598C 2.862 -16.394 9.738 5.913 11.871 19.081C 12.242001 21.368 15.711 20.396 15.343 18.125z" stroke="none" fill="#FCB930" fill-rule="nonzero" />
        <path transform="matrix(0.9993908 -0.0348995 0.0348995 0.9993908 159.67041 259.8296)"  d="M-6.332 -16.897C -7.408 -5.018 -2.258 6.888 3.21 17.16C 4.301 19.209 7.408 17.392 6.318 15.344C 1.135 5.608 -3.751 -5.634 -2.732 -16.897C -2.523 -19.21 -6.124 -19.189 -6.332 -16.897z" stroke="none" fill="#FCB930" fill-rule="nonzero" />
        <path transform="matrix(0.9993908 -0.0348995 0.0348995 0.9993908 143.88867 258.12207)"  d="M-3.082 -15.488C -6.223 -5.5179996 -2.295 6.639001 2.0979998 15.609C 3.119 17.694 6.2229996 15.869 5.206 13.793C 1.231 5.676 -2.45 -5.52 0.39 -14.531C 1.089 -16.752 -2.387 -17.694 -3.0819998 -15.488L-3.0819998 -15.488L-3.082 -15.488z" stroke="none" fill="#FCB930" fill-rule="nonzero" />
        <path transform="matrix(0.9993908 -0.0348995 0.0348995 0.9993908 173.72217 255.55127)"  d="M-7.408 -13.727C 3.359 -10.623 4.745 6.545 5.771 15.538C 6.0299997 17.817 9.634 17.843 9.37 15.538C 8.131 4.675 6.342 -13.509 -6.451 -17.198C -8.687 -17.842 -9.635 -14.3689995 -7.408 -13.727z" stroke="none" fill="#FCB930" fill-rule="nonzero" />
        <path transform="matrix(0.9993908 -0.0348995 0.0348995 0.9993908 204.42871 241.59912)"  d="M-13.913 -13.025C 1.324 -14.375 8.965 3.822 12.16 15.888C 12.753 18.13 16.227 17.178 15.632 14.931C 12.024 1.303 3.078 -18.13 -13.913 -16.625C -16.206 -16.421 -16.226 -12.82 -13.913 -13.025z" stroke="none" fill="#FCB930" fill-rule="nonzero" />
	</g>
	<g>
        <path transform="matrix(1 0 0 1 89.768 124.359)"  d="M-6.391 9.8C -5.88 8.5 -2.366 6.29 0.792 5.675C -1.811 -3.212 6.477 -9.796 6.477 -9.796C -0.716 -9.706 -6.816 2.564 -6.391 9.8z" stroke="none" fill="#F9CC74" fill-rule="nonzero" />
        <path transform="matrix(1 0 0 1 99.984 133.364)"  d="M-18.811 9.312C -18.811 9.312 -19.343 -1.5579996 -4.477001 -5.436C 10.391 -9.312 19.342 0.919 19.342 0.919C 19.342 0.919 5.809 -3.519 -3.107 -1.703C -15.086 0.737 -14.953 6.79 -18.811 9.312z" stroke="none" fill="#F9CC74" fill-rule="nonzero" />
        <path transform="matrix(1 0 0 1 99.382 128.792)"  d="M-16.936 14.051C -13.339 -3.162 6.152 -2.75 17.875 5.835C 19.217 6.8190002 20.882 5.206 20.519001 3.801C 17.721 -7.0139995 10.676001 -16.323 -1.5009995 -14.640999C -3.7919993 -14.323998 -2.8129995 -10.855999 -0.54399943 -11.168999C 9.551 -12.564 14.833 -3.804 17.047 4.76L17.047 4.76L19.692001 2.7270002C 6.073001 -7.2469997 -16.357998 -6.2819996 -20.407997 13.095C -20.880997 15.360001 -17.410997 16.323 -16.935997 14.051001L-16.935997 14.051001L-16.936 14.051z" stroke="none" fill="#57331B" fill-rule="nonzero" />
	</g>
	<g>
        <path transform="matrix(1 0 0 1 193.853 111.145)"  d="M9.82 11.031C 8.941 9.591 4.377 7.755 0.58 7.747C 1.639 -3.503 -9.425 -9.479 -9.425 -9.479C -1.064 -11.031 8.717 2.264 9.82 11.031z" stroke="none" fill="#F9CC74" fill-rule="nonzero" />
        <path transform="matrix(1 0 0 1 184.39 124.125)"  d="M22.361 3.948C 22.361 3.948 21.958 -4.733 3.861 -5.948C -14.236 -7.162 -22.361 7.163 -22.361 7.163C -22.361 7.163 -7.827 -2.854 2.914 -2.736C 17.345 -2.5770001 17.33 1.8140001 22.361 3.948z" stroke="none" fill="#F9CC74" fill-rule="nonzero" />
        <path transform="matrix(1 0 0 1 185.324 117.221)"  d="M22.654 8.247C 17.591 1.704 10.537 -2.227 2.216 -2.485C -7.996 -2.8009999 -17.022001 3.8280003 -23.488 11.075001C -22.464 11.499001 -21.439001 11.922001 -20.415 12.347001C -20.146002 2.165001 -14.490001 -10.351998 -2.9650002 -11.054999C -0.65900016 -11.195 -0.6450002 -14.796 -2.9650002 -14.653999C -16.558 -13.825999 -23.691 0.04200077 -24.016 12.347C -24.056002 13.869 -21.993 14.796 -20.943 13.62C -15.126 7.1 -7.955 1.778 1.021 1.14C 8.772 0.59 15.523 4.871 20.107 10.794001C 21.527 12.628 24.056 10.059001 22.654 8.247001L22.654 8.247001L22.654 8.247z" stroke="none" fill="#57331B" fill-rule="nonzero" />
	</g>
	<g>
        <path transform="matrix(1 0 0 1 181.9 109.113)"  d="M17.93 26.16C 23.133 18.743 25.977001 8.990999 24.908 -0.061000824C 23.004002 -16.187 15.372001 -26.934 -1.1169987 -27.092001C -15.659999 -27.240002 -27.904999 -12.812001 -24.581999 7.367998C -22.717999 18.665998 -20.182999 23.990997 -15.365999 27.092C -15.365999 27.092 -9.019999 21.567 -0.2819996 21.463C 13.678 21.307 17.93 26.16 17.93 26.16z" stroke="none" fill="#7C401F" fill-rule="nonzero" />
        <path transform="matrix(1 0 0 1 182.857 110.737)"  d="M17.314 24.104C 21.751 17.774 22.994 8.092001 22.081 0.36700058C 20.456 -13.395999 13.596999 -23.845999 -0.4790001 -23.979C -12.891 -24.104 -22.994 -10.516 -20.154 6.7070007C -18.563 16.354 -17.869999 19.197 -15.060999 24.018002C -15.060999 24.018002 -6.9939985 19.879002 0.46700096 19.792002C 12.383001 19.655003 17.314001 24.104002 17.314001 24.104002L17.314001 24.104002L17.314 24.104z" stroke="none" fill="#FFFFFF" fill-rule="nonzero" />
        <path transform="matrix(1 0 0 1 183.872 104.091)"  d="M17.317 6.789C 18.486063 5.8728333 19.57285 4.8563156 20.564999 3.751C 18.283 -8.367 11.447 -17.21 -1.493 -17.333C -10.241 -17.42 -17.834 -10.693001 -20.565 -0.6860008C -10.625001 10.4939995 4.122999 17.42 17.317 6.788999L17.317 6.788999L17.317 6.789z" stroke="none" fill="#DFE1EC" fill-rule="nonzero" />
        <path transform="matrix(1 0 0 1 212.304 129.607)"  d="M1.497 -10.094C 4.303 -2.6739998 2.229 6.9629993 -6.24 9.148001C -8.486 9.728001 -7.533 13.201 -5.283 12.621C 5.004 9.967 8.485 -1.75 4.968 -11.05C 4.1549997 -13.200001 0.6739998 -12.269 1.497 -10.094z" stroke="none" fill="#57331B" fill-rule="nonzero" />
        <path transform="matrix(1 0 0 1 185.4 122.014)"  d="M14.809 2.818C 15.031 -6.143 8.557 -13.576 0.346 -13.777C -7.8609996 -13.979 -14.690001 -6.8750005 -14.913 2.0909996C -15.03 6.8529997 -13.0060005 10.934999 -10.086 13.978999C -3.5460005 12.505999 3.238 12.307999 10.201 12.669999C 12.965 9.797999 14.698 7.3049994 14.809 2.817999L14.809 2.817999L14.809 2.818z" stroke="none" fill="#231F20" fill-rule="nonzero" />
        <path transform="matrix(1 0 0 1 191.092 116.363)"  d="M3.051 0.662C 2.8200543 1.7583088 2.0193715 2.6468105 0.95292217 2.990197C -0.1135273 3.3335834 -1.2822086 3.0791974 -2.1094458 2.3236136C -2.9366834 1.5680298 -3.2956235 0.42711362 -3.05 -0.666C -2.6567307 -2.3211303 -1.0107197 -3.356718 0.6515546 -2.9948325C 2.313829 -2.6329474 3.3803723 -1.0068234 3.05 0.662L3.05 0.662L3.051 0.662z" stroke="none" fill="#FFFFFF" fill-rule="nonzero" />
        <path transform="matrix(1 0 0 1 174.049 102.579)"  d="M-4.986 -9.889C -4.986 -9.889 4.688 -3.354 9.508 8.531C 8.82 8.468 7.41 9.889 7.41 9.889C 7.41 9.889 -4.22 -0.826 -9.508 -2.186C -9.204 -5.184 -6.637 -9.061 -4.9860005 -9.889L-4.9860005 -9.889L-4.986 -9.889z" stroke="none" fill="#FFFFFF" fill-rule="nonzero" />
        <path transform="matrix(1 0 0 1 185.199 111.574)"  d="M15.752 24.722C 27.317 6.905 20.468 -26.662 -4.751 -26.042C -15.018999 -25.789999 -22.06 -16.597 -24.564 -7.507C -27.316 2.481 -24.821999 15.693001 -19.73 24.636002C -19.223 25.528002 -18.136 25.718002 -17.268 25.283C -9.018 21.144001 5.3380013 18.521 12.924 25.086C 14.67 26.597 17.229 24.062 15.471 22.54C 6.3689995 14.664001 -9.354001 17.291 -19.085 22.173L-19.085 22.173L-16.622 22.819C -24.348 9.25 -25.747 -20.476 -4.751 -22.442C 18.134 -24.585999 21.982 8.518 12.644001 22.905C 11.376001 24.858 14.493001 26.661001 15.752001 24.722L15.752001 24.722L15.752 24.722z" stroke="none" fill="#57331B" fill-rule="nonzero" />
	</g>
	<g>
        <path transform="matrix(1 0 0 1 181.9 109.113)"  d="M17.93 26.16C 23.133 18.743 25.977001 8.990999 24.908 -0.061000824C 23.004002 -16.187 15.372001 -26.934 -1.1169987 -27.092001C -15.659999 -27.240002 -27.904999 -12.812001 -24.581999 7.367998C -22.717999 18.665998 -20.182999 23.990997 -15.365999 27.092C -15.365999 27.092 -9.019999 21.567 -0.2819996 21.463C 13.678 21.307 17.93 26.16 17.93 26.16z" stroke="none" fill="#7C401F" fill-rule="nonzero" />
        <path transform="matrix(1 0 0 1 182.857 114.547)"  d="M17.314 20.293C 21.751 13.962999 22.994 4.281 22.081 -3.4440002C 20.456 -17.207 13.596999 -27.656 -0.4790001 -27.789C -12.891 -27.914 -22.994 -14.327 -20.154 2.896C -18.563 12.543 -17.041 15.007 -14.231999 19.828C -14.231999 19.828 -7.4429994 27.914 0.018000603 27.828C 11.934001 27.689999 17.314 20.293 17.314 20.293z" stroke="none" fill="#FFFFFF" fill-rule="nonzero" />
        <path transform="matrix(1 0 0 1 183.872 104.091)"  d="M17.317 6.789C 18.486063 5.8728333 19.57285 4.8563156 20.564999 3.751C 18.283 -8.367 11.447 -17.21 -1.493 -17.333C -10.241 -17.42 -17.834 -10.693001 -20.565 -0.6860008C -10.625001 10.4939995 4.122999 17.42 17.317 6.788999L17.317 6.788999L17.317 6.789z" stroke="none" fill="#DFE1EC" fill-rule="nonzero" />
        <path transform="matrix(1 0 0 1 212.304 129.607)"  d="M1.497 -10.094C 4.303 -2.6739998 2.229 6.9629993 -6.24 9.148001C -8.486 9.728001 -7.533 13.201 -5.283 12.621C 5.004 9.967 8.485 -1.75 4.968 -11.05C 4.1549997 -13.200001 0.6739998 -12.269 1.497 -10.094z" stroke="none" fill="#57331B" fill-rule="nonzero" />
        <path transform="matrix(1 0 0 1 185.4 122.014)"  d="M14.809 0.285C 15.031 -8.676 8.557 -16.109 0.346 -16.31C -7.861 -16.512 -14.69 -9.408 -14.913 -0.442C -15.03 4.32 -13.0060005 8.401999 -10.086 11.445999C -3.6390004 16.512 5.646 16.262 10.236 10.761999C 13 7.89 14.698 4.772 14.809 0.285z" stroke="none" fill="#231F20" fill-rule="nonzero" />
        <path transform="matrix(1 0 0 1 191.092 116.363)"  d="M3.051 0.662C 2.8200543 1.7583088 2.0193715 2.6468105 0.95292217 2.990197C -0.1135273 3.3335834 -1.2822086 3.0791974 -2.1094458 2.3236136C -2.9366834 1.5680298 -3.2956235 0.42711362 -3.05 -0.666C -2.6567307 -2.3211303 -1.0107197 -3.356718 0.6515546 -2.9948325C 2.313829 -2.6329474 3.3803723 -1.0068234 3.05 0.662L3.05 0.662L3.051 0.662z" stroke="none" fill="#FFFFFF" fill-rule="nonzero" />
        <path transform="matrix(1 0 0 1 174.049 102.579)"  d="M-4.986 -9.889C -4.986 -9.889 4.688 -3.354 9.508 8.531C 8.82 8.468 7.41 9.889 7.41 9.889C 7.41 9.889 -4.22 -0.826 -9.508 -2.186C -9.204 -5.184 -6.637 -9.061 -4.9860005 -9.889L-4.9860005 -9.889L-4.986 -9.889z" stroke="none" fill="#FFFFFF" fill-rule="nonzero" />
        <path transform="matrix(1 0 0 1 182.223 114.105)"  d="M23.74 -2.451C 21.763 -17.454 12.324 -30.968 -4.519 -28.218C -21.964 -25.368 -24.839 -2.816 -20.404999 10.761999C -18.175999 17.588999 -13.995998 24.067999 -7.5739985 27.550999C -1.2749987 30.967999 7.3340015 29.641998 13.283002 26.119C 22.699001 20.545 24.839 7.535 23.740002 -2.4510002C 23.489002 -4.7330003 19.885002 -4.757 20.139002 -2.4510002C 20.961002 5.02 20.079002 13.518 15.291002 19.597C 11.671002 24.194 6.0160027 25.726 0.40100193 25.846C -7.1089983 26.006 -12.210999 19.895 -15.302999 13.788001C -21.425 1.7000008 -20.533998 -16.443 -7.4129987 -23.463997C -1.4819984 -26.637997 6.607002 -24.872997 11.661001 -20.860996C 17.132002 -16.516996 19.266 -9.078997 20.139 -2.4509964C 20.438 -0.18399644 24.043 -0.1549964 23.74 -2.4509964L23.74 -2.4509964L23.74 -2.451z" stroke="none" fill="#57331B" fill-rule="nonzero" />
	</g>
	<g>
        <path transform="matrix(1 0 0 1 181.9 109.113)"  d="M17.93 26.16C 23.133 18.743 25.977001 8.990999 24.908 -0.061000824C 23.004002 -16.187 15.372001 -26.934 -1.1169987 -27.092001C -15.659999 -27.240002 -27.904999 -12.812001 -24.581999 7.367998C -22.717999 18.665998 -20.182999 23.990997 -15.365999 27.092C -15.365999 27.092 -9.019999 21.567 -0.2819996 21.463C 13.678 21.307 17.93 26.16 17.93 26.16z" stroke="none" fill="#7C401F" fill-rule="nonzero" />
        <path transform="matrix(1 0 0 1 182.857 110.737)"  d="M17.314 24.104C 21.751 17.774 22.994 8.092001 22.081 0.36700058C 20.456 -13.395999 13.596999 -23.845999 -0.4790001 -23.979C -12.891 -24.104 -22.994 -10.516 -20.154 6.7070007C -18.563 16.354 -17.869999 19.197 -15.060999 24.018002C -15.060999 24.018002 -6.9939985 19.879002 0.46700096 19.792002C 12.383001 19.655003 17.314001 24.104002 17.314001 24.104002L17.314001 24.104002L17.314 24.104z" stroke="none" fill="#FFFFFF" fill-rule="nonzero" />
        <path transform="matrix(1 0 0 1 183.872 104.091)"  d="M17.317 6.789C 18.486063 5.8728333 19.57285 4.8563156 20.564999 3.751C 18.283 -8.367 11.447 -17.21 -1.493 -17.333C -10.241 -17.42 -17.834 -10.693001 -20.565 -0.6860008C -10.625001 10.4939995 4.122999 17.42 17.317 6.788999L17.317 6.788999L17.317 6.789z" stroke="none" fill="#DFE1EC" fill-rule="nonzero" />
        <path transform="matrix(1 0 0 1 212.304 129.607)"  d="M1.497 -10.094C 4.303 -2.6739998 2.229 6.9629993 -6.24 9.148001C -8.486 9.728001 -7.533 13.201 -5.283 12.621C 5.004 9.967 8.485 -1.75 4.968 -11.05C 4.1549997 -13.200001 0.6739998 -12.269 1.497 -10.094z" stroke="none" fill="#57331B" fill-rule="nonzero" />
        <path transform="matrix(1 0 0 1 185.4 122.014)"  d="M14.809 2.818C 15.031 -6.143 8.557 -13.576 0.346 -13.777C -7.8609996 -13.979 -14.690001 -6.8750005 -14.913 2.0909996C -15.03 6.8529997 -13.0060005 10.934999 -10.086 13.978999C -3.5460005 12.505999 3.238 12.307999 10.201 12.669999C 12.965 9.797999 14.698 7.3049994 14.809 2.817999L14.809 2.817999L14.809 2.818z" stroke="none" fill="#231F20" fill-rule="nonzero" />
        <path transform="matrix(1 0 0 1 191.092 116.363)"  d="M3.051 0.662C 2.8200543 1.7583088 2.0193715 2.6468105 0.95292217 2.990197C -0.1135273 3.3335834 -1.2822086 3.0791974 -2.1094458 2.3236136C -2.9366834 1.5680298 -3.2956235 0.42711362 -3.05 -0.666C -2.6567307 -2.3211303 -1.0107197 -3.356718 0.6515546 -2.9948325C 2.313829 -2.6329474 3.3803723 -1.0068234 3.05 0.662L3.05 0.662L3.051 0.662z" stroke="none" fill="#FFFFFF" fill-rule="nonzero" />
        <path transform="matrix(1 0 0 1 174.049 102.579)"  d="M-4.986 -9.889C -4.986 -9.889 4.688 -3.354 9.508 8.531C 8.82 8.468 7.41 9.889 7.41 9.889C 7.41 9.889 -4.22 -0.826 -9.508 -2.186C -9.204 -5.184 -6.637 -9.061 -4.9860005 -9.889L-4.9860005 -9.889L-4.986 -9.889z" stroke="none" fill="#FFFFFF" fill-rule="nonzero" />
        <path transform="matrix(1 0 0 1 185.199 111.574)"  d="M15.752 24.722C 27.317 6.905 20.468 -26.662 -4.751 -26.042C -15.018999 -25.789999 -22.06 -16.597 -24.564 -7.507C -27.316 2.481 -24.821999 15.693001 -19.73 24.636002C -19.223 25.528002 -18.136 25.718002 -17.268 25.283C -9.018 21.144001 5.3380013 18.521 12.924 25.086C 14.67 26.597 17.229 24.062 15.471 22.54C 6.3689995 14.664001 -9.354001 17.291 -19.085 22.173L-19.085 22.173L-16.622 22.819C -24.348 9.25 -25.747 -20.476 -4.751 -22.442C 18.134 -24.585999 21.982 8.518 12.644001 22.905C 11.376001 24.858 14.493001 26.661001 15.752001 24.722L15.752001 24.722L15.752 24.722z" stroke="none" fill="#57331B" fill-rule="nonzero" />
	</g>
	<g>
        <path transform="matrix(1 0 0 1 181.9 109.113)"  d="M17.93 26.16C 23.133 18.743 25.977001 8.990999 24.908 -0.061000824C 23.004002 -16.187 15.372001 -26.934 -1.1169987 -27.092001C -15.659999 -27.240002 -27.904999 -12.812001 -24.581999 7.367998C -22.717999 18.665998 -20.182999 23.990997 -15.365999 27.092C -15.365999 27.092 -9.019999 21.567 -0.2819996 21.463C 13.678 21.307 17.93 26.16 17.93 26.16z" stroke="none" fill="#7C401F" fill-rule="nonzero" />
        <path transform="matrix(1 0 0 1 182.857 114.547)"  d="M17.314 20.293C 21.751 13.962999 22.994 4.281 22.081 -3.4440002C 20.456 -17.207 13.596999 -27.656 -0.4790001 -27.789C -12.891 -27.914 -22.994 -14.327 -20.154 2.896C -18.563 12.543 -17.041 15.007 -14.231999 19.828C -14.231999 19.828 -7.4429994 27.914 0.018000603 27.828C 11.934001 27.689999 17.314 20.293 17.314 20.293z" stroke="none" fill="#FFFFFF" fill-rule="nonzero" />
        <path transform="matrix(1 0 0 1 183.872 104.091)"  d="M17.317 6.789C 18.486063 5.8728333 19.57285 4.8563156 20.564999 3.751C 18.283 -8.367 11.447 -17.21 -1.493 -17.333C -10.241 -17.42 -17.834 -10.693001 -20.565 -0.6860008C -10.625001 10.4939995 4.122999 17.42 17.317 6.788999L17.317 6.788999L17.317 6.789z" stroke="none" fill="#DFE1EC" fill-rule="nonzero" />
        <path transform="matrix(1 0 0 1 212.304 129.607)"  d="M1.497 -10.094C 4.303 -2.6739998 2.229 6.9629993 -6.24 9.148001C -8.486 9.728001 -7.533 13.201 -5.283 12.621C 5.004 9.967 8.485 -1.75 4.968 -11.05C 4.1549997 -13.200001 0.6739998 -12.269 1.497 -10.094z" stroke="none" fill="#57331B" fill-rule="nonzero" />
        <path transform="matrix(1 0 0 1 184.265 121.238)"  d="M14.809 0.285C 15.031 -8.676 8.557 -16.109 0.346 -16.31C -7.861 -16.512 -14.69 -9.408 -14.913 -0.442C -15.03 4.32 -13.0060005 8.401999 -10.086 11.445999C -3.6390004 16.512 5.646 16.262 10.236 10.761999C 13 7.89 14.698 4.772 14.809 0.285z" stroke="none" fill="#231F20" fill-rule="nonzero" />
        <path transform="matrix(1 0 0 1 191.092 116.363)"  d="M3.051 0.662C 2.8200543 1.7583088 2.0193715 2.6468105 0.95292217 2.990197C -0.1135273 3.3335834 -1.2822086 3.0791974 -2.1094458 2.3236136C -2.9366834 1.5680298 -3.2956235 0.42711362 -3.05 -0.666C -2.6567307 -2.3211303 -1.0107197 -3.356718 0.6515546 -2.9948325C 2.313829 -2.6329474 3.3803723 -1.0068234 3.05 0.662L3.05 0.662L3.051 0.662z" stroke="none" fill="#FFFFFF" fill-rule="nonzero" />
        <path transform="matrix(1 0 0 1 174.049 102.579)"  d="M-4.986 -9.889C -4.986 -9.889 4.688 -3.354 9.508 8.531C 8.82 8.468 7.41 9.889 7.41 9.889C 7.41 9.889 -4.22 -0.826 -9.508 -2.186C -9.204 -5.184 -6.637 -9.061 -4.9860005 -9.889L-4.9860005 -9.889L-4.986 -9.889z" stroke="none" fill="#FFFFFF" fill-rule="nonzero" />
        <path transform="matrix(1 0 0 1 182.223 114.105)"  d="M23.74 -2.451C 21.763 -17.454 12.324 -30.968 -4.519 -28.218C -21.964 -25.368 -24.839 -2.816 -20.404999 10.761999C -18.175999 17.588999 -13.995998 24.067999 -7.5739985 27.550999C -1.2749987 30.967999 7.3340015 29.641998 13.283002 26.119C 22.699001 20.545 24.839 7.535 23.740002 -2.4510002C 23.489002 -4.7330003 19.885002 -4.757 20.139002 -2.4510002C 20.961002 5.02 20.079002 13.518 15.291002 19.597C 11.671002 24.194 6.0160027 25.726 0.40100193 25.846C -7.1089983 26.006 -12.210999 19.895 -15.302999 13.788001C -21.425 1.7000008 -20.533998 -16.443 -7.4129987 -23.463997C -1.4819984 -26.637997 6.607002 -24.872997 11.661001 -20.860996C 17.132002 -16.516996 19.266 -9.078997 20.139 -2.4509964C 20.438 -0.18399644 24.043 -0.1549964 23.74 -2.4509964L23.74 -2.4509964L23.74 -2.451z" stroke="none" fill="#57331B" fill-rule="nonzero" />
	</g>
	<g>
        <path transform="matrix(1 0 0 1 99.986 118.262)"  d="M20.385 -4.605C 16.741001 -17.605 9.858 -27.33 -5.9419994 -23.894C -15.740999 -10.035999 -17.889 1.0790005 -21.273998 15.417002C -19.119999 19.594002 -15.927998 23.219002 -12.810998 24.590002C -12.810998 24.590002 -7.866998 18.998001 -0.060997963 17.800003C 12.410002 15.896003 16.861004 19.563004 16.861004 19.563004C 20.531004 12.476004 22.545004 3.1030045 20.385004 -4.6049957L20.385004 -4.6049957L20.385 -4.605z" stroke="none" fill="#7C401F" fill-rule="nonzero" />
        <path transform="matrix(1 0 0 1 98.322 122.311)"  d="M18.773 15.095C 21.901 9.047 21.725 0.499 19.88 -6.08C 16.596 -17.801 9.069 -25.987 -3.544 -24.319C -14.668 -22.854 -21.901 -9.799 -17.07 4.767C -14.363999 12.926001 -13.365999 15.303 -10.2109995 19.123001C -10.2109995 19.123001 -3.8249993 25.987001 2.8390007 24.967001C 13.484001 23.338001 18.773 15.095001 18.773 15.095001L18.773 15.095001L18.773 15.095z" stroke="none" fill="#FFFFFF" fill-rule="nonzero" />
        <path transform="matrix(1 0 0 1 98.774 112.912)"  d="M-3.996 -14.92C -11.228 -13.968 -16.810999 -8.114 -18.508999 -0.13399982C -12.034999 8.832 -0.013998032 16.448002 10.936001 9.702001C 14.315001 7.0850005 16.517 3.8260007 18.509 0.45300102C 14.844 -9.703 7.56 -16.448 -3.996 -14.92z" stroke="none" fill="#DFE1EC" fill-rule="nonzero" />
        <path transform="matrix(1 0 0 1 101.4 128.014)"  d="M13.596 -1.654C 12.602 -9.448 5.82 -15.069 -1.553 -14.202C -8.925 -13.337 -14.091999 -6.3159995 -13.098 1.4820004C -12.57 5.6240005 -10.216 8.906 -7.1969995 11.174001C -0.5869994 15.069 6.3480005 13.184001 10.388 8.939001C 12.479 6.098001 14.092999 2.249001 13.596 -1.6539993L13.596 -1.6539993L13.596 -1.654z" stroke="none" fill="#231F20" fill-rule="nonzero" />
        <path transform="matrix(1 0 0 1 106.664 123.84)"  d="M2.818 0.187C 2.714 1.691 1.37 2.831 -0.187 2.726C -1.745 2.624 -2.921 1.3190001 -2.8170002 -0.18899989C -2.715 -1.696 -1.37 -2.832 0.188 -2.73C 1.7459999 -2.627 2.921 -1.321 2.818 0.18700004L2.818 0.18700004L2.818 0.187z" stroke="none" fill="#FFFFFF" fill-rule="nonzero" />
        <path transform="matrix(1 0 0 1 90.865 111.336)"  d="M-5.426 -8.932C -5.426 -8.932 4.1270003 -3.2330003 9.334 7.5980005C 8.674999 7.5650005 7.4059997 8.932 7.4059997 8.932C 7.4059997 8.932 -3.425 -0.193 -9.333 -1.635C -9.199 -4.422 -6.955 -8.106 -5.426 -8.932z" stroke="none" fill="#FFFFFF" fill-rule="nonzero" />
        <path transform="matrix(1 0 0 1 99.764 123.582)"  d="M18.263 15.305C 24.159 2.646 20.315 -15.68 8.644 -23.875C 3.578 -27.431 -3.776 -27.912 -9.4800005 -25.853C -15.588 -23.648 -19.186 -17.548 -20.95 -11.651001C -24.159 -0.92000103 -20.402 14.181 -11.226001 21.080997C -2.1430006 27.911997 12.615998 25.651997 18.263 15.304997C 19.375 13.265997 16.267 11.449997 15.155001 13.487997C 10.511001 21.994997 -0.9729996 23.350998 -8.606998 18.529997C -16.101997 13.795997 -18.696 2.3449974 -18.314999 -5.8170033C -17.717999 -18.570004 -6.3239985 -27.699003 5.830002 -21.373003C 16.959 -15.58 20.021 3.04 15.155 13.488C 14.181 15.578 17.284 17.408 18.263 15.305z" stroke="none" fill="#57331B" fill-rule="nonzero" />
	</g>
	<g>
        <path transform="matrix(1 0 0 1 86.264 93.491)"  d="M-11.861 22.044C -13.121 16.586 -6.056 6.991 0.176 0.211C 12.910999 -13.643 29.285 -4.407 29.285 -4.407C 29.285 -4.407 26.766 -24.56 14.171 -22.461C 6.7059994 -21.217001 9.131 -14.065001 9.131 -14.065001C 9.131 -14.065001 -4.724 -19.522 -11.581 -13.645C -15.518001 -10.271 -8.757 -4.259001 -8.757 -4.259001C -8.757 -4.259001 -16.768 -3.5450008 -20.115 1.499999C -23.508 6.6089993 -16.288 8.2769985 -16.288 8.2769985C -16.288 8.2769985 -29.285 11.861999 -24.178 19.523998C -20.817999 24.559998 -11.860999 22.043999 -11.860999 22.043999L-11.860999 22.043999L-11.861 22.044z" stroke="none" fill="#80491F" fill-rule="nonzero" />
        <path transform="matrix(1 0 0 1 88.198 92.375)"  d="M-12.059 22.681C -12.82 17.325 -7.707 11.346 -4.663 7.46C -0.799 2.529 3.413 -1.88 9.546 -3.777C 14.875999 -5.424 21.566 -4.424 26.442 -1.737C 27.508 -1.151 29.338 -1.861 29.151 -3.2919998C 28.272 -10.0060005 25.776 -17.339 20.132 -21.468C 13.394 -26.398 2.7040005 -21.220001 5.462 -12.471001L5.462 -12.471001L7.6759996 -14.686001C 2.0219998 -16.861 -5.6810007 -18.399 -11.430001 -15.842001C -18.552002 -12.675001 -16.945002 -6.4280014 -11.963001 -1.8710012L-11.963001 -1.8710012L-10.689001 -4.944001C -16.008001 -4.3970013 -21.511002 -2.1120012 -24.174 2.7489986C -26.414 6.8419986 -22.289 10.224998 -18.701 11.128999L-18.701 11.128999L-18.701 7.657C -23.435001 9.0130005 -29.338001 12.200001 -29.055 17.848C -28.668001 25.560999 -18.955 26.397999 -13.316 24.895C -11.075 24.298 -12.027 20.825 -14.273 21.424C -18.234 22.479 -25.216 22.602 -25.497 17.01C -25.654 13.865 -20.14 11.815001 -17.743 11.129C -16.061 10.646999 -15.985 8.099 -17.743 7.6569996C -22.011 6.5829997 -20.966 3.1619997 -17.708 0.98899937C -15.744 -0.32100058 -13.045 -1.1020007 -10.689 -1.3440006C -9.251 -1.4920006 -8.149 -3.2560005 -9.417 -4.417001C -10.415999 -5.330001 -11.268 -6.3590007 -12.025 -7.4800005C -15.306999 -12.34 -7.3929996 -13.375 -4.6969995 -13.455C -0.89099956 -13.568 3.1700006 -12.5789995 6.719001 -11.214C 8.005001 -10.719 9.320001 -12.201 8.933001 -13.4279995C 8.150001 -15.910999 8.780001 -18.277 11.429001 -19.310999C 15.375001 -20.850998 19.063 -18.374998 21.25 -15.2839985C 23.542 -12.044998 25.178 -6.143998 25.551 -3.2919989L25.551 -3.2919989L28.26 -4.845999C 21.647 -8.488998 12.679 -9.352999 5.738001 -6.2359986C -0.815 -3.293 -5.263 2.248 -9.482 7.879C -12.804001 12.31 -16.35 17.87 -15.531 23.638C -15.205 25.929 -11.737 24.951 -12.059 22.681z" stroke="none" fill="#57331B" fill-rule="nonzero" />
	</g>
	<g>
        <path transform="matrix(1 0 0 1 186.448 42.199)"  d="M-24.574 5.963C -23.997 6.799 -16.196999 -2.3910003 -5.823 -0.01999998C -0.49900007 1.194 10.585001 7.072 15.429001 17.576C 16.857 20.672 29.419 14.72 27.688 7.957C 26.33 2.651 14.946 -0.72 14.946 -0.72C 14.946 -0.72 22.536 -2.691 19.712 -6.1029997C 14.601 -12.28 3.894 -9.967 3.894 -9.967C 3.894 -9.967 9.542 -14.77 6.677 -16.753C 1.0139999 -20.672 -10.136999 -13.206 -10.136999 -13.206C -10.136999 -13.206 -5.756999 -20.634 -12.797999 -18.622C -17.96 -17.145 -29.419 -1.066 -24.574 5.963z" stroke="none" fill="#80491F" fill-rule="nonzero" />
        <path transform="matrix(1 0 0 1 185.812 41.298)"  d="M-24.416 8.599C -22.611 9.336 -19.958 6.517 -18.673 5.668C -13.968 2.5600002 -8.715 1.4580002 -3.3140001 3.3290002C 1.777 5.092 6.2959995 8.596001 9.941 12.474001C 12.093 14.764001 13.596 20.704 17.206 21.060001C 23.185 21.650002 30.187 15.773001 30.272999 9.775002C 30.363998 3.4250016 20.932999 -0.07399845 16.060999 -1.5549984L16.060999 -1.5549984L16.060999 1.9170015C 20.831999 0.60700154 25.019999 -2.8569987 20.769999 -7.381998C 16.796999 -11.612998 9.356998 -11.881998 4.051998 -10.800998L4.051998 -10.800998L5.802998 -7.792998C 9.625998 -11.133998 12.039998 -16.155998 6.038998 -18.413998C 0.88899803 -20.350998 -6.2100015 -16.622997 -10.410002 -13.858997L-10.410002 -13.858997L-7.9470015 -11.395997C -6.7310014 -13.518997 -5.866001 -15.919997 -6.8700013 -18.265997C -8.318001 -21.649998 -13.929001 -19.188997 -15.781002 -17.680998C -22.092003 -12.544998 -30.364002 -0.50699806 -25.492002 7.7720013C -24.315002 9.770001 -21.203003 7.9600015 -22.383003 5.9540014C -25.493004 0.67100143 -20.502003 -6.8519983 -17.312004 -10.979999C -15.877005 -12.836999 -13.955004 -15.157999 -11.683004 -15.985998C -8.737004 -17.059998 -10.252005 -14.616999 -11.055004 -13.213998C -11.919004 -11.704998 -10.145004 -9.728998 -8.592004 -10.750998C -6.295004 -12.262998 -3.7970037 -13.460998 -1.2040038 -14.365997C -0.4970038 -14.612997 7.3679957 -16.221996 5.9309964 -13.364997C 5.347996 -12.2059965 4.2279963 -11.186996 3.2569964 -10.338997C 1.7989964 -9.064997 3.3769963 -6.997997 5.0089965 -7.330997C 7.5379963 -7.845997 10.222997 -7.797997 12.756996 -7.377997C 13.719996 -7.217997 20.683996 -4.692997 18.464996 -3.0049968C 17.508997 -2.2769969 16.252996 -1.8709968 15.103996 -1.5549967C 13.352996 -1.0739968 13.417996 1.4050033 15.103996 1.9170032C 19.773996 3.3370032 30.173996 7.3430033 25.180996 13.529003C 24.623997 14.220003 18.631996 18.990004 17.619995 17.569004C 14.91 13.765 13.064 10.225 9.504 7C 4.689 2.639 -1.546 -0.756 -8.077 -1.301C -11.382 -1.577 -14.701 -0.40100002 -17.648998 0.949C -19.200998 1.6600001 -20.634998 2.6339998 -22.033998 3.6030002C -23.071999 4.3240004 -24.475998 4.7130003 -23.458998 5.1280003C -25.608997 4.25 -26.534998 7.7330003 -24.415998 8.599L-24.415998 8.599L-24.416 8.599z" stroke="none" fill="#57331B" fill-rule="nonzero" />
	</g>
	<g>
        <path transform="matrix(1 0 0 1 121.303 37.479)"  d="M6.696 24.798C 2.434 19.559 0.086 12.049 -1.683 5.675C -4.484 -4.4139996 -4.938 -16.181 1.9080001 -24.785C 3.338 -26.582 0.8080001 -29.147 -0.63699996 -27.331C -7.905 -18.196 -8.147 -6.7460003 -5.749 4.2420006C -4.057 11.995001 -0.94400024 21.081001 4.15 27.344C 5.616 29.146 8.147 26.582 6.696 24.798z" stroke="none" fill="#57331B" fill-rule="nonzero" />
        <path transform="matrix(1 0 0 1 132.901 36.91)"  d="M3.226 22.94C -3.535 8.754 -2.876 -10.018 5.885 -23.116C 7.1800003 -25.052 4.0600004 -26.852 2.7770002 -24.932999C -6.731 -10.717 -7.18 9.444 0.118 24.757C 1.116 26.852 4.219 25.024 3.226 22.94z" stroke="none" fill="#57331B" fill-rule="nonzero" />
        <path transform="matrix(1 0 0 1 146.513 39.287)"  d="M-1.031 18.199C -3.509 4.821 -4.395 -7.082 6.219 -17.283C 7.895 -18.894001 5.3459997 -21.437 3.6729999 -19.829C -7.896 -8.709 -7.221 4.473 -4.503 19.156C -4.08 21.437 -0.6109998 20.468 -1.0309999 18.199L-1.0309999 18.199L-1.031 18.199z" stroke="none" fill="#57331B" fill-rule="nonzero" />
	</g>
	<g>
        <path transform="matrix(0.9993908 -0.0348995 0.0348995 0.9993908 107.86865 168.66626)"  d="M35.183 11.985C 35.183 11.985 51.043 5.834 49.857 -0.623C 47.657 -12.519 23.098 -26.064 -0.519 -24.54C -25.494 -22.933 -43.594 -4.22 -47.32 4.02C -51.044 12.26 -40.452 15.877001 -34.868 17.675C -30.506 19.083 -1.4449997 26.064 35.183002 11.984999L35.183002 11.984999L35.183 11.985z" stroke="none" fill="#8F5123" fill-rule="nonzero" />
        <path transform="matrix(0.9993908 -0.0348995 0.0348995 0.9993908 112.93555 152.87573)"  d="M26.285 0.466C 26.419 5.095 14.893 7.862 0.334 8.288C -14.233001 8.713 -26.148 5.3050003 -26.282 0.6760001C -26.418999 -3.953 -14.726 -8.201 -0.1590004 -8.476C 12.455999 -8.713 26.151 -4.1629996 26.285 0.46600056L26.285 0.46600056L26.285 0.466z" stroke="none" fill="#A6632A" fill-rule="nonzero" />
        <path transform="matrix(0.9993908 -0.0348995 0.0348995 0.9993908 108.65625 165.9519)"  d="M34.833 16.965C 39.102 15.284 43.171 13.101 46.769 10.247C 51.645 6.378 51.534 1.6729994 48.414 -3.3150005C 44.222 -10.016001 36.405003 -14.387 29.404001 -17.483002C 20.284 -21.517002 10.250002 -23.383001 0.3010006 -23.176003C -16.764 -22.821003 -33.395996 -13.820003 -44.541 -1.1600018C -47.901 2.6569982 -51.646 7.5179987 -50.369 12.882998C -48.994 18.657999 -41.026 21.079998 -36.179 22.66C -33.966 23.382 -33.025 19.904999 -35.222 19.189C -39.812 17.692999 -48.333 15.226999 -46.849 8.891999C -45.916 4.9109993 -41.896 1.124999 -39.161 -1.6550007C -29.178999 -11.799001 -15.535 -18.368 -1.3470001 -19.493C 13.643 -20.682 30.932999 -15.597 42.063 -5.276C 44.085 -3.401 45.826 -1.144 46.836 1.435C 47.923 4.208 46.201 5.972 44.223 7.702C 41.326 10.237 37.442 12.09 33.876 13.493C 31.741999 14.334 32.67 17.816 34.833 16.965z" stroke="none" fill="#57331B" fill-rule="nonzero" />
        <path transform="matrix(0.9993908 -0.0348995 0.0348995 0.9993908 91.12842 177.86108)"  d="M9.467 5.84C 9.467 5.84 9.382 0.88 6.776 -2.892C 2.862 -8.548 -4.775 -10.058 -7.547 -7.483C -9.467 -5.693 0.925 10.057 9.467 5.84z" stroke="none" fill="#6D3A18" fill-rule="nonzero" />
        <path transform="matrix(0.9993908 -0.0348995 0.0348995 0.9993908 129.40527 171.09888)"  d="M-8.062 9.271C -8.062 9.271 -10.123 5.567 -8.021 1.5C -5.384 -3.604 3.776 -9.271 8.305 -6.353C 10.123 -5.187 2.998 8.977 -8.062 9.271z" stroke="none" fill="#6D3A18" fill-rule="nonzero" />
        <path transform="matrix(0.9993908 -0.0348995 0.0348995 0.9993908 91.14697 174.89673)"  d="M10.704 8.088C 10.4 -1.918 1.634 -10.411 -8.588 -6.969C -10.775001 -6.232 -9.837 -2.7549996 -7.63 -3.497C 0.287 -6.164 6.868 0.304 7.104 8.088C 7.175 10.404 10.775 10.411 10.704 8.088z" stroke="none" fill="#57331B" fill-rule="nonzero" />
        <path transform="matrix(0.9993908 -0.0348995 0.0348995 0.9993908 126.90967 171.74146)"  d="M10.857 -9.362C 1.501 -10.97 -13.141 -1.881 -7.538 8.91C -6.467 10.969999 -3.362 9.148 -4.4300003 7.0909996C -8.408 -0.569 3.713 -6.954 9.9 -5.89C 12.17 -5.5 13.142 -8.969 10.856999 -9.3619995L10.856999 -9.3619995L10.857 -9.362z" stroke="none" fill="#57331B" fill-rule="nonzero" />
        <path transform="matrix(0.9993908 -0.0348995 0.0348995 0.9993908 111.78662 151.68799)"  d="M6.937 -0.436C 7.103 1.99 4.132 4.149 0.296 4.39C -3.535 4.631 -6.775 2.8639998 -6.939 0.4389999C -7.103 -1.985 -4.13 -4.149 -0.294 -4.39C 3.535 -4.631 6.778 -2.863 6.937 -0.43599987L6.937 -0.43599987L6.937 -0.436z" stroke="none" fill="#FFE2A9" fill-rule="nonzero" />
        <path transform="matrix(0.9993908 -0.0348995 0.0348995 0.9993908 127.899414 151.61255)"  d="M4.663 0.739C 4.505 2.361 2.29 3.344 -0.281 2.937C -2.86 2.529 -4.819 0.886 -4.661 -0.732C -4.5059996 -2.3569999 -2.2959998 -3.343 0.28500032 -2.934C 2.859 -2.524 4.819 -0.88 4.663 0.739z" stroke="none" fill="#FFE2A9" fill-rule="nonzero" />
	</g>
	<g>
        <path transform="matrix(0.71903515 0.3506969 -0.35069692 0.71903515 323.49863 287.34705)"  d="M-56.998 18.318C -39.375 28.347 -12.953 48.949 7.77 51.031C 31.417 53.399998 45.483 34.660995 58.784 14.7369995C 63.634 7.8129997 70.451004 -14.694 71.625 -23.965C 73.012 -34.917 51.609 -47.628 41.262 -49.281C 30.916 -50.932 18.063002 -53.399998 14.871 -39.157997C 13.693 -33.9 6.779 -26.627 2.83 -24.406C -8.275 -17.328 -20.582 -23.75 -32.146004 -28.406C -41.411003 -32.351 -59.920006 -39.787 -68.998 -18.417C -71.342 -12.906 -73.012 9.207001 -56.998 18.318z" stroke="none" fill="#A86728" fill-rule="nonzero" />
        <path transform="matrix(0.71903515 0.3506969 -0.35069692 0.71903515 307.86005 255.60712)"  d="M-10.995 0.109C 1.999 2.546 18.95 11.577 31.823 5.243C 22.375 7.546 12.343 2.519 2.816 -1.3169999C -5.7510004 -4.9639997 -22.214 -11.577 -31.824 4.336C -25.838 0.338 -18.165 -1.325 -10.995 0.109z" stroke="none" fill="#F9CC74" fill-rule="nonzero" />
        <path transform="matrix(0.71903515 0.3506969 -0.35069692 0.71903515 352.61554 294.57983)"  d="M34.952 -16.135C 36.339 -27.087 14.935999 -39.799 4.588999 -41.452C -5.7580013 -43.103 -18.611002 -45.571 -21.802002 -31.328C -22.980001 -26.071 -29.894001 -18.798 -33.842003 -16.577C -37.896004 -13.992 -32.299004 43.182 -3.6320038 42.516C 4.444996 43.985 10.367996 37.85 16.766996 29.924C 18.648956 27.546219 20.431679 25.091976 22.110996 22.567C 26.959995 15.643 33.778996 -6.8640003 34.951996 -16.135L34.951996 -16.135L34.952 -16.135z" stroke="none" fill="#7C401F" fill-rule="nonzero" />
        <path transform="matrix(0.71903515 0.3506969 -0.35069692 0.71903515 313.79913 257.40625)"  d="M-40.022 10.707C -36.378998 1.6659994 -29.729 -3.3430004 -19.889 -2.4470005C -12.637 -1.786 -5.64 1.874 0.987 4.597C 10.8619995 8.654 21.182999 11.478001 30.982 5.7910004C 36.401 2.6470003 44.361 -3.4829998 43.913002 -10.5130005C 43.766003 -12.818001 40.166 -12.832001 40.314003 -10.5130005C 40.596004 -6.0840006 36.036003 -2.4440002 32.935 0.10599995C 28.486002 3.767 23.370003 5.711 17.577002 5.538C 7.82 5.247 -1.333 -0.633 -10.354 -3.83C -16.306 -5.9379997 -22.741001 -6.983 -28.938 -5.39C -36.348 -3.485 -40.794 3.0520005 -43.493 9.75C -44.361 11.905 -40.877 12.832 -40.022 10.707z" stroke="none" fill="#57331B" fill-rule="nonzero" />
        <path transform="matrix(0.71903515 0.3506969 -0.35069692 0.71903515 321.59525 303.67554)"  d="M-64.776 0.806C -39.095 14.459 -8.097 45.332 22.973999 29.385C 36.475998 22.456001 46.558 7.8859997 54.294 -4.713999C 57.805 -10.429998 59.903 -17.25 61.934998 -23.588999C 63.96 -29.908998 65.779 -36.422997 66.556 -43.029C 66.828 -45.332 63.224 -45.306 62.956 -43.029C 61.546 -31.053 57.305 -17.880999 51.612 -7.276001C 48.073997 -0.68300104 43.053 5.6029987 38.319 11.360998C 33.464 17.265999 27.869999 22.551998 21.158 26.276999C 6.6120014 34.350998 -9.272999 28.804998 -22.888 21.712997C -36.718002 14.508997 -49.2 5.0129967 -62.961002 -2.3030033C -65.008 -3.3920033 -66.827 -0.28500342 -64.776 0.80599666L-64.776 0.80599666L-64.776 0.806z" stroke="none" fill="#57331B" fill-rule="nonzero" />
        <path transform="matrix(0.71903515 0.3506969 -0.35069692 0.71903515 302.89337 297.6462)"  d="M-1.228 12.468C 6.199 15.175 12.77 11.787001 13.449 4.9060006C 14.126 -1.9829993 8.659 -9.754999 1.2320004 -12.468C -6.2019997 -15.175 -12.771999 -11.788 -13.448999 -4.905C -14.125999 1.9829998 -8.653 9.754999 -1.2279997 12.4679985L-1.2279997 12.4679985L-1.228 12.468z" stroke="none" fill="#925624" fill-rule="nonzero" />
        <path transform="matrix(0.71903515 0.3506969 -0.35069692 0.71903515 285.9547 279.2537)"  d="M-7.72 -5.429C -9.203 -2.241 -6.949 2.7790003 -2.684 5.7770004C 1.578 8.78 6.239 8.625 7.721 5.428C 9.203 2.234 6.95 -2.783 2.685 -5.783C -1.578 -8.78 -6.234 -8.626 -7.72 -5.429z" stroke="none" fill="#925624" fill-rule="nonzero" />
        <path transform="matrix(0.71903515 0.3506969 -0.35069692 0.71903515 319.4826 301.82843)"  d="M-2.884 4.784C 0.08899999 7.5030003 3.787 7.573 5.3789997 4.933C 6.9749994 2.289 5.8549995 -2.06 2.8829997 -4.787C -0.09300041 -7.504 -3.7900002 -7.573 -5.385 -4.9360003C -6.9750004 -2.2870004 -5.8570004 2.0569997 -2.8840003 4.784L-2.8840003 4.784L-2.884 4.784z" stroke="none" fill="#925624" fill-rule="nonzero" />
        <path transform="matrix(0.71903515 0.3506969 -0.35069692 0.71903515 316.99915 319.90735)"  d="M-3.616 7.524C 1.7159998 11.58 7.6549997 11.501 9.654 7.346C 11.65 3.194 8.947 -3.471 3.617 -7.523C -1.7189999 -11.58 -7.652 -11.504 -9.653999 -7.3529997C -11.650999 -3.1979995 -8.947999 3.462 -3.6159992 7.524L-3.6159992 7.524L-3.616 7.524z" stroke="none" fill="#925624" fill-rule="nonzero" />
	</g>
	<g>
        <path transform="matrix(0.7 0 0 0.7 350.024 302.941)"  d="M55.412 -30.356C 56.017 -21.522001 50.619 -9.225 52.523 -0.07700157C 53.872997 8.131998 55.724 12.756998 54.355 21.118998C 52.986 29.479998 50.617 39.6 43.125 44.305C 34.045 50.428 21.361 56.352 10.658001 59.072C 0.262 61.811 -4.846 56.102 -11.07 48.826C -15.594 43.447 -23.854 40.277 -25.242 32.665C -26.66 25.654001 -24.156 18.564001 -24.358 11.320002C -24.973 0.74 -33.365 -0.034 -39.309 -6.991C -56.016 -26.300999 -31.261997 -43.309002 -14.907999 -50.231003C -4.0879993 -55.057003 8.377001 -58.960003 20.545 -59.112003C 33.814 -59.278004 53.241997 -61.811005 55.412003 -30.356003L55.412003 -30.356003L55.412 -30.356z" stroke="none" fill="#A86728" fill-rule="nonzero" />
        <path transform="matrix(0.7 0 0 0.7 360.536 307.498)"  d="M40.395 -36.865C 39.91 -43.897003 38.558 -49.22 36.61 -53.261C 32.245003 -32.165 26.426 -23.284002 26.426 1.4319992C 26.426 20.765 0.4260006 36.098 -20.907999 31.432C -27.738998 31.432 -34.568 29.095999 -40.443 25.067999L-40.443 25.067999L-40.259003 26.155998C -38.871002 33.767998 -30.611004 36.937996 -26.087002 42.316998C -19.863003 49.593 -14.755002 55.302 -4.359001 52.562996C 6.343999 49.842995 19.027998 43.918995 28.107998 37.795998C 35.6 33.090996 37.968998 22.970997 39.337997 14.609997C 40.706997 6.2479963 38.856 1.6229963 37.505997 -6.5860023C 35.601997 -15.734002 40.999996 -28.031002 40.394997 -36.865L40.394997 -36.865L40.395 -36.865z" stroke="none" fill="#7C401F" fill-rule="nonzero" />
        <path transform="matrix(0.7 0 0 0.7 349.395 277.855)"  d="M21.443 -23.275C 9.275 -23.123 -3.19 -19.22 -14.01 -14.394C -29.221 -7.957 -51.691 7.207 -41.318 24.832C -43.208 8.407 -30.556 -2.851 -11.105 -9.06C 19.108 -19.406 41.733 -17.400002 51.69 -12.507C 44.656998 -24.832 31.338999 -23.397999 21.442999 -23.275L21.442999 -23.275L21.443 -23.275z" stroke="none" fill="#ECB445" fill-rule="nonzero" />
        <path transform="matrix(0.7 0 0 0.7 353.967 238.888)"  d="M-20.172 40.082C -18.068 34.773003 -16.673 35.912003 -19.036001 33.434002C -22.741001 29.550001 -24.791 25.169003 -25.503002 20.664001C -26.607002 11.455002 -16.462002 -2.8659992 10.149998 -3.3259983C 28.496 -3.643 21.916 7.762 17.344 15.3C 13.757 21.563 8.798 26.322 7.752 31.087" stroke="none" fill="#A86728" fill-rule="nonzero" />
        <path transform="matrix(0.7 0 0 0.7 351.54 232.481)"  d="M13.616 5.826C -12.995999 6.283 -23.140999 20.605999 -22.036999 29.816C -21.384998 33.936 -19.598999 37.949 -16.467 41.577C -18.304998 29.865 -15.534999 15.466 7.5550003 7.917C 14.033001 6 19.748001 6.995 23.258 8.257999C 23.734999 8.429999 24.609 8.808 24.609 8.808C 23.025 6.9059997 19.692 5.7219996 13.615999 5.8259993L13.615999 5.8259993L13.616 5.826z" stroke="none" fill="#ECB445" fill-rule="nonzero" />
        <path transform="matrix(0.7 0 0 0.7 354.05 303.512)"  d="M48.638 -31.871C 48.867 -25.668 47.128002 -19.601 46.085 -13.531C 45.031 -7.393 45.59 -1.9730005 46.786 4.0860004C 49.306 16.841 47.843 34.218002 35.982998 42.067C 30.163998 45.918003 23.830997 49.048 17.399998 51.727C 11.267998 54.281002 3.6119976 57.663002 -3.0820026 55.888C -8.412003 54.474 -12.125003 48.978 -15.606003 45.109C -19.712002 40.547 -25.931004 38.079002 -28.162003 31.970001C -30.612003 25.258001 -27.536003 16.734001 -27.526003 9.803001C -27.519003 5.2610016 -29.610003 1.0270014 -33.122 -1.6379986C -36.102 -3.8989985 -40.899002 -6.8119984 -44.604004 -11.814999C -48.455006 -17.015 -48.927002 -23.204998 -46.170006 -28.963999C -41.531006 -38.649 -30.383007 -44.936996 -21.054007 -49.276C -8.431006 -55.148003 4.574993 -58.567 18.499994 -58.886C 24.762995 -59.029003 31.257996 -59.094 36.980995 -56.187C 45.761993 -51.728 47.924995 -40.756 48.637993 -31.871C 48.82199 -29.573 52.422993 -29.555 52.23799 -31.871C 51.51799 -40.856 49.59299 -50.41 42.583992 -56.684998C 37.708992 -61.049995 31.041992 -62.252 24.719992 -62.502C 3.062992 -63.36 -19.468008 -56.920998 -37.059006 -44.095C -44.265007 -38.841 -50.825005 -31.679 -51.616005 -22.435001C -52.469006 -12.470001 -44.190006 -5.413002 -37.004005 -0.15500069C -25.118006 8.540999 -36.137005 24.147 -30.448006 35.711C -28.311005 40.052 -23.569006 42.882 -20.002007 45.905C -15.911007 49.371998 -13.025006 53.906 -8.642007 57.107998C -0.085006714 63.359997 11.388993 58.100998 19.910992 54.55C 29.813992 50.426 41.57399 45.361 46.75499 35.406998C 51.56599 26.166998 52.46899 14.760998 50.56899 4.7019978C 49.21 -2.49 48.754 -8.367 50.1 -15.611C 51.1 -20.996 52.442997 -26.355 52.238 -31.871C 52.152 -34.185 48.552 -34.194 48.638 -31.871z" stroke="none" fill="#57331B" fill-rule="nonzero" />
        <path transform="matrix(0.7 0 0 0.7 352.513 240.163)"  d="M-15.581 38.04C -12.953 30.124 -13.416 31.958 -16.425001 28.058C -19.626001 23.909 -21.355001 19.076 -20.456001 14.265C -19.077 6.887 -10.96 -1.365 4.283 -3.91C 11.48 -5.111 20.149 -5.2130003 22.632 -1.4980001C 24.695 1.5889997 22.271 5.824 20.501 9.153C 18.643 12.645 16.278 16.097 14.879 19.612999C 13.269 23.658998 8.91 24.59 8.812 28.565998C 8.755 30.885998 12.4470005 30.888998 12.411 28.565998C 12.281 20.201998 17.549 21.923998 19.904 17.142998C 21.979 12.929998 24.997 8.786998 26.498999 4.546998C 27.627998 1.3609979 27.767998 -1.9910021 24.484999 -4.453002C 20.679 -7.307 11.964 -6.88 5.423 -6.107C -9.787 -4.309 -19.379 3.17 -23.048 10.43C -25.134 14.557 -24.884 18.531 -23.654001 22.413C -22.823002 25.034 -21.362001 27.533 -19.518002 29.924C -16.971 33.225998 -16.813002 30.339 -19.052002 37.084C -19.785002 39.293 -16.309002 40.232 -15.581002 38.04L-15.581002 38.04L-15.581 38.04z" stroke="none" fill="#57331B" fill-rule="nonzero" />
        <path transform="matrix(0.7 0 0 0.7 86.2 146.8)"  d="M378.114 207.366C 374.543 207.545 350.25702 214.241 346.685 222.991C 345.826 225.095 349.793 231.901 352.221 226.47299C 355.25702 219.687 380.078 209.50899 380.078 209.50899C 380.078 209.50899 381.685 207.18698 378.114 207.36598L378.114 207.36598L378.114 207.366zM377.935 254.152C 374.36398 254.331 364.275 255.57999 360.703 264.33C 359.844 266.434 362.114 272.258 364.542 266.83C 367.578 260.04398 379.899 256.29398 379.899 256.29398C 379.899 256.29398 381.50598 253.97298 377.935 254.15198z" stroke="none" fill="#57331B" fill-rule="nonzero" />
	</g>
</g>
</svg>