<?xml version="1.0" standalone="no"?>
<!DOCTYPE svg PUBLIC "-//W3C//DTD SVG 1.0//EN" "http://www.w3.org/TR/2001/REC-SVG-20010904/DTD/svg10.dtd">
<svg xmlns="http://www.w3.org/2000/svg" xmlns:xlink="http://www.w3.org/1999/xlink" id="body_1" width="128" height="96">

<defs>
        <clipPath  id="1">

            <path clip-rule="evenodd" d="M0 0L512 0L512 512L0 512z" />        </clipPath>
            <clipPath  id="2">

                <path clip-rule="evenodd" d="M0 0L512 0L512 512L0 512L0 0z" />            </clipPath>
                <clipPath  id="3">

                    <path clip-rule="evenodd" d="M0 0L512 0L512 512L0 512L0 0z" />                </clipPath>
</defs>

<g transform="matrix(0.1875 0 0 0.1875 32.000008 -0)">
	<g clip-path="url(#1)" >
		<g transform="matrix(1 0 0 1 0 0)" clip-path="url(#2)" >
			<g transform="matrix(1 0 0 1 0 0)">
				<g transform="matrix(1 0 0 1 85.735 387.36)">
                    <path d="M15.715 46.172C -19.029 34.185 -26.077 19.35 -32.231 5.825C -36.311 -3.146 -35.369 -18.853 -23.057 -22.724C -15.674 -25.044 -20.565 -6.723 -12.511 -0.229C -7.522 3.799 -10.436 -8.682 -11.851 -25.161C -13.269 -41.643 1.287 -49.527 8.382 -47.792C 15.477 -46.057 7.174 -31.627 7.174 -31.627C 7.174 -31.627 6.893 -30.537 6.893 -30.537C 9.595 -36.933 19.307 -41.882 26.151 -39.058C 36.311 -34.868 13.057 -25.772 13.502 9.363C 13.681 23.708 18.225 37.451 31.709 43.16C 31.709 43.16 34.23 46.118 26.905 48.338C 22.982 49.527 15.715 46.172 15.715 46.172z" stroke="none" fill="#B9772B" fill-rule="nonzero" />
				</g>
				<g transform="matrix(1 0 0 1 84.668 351.451)">
                    <path d="M9.45 -11.883C 2.354 -13.618 -12.202 -5.735 -10.784 10.748C -10.701 11.721 -10.612 12.677 -10.521 13.618C -9.301 1.488 -0.06 -7.819 12.202 -8.899C 11.929 -10.359 11.119 -11.475 9.45 -11.883z" stroke="none" fill="#F6C04D" fill-rule="nonzero" />
				</g>
				<g transform="matrix(1 0 0 1 103.058 352.721)">
                    <path d="M10.953 0.256C 11.844 -1.887 11.484 -3.323 8.828 -4.419C 4.464 -6.22 -8.933 -4.846 -11.844 6.22C -0.488 -4.263 6.414 -3.116 10.953 0.256z" stroke="none" fill="#F6C04D" fill-rule="nonzero" />
				</g>
				<g transform="matrix(1 0 0 1 104.258 388.887)">
                    <path d="M14.095 40.079C -3.046 32.315 -5.022 11.486 -2.227 -5.022C -0.364 -16.019 5.327 -24.255 10.661 -33.666C 14.559 -40.545 7.48 -44.138 0.993 -43.01C -4.956 -41.976 -11.014 -38.343 -13.367 -32.542C -14.743 -29.149 -15.861 -25.797 -16.055 -22.122C -16.207 -19.253 -15.578 -16.337 -15.523 -13.464C -15.479 -11.146 -11.879 -11.141 -11.924 -13.464C -12.038 -19.454 -12.719 -24.08 -10.574 -29.912C -8.166 -36.457 1.137 -42.507 7.934 -38.407C 9.864 -37.243 1.153 -25.11 0.348 -23.586C -10.295 -3.441 -12.045 32.17 12.278 43.188C 14.375 44.138 16.207 41.036 14.095 40.079z" stroke="none" fill="#56331B" fill-rule="nonzero" />
				</g>
				<g transform="matrix(1 0 0 1 76.843 384.696)">
                    <path d="M17.62 -28.054C 20.231 -32.653 23.394 -39.095 21.148 -44.339C 18.465 -50.604 7.695 -45.631 4.266 -43.182C -4.588 -36.854 -5.255 -26.91 -4.225 -16.971C -3.653 -11.453 -2.73 -5.924 -2.62 -0.369C -2.595 0.856 -2.947 0.864 -2.171 1.273C -3.239 0.71 -3.976 -0.522 -4.59 -1.508C -5.964 -3.71 -6.434 -6.503 -6.881 -9.018C -7.689 -13.553 -7.471 -23.502 -14.645 -21.794C -23.442 -19.7 -27.16 -10.13 -27.311 -2.039C -27.585 12.611 -15.64 27.457 -4.541 35.677C 4.119 42.092 14.351 46.289 24.452 49.833C 26.648 50.604 27.585 47.125 25.41 46.362C 7.505 40.079 -9.45 31.289 -18.676 14.02C -22.643 6.595 -25.172 -1.002 -22.548 -9.392C -21.918 -11.407 -14.797 -21.589 -12.306 -17.939C -10.442 -15.205 -10.729 -10.172 -10.167 -7.016C -9.556 -3.584 -6.109 7.394 -0.644 4.571C 1.222 3.607 0.996 0.366 0.962 -1.308C 0.847 -7.129 -0.212 -12.986 -0.811 -18.77C -1.908 -29.358 1.076 -40.036 12.454 -43.207C 22.027 -45.874 16.969 -34.2 14.512 -29.87C 13.364 -27.849 16.474 -26.035 17.62 -28.054z" stroke="none" fill="#56331B" fill-rule="nonzero" />
				</g>
			</g>
			<g transform="matrix(1 0 0 1 0 0)">
				<g transform="matrix(1 0 0 1 422.84 397.154)">
                    <path d="M-21.336 -81.555C -43.456 -87.373 -49.609 -57.91 -55.495 -40.538C -62.234 -20.652 -75.756 11.592 -66.674 28.601C -58.323 44.239 -53.48 59.039 -21.098 75.632C -11.209 80.699 17.98 87.373 36.97 83.074C 50.766 79.95 56.958 73.124 58.513 64.94C 58.513 64.94 59.36 64.879 63.229 63.762C 66.007 62.959 75.757 56.545 75.65 52.124C 75.522 46.849 69.421 43.436 64.445 44.593C 70.193 35.293 67.873 34.078 64.324 31.47C 60.776 28.863 59.12 29.899 38.909 31.549C 18.7 33.199 15.659 25.246 10.888 21.313C 6.118 17.382 0.423 13.157 1.324 -4.995C 2.227 -23.147 6.319 -36.072 5.44 -45.881C 4.561 -55.69 1.351 -66.24 -5.785 -73.105C -11.594 -78.694 -17.309 -80.496 -21.336 -81.555z" stroke="none" fill="#A86728" fill-rule="nonzero" />
				</g>
				<g transform="matrix(1 0 0 1 453.199 382.174)">
                    <path d="M33.966 46.45C 30.418 43.843 28.76 44.879 8.549 46.529C -11.66 48.179 -14.699 40.225 -19.471 36.293C -24.24 32.361 -29.935 28.137 -29.034 9.984C -28.131 -8.167 -24.039 -21.092 -24.918 -30.902C -25.552 -37.982 -27.412 -45.442 -31.076 -51.63C -19.541 -14.671 -37.246 -5.921 -33.462 19.284C -30.186 41.107 -12.699 50.922 4.389 51.304C 18.901 51.629 29.788 47.137 37.246 49.656C 36.685 48.379 35.438 47.531 33.966 46.45z" stroke="none" fill="#EBB445" fill-rule="nonzero" />
				</g>
				<g transform="matrix(1 0 0 1 411.791 398.763)">
                    <path d="M-44.445 -42.147C -38.838 -58.7 -32.148 -85.764 -12.474 -83.292C 1.304 -81.252 8.488 -74.657 7.329 -66.384C 15.208 -27.762 -39.792 39.238 -13.792 58.238C 4.974 71.951 42.724 77.057 64.707 72.984C 61.234 76.718 55.856 79.691 48.018 81.465C 29.029 85.764 -0.16 79.089 -10.049 74.023C -42.43 57.429 -47.275 42.629 -55.626 26.992C -64.708 9.983 -51.184 -22.26 -44.445 -42.147z" stroke="none" fill="#925423" fill-rule="nonzero" />
				</g>
				<g transform="matrix(1 0 0 1 421.575 397.51)">
                    <path d="M65.176 45.239C 71.084 43.344 72.975 32.947 67.386 29.51C 59.14 24.437 48.199 29.162 39.268 29.078C 28.691 28.978 18.192 25.686 11.205 17.447C 5.998 11.305 4.065 2.866 3.848 -4.995C 3.291 -25.128 10.053 -44.699 4.117 -64.575C 2.097 -71.34 -3.019 -76.142 -9.047 -79.499C -17.119 -83.994 -25.976 -86.328 -33.93 -80.67C -41.741 -75.114 -46.372 -65.339 -50.097 -56.826C -54.602 -46.535 -58.025 -35.704 -61.732 -25.109C -66.243 -12.216 -69.929 1.14 -69.502 14.913C -69.182 25.179 -65.521 34.935 -60.331 43.685C -49.095 62.628 -29.843 75.154 -8.979 81.124C 2.746 84.479 15.112 86.328 27.314 85.914C 37.054 85.584 48.635 83.472 55.569 76.027C 59.35 71.967 66.381 60.319 56.01 60.799C 46.697 61.229 31.975 67.877 24.697 59.218C 23.202 57.437 20.669 59.998 22.153 61.762C 27.04 67.58 35.338 67.304 42.221 66.483C 45.791 66.056 49.321 65.354 52.867 64.778C 54.3 64.545 55.735 64.375 57.187 64.368C 59.152 64.357 57.84 65.287 57.033 67.01C 51.757 78.283 40.612 81.322 28.913 82.226C 16.149 83.212 3.056 80.822 -9.178 77.322C -31.461 70.946 -50.925 56.101 -60.898 34.956C -72.975 9.348 -60.241 -17.968 -51.762 -42.551C -48.18 -52.934 -44.023 -63.651 -37.222 -72.395C -34.419 -76 -30.885 -79.156 -26.404 -80.371C -20.662 -81.931 -13.398 -77.977 -8.673 -75.119C 7.252 -65.492 3.379 -41.841 1.831 -26.482C 0.098 -9.289 -2.37 9.576 11.307 22.819C 17.972 29.272 27.245 31.8 36.25 32.542C 40.892 32.925 45.21 32.386 49.77 31.684C 54.774 30.915 66.475 28.756 67.046 36.237C 67.197 38.209 66.293 41.103 64.219 41.768C 62.018 42.474 62.959 45.95 65.176 45.239z" stroke="none" fill="#56331B" fill-rule="nonzero" />
				</g>
				<g transform="matrix(1 0 0 1 485.995 450.069)">
                    <path d="M-14.693 -7.724C -9.568 -6.831 -4.487 -7.172 0.685 -7.208C 4.25 -7.234 12.433 -6.329 10.071 -0.891C 7.832 4.262 0.393 9.492 -5.129 10.298C -7.419 10.632 -6.441 14.101 -4.172 13.769C 2.833 12.747 12.345 5.662 14.006 -1.424C 16.977 -14.101 -8.017 -10.2 -13.736 -11.195C -16.005 -11.59 -16.977 -8.121 -14.693 -7.724z" stroke="none" fill="#56331B" fill-rule="nonzero" />
				</g>
			</g>
			<g transform="matrix(1 0 0 1 0 0)">
				<g transform="matrix(1 0 0 1 263.359 262.304)">
                    <path d="M-180.026 179.362C -175.265 165.149 -169.018 144.191 -154.604 126.688C -140.19 109.188 -118.098 83.262 -112.951 76.056C -107.804 68.848 -105.371 68.393 -97.19 37.715C -82.776 -16.336 -40.617165 -51.77718 -40.617165 -51.77718C -28.704523 -98.05061 -2.2834938 -151.30936 22.365726 -173.91817C 33.690826 -184.30618 40.12101 -187.56538 46.55898 -191.73291C 53.216736 -196.04112 59.076164 -198.21954 67.88891 -200.74155C 86.75388 -206.13997 135.0416 -201.46635 150.38371 -172.46817C 150.38371 -172.46817 160.19397 -145.81789 165.37247 -115.96321C 167.51645 -103.60491 182.3128 -89.75058 184.5334 -77.65062C 187.69029 -60.443012 183.249 -45.237 177.938 -30.311C 174 -19.241 168.238 -6.464 161.466 -2.514C 158.375 -0.71 149.471 -0.734 149.471 -0.734C 149.471 -0.734 148.294 46.668 146.54 64.92C 143.966 91.685 137.789 133.38 111.023 165.294C 84.258 197.209 39.47 206.989 0.349 209.565C -38.772 212.139 -76.349 204.932 -102.087 200.299C -127.825 195.666 -144.295 192.705 -155.105 195.021C -155.105 195.021 -186.224 197.861 -180.026 179.362z" stroke="none" fill="#B9772B" fill-rule="nonzero" />
				</g>
				<g transform="matrix(1 0 0 1 351.618 260.416)">
                    <path d="M-68.389755 -75.67491C -67.33646 -76.96743 -37.621616 -98.106094 30.036224 -95.48063C 61.201202 -94.271355 78.04115 -76.58067 80.38515 -47.458416C 81.438446 -34.361706 75.801 -3.401 59.722 3.462C 58.408 9.165 53.715 29.283 50.112 40.963C 45.043 57.375 37.698 74.531 33.722 81.984C 29.748 89.442 23.423 100.438 19.315 97.885C 15.21 95.334 20.953 76.452 23.332 66.013C 26.419 52.447 31.66 20.33 33.025 12.918C 33.65 9.524 34.134 5.516 34.475 2.157C 27.891 0.313 21.425 -6.704 16.272 -4.428C -7.056 5.872 -38.969 0.214 -40.036 5.31C -41.999 14.664 -46.703 39.852 -48.212 53.65C -49.369 64.275 -50.093 83.901 -54.831 85.136C -59.573 86.364 -61.987 74.066 -63.322 65.817C -64.668 57.568 -66.135 43.891 -65.583 26.805C -65.268 17.242 -61.225 0.678 -60.148 -9.791C -75.591 -19.751 -77.15717 -24.883352 -77.42317 -37.92335C -77.71818 -52.441353 -70.43195 -73.16851 -68.389755 -75.67491z" stroke="none" fill="#A06025" fill-rule="nonzero" />
				</g>
				<g transform="matrix(1 0 0 1 257.258 390.312)">
                    <path d="M47.076 53.354C 118.704 34.532 135.075 -12.645 150.003 -78.815C 150.925 -80.66 152.295 -82.497 153.991 -84.13C 153.597 -75.925 153.142 -68.313 152.641 -63.089C 150.067 -36.324 143.891 5.371 117.126 37.285C 90.36 69.2 45.572 78.98 6.451 81.556C -32.669 84.13 -70.247 76.923 -95.986 72.29C -121.724 67.657 -138.194 64.697 -149.003 67.013C -149.003 67.013 -153.992 61.322 -144.104 58.934C -136.334 57.058 -116.022 58.432 -99.592 58.021C -57.583 56.971 11.981 62.576 47.076 53.354z" stroke="none" fill="#A06025" fill-rule="nonzero" />
				</g>
				<g transform="matrix(1 0 0 1 250.296 228.342)">
                    <path d="M163.44672 -140.43924C 138.9325 -170.9889 82.452965 -176.95543 55.98433 -156.10178C 48.601242 -151.54124 40.833004 -145.52829 32.913376 -138.26443C 8.264367 -115.65641 -14.686012 -65.00673 -26.596655 -18.733294C -26.596655 -18.733294 -68.763 16.677 -83.177 70.727C -91.357 101.406 -93.791 101.861 -98.938 109.067C -104.085 116.274 -126.178 142.201 -140.592 159.7C -149.337 170.32 -156.695 183.278 -162.204 195.008C -152.963 188.9 -130.077 155.303 -96.965 116.347C -81.384 101.254 -85.642 89.276 -65.804 43.309C -48.629 6.554 -29.089613 -1.1264634 -21.359163 -17.391743C -15.420736 -29.886316 -11.051362 -42.616016 -2.592583 -64.560875C 8.747517 -93.97889 12.2973795 -102.82243 23.061329 -116.70759C 27.81167 -122.83481 38.057472 -137.05095 48.953815 -145.30196C 105.93549 -188.44763 163.44672 -140.43924 163.44672 -140.43924z" stroke="none" fill="#F6C04D" fill-rule="nonzero" />
				</g>
				<g transform="matrix(1 0 0 1 173.473 345.906)">
                    <path d="M2.256 -14.251C 7.133 -13.143 10.068 -5.859 8.821 2.003C 7.577 9.877 2.622 15.359 -2.251 14.246C -7.127 13.14 -10.068 5.859 -8.816 -2.013C -7.57 -9.88 -2.615 -15.36 2.256 -14.251z" stroke="none" fill="#A86728" fill-rule="nonzero" />
				</g>
				<g transform="matrix(1 0 0 1 153.272 385.728)">
                    <path d="M8.601 9.659C 1.397 17.7 -8.289 19.89 -13.037 14.554C -17.788 9.213 -15.799 -1.625 -8.6 -9.662C -1.393 -17.701 8.296 -19.89 13.038 -14.559C 17.788 -9.218 15.795 1.622 8.601 9.659z" stroke="none" fill="#A86728" fill-rule="nonzero" />
				</g>
				<g transform="matrix(1 0 0 1 180.915 314.558)">
                    <path d="M6.075 2.091C 3.97 6.616 -0.452 9.359 -3.802 8.203C -7.163 7.051 -8.177 2.442 -6.073 -2.094C -3.963 -6.621 0.454 -9.359 3.809 -8.212C 7.165 -7.05 8.177 -2.446 6.075 2.091z" stroke="none" fill="#A86728" fill-rule="nonzero" />
				</g>
				<g transform="matrix(1 0 0 1 139.89 422.994)">
                    <path d="M7.102 4.186C 3.294 9.335 -2.967 11.652 -6.883 9.339C -10.814 7.029 -10.908 0.972 -7.102 -4.19C -3.288 -9.342 2.97 -11.652 6.895 -9.349C 10.815 -7.029 10.908 -0.982 7.102 4.186z" stroke="none" fill="#A86728" fill-rule="nonzero" />
				</g>
				<g transform="matrix(1 0 0 1 115.2 409.793)">
                    <path d="M9.592 4.267C 5.202 11.919 -2.647 16.212 -7.944 13.854C -13.245 11.496 -13.981 3.39 -9.595 -4.269C -5.199 -11.921 2.65 -16.212 7.948 -13.855C 13.245 -11.498 13.981 -3.386 9.592 4.267z" stroke="none" fill="#A86728" fill-rule="nonzero" />
				</g>
				<g transform="matrix(1 0 0 1 171.418 404.488)">
                    <path d="M-6.431 -2.228C -3.967 -7.513 0.915 -10.796 4.464 -9.563C 8.019 -8.332 8.898 -3.053 6.429 2.234C 3.966 7.513 -0.914 10.796 -4.466 9.565C -8.016 8.33 -8.898 3.053 -6.431 -2.228z" stroke="none" fill="#A86728" fill-rule="nonzero" />
				</g>
				<g transform="matrix(1 0 0 1 265.642 263.382)">
                    <path d="M-156.764 196.363C -134.348 193.709 -111.5 199.862 -89.562 203.688C -60.631 208.733 -31.333 212.101 -1.934 210.287C 21.779 208.824 45.999 204.839 67.952 195.456C 91.251 185.498 109.546 169.612 122.446 147.776C 148.7 103.337 147.742 48.146 148.988 -1.812C 148.988 -1.812 147.188 -0.012 147.188 -0.012C 150.484 -0.02 153.785 -0.288 157.019 -0.93C 161.381 -1.796 164.357 -5.403 166.869 -8.796C 174.541 -19.157 178.866 -33.294 181.663 -45.702C 184.495 -58.264 187.08353 -72.0705 182.56337 -83.95594C 178.34119 -95.05754 169.03429 -103.72498 165.40263 -115.09352C 163.34943 -121.521515 162.7361 -128.60167 161.20944 -135.18254C 159.66699 -141.83566 157.88536 -148.43774 155.97595 -155.002C 154.12292 -161.37396 152.13712 -167.73032 149.85934 -173.9756C 147.1792 -181.3237 139.84412 -187.49774 133.39554 -191.76613C 125.58569 -196.93542 116.36958 -200.12021 107.21148 -202.24199C 90.76067 -206.05351 73.791725 -206.13976 57.70328 -201.05132C 36.299953 -194.28114 19.859547 -179.73943 6.5406375 -162.63026C -9.352623 -142.21466 -21.063084 -118.645706 -30.73795 -95.00912C -36.09123 -81.93001 -40.59975 -68.52832 -44.230038 -54.91493C -44.898975 -52.40353 -48.724 -50.665 -50.706 -48.673C -63.561 -35.75 -74.692 -21.008 -83.832 -5.254C -90.016 5.404 -95.065 16.716 -98.921 28.416C -102.529 39.359 -104.748 50.717 -109.053 61.44C -113.798 73.261 -124.071 83.382 -132.041 92.977C -139.874 102.409 -147.77 111.788 -155.592 121.229C -163.58 130.872 -169.625 141.235 -174.476 152.776C -177.41 159.755 -179.805 166.948 -182.21 174.12C -183.469 177.873 -185.607 181.449 -183.97 185.349C -179.711 195.494 -166.27 197.37 -156.764 196.363C -154.48 196.122 -154.456 192.519 -156.764 192.763C -164.706 193.604 -178.482 192.541 -181.037 182.826C -181.395 181.462 -180.326 179.751 -179.9 178.512C -179.088 176.15 -178.304 173.778 -177.508 171.411C -175.504 165.457 -173.389 159.547 -171.005 153.733C -161.156 129.718 -142.342 111.061 -126.018 91.329C -118.607 82.369 -110.093 73.273 -105.581 62.396C -101.163 51.745 -98.937 40.328 -95.45 29.373C -91.517 17.019 -85.867 5.262 -79.29 -5.887C -70.248 -21.216 -59.066 -35.359806 -46.30124 -47.420944C -43.09495 -50.450237 -41.45711 -51.291107 -40.31042 -55.588707C -36.67377 -69.21792 -31.956034 -82.57557 -26.59915 -95.662674C -16.68271 -119.8898 -4.1935253 -144.0629 12.637246 -164.59456C 26.843664 -181.92484 45.01331 -195.32993 67.67512 -200.25388C 84.97203 -204.01198 105.380455 -200.79698 121.4349 -194.09644C 130.54861 -190.29291 138.84721 -184.52109 144.33328 -176.4704C 147.82414 -171.34753 149.19301 -164.87772 150.98003 -159.08868C 154.92766 -146.30835 158.19034 -133.3303 160.6883 -120.216385C 162.98407 -108.16286 170.03319 -99.239075 176.19019 -88.75322C 183.64406 -76.05973 182.61676 -60.04579 179.62366 -46.221275C 176.88013 -33.553 170.537 -18.003 161.5 -7.831C 157.83 -3.7 152.354 -3.624 147.188 -3.612C 146.188 -3.61 145.413 -2.794 145.388 -1.812C 144.544 32.031 144.395 66.504 136.938 99.678C 131.17 125.338 120.203 150.711 101.39 169.523C 83.322 187.589 58.397 196.935 33.833 202.054C -1.371 209.391 -37.579 208.026 -72.956 202.766C -89.038 200.376 -104.967 197.091 -121.026 194.564C -132.857 192.704 -144.81 191.347 -156.764 192.763C -159.04 193.033 -159.067 196.635 -156.764 196.363z" stroke="none" fill="#56331B" fill-rule="nonzero" />
				</g>
				<g transform="matrix(1 0 0 1 227.987 228.454)">
                    <path d="M7.36 2.027C 9.306 -2.387 7.58 -6.873 3.516 -7.991C -0.55 -9.11 -5.422 -6.439 -7.363 -2.023C -9.305 2.387 -7.583 6.871 -3.516 7.99C 0.551 9.11 5.42 6.438 7.36 2.027z" stroke="none" fill="#D08729" fill-rule="nonzero" />
				</g>
				<g transform="matrix(1 0 0 1 210.645 254.782)">
                    <path d="M10.26 1.705C 12.216 -5.23 9.203 -11.617 3.538 -12.555C -2.134 -13.499 -8.311 -8.638 -10.263 -1.7C -12.217 5.236 -9.208 11.62 -3.538 12.559C 2.129 13.499 8.308 8.642 10.26 1.705z" stroke="none" fill="#D08729" fill-rule="nonzero" />
				</g>
				<g transform="matrix(1 0 0 1 193.303 277.642)">
                    <path d="M6.581 -0.492C 6.979 -4.824 4.344 -8.116 0.708 -7.848C -2.929 -7.579 -6.192 -3.844 -6.588 0.49C -6.979 4.82 -4.343 8.115 -0.708 7.842C 2.926 7.573 6.195 3.84 6.581 -0.492z" stroke="none" fill="#D08729" fill-rule="nonzero" />
				</g>
				<g transform="matrix(1 0 0 1 199.236 300.341)">
                    <path d="M5.928 -0.911C 6.468 -4.574 4.256 -7.142 0.98 -6.642C -2.29 -6.142 -5.385 -2.755 -5.927 0.911C -6.468 4.581 -4.26 7.142 -0.98 6.643C 2.291 6.139 5.382 2.755 5.928 -0.911z" stroke="none" fill="#D08729" fill-rule="nonzero" />
				</g>
				<g transform="matrix(1 0 0 1 218.284 281.218)">
                    <path d="M6.277 1.904C 8.184 -2.867 6.918 -7.578 3.451 -8.628C -0.019 -9.681 -4.377 -6.667 -6.279 -1.899C -8.183 2.867 -6.919 7.582 -3.45 8.63C 0.018 9.681 4.375 6.667 6.277 1.904z" stroke="none" fill="#D08729" fill-rule="nonzero" />
				</g>
			</g>
			<g transform="matrix(1 0 0 1 0 0)">
				<g transform="matrix(1 0 0 1 63.91 417.35)">
                    <path d="M-47.178 -24.73C -46.824 -25.32 -46.474 -25.826 -46.13 -26.298C -43.337 -31.542 -38.11 -33.371 -32.264 -24.509C -31.224 -23.135 -29.977 -21.269 -28.426 -18.667C -35.389 -29.263 -27.766 -45.006 -21.671 -42.477C -15.667 -39.985 -14.024 -20.898 -4.257 -12.538C 10.131 -0.232 17.791 8.194 42.526 16.273C 42.526 16.273 54.514 20.986 50.516 34.214C 49.68 36.981 50.263 45.007 15.589 42.408C 13.099 42.222 -16.096 37.42 -28.01 32.693C -45.533 25.739 -51.07 20.098 -52.792 13.616C -54.514 7.131 -53.634 0.081 -51.464 -3.009C -51.1 -3.527 -50.7 -3.959 -50.294 -4.359C -49.561 -5.555 -48.755 -6.44 -47.926 -6.792C -47.274 -7.068 -46.655 -7.186 -46.055 -7.217C -46.809 -8.71 -51.228 -18.055 -47.178 -24.73z" stroke="none" fill="#B9772B" fill-rule="nonzero" />
				</g>
				<g transform="matrix(1 0 0 1 35.173 398.169)">
                    <path d="M-0.311 -0.514C -0.118 -0.166 0.088 0.176 0.311 0.514C 0.097 0.157 -0.109 -0.184 -0.311 -0.514z" stroke="none" fill="#B9772B" fill-rule="nonzero" />
				</g>
				<g transform="matrix(1 0 0 1 62.805 436.271)">
                    <path d="M50.68 11.982C 45.68 14.982 32.588 17.322 25.197 16.781C 6.013 15.377 -3.805 13.729 -20.805 6.729C -33.21 1.959 -49.239 -11.008 -45.471 -26.086C -45.907 -26.024 -46.356 -25.91 -46.82 -25.712C -47.649 -25.361 -48.456 -24.477 -49.189 -23.281C -49.594 -22.881 -49.994 -22.448 -50.359 -21.93C -52.528 -18.84 -53.407 -11.789 -51.686 -5.305C -49.964 1.177 -44.427 6.817 -26.904 13.771C -14.99 18.499 14.204 23.3 16.693 23.486C 51.367 26.086 51.995 18.224 52.831 15.458C 53.407 13.554 51.873 11.266 50.68 11.982z" stroke="none" fill="#A06025" fill-rule="nonzero" />
				</g>
				<g transform="matrix(1 0 0 1 35.173 398.169)">
                    <path d="M0.311 0.514C 0.097 0.156 -0.108 -0.185 -0.311 -0.514C -0.118 -0.167 0.089 0.175 0.311 0.514zM0.746 0.275C 0.746 0.275 -0.166 0.777 -0.166 0.777C -0.166 0.777 -0.746 -0.275 -0.746 -0.275C -0.746 -0.275 0.166 -0.777 0.166 -0.777C 0.166 -0.777 0.746 0.275 0.746 0.275z" stroke="none" fill="#7F7F7F" fill-rule="nonzero" />
				</g>
				<g transform="matrix(1 0 0 1 70.049 403.554)">
                    <path d="M-27.632 -20.729C -14.201 7.122 -8.191 18.693 35.891 29.904C 11.556 21.876 3.894 13.48 -10.396 1.258C -20.163 -7.102 -21.806 -26.19 -27.81 -28.682C -30.752 -29.904 -34.049 -26.866 -35.891 -22.207C -33.907 -24.51 -30.313 -26.688 -27.632 -20.729z" stroke="none" fill="#F6C04D" fill-rule="nonzero" />
				</g>
				<g transform="matrix(1 0 0 1 22.844 394.415)">
                    <path d="M8.74 -2.949C 1.933 -11.681 -3.002 -7.234 -5.064 -3.364C -5.408 -2.891 -5.758 -2.386 -6.113 -1.796C -8.74 2.534 -7.802 7.976 -6.613 11.681C -5.381 4.479 -1.798 -9.165 8.74 -2.949z" stroke="none" fill="#F6C04D" fill-rule="nonzero" />
				</g>
				<g transform="matrix(1 0 0 1 61.246 434.876)">
                    <path d="M49.323 19.669C 42.471 24.257 34.109 24.256 26.157 23.94C 16.76 23.566 7.446 22.227 -1.753 20.312C -14.049 17.751 -26.731 14.217 -37.346 7.299C -43.446 3.324 -48.788 -2.545 -48.626 -10.13C -48.559 -13.291 -47.693 -16.567 -46.396 -19.439C -44.376 -23.913 -40.889 -22.586 -38.055 -19.61C -29.253 -10.368 -18.309 1.058 -4.225 -0.779C -1.957 -1.075 -1.928 -4.679 -4.225 -4.379C -14.523 -3.036 -23.718 -10.132 -30.833 -16.796C -34.265 -20.011 -38.348 -28.008 -44.333 -26.073C -49.61 -24.368 -51.159 -17.931 -51.937 -13.037C -53.058 -5.987 -50.798 -0.789 -46.193 4.474C -36.502 15.546 -19.63 19.86 -5.857 23.086C 4.101 25.418 14.233 26.821 24.435 27.45C 33.475 28.008 43.34 28 51.139 22.778C 53.057 21.493 51.259 18.374 49.323 19.669z" stroke="none" fill="#56331B" fill-rule="nonzero" />
				</g>
				<g transform="matrix(1 0 0 1 70.511 403.98)">
                    <path d="M39.072 30.386C 34.372 26.406 28.869 25.087 23.124 23.24C 15.495 20.787 8.39 15.083 2.135 10.212C -2.739 6.417 -7.741 2.2 -11.384 -2.832C -14.803 -7.556 -16.894 -13.208 -19.16 -18.531C -21.378 -23.742 -25.506 -34.421 -32.936 -29.58C -40.846 -24.427 -40.472 -11.184 -36.229 -4.07C -35.041 -2.079 -31.928 -3.888 -33.12 -5.886C -35.911 -10.566 -36.189 -15.612 -34.648 -20.771C -33.675 -24.027 -30.427 -29.506 -26.939 -25.75C -24.283 -22.89 -22.917 -18.256 -21.443 -14.751C -19.619 -10.413 -17.716 -6.135 -15.234 -2.128C -10.369 5.731 -2.084 11.713 5.286 17.036C 9.603 20.155 14.261 23.581 19.22 25.59C 25.077 27.963 31.565 28.73 36.526 32.931C 38.286 34.422 40.846 31.888 39.072 30.386z" stroke="none" fill="#56331B" fill-rule="nonzero" />
				</g>
				<g transform="matrix(1 0 0 1 35.285 400.9)">
                    <path d="M19.861 11.759C 13.304 7.963 6.905 4.917 2.678 -1.566C -0.739 -6.806 -4.101 -15.359 -11.406 -15.748C -16.757 -16.033 -19.589 -9.468 -20.561 -5.262C -21.868 0.394 -20.976 7.085 -16.701 11.273C -15.042 12.898 -12.493 10.354 -14.154 8.728C -18.033 4.929 -18.014 -1.114 -16.652 -6.021C -16.044 -8.215 -14.865 -10.47 -12.906 -11.723C -9.804 -13.705 -6.46 -9.172 -5.001 -7.114C -2.038 -2.934 0.031 1.825 3.633 5.544C 7.545 9.582 13.258 12.097 18.044 14.868C 20.057 16.033 21.868 12.922 19.861 11.759z" stroke="none" fill="#56331B" fill-rule="nonzero" />
				</g>
			</g>
			<g transform="matrix(1 0 0 1 0 0)">
				<g transform="matrix(1 0 0 1 210.332 338.598)">
                    <path d="M4.534 27.207C -9.982 10.558 -7.042 -15.425 12.083 -27.177C 14.056 -28.39 12.249 -31.505 10.265 -30.286C -10.917 -17.269 -14.056 11.351 1.988 29.753C 3.516 31.506 6.052 28.948 4.534 27.207z" stroke="none" fill="#56331B" fill-rule="nonzero" />
				</g>
				<g transform="matrix(1 0 0 1 227.878 401.564)">
                    <path d="M14.287 -95.5C 38.754 -106.104 51.032 -73.23 60.876 -54.247C 72.144 -32.514 85.1 31.353 77.63 52.555C 70.761 72.049 74.726 85.107 41.685 96.252C 29.409 100.396 -1.269 106.104 -23.91 104.495C -40.359 103.325 -55.612 99.435 -51.432 88.808C -51.432 88.808 -60.846 86.13 -65.502 85.522C -70.16 84.914 -78.178 81.027 -78.959 74.927C -79.742 68.824 -75.058 64.384 -69.12 64.842C -79.283 62.885 -85.1 54.233 -81.469 50.603C -77.838 46.972 -75.746 47.874 -52.165 46.218C -28.584 44.559 -9.537 34.099 -4.732 28.726C 0.072 23.356 5.892 17.482 1.653 -3.277C -2.583 -24.037 -9.575 -38.21 -10.29 -49.669C -11.005 -61.13 -9.164 -73.852 -2.148 -83.021C 3.561 -90.485 9.832 -93.568 14.287 -95.5z" stroke="none" fill="#A86728" fill-rule="nonzero" />
				</g>
				<g transform="matrix(1 0 0 1 221.027 479.172)">
                    <path d="M-7.562 19.37C -14.691 19.661 -28.952 17.43 -32.222 9.979C -32.746 6.451 -30.132 4.62 -28.434 1.482C -34.186 1.615 -40.719 6.192 -46.079 4.102C -52.747 2.928 -61.242 -0.86 -58.37 -10.665C -56.671 -13.803 -51.835 -15.24 -52.947 -15.438C -63.582 -15.963 -72.015 -20.279 -72.79 -28.495C -73.428 -28.106 -74.001 -27.623 -74.618 -27.006C -78.249 -23.375 -72.433 -14.724 -62.27 -12.767C -68.208 -13.225 -72.892 -8.784 -72.109 -2.682C -71.328 3.419 -63.31 7.306 -58.652 7.914C -53.996 8.521 -44.582 11.199 -44.582 11.199C -48.762 21.826 -33.509 25.717 -17.06 26.887C 5.582 28.496 36.259 22.787 48.536 18.643C 68.125 12.035 74.705 4.755 78.249 -4.141C 74.36 -2.218 60.834 16.565 -7.562 19.37z" stroke="none" fill="#925423" fill-rule="nonzero" />
				</g>
				<g transform="matrix(1 0 0 1 276.654 386.175)">
                    <path d="M12.1 -38.859C 2.256 -57.842 -10.022 -90.715 -34.489 -80.112C -35.073 -79.859 -35.686 -79.584 -36.325 -79.286C -12.569 -83.298 -2.654 -54.203 3.938 -38.132C 9.972 -22.559 14.684 -7.16 19.223 9.563C 26.063 37.129 25.811 63.425 21.817 90.715C 24.862 84.147 25.77 76.696 28.854 67.943C 36.325 46.741 23.369 -17.126 12.1 -38.859z" stroke="none" fill="#EBB445" fill-rule="nonzero" />
				</g>
				<g transform="matrix(1 0 0 1 240.574 402.221)">
                    <path d="M2.5 -94.603C 22.596 -106.139 36.263 -74.553 43.157 -60.848C 52.073 -43.122 56.891 -24.624 60.339 -5.109C 63.56 13.123 66.351 32.423 63.964 50.922C 63.001 58.387 61.225 65.654 57.511 72.258C 51.914 82.212 42.054 88.625 31.664 92.725C 18.081 98.085 2.688 100.084 -11.732 101.487C -19.993 102.291 -28.32 102.567 -36.606 102.039C -44.161 101.556 -52.875 100.846 -59.381 96.586C -62 94.872 -63.582 91.161 -62.233 88.151C -61.52 86.558 -59.465 85.639 -58.008 84.904C -53.409 82.584 -48.123 81.437 -43.174 80.118C -38.536 78.881 -24.414 77.102 -24.274 70.279C -24.226 67.956 -27.826 67.96 -27.874 70.279C -27.948 73.886 -43.503 76.477 -46.094 77.172C -52.06 78.772 -60.147 80.269 -64.484 85.107C -69.328 90.512 -64.444 97.929 -59.407 100.789C -49.979 106.139 -36.524 106.004 -26.042 105.899C -13.436 105.772 -0.796 104.094 11.576 101.755C 21.905 99.802 32.042 97.139 41.384 92.207C 56.847 84.043 64.893 69.701 67.303 52.859C 69.328 38.71 68.077 24.457 66.292 10.341C 64.064 -7.289 60.723 -24.986 55.293 -41.927C 50.69 -56.293 43.098 -70.612 34.845 -83.182C 27.104 -94.972 15.059 -105.962 0.683 -97.711C -1.33 -96.556 0.483 -93.446 2.5 -94.603z" stroke="none" fill="#56331B" fill-rule="nonzero" />
				</g>
				<g transform="matrix(1 0 0 1 198.416 399.87)">
                    <path d="M18.883 -66.389C 8.277 -34.117 55.104 14.128 13.401 35.88C 7.817 38.793 1.601 40.302 -4.346 42.277C -9.602 44.023 -14.764 45.547 -20.31 46.014C -27.681 46.635 -35.07 46.136 -42.43 47.197C -47.525 47.931 -54.574 49.003 -54.831 55.349C -55.104 62.064 -45.298 67.729 -39.659 68.335C -37.351 68.583 -37.375 64.981 -39.659 64.736C -43.984 64.271 -48.387 60.798 -50.605 57.217C -53.26 52.93 -47.44 51.793 -44.59 51.182C -37.815 49.732 -30.505 49.726 -23.593 49.742C -13.676 49.764 -4.683 45.972 4.661 43.181C 13.058 40.673 21.285 36.598 27.19 29.988C 36.704 19.337 35.167 4.48 32.286 -8.393C 29.954 -18.819 26.431 -28.911 23.532 -39.181C 21.093 -47.822 19.485 -56.698 22.355 -65.431C 23.082 -67.643 19.605 -68.584 18.883 -66.389z" stroke="none" fill="#56331B" fill-rule="nonzero" />
				</g>
				<g transform="matrix(1 0 0 1 165.743 474.593)">
                    <path d="M15.848 -15.148C 7.765 -10.428 -2.019 -11.352 -10.772 -8.784C -15.774 -7.316 -19.668 -2.811 -18.657 2.576C -17.673 7.826 -11.031 10.786 -6.724 12.563C -1.554 14.696 4.573 16.321 10.215 16.17C 12.532 16.109 12.537 12.508 10.215 12.571C 3.039 12.762 -12.727 9.579 -15.186 1.619C -17.268 -5.122 -5.591 -6.362 -1.668 -6.93C 4.97 -7.893 11.765 -8.594 17.665 -12.039C 19.668 -13.209 17.857 -16.321 15.848 -15.148z" stroke="none" fill="#56331B" fill-rule="nonzero" />
				</g>
				<g transform="matrix(1 0 0 1 248.823 353.756)">
                    <path d="M1.533 -13.783C 5.941 -13.269 8.823 -6.683 7.977 0.93C 7.136 8.542 2.879 14.299 -1.524 13.779C -5.935 13.266 -8.823 6.682 -7.974 -0.934C -7.129 -8.547 -2.878 -14.298 1.533 -13.783z" stroke="none" fill="#995A24" fill-rule="nonzero" />
				</g>
				<g transform="matrix(1 0 0 1 235.069 378.452)">
                    <path d="M-0.475 -11.276C 3.082 -11.414 6.174 -6.479 6.438 -0.255C 6.694 5.977 4.025 11.137 0.473 11.278C -3.08 11.414 -6.18 6.484 -6.439 0.254C -6.694 -5.969 -4.029 -11.133 -0.475 -11.276z" stroke="none" fill="#995A24" fill-rule="nonzero" />
				</g>
				<g transform="matrix(1 0 0 1 261.394 388.496)">
                    <path d="M11.067 0.873C 10.861 10.233 5.735 17.432 -0.376 16.948C -6.486 16.463 -11.273 8.486 -11.066 -0.876C -10.85 -10.238 -5.73 -17.432 0.38 -16.949C 6.493 -16.465 11.274 -8.482 11.067 0.873z" stroke="none" fill="#995A24" fill-rule="nonzero" />
				</g>
				<g transform="matrix(1 0 0 1 244.114 437.24)">
                    <path d="M5.243 -4.425C 7.912 -0.031 7.733 5.509 4.842 7.953C 1.946 10.398 -2.566 8.819 -5.242 4.426C -7.912 0.032 -7.732 -5.509 -4.837 -7.953C -1.945 -10.398 2.572 -8.819 5.243 -4.425z" stroke="none" fill="#995A24" fill-rule="nonzero" />
				</g>
				<g transform="matrix(1 0 0 1 242.535 408.633)">
                    <path d="M6.63 -4.831C 10.069 1.606 9.893 8.984 6.234 11.649C 2.57 14.314 -3.186 11.266 -6.625 4.833C -10.068 -1.605 -9.893 -8.979 -6.233 -11.649C -2.575 -14.314 3.186 -11.261 6.63 -4.831z" stroke="none" fill="#995A24" fill-rule="nonzero" />
				</g>
				<g transform="matrix(1 0 0 1 226.668 447.611)">
                    <path d="M4.214 -3.014C 5.863 0.294 5.298 4.324 2.968 5.983C 0.643 7.653 -2.576 6.322 -4.223 3.01C -5.863 -0.292 -5.307 -4.324 -2.976 -5.989C -0.648 -7.653 2.58 -6.321 4.214 -3.014z" stroke="none" fill="#995A24" fill-rule="nonzero" />
				</g>
				<g transform="matrix(1 0 0 1 260.023 417.311)">
                    <path d="M3.224 -1.632C 4.143 1.243 3.453 4.308 1.674 5.207C -0.11 6.11 -2.296 4.501 -3.221 1.629C -4.143 -1.248 -3.448 -4.311 -1.668 -5.211C 0.107 -6.111 2.302 -4.503 3.224 -1.632z" stroke="none" fill="#995A24" fill-rule="nonzero" />
				</g>
			</g>
			<g transform="matrix(0.9991505 0.041209936 -0.041209936 0.9991505 10.033051 -4.876587)" clip-path="url(#3)" >
				<g transform="matrix(1.0417247 -0.05731315 0.05493448 0.99849 -27.552246 21.651184)">
					<g transform="matrix(1 0 0 1 312.675 296.777)">
                        <path d="M-11.692 -52.626C -11.692 -52.626 -12.858 -20.667 -12.312 -6.408C -11.652 10.667 -9.295 24.221 -7.434 32.363C -5.582 40.512 -2.415 52.627 2.038 51.11C 6.49 49.59 5.816 29.97 6.183 19.301C 6.667 5.443 9.417 -19.967 10.644 -29.416C 11.61 -36.872 12.859 -46.124 12.859 -46.124" stroke="none" fill="#DCCCA4" fill-rule="nonzero" />
					</g>
					<g transform="matrix(1 0 0 1 315.285 288.988)">
                        <path d="M-0.462 -29.191C -3.512 -9.967 -3.517 9.761 -2.093 29.114C -1.92 31.446 0.207 31.499 0.038 29.184C -1.363 10.158 0.148 -9.919 3.146 -28.818C 3.517 -31.135 -0.098 -31.498 -0.462 -29.191z" stroke="none" fill="#FFFFFF" fill-rule="nonzero" />
					</g>
					<g transform="matrix(1 0 0 1 365.575 197.809)">
                        <path d="M82.081 12.862C 81.133 19.34 78.925 36.971 67.838 52.623C 61.512 61.556 51.124 65.792 38.166 59.943C 25.207 54.094 17.87 50.397 13.835 48.667C 9.797 46.938 2.375 49.619 -6.145 51.436C -14.116 53.136 -26.52 54.997 -45.761 52.206C -73.024 48.252 -82.037 28.961 -82.734 15.007C -83.538 -1.03 -83.938 -8.487 -80.723 -21.362C -80.39 -22.696 -72.076 -21.78 -67.907 -25.142C -65.283 -27.26 -64.457 -28.616 -63.908 -30.659C -60.241 -44.326 -33.107 -65.792 16.426 -63.309C 39.745 -62.141 53.76 -52.476 63.093 -44.809C 75.096 -34.95 78.719 -22.943 80.395 -18.246C 81.271 -15.792 83.939 0.178 82.081 12.862z" stroke="none" fill="#905122" fill-rule="nonzero" />
					</g>
					<g transform="matrix(1 0 0 1 361.611 223.541)">
                        <path d="M20.055 2.792C -15.325 10.654 -75.278 18.793 -78.251 -40.061C -79.799 -30.977 -79.419 -23.626 -78.772 -10.725C -78.075 3.229 -69.062 22.521 -41.799 26.475C -22.557 29.265 -10.154 27.406 -2.182 25.706C 6.337 23.888 13.76 21.207 17.798 22.935C 21.833 24.666 29.169 28.362 42.128 34.211C 55.086 40.061 65.474 35.824 71.8 26.892C 75.249 22.021 77.839 16.96 79.799 12.103C 59.158 15.995 37.841 15.165 20.055 2.792z" stroke="none" fill="#80461E" fill-rule="nonzero" />
					</g>
					<g transform="matrix(1 0 0 1 382.65 210.131)">
                        <path d="M-1.979 -29.983C 2.446 -10.582 -1.125 10.886 -5.543 29.984C -6.066 32.243 -2.594 33.202 -2.072 30.941C 2.499 11.183 6.065 -10.885 1.491 -30.939C 0.975 -33.202 -2.495 -32.243 -1.979 -29.983z" stroke="none" fill="#56331B" fill-rule="nonzero" />
					</g>
					<g transform="matrix(1 0 0 1 399.016 307.293)">
                        <path d="M20.421 -46.382C 20.421 -46.382 15.513 -20.942 11.776 -7.169C 7.301 9.324 0.657 26.598 -2.981 34.114C -6.62 41.638 -12.428 52.736 -16.427 50.253C -20.421 47.773 -15.355 28.803 -13.32 18.328C -10.676 4.716 -6.4 -27.479 -5.266 -34.91C -4.129 -42.339 -3.709 -52.735 -3.709 -52.735" stroke="none" fill="#DCCCA4" fill-rule="nonzero" />
					</g>
					<g transform="matrix(1 0 0 1 313.145 250.987)">
                        <path d="M-12.163 -6.837C -12.163 -6.837 -12.262 -4.136 -12.388 0.03C -4.95 3.74 3.13 6.01 11.428 6.837C 11.968 2.776 12.388 -0.334 12.388 -0.334C 12.388 -0.334 -12.163 -6.837 -12.163 -6.837z" stroke="none" fill="#C5AD87" fill-rule="nonzero" />
					</g>
					<g transform="matrix(1 0 0 1 407.107 262.238)">
                        <path d="M-11.799 -7.681C -11.799 -7.681 -11.954 -3.838 -12.331 0.842C -5.13 4.92 2.623 6.873 10.533 7.681C 11.619 2.36 12.331 -1.327 12.331 -1.327C 12.331 -1.327 -11.799 -7.681 -11.799 -7.681z" stroke="none" fill="#C5AD87" fill-rule="nonzero" />
					</g>
					<g transform="matrix(1 0 0 1 312.836 297.458)">
                        <path d="M-13.653 -53.307C -14.2 -38.23 -14.74 -23.088 -14.305 -8.003C -13.957 4.075 -12.556 16.173 -10.216 28.025C -8.806 35.163 -7.53 47.345 -0.948 51.805C 4.699 55.631 6.499 45.097 6.9 42.096C 8.192 32.42 7.535 22.511 8.112 12.778C 9.284 -7.005 11.785 -26.697 14.433 -46.327C 14.74 -48.596 11.271 -49.575 10.962 -47.284C 8.753 -30.91 6.74 -14.535 5.321 1.93C 4.567 10.689 4.187 19.417 4.039 28.203C 3.968 32.463 3.832 36.72 3.428 40.963C 3.25 42.825 2.928 44.658 2.444 46.464C 1.57 49.72 -0.017 48.205 -1.293 45.923C -5.545 38.323 -6.716 28.015 -8.101 19.515C -9.861 8.721 -10.685 -2.238 -10.803 -13.168C -10.949 -26.543 -10.538 -39.941 -10.053 -53.307C -9.969 -55.63 -13.569 -55.621 -13.653 -53.307z" stroke="none" fill="#895C2B" fill-rule="nonzero" />
					</g>
					<g transform="matrix(1 0 0 1 400.245 310.686)">
                        <path d="M17.458 -50.253C 14.571 -35.32 11.562 -20.336 7.307 -5.727C 4.062 5.407 0.176 16.456 -4.496 27.073C -6.443 31.497 -8.679 35.823 -11.216 39.936C -12.438 41.916 -13.849 43.948 -15.835 45.227C -17.583 46.354 -17.341 41.518 -17.329 40.849C -17.179 32.022 -14.299 23.18 -12.648 14.557C -10.992 5.904 -9.772 -2.84 -8.504 -11.555C -6.352 -26.337 -3.766 -41.187 -3.137 -56.129C -3.039 -58.451 -6.639 -58.441 -6.736 -56.129C -7.48 -38.459 -10.702 -20.778 -13.339 -3.314C -14.731 5.916 -16.391 15.044 -18.329 24.174C -19.351 28.984 -20.288 33.815 -20.79 38.711C -21.069 41.441 -21.366 45.137 -19.578 47.466C -11.145 58.452 5.957 10.178 7.469 5.712C 13.529 -12.193 17.346 -30.764 20.928 -49.297C 21.366 -51.565 17.898 -52.531 17.458 -50.253z" stroke="none" fill="#895C2B" fill-rule="nonzero" />
					</g>
					<g transform="matrix(1 0 0 1 403.631 296.556)">
                        <path d="M8.501 -27.793C 5.811 -8.478 0.046 10.454 -6.977 28.614C -7.822 30.799 -8.822 30.439 -7.983 28.264C -1.081 10.417 2.276 -9.478 4.922 -28.467C 5.247 -30.799 8.822 -30.113 8.501 -27.793z" stroke="none" fill="#FFFFFF" fill-rule="nonzero" />
					</g>
					<g transform="matrix(1 0 0 1 365.976 209.638)">
                        <path d="M-82.266 -34.263C -84.128 -26.89 -84.806 -19.113 -85.203 -11.543C -85.686 -2.307 -85.543 7.683 -82.182 16.425C -79.288 23.948 -71.99 30.659 -65.479 35.115C -55.916 41.661 -43.734 42.763 -32.505 43.41C -23 43.958 -13.237 43.264 -3.877 41.474C 1.291 40.486 5.746 38.294 11.165 38.277C 15.408 38.263 18.879 40.842 22.433 42.793C 34.156 49.224 55.425 58.938 66.193 45.871C 77.58 32.052 82.475 11.353 83.957 -5.973C 85.546 -24.547 81.84 -45.6 66.266 -57.526C 64.422 -58.938 62.633 -55.808 64.45 -54.418C 85.686 -38.156 82.373 -4.915 75.742 17.624C 73.135 26.483 69.483 35.47 63.949 42.941C 58.38 50.459 47.951 48.925 40.144 46.614C 32.792 44.438 26.003 40.74 19.393 36.929C 10.447 31.772 1.554 37.127 -7.515 38.411C -29.403 41.508 -55.543 42.158 -71.793 24.883C -75.577 20.86 -78.486 16.974 -79.975 11.609C -81.5 6.116 -81.724 0.27 -81.755 -5.398C -81.806 -14.638 -81.064 -24.32 -78.795 -33.306C -78.226 -35.558 -81.699 -36.513 -82.266 -34.263z" stroke="none" fill="#56331B" fill-rule="nonzero" />
					</g>
					<g transform="matrix(1 0 0 1 430.868 207.804)">
                        <path d="M-1.665 0.006C -1.662 1.192 -0.91 2.145 0.01 2.141C 0.93 2.137 1.674 1.175 1.667 -0.008C 1.662 -1.192 0.911 -2.145 -0.01 -2.145C -0.93 -2.138 -1.673 -1.175 -1.665 0.006z" stroke="none" fill="#EFB31C" fill-rule="nonzero" />
					</g>
					<g transform="matrix(1 0 0 1 430.881 207.799)">
                        <path d="M-2.054 0.011C -1.995 1.241 -1.336 2.428 -0.004 2.521C 1.322 2.613 1.986 1.074 2.028 -0.004C 2.076 -1.232 1.231 -2.424 -0.024 -2.516C -1.348 -2.613 -2.013 -1.06 -2.054 0.011C -2.073 0.495 -1.323 0.493 -1.304 0.011C -1.274 -0.77 -0.921 -1.692 -0.024 -1.766C 0.87 -1.839 1.245 -0.683 1.278 -0.004C 1.316 0.775 0.844 1.704 -0.004 1.771C -0.9 1.841 -1.272 0.696 -1.304 0.011C -1.326 -0.47 -2.076 -0.473 -2.054 0.011z" stroke="none" fill="#EFB31C" fill-rule="nonzero" />
					</g>
					<g transform="matrix(1 0 0 1 410.287 201.025)">
                        <path d="M-1.669 0.006C -1.665 1.191 -0.912 2.145 0.007 2.143C 0.927 2.14 1.671 1.177 1.664 -0.008C 1.66 -1.191 0.907 -2.145 -0.012 -2.143C -0.931 -2.141 -1.671 -1.177 -1.669 0.006z" stroke="none" fill="#EFB31C" fill-rule="nonzero" />
					</g>
					<g transform="matrix(1 0 0 1 410.297 201.024)">
                        <path d="M-2.055 0.007C -1.995 1.237 -1.335 2.423 -0.003 2.518C 1.324 2.613 1.987 1.068 2.029 -0.008C 2.077 -1.235 1.232 -2.428 -0.022 -2.517C -1.348 -2.613 -2.009 -1.067 -2.055 0.007C -2.076 0.491 -1.326 0.489 -1.305 0.007C -1.272 -0.772 -0.92 -1.699 -0.022 -1.767C 0.871 -1.836 1.246 -0.691 1.279 -0.008C 1.317 0.771 0.846 1.702 -0.003 1.768C -0.897 1.838 -1.272 0.691 -1.305 0.007C -1.328 -0.474 -2.078 -0.477 -2.055 0.007z" stroke="none" fill="#EFB31C" fill-rule="nonzero" />
					</g>
					<g transform="matrix(1 0 0 1 420.194 212.512)">
                        <path d="M-1.932 0.007C -1.925 1.379 -1.056 2.49 0.012 2.486C 1.081 2.48 1.94 1.363 1.935 -0.01C 1.927 -1.383 1.059 -2.491 -0.008 -2.488C -1.077 -2.484 -1.939 -1.367 -1.932 0.007z" stroke="none" fill="#EFB31C" fill-rule="nonzero" />
					</g>
					<g transform="matrix(1 0 0 1 420.212 212.51)">
                        <path d="M-2.325 0.009C -2.256 1.4 -1.517 2.757 -0.007 2.863C 1.497 2.968 2.242 1.209 2.292 -0.008C 2.35 -1.396 1.394 -2.76 -0.026 -2.861C -1.531 -2.969 -2.276 -1.208 -2.325 0.009C -2.345 0.493 -1.595 0.491 -1.575 0.009C -1.537 -0.935 -1.106 -2.027 -0.026 -2.111C 1.046 -2.195 1.501 -0.831 1.542 -0.008C 1.589 0.932 1.009 2.031 -0.007 2.113C -1.08 2.198 -1.534 0.832 -1.575 0.009C -1.599 -0.472 -2.349 -0.474 -2.325 0.009z" stroke="none" fill="#EFB31C" fill-rule="nonzero" />
					</g>
					<g transform="matrix(1 0 0 1 410.882 222.748)">
                        <path d="M-1.822 -0.142C -1.924 1.151 -1.19 2.264 -0.181 2.344C 0.82 2.42 1.719 1.436 1.82 0.143C 1.924 -1.151 1.192 -2.263 0.182 -2.343C -0.823 -2.42 -1.721 -1.435 -1.822 -0.142z" stroke="none" fill="#EFB31C" fill-rule="nonzero" />
					</g>
					<g transform="matrix(1 0 0 1 410.924 222.748)">
                        <path d="M-2.239 -0.142C -2.278 1.037 -1.659 2.717 -0.223 2.72C 1.223 2.722 1.992 1.442 2.153 0.143C 2.298 -1.036 1.502 -2.713 0.14 -2.717C -1.308 -2.721 -2.079 -1.443 -2.239 -0.142C -2.298 0.337 -1.548 0.332 -1.489 -0.142C -1.38 -1.031 -0.806 -2.11 0.252 -1.948C 1.186 -1.804 1.43 -0.615 1.403 0.143C 1.37 1.039 0.663 2.104 -0.336 1.951C -1.268 1.807 -1.514 0.615 -1.489 -0.142C -1.472 -0.626 -2.222 -0.624 -2.239 -0.142z" stroke="none" fill="#EFB31C" fill-rule="nonzero" />
					</g>
					<g transform="matrix(1 0 0 1 398.876 210.4)">
                        <path d="M-1.628 0.004C -1.622 1.164 -0.89 2.096 0.009 2.092C 0.907 2.086 1.632 1.147 1.626 -0.007C 1.623 -1.163 0.89 -2.097 -0.008 -2.095C -0.909 -2.089 -1.632 -1.149 -1.628 0.004z" stroke="none" fill="#EFB31C" fill-rule="nonzero" />
					</g>
					<g transform="matrix(1 0 0 1 398.887 210.398)">
                        <path d="M-2.014 0.006C -1.954 1.213 -1.31 2.378 -0.002 2.469C 1.297 2.561 1.948 1.049 1.99 -0.005C 2.038 -1.208 1.211 -2.379 -0.02 -2.468C -1.319 -2.561 -1.97 -1.048 -2.014 0.006C -2.035 0.49 -1.284 0.488 -1.264 0.006C -1.233 -0.752 -0.892 -1.647 -0.02 -1.718C 0.847 -1.787 1.209 -0.664 1.24 -0.005C 1.276 0.75 0.821 1.652 -0.002 1.719C -0.871 1.79 -1.231 0.667 -1.264 0.006C -1.288 -0.475 -2.038 -0.477 -2.014 0.006z" stroke="none" fill="#EFB31C" fill-rule="nonzero" />
					</g>
					<g transform="matrix(1 0 0 1 321.552 194.302)">
                        <path d="M1.618 0.488C 1.27 1.636 0.264 2.348 -0.625 2.079C -1.522 1.809 -1.963 0.66 -1.616 -0.49C -1.271 -1.64 -0.263 -2.347 0.629 -2.08C 1.52 -1.81 1.963 -0.661 1.618 0.488z" stroke="none" fill="#EFB31C" fill-rule="nonzero" />
					</g>
					<g transform="matrix(1 0 0 1 321.499 194.301)">
                        <path d="M1.31 0.39C 1.043 1.145 0.421 1.917 -0.472 1.718C -1.367 1.519 -1.371 0.278 -1.202 -0.39C -1.004 -1.167 -0.259 -1.903 0.582 -1.717C 1.473 -1.521 1.477 -0.273 1.31 0.39C 1.192 0.859 1.914 1.058 2.033 0.589C 2.338 -0.623 2.039 -1.956 0.782 -2.441C -0.472 -2.924 -1.567 -1.608 -1.924 -0.588C -2.338 0.59 -1.858 1.986 -0.671 2.442C 0.583 2.923 1.674 1.608 2.033 0.589C 2.194 0.132 1.469 -0.063 1.31 0.39z" stroke="none" fill="#EFB31C" fill-rule="nonzero" />
					</g>
					<g transform="matrix(1 0 0 1 347.853 196.337)">
                        <path d="M1.616 0.489C 1.27 1.637 0.263 2.348 -0.631 2.079C -1.522 1.809 -1.964 0.657 -1.618 -0.49C -1.273 -1.638 -0.266 -2.348 0.627 -2.079C 1.518 -1.81 1.964 -0.659 1.616 0.489z" stroke="none" fill="#EFB31C" fill-rule="nonzero" />
					</g>
					<g transform="matrix(1 0 0 1 347.8 196.338)">
                        <path d="M1.308 0.388C 1.041 1.147 0.418 1.915 -0.478 1.716C -1.368 1.519 -1.371 0.269 -1.204 -0.391C -1.006 -1.168 -0.262 -1.906 0.579 -1.719C 1.471 -1.521 1.477 -0.277 1.308 0.388C 1.189 0.857 1.912 1.056 2.031 0.587C 2.339 -0.624 2.037 -1.958 0.78 -2.443C -0.475 -2.926 -1.569 -1.61 -1.926 -0.59C -2.338 0.586 -1.859 1.983 -0.677 2.44C 0.578 2.925 1.673 1.607 2.031 0.587C 2.192 0.13 1.467 -0.065 1.308 0.388z" stroke="none" fill="#EFB31C" fill-rule="nonzero" />
					</g>
					<g transform="matrix(1 0 0 1 334.908 204.637)">
                        <path d="M1.874 0.564C 1.473 1.896 0.307 2.725 -0.73 2.411C -1.766 2.099 -2.279 0.763 -1.878 -0.569C -1.476 -1.901 -0.309 -2.726 0.726 -2.414C 1.762 -2.102 2.28 -0.768 1.874 0.564z" stroke="none" fill="#EFB31C" fill-rule="nonzero" />
					</g>
					<g transform="matrix(1 0 0 1 334.846 204.636)">
                        <path d="M1.574 0.465C 1.254 1.377 0.506 2.291 -0.569 2.051C -1.639 1.812 -1.659 0.336 -1.456 -0.469C -1.22 -1.403 -0.322 -2.276 0.686 -2.052C 1.758 -1.813 1.78 -0.341 1.574 0.465C 1.454 0.934 2.177 1.132 2.297 0.664C 2.648 -0.707 2.314 -2.226 0.887 -2.775C -0.537 -3.322 -1.773 -1.823 -2.178 -0.668C -2.647 0.663 -2.112 2.258 -0.768 2.775C 0.657 3.322 1.891 1.819 2.297 0.664C 2.458 0.207 1.733 0.012 1.574 0.465z" stroke="none" fill="#EFB31C" fill-rule="nonzero" />
					</g>
					<g transform="matrix(1 0 0 1 325.165 214.511)">
                        <path d="M1.874 0.564C 1.472 1.896 0.306 2.724 -0.73 2.411C -1.767 2.098 -2.279 0.764 -1.877 -0.569C -1.477 -1.901 -0.31 -2.724 0.726 -2.414C 1.762 -2.101 2.279 -0.767 1.874 0.564z" stroke="none" fill="#EFB31C" fill-rule="nonzero" />
					</g>
					<g transform="matrix(1 0 0 1 325.106 214.511)">
                        <path d="M1.572 0.465C 1.251 1.377 0.503 2.291 -0.572 2.051C -1.642 1.813 -1.66 0.335 -1.456 -0.47C -1.219 -1.404 -0.324 -2.276 0.685 -2.052C 1.757 -1.815 1.777 -0.339 1.572 0.465C 1.452 0.934 2.176 1.132 2.295 0.664C 2.646 -0.707 2.311 -2.227 0.885 -2.776C -0.538 -3.323 -1.775 -1.822 -2.179 -0.668C -2.646 0.664 -2.116 2.257 -0.771 2.775C 0.654 3.323 1.889 1.819 2.295 0.664C 2.456 0.207 1.731 0.012 1.572 0.465z" stroke="none" fill="#EFB31C" fill-rule="nonzero" />
					</g>
					<g transform="matrix(1 0 0 1 341 217.272)">
                        <path d="M1.81 0.388C 1.536 1.674 0.501 2.543 -0.498 2.332C -1.498 2.116 -2.086 0.896 -1.809 -0.387C -1.539 -1.675 -0.503 -2.542 0.499 -2.328C 1.499 -2.111 2.087 -0.899 1.81 0.388z" stroke="none" fill="#EFB31C" fill-rule="nonzero" />
					</g>
					<g transform="matrix(1 0 0 1 340.945 217.272)">
                        <path d="M1.503 0.288C 1.281 1.139 0.676 2.108 -0.344 1.97C -1.355 1.833 -1.525 0.495 -1.393 -0.288C -1.246 -1.156 -0.514 -2.1 0.454 -1.967C 1.466 -1.829 1.635 -0.496 1.503 0.288C 1.423 0.761 2.146 0.963 2.226 0.487C 2.448 -0.827 2.057 -2.276 0.653 -2.69C -0.738 -3.102 -1.82 -1.638 -2.116 -0.487C -2.448 0.799 -1.869 2.302 -0.543 2.693C 0.848 3.103 1.927 1.633 2.226 0.487C 2.348 0.019 1.625 -0.18 1.503 0.288z" stroke="none" fill="#EFB31C" fill-rule="nonzero" />
					</g>
					<g transform="matrix(1 0 0 1 357.462 210.476)">
                        <path d="M1.581 0.478C 1.241 1.6 0.256 2.293 -0.612 2.027C -1.485 1.765 -1.918 0.644 -1.58 -0.475C -1.241 -1.598 -0.261 -2.293 0.613 -2.031C 1.485 -1.765 1.918 -0.644 1.581 0.478z" stroke="none" fill="#EFB31C" fill-rule="nonzero" />
					</g>
					<g transform="matrix(1 0 0 1 357.41 210.472)">
                        <path d="M1.272 0.383C 1.012 1.117 0.407 1.867 -0.461 1.67C -1.326 1.475 -1.332 0.277 -1.167 -0.371C -0.976 -1.125 -0.254 -1.847 0.565 -1.665C 1.43 -1.474 1.434 -0.261 1.272 0.383C 1.154 0.852 1.876 1.051 1.995 0.582C 2.295 -0.608 1.997 -1.911 0.764 -2.389C -0.467 -2.866 -1.539 -1.57 -1.889 -0.571C -2.294 0.583 -1.82 1.949 -0.66 2.394C 0.572 2.866 1.641 1.585 1.995 0.582C 2.157 0.125 1.431 -0.07 1.272 0.383z" stroke="none" fill="#EFB31C" fill-rule="nonzero" />
					</g>
					<g transform="matrix(1 0 0 1 286.754 172.207)">
                        <path d="M14.059 -8.082C 11.189 3.498 -13.238 6.223 -14.307 -7.59C -14.485 -9.889 -18.087 -9.906 -17.907 -7.59C -16.52 10.334 13.644 8.557 17.53 -7.125C 18.088 -9.379 14.617 -10.334 14.059 -8.082z" stroke="none" fill="#56331B" fill-rule="nonzero" />
					</g>
				</g>
				<g transform="matrix(1 0 0 1 0 0)">
					<g transform="matrix(1 0 0 1 451.444 212.759)">
                        <path d="M-14.128 -0.055C -5.367 -5.476 8.493 -1.264 13.639 7.613C 14.803 9.619 17.914 7.808 16.748 5.795C 10.64 -4.741 -5.513 -9.618 -15.944 -3.162C -17.914 -1.944 -16.107 1.171 -14.128 -0.055z" stroke="none" fill="#F4B61A" fill-rule="nonzero" />
					</g>
					<g transform="matrix(1 0 0 1 451.874 230.698)">
                        <path d="M16.947 11.868C 13.589 0.062 -1.901 -15.054 -15.341 -11.52C -17.584 -10.929 -16.632 -7.457 -14.384 -8.048C -8.975 -9.47 -3.156 -6.118 1.17 -3.219C 6.821 0.568 11.6 6.234 13.476 12.825C 14.11 15.054 17.584 14.106 16.947 11.868z" stroke="none" fill="#F4B61A" fill-rule="nonzero" />
					</g>
					<g transform="matrix(1 0 0 1 433.91 255.096)">
                        <path d="M7.893 16.493C 8.995 4.814 7.444 -13.701 -5.842 -18.077C -8.053 -18.805 -8.994 -15.328 -6.799 -14.606C 4.643 -10.837 5.214 6.725 4.293 16.493C 4.076 18.805 7.677 18.784 7.893 16.493z" stroke="none" fill="#F4B61A" fill-rule="nonzero" />
					</g>
					<g transform="matrix(1 0 0 1 406.276 251.579)">
                        <path d="M-3.931 -15.525C 1.488 -5.775 1.084 5.776 -2.078 16.199C -2.754 18.427 0.72 19.371 1.392 17.156C 4.837 5.804 5.059 -6.759 -0.822 -17.342C -1.95 -19.371 -5.059 -17.556 -3.931 -15.525z" stroke="none" fill="#F4B61A" fill-rule="nonzero" />
					</g>
					<g transform="matrix(1 0 0 1 392.905 248.116)">
                        <path d="M-4.219 -13.441C 2.153 -6.705 -0.373 6.336 -1.779 14.434C -2.173 16.704 1.297 17.675 1.693 15.391C 3.366 5.758 5.815 -8.069 -1.674 -15.986C -3.272 -17.675 -5.814 -15.126 -4.219 -13.441z" stroke="none" fill="#F4B61A" fill-rule="nonzero" />
					</g>
					<g transform="matrix(1 0 0 1 419.222 249.919)">
                        <path d="M-6.429 -16.114C 2.016 -8.272 4.486 6.136 2.983 16.989C 2.669 19.258 6.136 20.237 6.454 17.946C 8.134 5.813 5.569 -9.882 -3.884 -18.66C -5.582 -20.237 -8.134 -17.697 -6.429 -16.114z" stroke="none" fill="#F4B61A" fill-rule="nonzero" />
					</g>
					<g transform="matrix(1 0 0 1 440.238 243.424)">
                        <path d="M-15.415 -16.947C 1.462 -14.666 13.92 2.059 14.085 18.402C 14.108 20.722 17.707 20.724 17.684 18.402C 17.504 0.623 3.984 -17.925 -14.459 -20.418C -16.728 -20.724 -17.707 -17.257 -15.415 -16.947z" stroke="none" fill="#F4B61A" fill-rule="nonzero" />
					</g>
					<g transform="matrix(1 0 0 1 286.94 200.12)">
                        <path d="M-18.288 8.451C -9.226 -2.476 5.206 -6.514 18.367 -0.729C 20.471 0.196 22.305 -2.904 20.184 -3.837C 5.615 -10.24 -10.652 -6.371 -20.833 5.906C -22.304 7.679 -19.771 10.24 -18.288 8.451z" stroke="none" fill="#F4B61A" fill-rule="nonzero" />
					</g>
					<g transform="matrix(1 0 0 1 293.585 219.654)">
                        <path d="M-19.031 12.208C -15.525 3.983 -10.383 -2.836 -2.274 -6.904C 4.746 -10.427 13.054 -10.675 20.723 -10.132C 23.04 -9.967 23.025 -13.569 20.723 -13.731C 12.176 -14.337 3.774 -13.605 -4.092 -10.014C -12.725 -6.072 -18.515 1.888 -22.14 10.391C -23.04 12.501 -19.939 14.337 -19.031 12.208z" stroke="none" fill="#F4B61A" fill-rule="nonzero" />
					</g>
					<g transform="matrix(1 0 0 1 318.017 241.608)">
                        <path d="M-10.72 18.71C -9.119 6.075 -3.108 -15.453 12.305 -17.155C 14.587 -17.406 14.611 -21.009 12.305 -20.754C -5.516 -18.787 -12.433 3.815 -14.32 18.71C -14.611 21.009 -11.007 20.981 -10.72 18.71z" stroke="none" fill="#F4B61A" fill-rule="nonzero" />
					</g>
					<g transform="matrix(1 0 0 1 347.262 246.958)">
                        <path d="M1.394 -15.588C 2.698 -4.3 -0.386 4.151 -5.332 14.001C -6.37 16.069 -3.264 17.892 -2.222 15.817C 2.998 5.42 6.37 -3.681 4.994 -15.588C 4.731 -17.866 1.127 -17.892 1.394 -15.588z" stroke="none" fill="#F4B61A" fill-rule="nonzero" />
					</g>
					<g transform="matrix(1 0 0 1 362.986 246.806)">
                        <path d="M-1.195 -14.667C 1.928 -5.846 -1.131 5.651 -4.79 13.863C -5.725 15.963 -2.624 17.796 -1.68 15.679C 2.341 6.653 5.725 -5.884 2.276 -15.624C 1.507 -17.796 -1.972 -16.861 -1.195 -14.667z" stroke="none" fill="#F4B61A" fill-rule="nonzero" />
					</g>
					<g transform="matrix(1 0 0 1 332.723 246.718)">
                        <path d="M5.664 -16.9C -6.638 -12.865 -7.79 4.646 -8.632 15.309C -8.816 17.626 -5.213 17.607 -5.031 15.309C -4.351 6.692 -3.624 -10.069 6.62 -13.428C 8.815 -14.149 7.876 -17.626 5.664 -16.9z" stroke="none" fill="#F4B61A" fill-rule="nonzero" />
					</g>
					<g transform="matrix(1 0 0 1 302.156 235.661)">
                        <path d="M12.901 -16.92C -3.621 -17.804 -11.664 1.217 -14.707 14.582C -15.222 16.843 -11.751 17.803 -11.237 15.539C -8.569 3.826 -1.839 -14.108 12.901 -13.32C 15.222 -13.196 15.21 -16.797 12.901 -16.92z" stroke="none" fill="#F4B61A" fill-rule="nonzero" />
					</g>
				</g>
				<g transform="matrix(1 0 0 1 0 0)">
					<g transform="matrix(1 0 0 1 406.725 104.049)">
                        <path d="M8.103 15.465C 7.233 14.23 4.362 17.386 0.6 17.192C 2.704 -5.261 -8.104 -17.386 -7.782 -17.146C 5.343 -7.353 6.931 4.423 8.103 15.465z" stroke="none" fill="#EBB445" fill-rule="nonzero" />
					</g>
					<g transform="matrix(1 0 0 1 323.99 102.745)">
                        <path d="M5.726 15.451C 5.156 14.196 5.997 18.488 -0.584 18.395C 3.36 -9.206 -7.478 -18.488 -4.92 -16.567C 6.909 -7.681 7.478 11.438 5.726 15.451z" stroke="none" fill="#EBB445" fill-rule="nonzero" />
					</g>
					<g transform="matrix(1 0 0 1 318.231 119.18)">
                        <path d="M-23.602 -8.186C -23.602 -8.186 -22.225 12.101 -1.215 10.917C 23.602 9.518 19.087 -12.101 19.087 -12.101C 19.087 -12.101 19.322 3.336 -3.951 4.515C -15.703 5.111 -20.99 -5.056 -23.602 -8.186z" stroke="none" fill="#A06025" fill-rule="nonzero" />
					</g>
					<g transform="matrix(1 0 0 1 400.631 119.805)">
                        <path d="M-19.901 -9.335C -19.901 -9.335 -20.016 9.335 2.648 9.069C 20.015 8.865 18.43 -7.3 18.43 -7.3C 18.43 -7.3 18.617 0.864 4.961 3.133C -11.722 5.904 -17.852 -5.008 -19.901 -9.335z" stroke="none" fill="#A06025" fill-rule="nonzero" />
					</g>
					<g transform="matrix(1 0 0 1 288.827 131.366)">
                        <path d="M-6.9 -9.58C -8.9 0.022 -3.868 10.688 6.587 11.64C 8.9 11.851 8.879 8.25 6.587 8.041C -1.41 7.313 -4.914 -1.494 -3.429 -8.623C -2.958 -10.888 -6.427 -11.852 -6.9 -9.58z" stroke="none" fill="#56331B" fill-rule="nonzero" />
					</g>
					<g transform="matrix(1 0 0 1 315.71 115.581)">
                        <path d="M19.317 -10.266C 17.805 -1.882 14.293 3.733 5.871 6.23C -4.889 9.422 -15.416 5.604 -19.015 -5.622C -19.72 -7.824 -23.197 -6.882 -22.486 -4.665C -18.797 6.842 -8.546 12.548 3.096 10.548C 14.478 8.594 20.762 1.925 22.788 -9.309C 23.197 -11.578 19.728 -12.548 19.317 -10.266z" stroke="none" fill="#56331B" fill-rule="nonzero" />
					</g>
					<g transform="matrix(1 0 0 1 399.693 115.945)">
                        <path d="M16.708 -4.868C 17.749 4.05 6.697 5.942 0.062 5.906C -8.35 5.861 -15.925 1.257 -17.577 -7.282C -18.018 -9.56 -21.487 -8.593 -21.048 -6.325C -18.902 4.764 -8.802 9.459 1.671 9.515C 9.967 9.56 21.487 5.238 20.308 -4.868C 20.042 -7.145 16.438 -7.171 16.708 -4.868z" stroke="none" fill="#56331B" fill-rule="nonzero" />
					</g>
				</g>
				<g transform="matrix(1 0 0 1 0 0)">
					<g transform="matrix(1 0 0 1 398.901 103.753)">
                        <path d="M13.743 26.053C 13.152 26.076 3.283 18.582 -16.525 18.488C -20.082 16.547 -21.374 7.163 -21.376 0.697C -21.381 -17.725 -12.61 -26.077 1.326 -24.916C 3.866 -24.704 9.538 -22.208 10.215 -19.412C 15.506 -5.02 21.382 13.931 13.743 26.053z" stroke="none" fill="#A06025" fill-rule="nonzero" />
					</g>
					<g transform="matrix(1 0 0 1 315.818 102.952)">
                        <path d="M-13.411 28.211C -19.986 22.214 -23.423 15.361 -24.033 6.668C -25.122 -8.819 -16.932 -23.949 -0.351 -26.36C 12.376 -28.211 24.464 -17.795 24.888 1.758C 25.121 12.709 24.265 19.099 20.028 22.901C 20.028 22.901 12.663 18.895 3.913 20.42C -10.063 22.865 -13.411 28.211 -13.411 28.211z" stroke="none" fill="#A06025" fill-rule="nonzero" />
					</g>
					<g transform="matrix(1 0 0 1 315.141 105.893)">
                        <path d="M-12.155 25.423C -17.763 20.309 -20.801 11.451 -21.323 4.033C -22.252 -9.185 -17.339 -20.262 -3.301 -23.002C 9.077 -25.423 21.694 -14.548 22.051 2.143C 22.252 11.491 22.086 14.287 20.175 19.333C 20.175 19.333 11.347 16.945 3.874 18.251C -8.054 20.333 -12.155 25.423 -12.155 25.423z" stroke="none" fill="#FFFFFF" fill-rule="nonzero" />
					</g>
					<g transform="matrix(1 0 0 1 314.35 94.188)">
                        <path d="M-6.183 12.058C 3.817 13.058 11.817 8.058 18.817 3.058C 19.26 2.615 19.677 2.148 20.07 1.662C 15.627 -7.775 6.498 -13.059 -2.509 -11.298C -13.016 -9.247 -18.41 -2.524 -20.07 6.269C -17.303 9.93 -10.704 11.412 -6.183 12.058z" stroke="none" fill="#DFE0EB" fill-rule="nonzero" />
					</g>
					<g transform="matrix(1 0 0 1 318.68042 112.624)">
                        <path d="M-14.44 5.649C -16.245 -2.954 -11.055 -11.427 -2.842 -13.275C 5.365 -15.123 13.48 -9.646 15.289 -1.041C 16.246 3.527 14.933 7.874 12.539 11.399C 5.709 11.295 0.505 13.369 -6.425 15.123C -9.708 12.908 -13.539 9.955 -14.44 5.649z" stroke="none" fill="#221F1F" fill-rule="nonzero" />
					</g>
					<g transform="matrix(1 0 0 1 322.278 109.545)">
                        <path d="M2.059 2.845C 0.587 3.756 -1.527 3.227 -2.662 1.659C -3.802 0.088 -3.531 -1.927 -2.06 -2.84C -0.588 -3.757 1.524 -3.223 2.663 -1.655C 3.802 -0.082 3.531 1.929 2.059 2.845z" stroke="none" fill="#FFFFFF" fill-rule="nonzero" />
					</g>
					<g transform="matrix(1 0 0 1 306.695 96.093)">
                        <path d="M-4.5 -9.607C -4.5 -9.607 1.734 -3.737 9.975 6.948C 7.074 9.607 6.572 8.218 6.572 8.218C 6.572 8.218 -5.233 -0.912 -9.974 -1.848C -9.107 -4.805 -6.537 -9.149 -4.5 -9.607z" stroke="none" fill="#FFFFFF" fill-rule="nonzero" />
					</g>
					<g transform="matrix(1 0 0 1 314.644 105.553)">
                        <path d="M-10.509 24.361C -23.886 11.242 -23.128 -19.13 -0.609 -21.293C 19.66 -23.24 23.985 4.939 18.811 19.065C 19.389 18.624 19.969 18.184 20.547 17.743C 9.949 17.264 -3.406 18.341 -12.691 24.08C -14.661 25.298 -12.855 28.412 -10.874 27.188C -2.094 21.761 10.545 20.891 20.547 21.343C 21.39 21.382 22.014 20.756 22.283 20.022C 28.458 3.164 21.326 -28.533 -2.246 -24.718C -26.606 -20.774 -28.458 11.801 -13.055 26.907C -11.398 28.533 -8.849 25.989 -10.509 24.361z" stroke="none" fill="#56331B" fill-rule="nonzero" />
					</g>
					<g transform="matrix(1 0 0 1 400.738 105.707)">
                        <path d="M-17.469 17.402C -20.692 11.025 -20.69 4.595 -19.171 -2.439C -16.461 -14.971 -9.559 -23.82 2.579 -22.279C 13.283 -20.925 20.693 -7.169 16.608 8.419C 14.321 17.148 13.453 19.695 10.576 23.82C 10.576 23.82 4.018 19.039 -2.401 18.079C -12.652 16.541 -17.469 17.402 -17.469 17.402z" stroke="none" fill="#FFFFFF" fill-rule="nonzero" />
					</g>
					<g transform="matrix(1 0 0 1 400.906 97.009)">
                        <path d="M2.411 -13.58C -8.705 -14.991 -15.428 -7.685 -18.563 3.181C -17.502 4.975 -15.97 6.615 -13.906 7.991C -6.906 12.991 1.094 14.991 9.094 13.991C 12.169 13.222 14.657 12.449 17.459 11.226C 18.563 -1.799 11.74 -12.4 2.411 -13.58z" stroke="none" fill="#DFE0EB" fill-rule="nonzero" />
					</g>
					<g transform="matrix(1 0 0 1 401.03342 113.515)">
                        <path d="M-12.995 0.618C -12.29 -7.227 -5.977 -13.02 1.108 -12.315C 8.188 -11.614 13.352 -4.683 12.646 3.164C 12.269 7.33 10.119 10.678 7.302 13.02C 1.824 11.035 -3.991 10.136 -10.018 9.708C -12.109 6.904 -13.351 4.545 -12.995 0.618z" stroke="none" fill="#221F1F" fill-rule="nonzero" />
					</g>
					<g transform="matrix(1 0 0 1 403.09 110.088)">
                        <path d="M2.165 1.848C 1.251 3.098 -0.462 3.29 -1.659 2.266C -2.856 1.245 -3.084 -0.598 -2.166 -1.85C -1.249 -3.104 0.461 -3.29 1.659 -2.27C 2.858 -1.246 3.083 0.593 2.165 1.848z" stroke="none" fill="#FFFFFF" fill-rule="nonzero" />
					</g>
					<g transform="matrix(1 0 0 1 391.919 97.101)">
                        <path d="M-1.577 -9.693C -1.577 -9.693 2.402 -3.444 7.189 7.552C 4.455 9.693 4.283 8.331 4.283 8.331C 4.283 8.331 -3.582 -1.642 -7.189 -3.089C -6.016 -5.755 -3.268 -9.513 -1.577 -9.693z" stroke="none" fill="#FFFFFF" fill-rule="nonzero" />
					</g>
					<g transform="matrix(1 0 0 1 400.045 104.465)">
                        <path d="M-15.467 17.19C -22.322 2.263 -14.526 -23.318 5.573 -18.25C 14.267 -16.058 17.255 -5.331 17.245 2.415C 17.235 9.787 14.495 18.629 10.328 24.751C 11.149 24.536 11.97 24.322 12.791 24.107C 4.119 17.913 -6.651 16.858 -17.022 16.299C -19.343 16.173 -19.33 19.774 -17.022 19.898C -7.247 20.425 2.801 21.377 10.974 27.215C 11.812 27.814 12.925 27.321 13.437 26.569C 22.667 13.007 26.172 -16.768 5.461 -21.991C -17.627 -27.813 -26.172 2.468 -18.576 19.008C -17.608 21.116 -14.506 19.284 -15.467 17.19z" stroke="none" fill="#56331B" fill-rule="nonzero" />
					</g>
					<g transform="matrix(1 0 0 1 288.785 131.895)">
                        <path d="M-6.132 -9.466C -9.477 0.516 -2.996 10.102 7.178 11.367C 9.477 11.654 9.45 8.051 7.178 7.768C -0.815 6.773 -5.178 -0.995 -2.661 -8.509C -1.921 -10.716 -5.399 -11.655 -6.132 -9.466z" stroke="none" fill="#56331B" fill-rule="nonzero" />
					</g>
				</g>
				<g transform="matrix(1 0 0 1 0 0)">
					<g transform="matrix(1 0 0 1 381.868 152.145)">
                        <path d="M-33.435 12.811C -33.435 12.811 -48.924 7.826 -48.154 1.596C -46.72 -9.889 -24.027 -24.201 -1.386 -24.072C 22.552 -23.935 40.886 -7.081 44.907 0.579C 48.923 8.239 39.014 12.288 33.782 14.32C 29.697 15.908 2.335 24.201 -33.435 12.811z" stroke="none" fill="#905122" fill-rule="nonzero" />
					</g>
					<g transform="matrix(1 0 0 1 398.033 158.691)">
                        <path d="M-8.62 6.217C -8.62 6.217 -8.816 1.475 -6.539 -2.274C -3.119 -7.895 4.092 -9.763 6.883 -7.46C 8.816 -5.859 -0.225 9.763 -8.62 6.217z" stroke="none" fill="#6C3917" fill-rule="nonzero" />
					</g>
					<g transform="matrix(1 0 0 1 361.078 155.829)">
                        <path d="M8.208 8.352C 8.208 8.352 9.969 4.698 7.733 0.934C 4.929 -3.792 -4.137 -8.69 -8.298 -5.649C -9.968 -4.434 -2.368 8.69 8.208 8.352z" stroke="none" fill="#6C3917" fill-rule="nonzero" />
					</g>
					<g transform="matrix(1 0 0 1 397.865 156.294)">
                        <path d="M-6.27 7.906C -6.476 0.582 -0.756 -6.145 6.951 -4.033C 9.194 -3.419 10.144 -6.892 7.908 -7.505C -2.04 -10.23 -10.143 -1.78 -9.87 7.906C -9.804 10.222 -6.205 10.229 -6.27 7.906z" stroke="none" fill="#56331B" fill-rule="nonzero" />
					</g>
					<g transform="matrix(1 0 0 1 363.179 156.072)">
                        <path d="M-9.538 -4.868C -3.803 -6.192 8.241 -0.976 4.931 6.495C 4 8.598 7.101 10.431 8.04 8.313C 12.757 -2.336 -1.433 -10.43 -10.495 -8.339C -12.757 -7.817 -11.798 -4.347 -9.538 -4.868z" stroke="none" fill="#56331B" fill-rule="nonzero" />
					</g>
					<g transform="matrix(1 0 0 1 368.218 137.735)">
                        <path d="M26.493 -4.974C 27.318 -1.221 16.107 3.308 1.484 6.525C -13.144 9.742 -25.668 9.307 -26.49 5.555C -27.318 1.803 -16.157 -3.969 -1.508 -7.064C 11.18 -9.742 25.669 -8.726 26.493 -4.974z" stroke="none" fill="#A6622A" fill-rule="nonzero" />
					</g>
					<g transform="matrix(1 0 0 1 370.626 136.293)">
                        <path d="M-6.563 1.059C -6.206 3.355 -2.977 4.744 0.652 4.156C 4.277 3.572 6.928 1.238 6.568 -1.06C 6.208 -3.356 2.973 -4.744 -0.654 -4.159C -4.277 -3.576 -6.927 -1.239 -6.563 1.059z" stroke="none" fill="#FFE1A9" fill-rule="nonzero" />
					</g>
					<g transform="matrix(1 0 0 1 356.755 140.233)">
                        <path d="M-4.194 1.676C -3.705 3.157 -1.431 3.605 0.881 2.682C 3.202 1.754 4.681 -0.192 4.195 -1.67C 3.702 -3.153 1.433 -3.605 -0.888 -2.678C -3.202 -1.75 -4.682 0.199 -4.194 1.676z" stroke="none" fill="#FFE1A9" fill-rule="nonzero" />
					</g>
					<g transform="matrix(1 0 0 1 379.237 147.908)">
                        <path d="M-30.342 15.85C -33.15 14.931 -35.848 13.71 -38.429 12.28C -40.459 11.155 -42.909 9.615 -43.705 7.306C -44.493 5.021 -41.731 1.46 -40.474 -0.146C -31.823 -11.19 -15.523 -16.48 -2.085 -17.413C 11.936 -18.387 25.808 -12.835 36.602 -4.132C 39.893 -1.479 43.014 1.609 45.329 5.163C 49.699 11.874 40.852 15.423 35.919 17.359C 33.783 18.198 34.712 21.68 36.876 20.831C 42.108 18.777 48.587 16.219 50.113 10.204C 51.368 5.256 46.322 0.173 43.23 -2.983C 31.517 -14.941 14.587 -21.679 -2.085 -21.012C -17.523 -20.395 -37.636 -13.013 -45.657 1.165C -51.369 11.261 -39.247 16.721 -31.299 19.323C -29.086 20.047 -28.146 16.569 -30.342 15.85z" stroke="none" fill="#56331B" fill-rule="nonzero" />
					</g>
				</g>
				<g transform="matrix(1 0 0 1 0 0.7763977)">
					<g transform="matrix(1 0 0 1 303.272 49.095)">
                        <path d="M27.214 1.508C 26.746 2.533 16.114 -6.343 5.048 -1.963C -0.632 0.282 -11.752 8.672 -14.937 21.141C -15.878 24.814 -31.135 20.332 -30.631 12.541C -30.234 6.427 -18.255 0.766 -18.255 0.766C -18.255 0.766 -27.132 -0.138 -24.703 -4.4C -20.306 -12.113 -7.881 -11.355 -7.881 -11.355C -7.881 -11.355 -15.19 -15.728 -12.414 -18.41C -6.926 -23.714 7.08 -17.316 7.08 -17.316C 7.08 -17.316 0.63 -24.814 8.902 -23.771C 14.969 -23.003 31.135 -7.107 27.214 1.508z" stroke="none" fill="#80481F" fill-rule="nonzero" />
					</g>
				</g>
				<g transform="matrix(1 0 0 1 0 0.7763977)">
					<g transform="matrix(1 0 0 1 414.692 65.101)">
                        <path d="M8.006 24.025C 9.765 19.047 4.192 8.113 -0.861 1.846C -11.186 -10.959 -27.342 -6.053 -27.342 -6.053C -27.342 -6.053 -20.75 -24.025 -9.286 -21.97C -2.49 -20.753 -5.515 -14.239 -5.515 -14.239C -5.515 -14.239 7.934 -19.079 13.664 -13.63C 16.953 -10.504 10.029 -5.079 10.029 -5.079C 10.029 -5.079 17.387 -4.339 19.949 0.31C 22.547 5.02 15.665 6.467 15.665 6.467C 15.665 6.467 27.342 9.884 21.775 16.836C 18.111 21.406 8.006 24.025 8.006 24.025z" stroke="none" fill="#80481F" fill-rule="nonzero" />
					</g>
					<g transform="matrix(1 0 0 1 302.961 48.09)">
                        <path d="M26.617 0.959C 27.663 0.289 25.289 -0.286 24.358 -0.736C 22.86 -1.461 21.312 -2.067 19.746 -2.623C 15.402 -4.166 10.835 -4.299 6.388 -3.209C -0.278 -1.578 -6.697 4.492 -10.573 9.842C -11.949 11.74 -13.141 13.687 -14.195 15.781C -14.684 16.754 -15.741 21.286 -16.445 21.545C -19.575 22.7 -24.462 19.688 -26.612 17.752C -32.978 12.019 -21.548 5.496 -17.034 3.326C -15.24 2.464 -16.362 0.152 -17.944 -0.028C -19.059 -0.155 -20.148 -0.463 -21.212 -0.804C -25.631 -2.216 -18.328 -6.588 -16.914 -7.156C -14.029 -8.316 -10.667 -8.707 -7.569 -8.549C -5.715 -8.454 -5.199 -11.005 -6.66 -11.903C -7.858 -12.639 -8.93 -13.504 -9.939 -14.479C -13.094 -17.53 -5.125 -17.72 -3.522 -17.589C -0.159 -17.313 3.41 -16.136 6.483 -14.756C 8.359 -13.914 10.017 -15.973 8.664 -17.583C 7.299 -19.209 5.721 -21.598 9.28 -20.928C 11.974 -20.421 14.56 -17.996 16.526 -16.27C 21.018 -12.327 28.291 -4.539 25.789 2.036C 24.962 4.21 28.443 5.14 29.26 2.993C 32.978 -6.779 21.249 -18.054 13.98 -22.704C 11.345 -24.39 5.7 -26.299 3.642 -22.786C 2.139 -20.221 4.524 -16.936 6.12 -15.037C 6.846 -15.979 7.574 -16.921 8.301 -17.864C 2.739 -20.361 -4.14 -22.45 -10.168 -20.617C -18.084 -18.209 -12.964 -11.552 -8.478 -8.795C -8.175 -9.914 -7.871 -11.031 -7.569 -12.148C -13.856 -12.469 -20.914 -10.688 -25.017 -5.667C -29.615 -0.039 -22.805 3.019 -17.944 3.572C -18.246 2.454 -18.549 1.336 -18.852 0.218C -24.311 2.841 -32.187 7.549 -32.109 14.43C -32.032 21.07 -21.916 26.299 -16.064 25.132C -12.096 24.34 -11.987 19.391 -10.448 16.329C -7.606 10.677 -2.791 5.955 2.483 2.559C 7.952 -0.962 13.952 -0.87 19.938 1.256C 21.828 1.927 26.289 5.439 28.432 4.067C 30.381 2.82 28.578 -0.297 26.617 0.959z" stroke="none" fill="#56331B" fill-rule="nonzero" />
					</g>
					<g transform="matrix(1 0 0 1 413.156 65.633)">
                        <path d="M11.278 23.972C 12.527 19.193 10.32 14.264 8.302 10.012C 5.516 4.14 1.564 -1.385 -3.775 -5.148C -9.946 -9.497 -19.107 -10.422 -26.284 -8.32C -25.545 -7.582 -24.807 -6.844 -24.07 -6.106C -22.679 -9.822 -20.521 -13.385 -17.92 -16.365C -15.811 -18.783 -13.096 -20.606 -9.841 -20.861C -6.091 -21.156 -4.367 -18.34 -5.534 -15.679C -6.1 -14.384 -5.161 -12.451 -3.5 -13.034C -0.159 -14.208 3.37 -14.852 6.905 -14.951C 9.515 -15.025 15.745 -14.246 13.596 -10.392C 12.841 -9.037 11.496 -7.85 10.294 -6.883C 8.917 -5.775 10.216 -3.966 11.566 -3.81C 15.433 -3.364 24.782 2.337 16.723 4.2C 14.924 4.616 15.085 7.172 16.723 7.671C 20.571 8.844 25.095 11.647 21.329 15.818C 18.413 19.046 13.159 20.667 9.064 21.758C 6.823 22.355 7.775 25.827 10.021 25.229C 16.112 23.606 24.424 20.651 26.462 14.02C 28.029 8.915 21.583 5.389 17.68 4.2C 17.68 4.2 17.68 7.671 17.68 7.671C 21.134 6.872 25.192 3.922 23.479 -0.1C 21.491 -4.767 16.333 -6.86 11.566 -7.41C 11.99 -6.386 12.415 -5.361 12.839 -4.337C 17.239 -7.877 20.232 -13.345 14.371 -16.958C 9.156 -20.173 0.933 -18.399 -4.457 -16.506C -3.78 -15.625 -3.102 -14.743 -2.424 -13.861C 1.132 -21.977 -7.09 -26.217 -14.151 -23.531C -20.764 -21.016 -25.182 -13.37 -27.54 -7.063C -28.029 -5.757 -26.561 -4.487 -25.326 -4.848C -19.644 -6.513 -13.178 -5.848 -7.867 -3.357C -2.927 -1.04 0.299 3.442 3.075 7.947C 5.559 11.976 9.093 18.093 7.807 23.015C 7.219 25.264 10.692 26.217 11.278 23.972z" stroke="none" fill="#56331B" fill-rule="nonzero" />
					</g>
				</g>
				<g transform="matrix(1 0 0 1 0 0)">
					<g transform="matrix(1 0 0 1 362.599 31.435)">
                        <path d="M8.241 25.039C 10.608 17.718 10.075 8.578 8.978 1.118C 7.388 -9.686 3.084 -20.398 -6.78 -26.077C -8.796 -27.238 -10.608 -24.127 -8.597 -22.969C 0.93 -17.483 4.518 -6.673 5.698 3.693C 6.427 10.098 6.788 17.84 4.77 24.082C 4.054 26.297 7.53 27.238 8.241 25.039z" stroke="none" fill="#56331B" fill-rule="nonzero" />
					</g>
					<g transform="matrix(1 0 0 1 352.751 33.345)">
                        <path d="M11.226 21.633C 12.54 5.093 4.77 -13.037 -8.84 -22.611C -10.744 -23.95 -12.54 -20.827 -10.657 -19.503C 1.931 -10.647 8.835 6.423 7.626 21.633C 7.442 23.949 11.043 23.931 11.226 21.633z" stroke="none" fill="#56331B" fill-rule="nonzero" />
					</g>
					<g transform="matrix(1 0 0 1 341.975 39.494)">
                        <path d="M12.076 15.001C 9.304 0.587 5.084 -11.38 -9.439 -17.354C -11.586 -18.237 -12.512 -14.753 -10.396 -13.882C 2.826 -8.444 6.127 3.072 8.605 15.958C 9.043 18.236 12.513 17.269 12.076 15.001z" stroke="none" fill="#56331B" fill-rule="nonzero" />
					</g>
				</g>
			</g>
		</g>
	</g>
</g>
</svg>