<?xml version="1.0" standalone="no"?>
<!DOCTYPE svg PUBLIC "-//W3C//DTD SVG 1.0//EN" "http://www.w3.org/TR/2001/REC-SVG-20010904/DTD/svg10.dtd">
<svg xmlns="http://www.w3.org/2000/svg" xmlns:xlink="http://www.w3.org/1999/xlink" id="body_1" width="128" height="96">

<defs>
        <clipPath  id="1">

            <path clip-rule="evenodd" d="M0 0L512 0L512 512L0 512z" />        </clipPath>
            <clipPath  id="2">

                <path clip-rule="evenodd" d="M0 0L512 0L512 512L0 512L0 0z" />            </clipPath>
                <clipPath  id="3">

                    <path clip-rule="evenodd" d="M0 0L512 0L512 512L0 512L0 0z" />                </clipPath>
                <clipPath  id="4">

                    <path clip-rule="evenodd" d="M0 0L512 0L512 512L0 512L0 0z" />                </clipPath>
</defs>

<g transform="matrix(0.1875 0 0 0.1875 32.000008 -0)">
	<g clip-path="url(#1)" >
		<g transform="matrix(1 0 0 1 0 0)" clip-path="url(#2)" >
			<g transform="matrix(1 0 0 1 0 0)">
				<g transform="matrix(1 0 0 1 112.3 307.448)">
                    <path d="M36.032 53.549C 15.764 54.191 -17.22 60.074 -36.518 52.241C -58.535 43.295 -62.227 20.157 -64.687 -3.672C -65.743 -12.058 -61.263 -35.145 -57.973 -43.891C -54.086 -54.224 -33.083 -59.733 -22.613 -59.306C -10.09 -58.795 -4.978 -60.073 -3.189 -41.672C -2.668 -36.308 0.615 -15.972 3.071 -12.165C 9.587 -0.721 23.467 -0.654 35.868 0.628C 45.903 1.464 65.743 3.53 63.794 26.666C 63.294 32.635 54.447 52.968 36.032 53.549z" stroke="none" fill="#A86728" fill-rule="nonzero" />
				</g>
				<g transform="matrix(1 0 0 1 82.15 296.659)">
                    <path d="M-27.826 -33.102C -23.939 -43.435 3.914 -50.751 15.331 -48.188C 25.554 -45.893 25.744 -43.512 26.962 -24.493C 27.306 -19.117 30.762 -5.183 33.217 -1.375C 35.594 2.801 3.952 50.751 -21.087 36.777C -28.916 34.305 -31.289 26.114 -33.249 16.118C -33.782 13.271 -34.211 10.28 -34.538 7.118C -35.594 -1.269 -31.117 -24.357 -27.826 -33.102z" stroke="none" fill="#925423" fill-rule="nonzero" />
				</g>
				<g transform="matrix(1 0 0 1 142.729 296.214)">
                    <path d="M35.07 38.215C 36.107 28.292 32.952 19.487 23.867 14.671C 16.163 10.587 6.824 10.529 -1.641 9.707C -8.699 9.022 -16.16 7.945 -21.861 3.376C -25.78 0.235 -27.03 -3.962 -28.234 -8.56C -29.639 -13.931 -30.685 -19.424 -31.411 -24.926C -31.827 -28.071 -33.136 -33.848 -31.305 -36.751C -30.061 -38.72 -33.178 -40.525 -34.413 -38.567C -36.107 -35.883 -35.637 -31.957 -35.43 -28.969C -35.072 -23.802 -34.135 -18.652 -33.092 -13.587C -31.137 -4.085 -28.891 4.118 -19.721 9.054C -2.467 18.339 34.716 7.131 31.469 38.215C 31.228 40.524 34.832 40.5 35.07 38.215z" stroke="none" fill="#563118" fill-rule="nonzero" />
				</g>
				<g transform="matrix(1 0 0 1 97.86 313.85)">
                    <path d="M50.374 45.662C 34.791 45.706 19.317 48.122 3.725 48.191C -12.137 48.263 -28.109 45.289 -37.632 31.373C -45.776 19.471 -47.757 2.743 -48.67 -11.289C -49.087 -17.691 -47.831 -24.336 -46.719 -30.605C -45.589 -36.968 -44.23 -43.455 -41.897 -49.5C -41.06 -51.669 -44.542 -52.599 -45.369 -50.457C -49.945 -38.601 -52.696 -24.018 -52.271 -11.289C -51.775 3.509 -48.816 20.568 -40.74 33.19C -32.193 46.549 -17.275 50.854 -2.268 51.658C 15.329 52.599 32.803 49.312 50.374 49.262C 52.695 49.255 52.696 45.655 50.374 45.662z" stroke="none" fill="#563118" fill-rule="nonzero" />
				</g>
			</g>
			<g transform="matrix(1 0 0 1 0 0)">
				<g transform="matrix(1 0 0 1 444.778 431.923)">
                    <path d="M-30.081 33.098C 3.762 41.957 17.181 33.933 29.196 26.473C 37.169 21.524 44.716 8.59 37.013 -0.98C 32.392 -6.715 26.586 10.373 16.779 11.262C 10.7 11.814 19.602 3.474 29.425 -8.829C 39.254 -21.131 31.893 -35.062 25.359 -37.439C 18.823 -39.812 17.777 -23.996 17.777 -23.996C 17.777 -23.996 17.421 -22.988 17.421 -22.988C 18.663 -29.48 13.587 -38.528 6.675 -39.906C -3.586 -41.956 10.025 -22.469 -8.884 5.118C -16.605 16.382 -27.463 24.864 -41.155 22.262C -41.155 22.262 -44.716 23.275 -40.088 28.9C -37.608 31.915 -30.081 33.098 -30.081 33.098z" stroke="none" fill="#B9772B" fill-rule="nonzero" />
				</g>
				<g transform="matrix(1 0 0 1 432.805 422.673)">
                    <path d="M-29.66 33.247C -4.649 37.288 12.841 9.327 15.398 -12.397C 15.879 -16.485 15.921 -20.566 16.004 -24.676C 16.065 -27.679 15.908 -29.517 19.303 -28.622C 26.753 -26.658 28.442 -17.245 26.954 -11.038C 25.757 -6.046 22.499 -2.873 19.676 1.186C 18.348 3.098 21.469 4.895 22.784 3.004C 25.549 -0.973 28.507 -4.052 30.053 -8.755C 31.947 -14.517 31.61 -19.73 28.633 -25.023C 26.2 -29.35 15.646 -37.289 12.9 -29.181C 11.83 -26.024 12.396 -22.048 12.297 -18.78C 12.1 -12.278 10.856 -5.994 8.637 0.116C 3.103 15.355 -10.675 32.688 -28.704 29.776C -30.974 29.409 -31.947 32.878 -29.66 33.247z" stroke="none" fill="#563118" fill-rule="nonzero" />
				</g>
				<g transform="matrix(1 0 0 1 449.576 432.037)">
                    <path d="M14.78 -24.11C 15.017 -27.415 16.114 -38.071 21.168 -35.251C 25.252 -32.971 27.143 -27.447 27.565 -23.111C 28.245 -16.12 23.914 -10.827 19.742 -5.798C 16.759 -2.203 13.563 1.254 10.787 5.015C 9.799 6.355 7.565 8.937 8.27 10.859C 10.154 15.99 17.876 10.983 20.301 8.994C 22.873 6.884 24.928 4.172 27.194 1.754C 27.741 1.17 29.371 -0.848 30.366 -0.394C 32.93 0.775 33.57 5.963 33.629 8.258C 33.881 18.098 24.792 24.385 17.165 28.51C 1.09 37.203 -17.227 34.846 -34.267 30.487C -36.518 29.911 -37.472 33.382 -35.224 33.957C -15.971 38.884 3.372 40.521 21.15 30.416C 28.884 26.021 36.541 19.203 37.142 9.635C 37.472 4.392 34.017 -8.049 26.753 -2.702C 23.893 -0.596 21.768 2.519 19.287 5.033C 17.594 6.745 15.691 8.206 13.413 9.031C 13.098 9.111 12.785 9.192 12.471 9.272C 11.143 9.08 10.944 9.311 11.873 9.963C 12.192 8.72 13.595 7.22 14.328 6.275C 21.589 -3.101 32.303 -11.396 31.037 -24.433C 30.446 -30.51 25.472 -40.521 18.034 -39.435C 12.586 -38.64 11.636 -28.776 11.229 -24.689C 11.21 -24.497 11.194 -24.303 11.18 -24.11C 11.014 -21.793 14.615 -21.808 14.78 -24.11z" stroke="none" fill="#563118" fill-rule="nonzero" />
				</g>
			</g>
			<g transform="matrix(1 0 0 1 0 0)">
				<g transform="matrix(1 0 0 1 266.59 275.409)">
                    <path d="M84.915 41.741C 76.211 18.167 63.28 3.83 57.419 -11.168C 52.727 -23.18 54.578 -54.057 54.751 -60.32C 56.285 -115.583 21.403 -180.763 18.362 -183.295C 12.253 -188.382 5.677 -193.53 0.743 -196.53C -20.585 -209.497 -45.016 -214.38 -74.026 -196.602C -100.314 -180.492 -119.091 -145.016 -132.493 -109.943C -137.496 -96.847 -152.373 -62.924 -154.925 -41.062C -161.195 12.677 -166.603 47.67 -167.51 55.06C -172.314 94.191 -157.456 152.094 -119.716 182.52C -87.737 208.301 -30.993 214.38 19.996 209.789C 98.498 202.72 106.431 177.093 148.23 196.753C 172.314 208.082 169.068 190.218 164.036 176.25C 157.147 157.127 147.903 141.673 138.23 129.368C 122.105 108.861 104.79 97.106 95.204 91.71C 95.204 91.71 91.895 60.65 84.915 41.741z" stroke="none" fill="#B9772B" fill-rule="nonzero" />
				</g>
				<g transform="matrix(1 0 0 1 274 348.167)">
                    <path d="M5 -0.167C -24 -10.167 -31.5 -1.833 -58.5 -13.833C -61.5 -15.833 -65.5 -18.833 -69.5 -16.833C -78.5 -11.833 -77.5 -1.833 -75.5 7.167C -73.5 19.167 -47.667 64.833 10 63.833C 46 65.833 64.334 40.833 74.334 28.833C 77.42 25.13 85 13.499 85 4.833C 83.55 -5.518 82.326 -17.567 77.764 -30.289C 64.327 -2.847 33.41 8.998 5 -0.167z" stroke="none" fill="#A06025" fill-rule="nonzero" />
				</g>
				<g transform="matrix(1 0 0 1 241.225 425.001)">
                    <path d="M32.775 39.999C 8.775 40.999 -15.225 40.999 -39.225 34.999C -56.225 30.999 -70.225 22.999 -85.225 12.999C -115.849 -8.202 -135.983 -29.887 -142.254 -64.788C -138.794 -29.971 -123.322 9.571 -94.351 32.928C -62.372 58.708 -5.628 64.788 45.361 60.197C 100.272 55.252 120.656 41.231 142.254 39.977C 107.998 32.789 67.392 37.88 32.775 39.999z" stroke="none" fill="#A06025" fill-rule="nonzero" />
				</g>
				<g transform="matrix(1 0 0 1 318.361 206.344)">
                    <path d="M4.683 71.552C 16.675 87.071 26.111 99.211 34.65 115.254C 34.167 113.717 33.667 112.225 33.144 110.807C 24.44 87.233 11.509 72.896 5.648 57.898C 0.955 45.886 2.807 15.009 2.98 8.746C 4.514 -46.517 -30.368 -111.697 -33.409 -114.229C -33.819 -114.571 -34.236 -114.912 -34.65 -115.254C -6.537 -63.935 -3.749 -19.83 -2.117 50.338C -1.961 58.356 1.683 66.552 4.683 71.552z" stroke="none" fill="#F8CD74" fill-rule="nonzero" />
				</g>
				<g transform="matrix(1 0 0 1 396.275 409.695)">
                    <path d="M8.546 -4.918C -4.838 -21.939 -24.685 -36.364 -34.609 -42.695C -8.312 -19.775 18.725 11.305 34.609 42.695C 34.524 42.451 34.439 42.206 34.352 41.964C 27.463 22.841 18.219 7.387 8.546 -4.918z" stroke="none" fill="#F8CD74" fill-rule="nonzero" />
				</g>
				<g transform="matrix(1 0 0 1 178.795 197.323)">
                    <path d="M14.205 -110.323C 32.15 -124.529 57.361 -129.227 79.809 -123.172C 60.592 -132.304 38.899 -133.915 13.768 -118.514C -12.52 -102.405 -31.296 -66.928 -44.698 -31.855C -49.701 -18.759 -64.578 15.163 -67.13 37.026C -73.4 90.764 -78.808 125.756 -79.715 133.147C -79.809 133.915 -72.545 110.791 -64.692 61.628C -58.958 25.735 -49.945 -0.855 -40.551 -26.283C -29.038 -57.446 -14.392 -87.592 14.205 -110.323z" stroke="none" fill="#F8CD74" fill-rule="nonzero" />
				</g>
				<g transform="matrix(1 0 0 1 119.49 312.961)">
                    <path d="M1.202 -15.653C 7.592 -15.625 12.234 -8.592 11.571 0.048C 10.916 8.692 5.201 15.679 -1.189 15.64C -7.589 15.614 -12.234 8.587 -11.569 -0.055C -10.907 -8.699 -5.198 -15.68 1.202 -15.653z" stroke="none" fill="#A96728" fill-rule="nonzero" />
				</g>
				<g transform="matrix(1 0 0 1 121.581 279.776)">
                    <path d="M0.975 -10.357C 5.606 -10.379 8.925 -5.761 8.387 -0.043C 7.855 5.678 3.666 10.337 -0.965 10.353C -5.604 10.379 -8.926 5.762 -8.387 0.042C -7.85 -5.678 -3.665 -10.333 0.975 -10.357z" stroke="none" fill="#A96728" fill-rule="nonzero" />
				</g>
				<g transform="matrix(1 0 0 1 169.034 418.582)">
                    <path d="M-7.806 -9.839C -3.789 -13.73 2.963 -12.477 7.273 -7.044C 11.589 -1.612 11.83 5.948 7.806 9.831C 3.785 13.729 -2.967 12.48 -7.276 7.045C -11.588 1.61 -11.83 -5.942 -7.806 -9.839z" stroke="none" fill="#A96728" fill-rule="nonzero" />
				</g>
				<g transform="matrix(1 0 0 1 122.961 388.87)">
                    <path d="M-1.854 -15.922C 3.264 -16.537 8.235 -9.907 9.257 -1.115C 10.276 7.68 6.961 15.307 1.851 15.928C -3.264 16.537 -8.239 9.919 -9.261 1.124C -10.276 -7.667 -6.968 -15.297 -1.854 -15.922z" stroke="none" fill="#A96728" fill-rule="nonzero" />
				</g>
				<g transform="matrix(1 0 0 1 109.617 347.676)">
                    <path d="M-0.781 -9.801C 2.638 -10.108 5.77 -5.96 6.2 -0.546C 6.636 4.865 4.216 9.496 0.792 9.807C -2.628 10.107 -5.763 5.973 -6.193 0.557C -6.635 -4.859 -4.206 -9.495 -0.781 -9.801z" stroke="none" fill="#A96728" fill-rule="nonzero" />
				</g>
				<g transform="matrix(1 0 0 1 136.898 354.995)">
                    <path d="M11.745 -7.745C 16.188 1.651 14.559 12.724 8.081 16.997C 1.591 21.276 -7.277 17.125 -11.737 7.737C -16.188 -1.653 -14.546 -12.726 -8.066 -17.005C -1.585 -21.276 7.285 -17.132 11.745 -7.745z" stroke="none" fill="#A96728" fill-rule="nonzero" />
				</g>
				<g transform="matrix(1 0 0 1 149.639 400.313)">
                    <path d="M5.772 -4.77C 8.488 -0.277 8.094 5.5 4.906 8.129C 1.723 10.768 -3.061 9.258 -5.778 4.763C -8.488 0.277 -8.099 -5.503 -4.911 -8.135C -1.725 -10.768 3.069 -9.259 5.772 -4.77z" stroke="none" fill="#A96728" fill-rule="nonzero" />
				</g>
				<g transform="matrix(1 0 0 1 269.894 275.799)">
                    <path d="M93.229 99.972C 94.025 90.017 92.298 79.716 90.608 69.938C 88.297 56.566 84.843 43.259 79.385 30.813C 71.328 12.436 55.432 -2.963 53.703 -23.624C 52.04 -43.505 53.69 -63.483 51.676 -83.393C 48.847 -111.37 40.742 -138.788 27.759 -163.741C 21.101 -176.538 12.454 -189.363 0.152 -197.352C -17.97 -209.122 -39.117 -213.641 -59.999 -207.105C -107.363 -192.281 -126.681 -138.042 -143.216 -96.423C -147.607 -85.371 -151.81 -74.235 -155.262 -62.85C -158.915 -50.801 -160.328 -38.724 -161.836 -26.267C -164.581 -3.594 -167.599 19.042 -170.804 41.654C -172.951 56.792 -174.172 71.496 -172.48 86.816C -169.999 109.283 -162.912 131.382 -151.599 150.959C -140.173 170.733 -123.789 186.699 -103.048 196.391C -80.246 207.045 -54.528 210.915 -29.598 212.222C -2.536 213.641 24.915 211.505 51.49 206.256C 68.731 202.851 85.153 196.738 102.212 192.724C 114.76 189.772 126.622 190.863 138.607 195.555C 145.315 198.182 153.194 203.609 160.716 201.193C 166.155 199.446 166.414 192.82 165.832 188.143C 164.756 179.519 161.05 171.152 157.604 163.273C 152.681 152.018 146.387 141.386 139.108 131.503C 126.766 114.749 110.946 100.07 92.809 89.766C 90.788 88.618 88.973 91.729 90.992 92.875C 112.17 104.908 129.743 122.839 142.832 143.26C 146.288 148.652 174.173 198.747 156.302 198.121C 151.071 197.939 146.175 194.828 141.462 192.865C 137.679 191.287 133.832 189.933 129.854 188.93C 123.626 187.359 117.177 186.962 110.796 187.607C 95.86 189.115 81.458 195.179 67.023 198.979C 41.482 205.701 15.023 208.702 -11.357 208.99C -38.182 209.281 -65.565 206.44 -90.968 197.456C -114.471 189.144 -132.972 173.764 -146.289 152.779C -159.04 132.686 -166.423 109.069 -169.025 85.501C -170.727 70.097 -169.126 55.281 -166.974 40.076C -163.762 17.379 -160.769 -5.347 -158.014 -28.104C -156.431 -41.175 -154.467 -53.523 -150.488 -66.1C -146.974 -77.206 -142.701 -88.064 -138.387 -98.878C -129.375 -121.465 -120.505 -143.804 -106.882 -164.121C -91.847 -186.546 -69.634 -205.742 -41.396 -206.743C -24.566 -207.339 -6.373 -199.812 5.893 -188.249C 23.054 -172.071 32.734 -147.328 39.578 -125.376C 47.251 -100.765 49.516 -75.241 49.634 -49.587C 49.682 -39.423 49.178 -29.073 50.603 -18.977C 52.14 -8.084 58.058 1.065 63.806 10.219C 72.965 24.807 79.863 39.564 84.068 56.328C 87.543 70.189 90.779 85.591 89.629 99.972C 89.444 102.287 93.045 102.27 93.229 99.972z" stroke="none" fill="#563118" fill-rule="nonzero" />
				</g>
				<g transform="matrix(1 0 0 1 221.821 256.761)">
                    <path d="M82.448 -53.206C 78.77 -79.024 53.981 -100.918 -0.361 -103.38C -31.069 -104.773 -70.745 -86.242 -78.69 -56.043C -82.263 -42.462 -83.941 -10.127 -69.549 -0.34C -69.341 5.682 -68.55 26.942 -67.234 39.439C -65.378 56.999 -61.442 75.714 -58.968 83.981C -56.493 92.253 -52.394 104.531 -47.906 102.656C -43.421 100.783 -45.469 80.598 -45.824 69.577C -46.281 55.257 -45.349 21.709 -45.285 13.941C -45.254 10.385 -44.972 6.228 -44.673 2.755C -37.902 2.036 -31.11 0.65 -25.674 -0.746C -12.489 -4.131 -6.284 -4.833 -2.192 -5.796C 1.901 -6.761 10.426 -1.526 18.117 1.755C 21.439 3.175 23.007 5.507 25.985 6.785C 26.051 10.146 27.343 13.647 27.425 19.012C 27.577 28.858 27.424 55.268 26.299 69.549C 25.427 80.544 22.438 100.609 26.828 102.694C 31.224 104.774 35.894 92.702 38.748 84.556C 41.614 76.411 45.621 62.775 48.298 45.322C 49.793 35.551 51.427 17.545 52.346 6.721C 77.001 6.085 78.627 -12.107 81.823 -25.198C 83.941 -33.868 82.92 -49.899 82.448 -53.206z" stroke="none" fill="#A06025" fill-rule="nonzero" />
				</g>
			</g>
			<g transform="matrix(1 0 0 1 0 0)">
				<g transform="matrix(1 0 0 1 458.186 467.031)">
                    <path d="M-37.68 -11.947C -16.602 -7.394 -4.228 -8.117 11.79 -22.182C 15.913 -25.802 23.42 -31.562 25.904 -31.911C 33.466 -32.973 38.229 -19.837 28.712 -12.209C 19.717 -4.995 16.019 -6.688 17.527 -5.879C 28.013 -0.254 35.317 -17.578 42.311 -11.017C 48.186 -5.515 40.549 9.808 25.083 9.607C 13.141 9.451 1.958 7.569 4.182 11.177C 7.366 16.347 23.525 11.294 27.418 15.727C 32.355 21.347 24.268 28.628 12.923 30.506C 2.317 32.26 -11.992 32.973 -30.74 15.968C -33.285 13.657 -43.21 4.564 -43.21 4.564C -44.999 1.827 -48.187 -2.093 -46.964 -5.914C -45.736 -9.736 -42.992 -13.094 -37.68 -11.947z" stroke="none" fill="#B9772B" fill-rule="nonzero" />
				</g>
				<g transform="matrix(1 0 0 1 456.054 449.118)">
                    <path d="M3.21 8.573C 5.161 8.199 15.856 0.15 21.249 -5.5C 25.411 -9.862 30.962 -14.224 35.72 -8.872C 33.341 -14.224 29.667 -14.229 28.036 -13.999C 25.552 -13.651 18.046 -7.89 13.923 -4.27C -2.095 9.796 -14.47 10.518 -35.548 5.966C -35.606 5.953 -35.661 5.948 -35.72 5.936C -30.288 12.339 -9.987 14.229 3.21 8.573z" stroke="none" fill="#F8CD74" fill-rule="nonzero" />
				</g>
				<g transform="matrix(1 0 0 1 458.191 466.741)">
                    <path d="M-38.164 -9.922C -29.057 -7.933 -19.876 -6.49 -10.585 -8.004C -1.538 -9.477 6.256 -14.76 13.058 -20.62C 16.49 -23.576 20.044 -26.401 23.907 -28.777C 28.739 -31.749 31.973 -27.039 32.208 -22.456C 32.517 -16.453 27.122 -12.594 22.586 -9.859C 20.572 -8.645 18.287 -8.429 16.293 -7.393C 15.534 -6.998 15.329 -6.133 15.466 -5.36C 15.838 -3.257 19.859 -2.824 21.428 -2.657C 24.836 -2.294 28.254 -4.351 30.955 -6.142C 33.649 -7.928 37.774 -12.156 41.034 -9.455C 44.413 -6.654 41.55 -0.959 39.51 1.655C 31.616 11.772 17.389 6.875 6.546 7.554C 4.502 7.682 1.968 8.461 2.136 10.941C 2.343 13.99 6.164 15.15 8.6 15.54C 12.698 16.194 16.94 15.692 21.07 15.845C 23.351 15.929 27.516 16.421 26.943 19.822C 26.475 22.611 21.983 24.563 19.822 25.732C 10.001 31.047 1.523 31.503 -8.762 27.402C -21.193 22.446 -32.696 13.163 -41.942 3.581C -43.557 1.907 -46.1 4.456 -44.487 6.126C -35.309 15.64 -24.201 24.217 -12.209 29.801C -4.832 33.236 3.482 35.297 11.522 33.178C 17.625 31.568 32.723 25.947 30.266 17.288C 28.146 9.818 15.515 12.471 10.066 12.109C 8.913 12.033 7.728 11.798 6.668 11.324C 5.02 10.588 5.17 11.329 6.546 11.153C 9.109 10.826 11.824 11.133 14.391 11.26C 20.693 11.571 27.092 12.401 33.183 10.354C 40.065 8.042 46.1 1.341 46.075 -6.143C 46.055 -12.68 39.749 -15.366 34.437 -12.746C 31.982 -11.536 29.84 -9.662 27.527 -8.211C 25.943 -7.217 24.231 -6.468 22.359 -6.262C 21.558 -6.202 20.769 -6.285 19.99 -6.51C 17.102 -7.155 18.677 -7.789 18.938 -6.317C 18.662 -5.639 18.386 -4.961 18.11 -4.283C 19.72 -5.12 23.378 -6.132 25.56 -7.447C 30.049 -10.154 33.741 -13.637 35.331 -18.711C 37.177 -24.605 33.216 -35.297 25.42 -33.358C 21.73 -32.44 18.372 -29.506 15.452 -27.22C 10.329 -23.209 5.631 -18.81 -0.059 -15.572C -11.624 -8.993 -24.783 -10.68 -37.207 -13.393C -39.47 -13.887 -40.432 -10.417 -38.164 -9.922z" stroke="none" fill="#563118" fill-rule="nonzero" />
				</g>
			</g>
			<g transform="matrix(1 0 0 1 0 0)">
				<g transform="matrix(1 0 0 1 181.883 108.556)">
                    <path d="M-8.942 10.191C -8.143 9.072 -5.542 9.276 -2.383 9.445C -2.633 0.445 8.942 -8.479 8.617 -8.555C 1.738 -10.191 -7.617 3.19 -8.942 10.191z" stroke="none" fill="#F8CD74" fill-rule="nonzero" />
				</g>
				<g transform="matrix(1 0 0 1 192.36 127.254)">
                    <path d="M19.731 3.999C 21.286 -0.381 20.724 -1.446 19.568 -5.171C 13.401 -6.91 -2.766 -8.576 -18.932 -8.069C -19.591 -6.706 -19.832 -7.379 -20.275 -5.857C -21.286 -2.388 -21.285 1.629 -20.308 5.436C -10.099 4.975 -3.599 4.105 17.848 8.576C 18.509 7.202 19.133 5.684 19.731 3.999z" stroke="none" fill="#FFFFFF" fill-rule="nonzero" />
				</g>
				<g transform="matrix(1 0 0 1 192.217 123.932)">
                    <path d="M20.886 5.253C 20.69 4.375 20.1 -0.595 19.712 -1.848C 13.545 -3.587 -2.622 -5.253 -18.788 -4.746C -19.447 -3.383 -19.688 -4.056 -20.131 -2.534C -20.618 -0.863 -20.864 0.936 -20.885 2.776C -0.566 1.306 6.774 3.295 20.886 5.253z" stroke="none" fill="#DFE0EB" fill-rule="nonzero" />
				</g>
				<g transform="matrix(1 0 0 1 162.799 135.793)">
                    <path d="M-3.122 -11.539C -7.593 -2.629 -5.497 9.059 4.483 12.798C 6.661 13.614 7.593 10.133 5.44 9.326C -2.247 6.446 -3.358 -3.056 -0.014 -9.721C 1.024 -11.789 -2.08 -13.614 -3.122 -11.539z" stroke="none" fill="#563118" fill-rule="nonzero" />
				</g>
				<g transform="matrix(1 0 0 1 189.099 125.772)">
                    <path d="M-6.837 -6.175C -8.657 -4.526 -9.255 -2.983 -9.551 -0.275C -9.794 1.946 -9.34 4.063 -8.387 5.85C -3.329 5.383 2.053 6.232 7.059 6.725C 8.506 5.137 9.205 4.053 9.462 1.7C 9.794 -1.345 8.653 -3.376 6.863 -5.443C 2.866 -5.957 -1.706 -6.725 -6.837 -6.175z" stroke="none" fill="#221F1F" fill-rule="nonzero" />
				</g>
				<g transform="matrix(1 0 0 1 294.137 147.086)">
                    <path d="M6.007 -8.599C 6.17 -0.855 0.897 7.131 -7.5 6.297C -9.809 6.068 -9.788 9.67 -7.5 9.897C 2.826 10.922 9.809 0.984 9.607 -8.599C 9.558 -10.917 5.958 -10.922 6.007 -8.599z" stroke="none" fill="#563118" fill-rule="nonzero" />
				</g>
				<g transform="matrix(1 0 0 1 196.389 124.344)">
                    <path d="M1.372 1.203C 0.708 1.96 -0.446 2.038 -1.202 1.374C -1.962 0.708 -2.038 -0.444 -1.374 -1.203C -0.708 -1.961 0.444 -2.038 1.202 -1.371C 1.961 -0.708 2.038 0.445 1.372 1.203z" stroke="none" fill="#FFFFFF" fill-rule="nonzero" />
				</g>
				<g transform="matrix(1 0 0 1 179.604 122.617)">
                    <path d="M-6.864 -3.889C -6.864 -3.889 0.01 -2.845 8.408 1.423C 7.469 3.889 6.727 3.171 6.727 3.171C 6.727 3.171 -4.812 0.988 -8.01 1.755C -8.407 -0.32 -7.968 -3.027 -6.864 -3.889z" stroke="none" fill="#FFFFFF" fill-rule="nonzero" />
				</g>
				<g transform="matrix(1 0 0 1 191.984 127.498)">
                    <path d="M18.247 9.795C 22.516 9.079 23.639 1.49 23.328 -1.835C 22.814 -7.332 18.398 -7.481 13.837 -8.238C 2.843 -10.06 -8.605 -10.278 -19.727 -9.799C -20.574 -9.763 -21.188 -9.268 -21.462 -8.479C -23.164 -3.591 -23.639 0.923 -22.47 5.972C -22.304 6.689 -21.496 7.374 -20.734 7.295C -8.141 5.987 4.965 7.166 17.29 9.795C 19.554 10.278 20.517 6.809 18.247 6.324C 5.6 3.627 -7.818 2.354 -20.734 3.695C -20.734 3.695 -18.999 5.015 -18.999 5.015C -20.021 0.597 -19.471 -3.269 -17.991 -7.521C -17.991 -7.521 -19.727 -6.2 -19.727 -6.2C -13.293 -6.476 -6.833 -6.368 -0.404 -6.055C 4.93 -5.794 10.251 -5.267 15.506 -4.308C 18.536 -3.754 19.533 -3.917 19.854 -0.485C 19.982 0.889 19.042 6.031 17.29 6.324C 15.004 6.708 15.977 10.175 18.247 9.795z" stroke="none" fill="#563118" fill-rule="nonzero" />
				</g>
				<g transform="matrix(1 0 0 1 271.72 130.923)">
                    <path d="M19.355 7.634C 21.182 2.689 21.451 -2.176 20.531 -6.516C 7.597 -7.757 -5.03 -8.779 -18.05 -10.754C -18.794 -9.224 -19.435 -7.59 -19.973 -5.866C -21.2 -1.938 -21.451 2.677 -20.714 7.102C -4.958 5.933 4.55 5.82 17.902 10.754C 18.648 9.212 18.653 9.535 19.355 7.634z" stroke="none" fill="#FFFFFF" fill-rule="nonzero" />
				</g>
				<g transform="matrix(1 0 0 1 271.805 126.243)">
                    <path d="M20.769 6.073C 21.094 3.321 20.974 0.654 20.446 -1.837C 7.512 -3.077 -5.116 -4.098 -18.136 -6.073C -18.88 -4.544 -19.521 -2.909 -20.059 -1.185C -20.594 0.526 -20.931 2.371 -21.094 4.271C -6.821 3.179 7.028 3.249 20.769 6.073z" stroke="none" fill="#DFE0EB" fill-rule="nonzero" />
				</g>
				<g transform="matrix(1 0 0 1 272.965 129.427)">
                    <path d="M-6.124 -7.875C -7.933 -6.048 -9.543 -3.688 -9.817 -0.706C -10.043 1.738 -9.437 4.212 -8.47 6.173C -3.497 7.038 1.665 7.366 6.676 7.875C 8.113 6.117 9.495 3.694 9.733 1.104C 10.043 -2.249 8.715 -4.602 6.91 -6.861C 2.498 -7.086 -1.813 -7.542 -6.124 -7.875z" stroke="none" fill="#221F1F" fill-rule="nonzero" />
				</g>
				<g transform="matrix(1 0 0 1 275.802 127.581)">
                    <path d="M1.406 1.375C 0.645 2.151 -0.601 2.167 -1.376 1.407C -2.156 0.646 -2.167 -0.599 -1.408 -1.375C -0.647 -2.152 0.597 -2.167 1.375 -1.407C 2.152 -0.648 2.167 0.599 1.406 1.375z" stroke="none" fill="#FFFFFF" fill-rule="nonzero" />
				</g>
				<g transform="matrix(1 0 0 1 259.624 123.08)">
                    <path d="M-7.338 -3.614C -7.338 -3.614 1.758 -3.012 9.092 1.828C 8.634 3.614 7.476 3.56 7.476 3.56C 7.476 3.56 -5.924 1.594 -8.85 2.232C -9.092 0.06 -8.383 -2.773 -7.338 -3.614z" stroke="none" fill="#FFFFFF" fill-rule="nonzero" />
				</g>
				<g transform="matrix(1 0 0 1 271.49 131.348)">
                    <path d="M17.552 12.128C 24.609 11.935 23.866 -0.311 22.743 -4.513C 20.931 -11.294 9.951 -10.988 4.18 -11.708C -3.314 -12.643 -10.937 -12.896 -18.486 -12.738C -21.16 -12.682 -21.707 -10.271 -22.642 -8.04C -24.608 -3.346 -23.275 2.218 -21.799 6.818C -21.496 7.761 -20.564 8.333 -19.585 8.077C -7.682 4.966 5.901 7.789 17.073 12.064C 19.245 12.895 20.175 9.414 18.03 8.592C 6.265 4.091 -8.039 1.336 -20.542 4.604C -19.803 5.024 -19.066 5.442 -18.327 5.861C -19.733 1.482 -20.476 -2.558 -19.17 -7.083C -18.447 -9.588 -19.645 -9.128 -16.98 -9.163C -12.181 -9.226 -7.383 -9.059 -2.595 -8.742C 4.059 -8.301 10.697 -7.396 17.122 -5.583C 19.28 -4.975 19.222 -4.09 19.79 -1.354C 20.146 0.355 20.225 2.6 19.853 4.327C 19.736 4.868 18.302 8.508 17.552 8.529C 15.236 8.593 15.229 12.192 17.552 12.128z" stroke="none" fill="#563118" fill-rule="nonzero" />
				</g>
			</g>
			<g transform="matrix(1 0 0 1 0 0)" clip-path="url(#3)" >
				<g transform="matrix(1 0 0 1 0 0)">
					<g transform="matrix(1 0 0 1 176.402 304.839)">
                        <path d="M-12.839 -52.141C -12.839 -52.141 -12.192 -25.377 -10.74 -10.703C -9 6.872 -5.187 25.611 -2.764 33.894C -0.345 42.184 3.676 54.488 8.177 52.642C 12.672 50.798 10.756 30.6 10.473 19.576C 10.108 5.252 11.261 -28.29 11.374 -36.056C 11.486 -43.822 12.839 -54.488 12.839 -54.488" stroke="none" fill="#DECDA4" fill-rule="nonzero" />
					</g>
					<g transform="matrix(1 0 0 1 270.585 306.696)">
                        <path d="M15.654 -53.416C 15.654 -53.416 12.892 -20.483 10.568 -5.922C 7.776 11.513 3.679 25.125 0.763 33.248C -2.147 41.378 -6.895 53.416 -11.275 51.308C -15.654 49.196 -12.533 29.152 -11.589 18.162C -10.371 3.886 -10.046 -22.523 -10.134 -32.37C -10.201 -40.139 -10.338 -49.786 -10.338 -49.786" stroke="none" fill="#DECDA4" fill-rule="nonzero" />
					</g>
					<g transform="matrix(1 0 0 1 176.518 306.149)">
                        <path d="M-14.754 -53.451C -14.291 -34.567 -13.525 -15.67 -10.751 3.033C -8.982 14.958 -6.683 26.887 -2.98 38.374C -1.902 41.717 3.35 58.096 9.737 52.379C 11.725 50.6 12.177 47.581 12.443 45.068C 13.002 39.777 12.81 34.44 12.605 29.133C 12.235 19.571 12.042 10.071 12.183 0.5C 12.456 -18.058 12.256 -36.927 14.472 -55.376C 14.489 -55.516 14.506 -55.657 14.523 -55.797C 14.811 -58.096 11.208 -58.069 10.924 -55.797C 9.028 -40.65 9.126 -25.277 8.784 -10.035C 8.586 -1.195 8.399 7.654 8.521 16.495C 8.648 25.673 9.692 34.869 8.951 44.043C 8.82 45.667 8.573 47.42 7.908 48.926C 6.769 51.506 3.802 45.716 3.365 44.852C 1.063 40.303 -0.32 35.148 -1.663 30.246C -4.789 18.84 -6.7 7.009 -8.226 -4.704C -10.327 -20.828 -10.756 -37.209 -11.154 -53.451C -11.211 -55.768 -14.811 -55.774 -14.754 -53.451z" stroke="none" fill="#8A5C2B" fill-rule="nonzero" />
					</g>
					<g transform="matrix(1 0 0 1 271.662 307.121)">
                        <path d="M12.777 -53.841C 11.674 -40.723 10.437 -27.604 8.828 -14.537C 6.393 5.232 2.173 27.026 -7.335 44.784C -7.721 45.506 -10.662 50.679 -11.866 48.882C -12.709 47.623 -12.679 45.571 -12.772 44.147C -13.074 39.551 -12.56 34.866 -12.133 30.294C -11.265 20.98 -10.367 11.74 -9.997 2.388C -9.306 -15.144 -9.369 -32.672 -9.616 -50.211C -9.648 -52.53 -13.248 -52.534 -13.215 -50.211C -12.936 -30.373 -12.905 -10.54 -13.906 9.281C -14.416 19.393 -15.982 29.42 -16.386 39.536C -16.519 42.862 -16.57 56.155 -9.454 52.492C -5.873 50.648 -4.011 46.388 -2.396 42.93C -0.347 38.542 1.256 33.925 2.789 29.336C 6.806 17.31 9.625 4.829 11.508 -7.7C 13.805 -22.979 15.082 -38.45 16.376 -53.841C 16.57 -56.155 12.969 -56.137 12.777 -53.841z" stroke="none" fill="#8A5C2B" fill-rule="nonzero" />
					</g>
					<g transform="matrix(1 0 0 1 221.181 200.144)">
                        <path d="M-78.462 -7.785C -82.128 5.797 -84.023 38.224 -69.6 48.039C -60.222 54.417 -39.011 51.156 -25.805 47.858C -12.597 44.558 -4.916 40.057 -0.817 39.121C 3.28 38.184 11.791 45.343 19.461 48.677C 26.639 51.798 24.119 55.488 50.442 55.846C 76.761 56.204 78.491 37.474 81.848 24.106C 84.023 15.45 83.106 -0.588 82.654 -3.899C 79.147 -29.741 54.503 -51.792 0.176 -54.612C -30.522 -56.204 -70.318 -37.93 -78.462 -7.785z" stroke="none" fill="#905122" fill-rule="nonzero" />
					</g>
					<g transform="matrix(1 0 0 1 221.545 231.463)">
                        <path d="M53.455 -7.463C 40.455 -8.463 28.455 -13.463 16.455 -16.463C -5.545 -21.463 -25.545 -7.463 -48.545 -11.463C -59.576 -14.008 -73.483 -15.838 -81.11 -24.886C -82.329 -9.734 -80.515 9.54 -69.964 16.721C -60.586 23.099 -39.375 19.838 -26.169 16.539C -12.961 13.239 -5.28 8.738 -1.182 7.803C 2.916 6.865 11.427 14.024 19.097 17.358C 26.274 20.479 23.755 24.17 50.078 24.527C 76.396 24.886 78.127 6.155 81.483 -7.213C 81.847 -8.657 82.122 -10.31 82.329 -12.071C 73.489 -7.979 63.925 -5.912 53.455 -7.463z" stroke="none" fill="#81451E" fill-rule="nonzero" />
					</g>
					<g transform="matrix(1 0 0 1 166.379 173.91)">
                        <path d="M23.927 -22.657C 2.122 -22.85 -18.829 -4.128 -23.659 18.45C -24.601 22.85 -20.178 8.661 -10.893 -1.359C -0.589 -14.883 24.602 -22.665 23.927 -22.657z" stroke="none" fill="#F8CD74" fill-rule="nonzero" />
					</g>
					<g transform="matrix(1 0 0 1 225.172 211.387)">
                        <path d="M-1.152 -23.528C 0.243 -8.07 -1.036 7.306 -3.505 22.597C -3.872 24.868 -0.403 25.841 -0.033 23.554C 2.487 7.95 3.872 -7.747 2.448 -23.528C 2.241 -25.82 -1.361 -25.841 -1.152 -23.528z" stroke="none" fill="#563118" fill-rule="nonzero" />
					</g>
					<g transform="matrix(1 0 0 1 222.588 226.936)">
                        <path d="M-81.397 -30.713C -83.299 -21.396 -83.353 -11.362 -82.882 -1.907C -82.448 6.82 -80.239 16.127 -73.419 22.097C -65.778 28.785 -54.004 28.027 -44.671 26.693C -33.411 25.085 -22.471 22.064 -11.811 18.143C -6.373 16.143 -1.806 13.893 3.793 16.312C 9.512 18.782 14.678 22.523 20.154 25.468C 30.58 31.074 41.565 32.987 53.257 31.199C 64.047 29.549 73.892 24.244 78.3 13.975C 82.462 4.279 82.483 -6.945 83.12 -17.3C 83.146 -17.712 83.175 -18.124 83.201 -18.536C 83.353 -20.855 79.751 -20.84 79.601 -18.536C 78.971 -8.893 78.783 0.888 75.887 10.189C 72.075 22.432 60.133 27.139 48.23 28.217C 36.053 29.32 25.549 24.643 15.311 18.571C 11.254 16.164 7.239 13.768 2.829 12.059C -0.478 10.777 -3.704 11.598 -6.972 12.613C -16.486 15.569 -25.536 19.169 -35.301 21.363C -45.581 23.672 -58.563 26.249 -68.408 21.188C -77.068 16.737 -78.91 5.563 -79.344 -3.175C -79.776 -11.856 -79.671 -21.209 -77.926 -29.756C -77.464 -32.022 -80.933 -32.987 -81.397 -30.713z" stroke="none" fill="#563118" fill-rule="nonzero" />
					</g>
					<g transform="matrix(1 0 0 1 174.887 299.029)">
                        <path d="M-5.611 -29.727C -5.25 -9.579 -1.687 10.558 3.26 30.061C 3.856 32.407 5.653 32.24 5.061 29.903C 0.198 10.739 -1.501 -10.165 -1.855 -29.974C -1.898 -32.406 -5.653 -32.146 -5.611 -29.727z" stroke="none" fill="#FFFFFF" fill-rule="nonzero" />
					</g>
					<g transform="matrix(1 0 0 1 272.406 301.131)">
                        <path d="M5.277 -29.768C 5.043 -9.616 1.608 10.543 -3.219 30.072C -3.802 32.425 -5.306 32.235 -4.727 29.898C 0.021 10.697 1.295 -10.18 1.525 -29.995C 1.551 -32.424 5.306 -32.188 5.277 -29.768z" stroke="none" fill="#FFFFFF" fill-rule="nonzero" />
					</g>
				</g>
				<g transform="matrix(1 0 0 1 0 0)">
					<g transform="matrix(1 0 0 1 185.733 228.003)">
                        <path d="M1.612 -0.133C 1.707 1.013 1.058 2 0.169 2.07C -0.72 2.145 -1.519 1.273 -1.613 0.133C -1.707 -1.013 -1.063 -2.001 -0.17 -2.072C 0.716 -2.145 1.519 -1.277 1.612 -0.133z" stroke="none" fill="#F0B51B" fill-rule="nonzero" />
					</g>
					<g transform="matrix(1 0 0 1 185.743 228.004)">
                        <path d="M1.227 -0.133C 1.255 0.611 1.039 1.433 0.246 1.679C -0.632 1.951 -1.165 0.783 -1.248 0.132C -1.341 -0.6 -1.014 -1.45 -0.268 -1.682C 0.61 -1.953 1.144 -0.783 1.227 -0.133C 1.287 0.34 2.038 0.346 1.977 -0.133C 1.828 -1.305 1.125 -2.457 -0.18 -2.447C -1.476 -2.438 -2.038 -0.94 -1.998 0.132C -1.953 1.308 -1.072 2.457 0.159 2.444C 1.453 2.431 2.017 0.941 1.977 -0.133C 1.959 -0.615 1.209 -0.617 1.227 -0.133z" stroke="none" fill="#F0B51B" fill-rule="nonzero" />
					</g>
					<g transform="matrix(1 0 0 1 176.36 207.388)">
                        <path d="M1.652 -0.137C 1.748 1.037 1.083 2.048 0.177 2.122C -0.74 2.199 -1.556 1.308 -1.651 0.135C -1.748 -1.037 -1.083 -2.046 -0.174 -2.124C 0.737 -2.199 1.556 -1.309 1.652 -0.137z" stroke="none" fill="#F0B51B" fill-rule="nonzero" />
					</g>
					<g transform="matrix(1 0 0 1 176.37 207.388)">
                        <path d="M1.267 -0.137C 1.295 0.628 1.071 1.475 0.258 1.73C -0.65 2.015 -1.2 0.812 -1.286 0.135C -1.38 -0.619 -1.041 -1.49 -0.275 -1.732C 0.631 -2.018 1.182 -0.806 1.267 -0.137C 1.327 0.336 2.078 0.342 2.017 -0.137C 1.865 -1.334 1.149 -2.509 -0.184 -2.499C -1.502 -2.49 -2.077 -0.953 -2.036 0.135C -1.99 1.34 -1.094 2.509 0.167 2.497C 1.485 2.484 2.057 0.953 2.017 -0.137C 1.999 -0.619 1.249 -0.621 1.267 -0.137z" stroke="none" fill="#F0B51B" fill-rule="nonzero" />
					</g>
					<g transform="matrix(1 0 0 1 201.716 201.82)">
                        <path d="M1.651 -0.136C 1.749 1.039 1.084 2.047 0.176 2.127C -0.741 2.198 -1.555 1.307 -1.651 0.135C -1.749 -1.038 -1.086 -2.047 -0.175 -2.123C 0.736 -2.198 1.553 -1.31 1.651 -0.136z" stroke="none" fill="#F0B51B" fill-rule="nonzero" />
					</g>
					<g transform="matrix(1 0 0 1 201.726 201.819)">
                        <path d="M1.266 -0.135C 1.295 0.632 1.07 1.478 0.257 1.736C -0.649 2.024 -1.2 0.808 -1.286 0.136C -1.381 -0.618 -1.044 -1.49 -0.277 -1.73C 0.63 -2.015 1.18 -0.806 1.266 -0.135C 1.327 0.338 2.078 0.344 2.016 -0.135C 1.863 -1.331 1.15 -2.508 -0.185 -2.497C -1.505 -2.487 -2.079 -0.955 -2.036 0.136C -1.989 1.343 -1.094 2.508 0.166 2.503C 1.484 2.497 2.057 0.948 2.016 -0.135C 1.997 -0.617 1.247 -0.619 1.266 -0.135z" stroke="none" fill="#F0B51B" fill-rule="nonzero" />
					</g>
					<g transform="matrix(1 0 0 1 192.884 214.047)">
                        <path d="M1.915 -0.157C 2.028 1.203 1.259 2.377 0.204 2.464C -0.858 2.55 -1.806 1.519 -1.917 0.157C -2.029 -1.202 -1.258 -2.376 -0.203 -2.464C 0.855 -2.55 1.805 -1.515 1.915 -0.157z" stroke="none" fill="#F0B51B" fill-rule="nonzero" />
					</g>
					<g transform="matrix(1 0 0 1 192.891 214.047)">
                        <path d="M1.534 -0.157C 1.569 0.76 1.291 1.763 0.32 2.068C -0.777 2.411 -1.444 0.98 -1.548 0.157C -1.663 -0.744 -1.243 -1.781 -0.331 -2.067C 0.765 -2.411 1.43 -0.972 1.534 -0.157C 1.594 0.316 2.345 0.322 2.284 -0.157C 2.112 -1.514 1.302 -2.849 -0.21 -2.839C -1.706 -2.828 -2.344 -1.071 -2.298 0.157C -2.247 1.524 -1.23 2.849 0.197 2.839C 1.694 2.828 2.331 1.072 2.284 -0.157C 2.265 -0.639 1.515 -0.641 1.534 -0.157z" stroke="none" fill="#F0B51B" fill-rule="nonzero" />
					</g>
					<g transform="matrix(1 0 0 1 202.988 223.391)">
                        <path d="M1.81 0.166C 1.692 1.449 0.786 2.417 -0.214 2.326C -1.212 2.232 -1.928 1.119 -1.807 -0.166C -1.694 -1.45 -0.789 -2.417 0.214 -2.326C 1.212 -2.234 1.928 -1.118 1.81 0.166z" stroke="none" fill="#F0B51B" fill-rule="nonzero" />
					</g>
					<g transform="matrix(1 0 0 1 202.948 223.4)">
                        <path d="M1.488 0.057C 1.374 0.884 0.978 1.822 0.039 1.945C -0.956 2.076 -1.373 0.853 -1.405 0.096C -1.442 -0.778 -0.903 -1.842 0.041 -1.965C 1.164 -2.111 1.512 -0.657 1.474 0.157C 1.452 0.64 2.202 0.638 2.224 0.157C 2.283 -1.097 1.715 -2.47 0.353 -2.698C -0.941 -2.915 -1.951 -1.596 -2.106 -0.446C -2.283 0.876 -1.741 2.43 -0.274 2.679C 1.132 2.915 2.048 1.446 2.211 0.256C 2.276 -0.216 1.553 -0.421 1.488 0.057z" stroke="none" fill="#F0B51B" fill-rule="nonzero" />
					</g>
					<g transform="matrix(1 0 0 1 213.822 210.128)">
                        <path d="M1.616 -0.134C 1.709 1.012 1.058 2 0.172 2.073C -0.719 2.146 -1.519 1.275 -1.613 0.132C -1.708 -1.014 -1.063 -2.002 -0.171 -2.072C 0.72 -2.146 1.517 -1.277 1.616 -0.134z" stroke="none" fill="#F0B51B" fill-rule="nonzero" />
					</g>
					<g transform="matrix(1 0 0 1 213.833 210.128)">
                        <path d="M1.229 -0.134C 1.255 0.61 1.038 1.434 0.246 1.682C -0.632 1.957 -1.167 0.781 -1.25 0.132C -1.344 -0.599 -1.016 -1.451 -0.27 -1.682C 0.609 -1.954 1.144 -0.785 1.229 -0.134C 1.291 0.338 2.042 0.345 1.979 -0.134C 1.825 -1.306 1.125 -2.458 -0.183 -2.447C -1.479 -2.437 -2.042 -0.941 -2 0.132C -1.956 1.311 -1.073 2.458 0.16 2.448C 1.453 2.438 2.017 0.935 1.979 -0.134C 1.962 -0.616 1.212 -0.618 1.229 -0.134z" stroke="none" fill="#F0B51B" fill-rule="nonzero" />
					</g>
					<g transform="matrix(1 0 0 1 254.964 222.943)">
                        <path d="M1.596 -0.262C 1.781 0.871 1.216 1.91 0.334 2.05C -0.546 2.194 -1.412 1.394 -1.594 0.26C -1.781 -0.871 -1.217 -1.908 -0.336 -2.05C 0.545 -2.195 1.412 -1.394 1.596 -0.262z" stroke="none" fill="#F0B51B" fill-rule="nonzero" />
					</g>
					<g transform="matrix(1 0 0 1 254.965 222.943)">
                        <path d="M1.221 -0.262C 1.306 0.457 1.185 1.339 0.419 1.644C -0.387 1.967 -0.995 1.021 -1.184 0.397C -1.404 -0.326 -1.181 -1.339 -0.422 -1.644C 0.489 -2.01 1.09 -0.848 1.233 -0.162C 1.332 0.311 2.055 0.11 1.956 -0.362C 1.724 -1.474 0.905 -2.535 -0.337 -2.425C -1.623 -2.311 -2.098 -0.827 -1.969 0.259C -1.832 1.416 -0.906 2.535 0.333 2.425C 1.621 2.31 2.099 0.826 1.971 -0.262C 1.915 -0.737 1.165 -0.742 1.221 -0.262z" stroke="none" fill="#F0B51B" fill-rule="nonzero" />
					</g>
					<g transform="matrix(1 0 0 1 243.967 203.146)">
                        <path d="M1.635 -0.268C 1.826 0.892 1.248 1.956 0.345 2.102C -0.558 2.251 -1.447 1.429 -1.636 0.268C -1.826 -0.893 -1.247 -1.954 -0.344 -2.102C 0.561 -2.251 1.446 -1.428 1.635 -0.268z" stroke="none" fill="#F0B51B" fill-rule="nonzero" />
					</g>
					<g transform="matrix(1 0 0 1 243.967 203.145)">
                        <path d="M1.26 -0.267C 1.349 0.475 1.222 1.379 0.434 1.696C -0.397 2.031 -1.026 1.056 -1.223 0.413C -1.453 -0.334 -1.216 -1.378 -0.432 -1.694C 0.505 -2.073 1.124 -0.874 1.272 -0.167C 1.371 0.306 2.095 0.105 1.997 -0.367C 1.759 -1.503 0.925 -2.59 -0.344 -2.476C -1.657 -2.358 -2.142 -0.838 -2.012 0.269C -1.874 1.451 -0.918 2.59 0.344 2.478C 1.658 2.361 2.142 0.841 2.01 -0.267C 1.953 -0.741 1.202 -0.746 1.26 -0.267z" stroke="none" fill="#F0B51B" fill-rule="nonzero" />
					</g>
					<g transform="matrix(1 0 0 1 268.792 195.562)">
                        <path d="M1.638 -0.27C 1.829 0.893 1.246 1.954 0.344 2.104C -0.558 2.252 -1.445 1.43 -1.634 0.266C -1.829 -0.894 -1.245 -1.957 -0.343 -2.105C 0.56 -2.252 1.445 -1.428 1.638 -0.27z" stroke="none" fill="#F0B51B" fill-rule="nonzero" />
					</g>
					<g transform="matrix(1 0 0 1 268.792 195.563)">
                        <path d="M1.263 -0.27C 1.351 0.475 1.22 1.376 0.432 1.696C -0.4 2.033 -1.026 1.052 -1.221 0.41C -1.451 -0.338 -1.217 -1.38 -0.432 -1.698C 0.504 -2.076 1.125 -0.874 1.276 -0.17C 1.376 0.303 2.1 0.102 1.999 -0.37C 1.758 -1.504 0.924 -2.591 -0.344 -2.48C -1.657 -2.365 -2.143 -0.84 -2.009 0.266C -1.867 1.447 -0.923 2.591 0.344 2.478C 1.658 2.361 2.144 0.837 2.013 -0.27C 1.956 -0.744 1.206 -0.749 1.263 -0.27z" stroke="none" fill="#F0B51B" fill-rule="nonzero" />
					</g>
					<g transform="matrix(1 0 0 1 260.972 208.459)">
                        <path d="M1.901 -0.312C 2.118 1.038 1.448 2.27 0.4 2.441C -0.646 2.611 -1.677 1.656 -1.9 0.311C -2.118 -1.039 -1.448 -2.266 -0.402 -2.44C 0.646 -2.611 1.678 -1.657 1.901 -0.312z" stroke="none" fill="#F0B51B" fill-rule="nonzero" />
					</g>
					<g transform="matrix(1 0 0 1 260.972 208.458)">
                        <path d="M1.526 -0.311C 1.629 0.583 1.46 1.648 0.518 2.028C -0.478 2.429 -1.241 1.267 -1.479 0.494C -1.757 -0.406 -1.458 -1.644 -0.521 -2.024C 0.598 -2.478 1.358 -1.061 1.539 -0.211C 1.639 0.262 2.363 0.061 2.262 -0.411C 1.988 -1.705 1.044 -2.941 -0.402 -2.814C -1.892 -2.683 -2.42 -0.932 -2.276 0.312C -2.121 1.652 -1.025 2.941 0.4 2.817C 1.892 2.687 2.42 0.934 2.276 -0.311C 2.221 -0.786 1.47 -0.791 1.526 -0.311z" stroke="none" fill="#F0B51B" fill-rule="nonzero" />
					</g>
					<g transform="matrix(1 0 0 1 271.795 216.961)">
                        <path d="M1.816 0.018C 1.801 1.308 0.976 2.344 -0.029 2.334C -1.031 2.325 -1.832 1.268 -1.82 -0.021C -1.808 -1.31 -0.98 -2.345 0.024 -2.338C 1.031 -2.325 1.832 -1.27 1.816 0.018z" stroke="none" fill="#F0B51B" fill-rule="nonzero" />
					</g>
					<g transform="matrix(1 0 0 1 271.771 216.957)">
                        <path d="M1.465 0.022C 1.415 0.899 0.998 1.899 -0.005 1.963C -0.999 2.027 -1.394 0.734 -1.421 -0.018C -1.451 -0.894 -0.894 -1.896 0.048 -1.959C 1.044 -2.026 1.441 -0.729 1.465 0.022C 1.481 0.504 2.231 0.506 2.215 0.022C 2.171 -1.304 1.478 -2.584 0.048 -2.709C -1.376 -2.834 -2.108 -1.165 -2.171 -0.018C -2.242 1.299 -1.35 2.6 -0.005 2.713C 1.421 2.834 2.151 1.173 2.215 0.022C 2.242 -0.461 1.492 -0.459 1.465 0.022z" stroke="none" fill="#F0B51B" fill-rule="nonzero" />
					</g>
					<g transform="matrix(1 0 0 1 281.526 202.868)">
                        <path d="M1.597 -0.262C 1.784 0.874 1.22 1.909 0.336 2.055C -0.547 2.197 -1.414 1.395 -1.593 0.263C -1.784 -0.87 -1.22 -1.905 -0.337 -2.051C 0.546 -2.196 1.414 -1.394 1.597 -0.262z" stroke="none" fill="#F0B51B" fill-rule="nonzero" />
					</g>
					<g transform="matrix(1 0 0 1 281.526 202.868)">
                        <path d="M1.222 -0.262C 1.308 0.46 1.187 1.339 0.421 1.648C -0.385 1.974 -0.995 1.023 -1.183 0.401C -1.403 -0.325 -1.184 -1.336 -0.422 -1.645C 0.49 -2.013 1.092 -0.847 1.236 -0.161C 1.334 0.312 2.057 0.111 1.958 -0.361C 1.727 -1.475 0.905 -2.536 -0.337 -2.426C -1.625 -2.312 -2.101 -0.823 -1.968 0.263C -1.827 1.422 -0.906 2.537 0.336 2.43C 1.625 2.32 2.101 0.821 1.972 -0.262C 1.915 -0.736 1.165 -0.741 1.222 -0.262z" stroke="none" fill="#F0B51B" fill-rule="nonzero" />
					</g>
					<g transform="matrix(1 0 0 1 145.787 229.188)">
                        <path d="M-24.455 16.696C -18.751 -4.164 4.953 -15.233 25.2 -9.614C 27.067 -9.095 27.859 -11.99 25.998 -12.506C 4.185 -18.561 -21.218 -6.521 -27.348 15.899C -27.859 17.768 -24.964 18.56 -24.455 16.696z" stroke="none" fill="#F5B71C" fill-rule="nonzero" />
					</g>
					<g transform="matrix(1 0 0 1 146.187 244.364)">
                        <path d="M-14.225 15.461C -11.843 -0.206 -1.202 -13.577 15.469 -14.286C 17.397 -14.368 17.404 -17.368 15.469 -17.286C -2.491 -16.522 -14.527 -2.379 -17.118 14.664C -17.405 16.557 -14.515 17.369 -14.225 15.461z" stroke="none" fill="#F5B71C" fill-rule="nonzero" />
					</g>
					<g transform="matrix(1 0 0 1 136.423 212.804)">
                        <path d="M-23.597 12.161C -15.86 -5.659 7.599 -10.612 23.755 -1.441C 25.44 -0.485 26.951 -3.077 25.269 -4.032C 7.828 -13.933 -17.801 -8.668 -26.188 10.648C -26.95 12.403 -24.366 13.932 -23.597 12.161z" stroke="none" fill="#F5B71C" fill-rule="nonzero" />
					</g>
					<g transform="matrix(1 0 0 1 169.718 255.012)">
                        <path d="M-6.725 18.441C -7.457 4.574 -3.678 -9.283 8.857 -16.788C 10.514 -17.781 9.008 -20.375 7.344 -19.379C -6.079 -11.342 -10.514 3.502 -9.725 18.441C -9.623 20.365 -6.623 20.375 -6.725 18.441z" stroke="none" fill="#F5B71C" fill-rule="nonzero" />
					</g>
					<g transform="matrix(1 0 0 1 160.699 247.541)">
                        <path d="M13.953 -18.977C -3.95 -15.534 -14.412 0.127 -16.425 17.42C -16.649 19.34 -13.646 19.318 -13.425 17.42C -11.557 1.377 -1.754 -12.91 14.751 -16.084C 16.649 -16.45 15.843 -19.34 13.953 -18.977z" stroke="none" fill="#F5B71C" fill-rule="nonzero" />
					</g>
					<g transform="matrix(1 0 0 1 309.38 223.351)">
                        <path d="M23.665 17.943C 19.564 -3.634 0.502 -20.64 -22.124 -16.257C -24.023 -15.89 -23.217 -12.998 -21.327 -13.365C -0.236 -17.45 17.001 -1.101 20.772 18.742C 21.133 20.64 24.024 19.834 23.665 17.943z" stroke="none" fill="#F5B71C" fill-rule="nonzero" />
					</g>
					<g transform="matrix(1 0 0 1 305.942 236.788)">
                        <path d="M15.494 17.993C 14.272 1.497 4.431 -17.378 -13.721 -19.682C -15.637 -19.925 -15.613 -16.922 -13.721 -16.682C 2.658 -14.603 11.411 3.368 12.494 17.993C 12.636 19.91 15.637 19.925 15.494 17.993z" stroke="none" fill="#F5B71C" fill-rule="nonzero" />
					</g>
					<g transform="matrix(1 0 0 1 314.996 204.129)">
                        <path d="M25.752 12.406C 18.795 -7.69 -6.244 -15.02 -24.636 -6.369C -26.386 -5.546 -24.861 -2.96 -23.122 -3.779C -6.551 -11.573 16.571 -4.959 22.859 13.204C 23.488 15.02 26.387 14.239 25.752 12.406z" stroke="none" fill="#F5B71C" fill-rule="nonzero" />
					</g>
					<g transform="matrix(1 0 0 1 275.779 245.454)">
                        <path d="M13.244 18.141C 11.655 1.844 4.128 -11.026 -10.232 -19.117C -11.919 -20.067 -13.431 -17.477 -11.745 -16.527C 1.64 -8.984 8.76 2.91 10.244 18.141C 10.43 20.047 13.431 20.067 13.244 18.141z" stroke="none" fill="#F5B71C" fill-rule="nonzero" />
					</g>
					<g transform="matrix(1 0 0 1 289.654 239.751)">
                        <path d="M-14.362 -17.909C 2.279 -13.327 12.466 2.731 13.146 19.38C 13.225 21.307 16.225 21.315 16.146 19.38C 15.411 1.401 4.396 -15.856 -13.565 -20.801C -15.433 -21.315 -16.225 -18.422 -14.362 -17.909z" stroke="none" fill="#F5B71C" fill-rule="nonzero" />
					</g>
				</g>
				<g transform="matrix(1 0 0 1 0 0)">
					<g transform="matrix(1 0 0 1 223.867 156.98)">
                        <path d="M29.362 13.286C 29.362 13.286 43.294 9.576 42.888 4.029C 42.137 -6.196 22.708 -19.882 2.674 -20.787C -18.512 -21.749 -35.49 -7.669 -39.392 -1.071C -43.294 5.524 -34.705 9.551 -30.173 11.588C -26.628 13.174 -2.796 21.749 29.362 13.286z" stroke="none" fill="#905122" fill-rule="nonzero" />
					</g>
					<g transform="matrix(1 0 0 1 215.838 145.38)">
                        <path d="M25.742 -5.027C 26.57 -1.381 15.692 3.101 1.488 6.331C -12.722 9.561 -24.911 9.223 -25.738 5.578C -26.569 1.933 -15.748 -3.757 -1.516 -6.868C 10.81 -9.561 24.914 -8.673 25.742 -5.027z" stroke="none" fill="#A8632B" fill-rule="nonzero" />
					</g>
					<g transform="matrix(1 0 0 1 226.386 153.227)">
                        <path d="M27.313 19.253C 34.418 17.318 45.276 13.073 41.036 3.933C 35.12 -8.819 18.121 -16.202 4.998 -17.893C -10.287 -19.864 -25.228 -14.776 -36.968 -4.975C -40.474 -2.047 -44.226 1.672 -44.706 6.416C -45.276 12.049 -37.647 15.543 -33.608 17.371C -31.51 18.32 -29.678 15.219 -31.791 14.263C -35.7 12.493 -43.061 9.528 -40.361 4.07C -38.718 0.748 -35.023 -2.057 -32.163 -4.24C -22.472 -11.639 -10.387 -15.417 1.77 -14.657C 14.072 -13.887 28.263 -7.75 35.88 2.214C 37.221 3.967 38.289 6.049 38.557 8.259C 38.813 10.377 35.632 11.927 34.173 12.746C 31.756 14.102 29.029 15.054 26.356 15.781C 24.119 16.391 25.069 19.864 27.313 19.253z" stroke="none" fill="#563118" fill-rule="nonzero" />
					</g>
					<g transform="matrix(1 0 0 1 209.734 162.398)">
                        <path d="M7.245 5.976C 7.245 5.976 7.632 1.791 5.786 -1.627C 3.013 -6.753 -3.281 -8.735 -5.853 -6.824C -7.633 -5.495 -0.344 8.734 7.245 5.976z" stroke="none" fill="#6C3917" fill-rule="nonzero" />
					</g>
					<g transform="matrix(1 0 0 1 242.45 161.768)">
                        <path d="M-7.633 6.87C -7.633 6.87 -9.024 3.564 -6.878 0.328C -4.186 -3.723 4.059 -7.65 7.597 -4.772C 9.024 -3.621 1.711 7.65 -7.633 6.87z" stroke="none" fill="#6C3917" fill-rule="nonzero" />
					</g>
					<g transform="matrix(1 0 0 1 210.006 160.617)">
                        <path d="M8.465 7.116C 9.172 -1.619 2.09 -9.431 -6.908 -7.419C -9.173 -6.912 -8.212 -3.442 -5.951 -3.947C 0.858 -5.47 5.371 0.871 4.865 7.116C 4.678 9.431 8.279 9.413 8.465 7.116z" stroke="none" fill="#563118" fill-rule="nonzero" />
					</g>
					<g transform="matrix(1 0 0 1 240.772 161.532)">
                        <path d="M9.449 -6.915C 1.768 -9.089 -11.679 -2.676 -7.996 6.943C -7.175 9.088 -3.693 8.158 -4.525 5.986C -7.151 -0.872 3.296 -4.914 8.492 -3.443C 10.73 -2.81 11.679 -6.284 9.449 -6.915z" stroke="none" fill="#563118" fill-rule="nonzero" />
					</g>
					<g transform="matrix(1 0 0 1 202.54 148.366)">
                        <path d="M5.241 -2.689C 6.191 -0.862 4.614 1.824 1.718 3.311C -1.178 4.795 -4.292 4.521 -5.241 2.693C -6.191 0.862 -4.615 -1.825 -1.716 -3.31C 1.176 -4.795 4.29 -4.518 5.241 -2.689z" stroke="none" fill="#FFE1A9" fill-rule="nonzero" />
					</g>
					<g transform="matrix(1 0 0 1 214.508 143.901)">
                        <path d="M3.868 -1.009C 4.3 0.307 2.91 1.82 0.775 2.375C -1.363 2.93 -3.445 2.316 -3.872 1.008C -4.3 -0.305 -2.916 -1.819 -0.773 -2.378C 1.364 -2.93 3.444 -2.317 3.868 -1.009z" stroke="none" fill="#FFE1A9" fill-rule="nonzero" />
					</g>
				</g>
			</g>
			<g transform="matrix(1 0 0 1 0 0)">
				<g transform="matrix(1 0 0 1 272.142 113.915)">
                    <path d="M27.827 14.396C -7.028 3 -28.976 8.08 -28.976 8.08C -28.976 8.08 -34.811 3.485 -21.14 -6.641C -14.985 -11.199 -11.857 -2.173 -11.857 -2.173C -11.857 -2.173 -7.875 -14.396 -0.204 -13.718C 5.026 -13.259 3.919 -4.696 3.919 -4.696C 3.919 -4.696 10.487 -9.503 16.403 -7.905C 22.397 -6.286 18.022 -0.192 18.022 -0.192C 18.022 -0.192 32.764 -5.156 34 4.08C 34.811 10.156 27.827 14.396 27.827 14.396z" stroke="none" fill="#80481F" fill-rule="nonzero" />
				</g>
				<g transform="matrix(1 0 0 1 274.066 114.377)">
                    <path d="M26.382 12.198C 9.376 6.744 -9.011 3.23 -26.926 5.202C -28.242 5.347 -29.558 5.532 -30.86 5.776C -31.514 5.898 -29.57 7.25 -30.211 5.448C -31.406 2.086 -26.661 -1.761 -24.612 -3.592C -22.181 -5.762 -19.393 -7.951 -16.92 -4.74C -16.336 -3.984 -15.844 -3.056 -15.516 -2.158C -14.905 -0.48 -12.632 -0.413 -12.046 -2.158C -11.015 -5.227 -9.32 -8.142 -7.049 -10.447C -2.109 -15.456 0.745 -9.916 0.194 -5.159C 0.041 -3.84 1.853 -2.86 2.902 -3.604C 4.912 -5.027 7.152 -5.974 9.522 -6.615C 13.443 -7.676 17.102 -5.289 14.543 -1.564C 13.653 -0.267 15.122 1.559 16.576 1.082C 19.589 0.092 22.943 -0.501 26.101 -0.039C 33.733 1.077 29.17 9.745 24.994 12.38C 23.036 13.615 24.841 16.731 26.811 15.488C 32.329 12.007 36.934 4.13 31.451 -1.448C 27.686 -5.28 20.128 -3.871 15.619 -2.391C 16.297 -1.51 16.975 -0.628 17.652 0.254C 19.944 -3.085 20.2 -7.098 16.593 -9.474C 12.143 -12.405 4.908 -9.419 1.086 -6.712C 1.988 -6.194 2.892 -5.677 3.794 -5.159C 4.423 -10.58 2.336 -16.732 -4.129 -15.865C -10.058 -15.071 -13.802 -8.223 -15.516 -3.115C -15.516 -3.115 -12.046 -3.115 -12.046 -3.115C -12.975 -5.668 -14.489 -7.898 -16.773 -9.401C -20.921 -12.131 -25.497 -7.62 -28.329 -5.091C -31.492 -2.266 -36.935 4.908 -32.173 8.889C -31.106 9.781 -29.611 9.18 -28.374 8.99C -24.823 8.446 -21.198 8.32 -17.612 8.289C -2.979 8.164 11.549 11.221 25.424 15.671C 27.641 16.382 28.583 12.904 26.382 12.198z" stroke="none" fill="#563118" fill-rule="nonzero" />
				</g>
			</g>
			<g transform="matrix(1 0 0 1 -0 -2.2464142)">
				<g transform="matrix(1 0 0 1 182.135 39.451)">
                    <path d="M-30.023 9.342C 7.966 4.721 29.413 14.361 29.413 14.361C 29.413 14.361 36.314 10.836 24.366 -2.296C 18.985 -8.208 13.96 0.403 13.96 0.403C 13.96 0.403 12.353 -12.919 4.361 -13.774C -1.085 -14.362 -1.68 -5.369 -1.68 -5.369C -1.68 -5.369 -7.436 -11.623 -13.815 -11.179C -20.28 -10.734 -17.032 -3.614 -17.032 -3.614C -17.032 -3.614 -31.123 -11.677 -34.254 -2.467C -36.314 3.59 -30.023 9.342 -30.023 9.342z" stroke="none" fill="#80481F" fill-rule="nonzero" />
				</g>
				<g transform="matrix(1 0 0 1 179.721 38.526)">
                    <path d="M-27.609 12.067C -12.977 10.367 1.855 10.241 16.386 12.874C 20.242 13.572 24.06 14.514 27.791 15.714C 29.343 16.213 30.706 17.087 31.827 17.087C 37.484 17.087 34.989 7.551 33.789 5.119C 31.69 0.86 27.391 -5.637 21.982 -5.165C 18.913 -4.897 16.322 -2.058 14.82 0.42C 15.938 0.723 17.057 1.026 18.174 1.329C 17.432 -4.426 15.162 -11.297 9.551 -13.945C 2.892 -17.087 -0.628 -9.952 -1.066 -4.443C -0.042 -4.867 0.982 -5.292 2.007 -5.717C -1.883 -9.821 -8.235 -13.506 -13.978 -11.488C -18.063 -10.053 -17.547 -4.944 -16.172 -1.779C -15.351 -2.6 -14.53 -3.422 -13.709 -4.243C -18.47 -6.918 -24.664 -9.07 -29.904 -6.673C -37.484 -3.206 -33.227 7.43 -28.882 11.541C -27.197 13.135 -24.647 10.593 -26.336 8.994C -29.979 5.548 -33.334 -3.517 -25.688 -4.146C -22.289 -4.427 -18.438 -2.77 -15.526 -1.135C -13.826 -0.179 -12.378 -2.018 -13.064 -3.597C -14.609 -7.154 -12.089 -9.073 -7.915 -8.007C -5.147 -7.3 -2.479 -5.217 -0.539 -3.17C 0.618 -1.949 2.416 -2.963 2.534 -4.443C 2.651 -5.915 3.033 -7.41 3.611 -8.765C 5.363 -12.877 9.42 -10.408 11.262 -7.885C 13.062 -5.417 14.285 -0.917 14.575 1.329C 14.792 3.012 16.92 3.901 17.929 2.236C 18.382 1.489 18.933 0.832 19.521 0.188C 23.143 -3.781 26.26 0.564 28.545 3.567C 30.261 5.82 33.162 9.98 31.619 12.977C 30.773 14.619 33.183 13.917 32.011 13.425C 30.776 12.908 29.501 12.484 28.227 12.074C 10.421 6.35 -9.233 6.333 -27.609 8.468C -29.887 8.733 -29.913 12.335 -27.609 12.067z" stroke="none" fill="#563118" fill-rule="nonzero" />
				</g>
			</g>
			<g transform="matrix(1 0 0 1 0 0)">
				<g transform="matrix(1 0 0 1 240.868 44.49)">
                    <path d="M-10.136 27.377C -15.262 17.092 -11.489 4.658 -6.585 -4.954C -1.872 -14.192 6.135 -24.557 16.676 -27.229C 18.925 -27.8 17.971 -31.272 15.719 -30.701C 4.116 -27.759 -4.311 -16.813 -9.693 -6.771C -15.424 3.923 -18.925 17.797 -13.244 29.194C -12.209 31.272 -9.104 29.448 -10.136 27.377z" stroke="none" fill="#563118" fill-rule="nonzero" />
				</g>
				<g transform="matrix(1 0 0 1 253.606 49.644)">
                    <path d="M-14.668 21.911C -12.955 2.865 -1.415 -12.757 16.35 -19.887C 18.476 -20.741 17.549 -24.224 15.393 -23.359C -3.982 -15.583 -16.397 1.112 -18.268 21.911C -18.476 24.224 -14.874 24.204 -14.668 21.911z" stroke="none" fill="#563118" fill-rule="nonzero" />
				</g>
				<g transform="matrix(1 0 0 1 269.153 53.728)">
                    <path d="M-22.578 20.259C -17.541 11.569 -11.6 3.691 -3.789 -2.689C 4.575 -9.521 14.797 -13.936 24.728 -17.928C 26.854 -18.783 25.926 -22.266 23.771 -21.4C 13.669 -17.339 3.696 -12.88 -5.023 -6.262C -13.715 0.335 -20.253 9.069 -25.686 18.443C -26.853 20.455 -23.742 22.266 -22.578 20.259z" stroke="none" fill="#563118" fill-rule="nonzero" />
				</g>
			</g>
			<g transform="matrix(0.94465625 -0.32806176 0.32806176 0.94465625 -78.939545 131.069)">
				<g transform="matrix(1 0 0 1 271.044 305.093)">
                    <path d="M-56.310616 54.293186C -42.47514 63.522293 -31.202562 65.61891 -17.030394 71.79897C -8.720776 75.42202 7.2662034 85.01574 32.115185 79.97651C 53.110558 75.77193 75.298 63.885 86.035 44.591C 104.797 10.874 92.036 -12.076 72.702 -14.076C 67.356 -14.629 56.327 -7.999 53.747 -5.888C 46.414 0.112 30.726286 14.800264 16.702257 10.2554035C 2.0175602 5.843454 -18.37048 1.8581481 -25.943876 -11.753759C -33.319443 -25.010439 -33.925438 -45.83779 -39.54728 -45.74549C -49.110046 -45.590298 -54.250454 -33.543987 -54.19282 -29.238474C -54.107597 -22.826706 -53.184002 -14.756759 -51.001797 -11.4302635C -51.001797 -11.4302635 -67.67082 -11.580146 -85.17595 -9.725213C -102.681076 -7.8702807 -116.096344 -3.0751534 -119.30872 6.4133434C -122.5211 15.90184 -114.923706 16.00484 -112.183685 16.296825C -109.443665 16.588808 -99.730606 19.581896 -97.7754 21.68195C -95.82019 23.782003 -95.11506 26.783937 -94.28511 30.062145C -93.45516 33.340355 -91.11938 39.920414 -87.388176 41.54233C -83.65697 43.16425 -79.5425 44.17399 -77.52804 47.13044C -75.51308 50.087395 -75.46018 52.389805 -71.303734 53.48581C -67.14729 54.58181 -56.310616 54.293186 -56.310616 54.293186z" stroke="none" fill="#A86728" fill-rule="nonzero" />
				</g>
				<g transform="matrix(1 0 0 1 286.507 314.659)">
                    <path d="M8.263196 1.3882422C 1.6691602 1.5447116 -12.725528 -0.5522838 -18.588469 -2.4752743C -19.344664 -2.1223936 -20.091095 -1.7264338 -20.804964 -1.2648087C -27.451635 3.0481346 -29.42154 10.536812 -25.203543 15.452876C -20.97852 20.37194 -8.359233 20.236872 -0.42428944 17.1595C 7.1447115 14.219964 10.855714 7.3171725 8.263196 1.3882422z" stroke="none" fill="#925423" fill-rule="nonzero" />
				</g>
				<g transform="matrix(1 0 0 1 289.129 307.96)">
                    <path d="M-75.26362 53.019196C -65.80056 59.597416 -55.464485 64.29991 -44.60319 68.07309C -35.426876 71.26142 -33.409122 72.92923 -23.343555 75.735825C 0.19872366 82.30039 15.713 80.481 38.996 70.499C 61.287 60.944 76.328 38.529 78.99 14.648C 80.827 -1.838 71.417 -16.246 54.631 -18.468C 46.364 -19.562 37.575 -13.062 32.159 -7.534C 24.977 -0.203 9.369627 10.890385 -2.2861068 6.728014C -14.337305 3.278437 -28.990047 0.23818792 -36.058987 -6.588376C -43.365536 -13.6439 -47.165318 -23.933548 -49.46391 -32.501648C -50.74035 -37.256912 -51.01552 -44.885124 -54.703007 -48.581192C -58.171513 -52.05771 -63.762592 -48.0098 -66.33318 -45.332447C -74.66298 -36.658066 -80.00296 -21.474112 -67.12597 -12.332408C -65.41086 -11.114354 -63.522457 -13.781388 -65.24354 -15.002975C -70.31369 -18.600674 -71.95054 -26.96101 -70.3538 -32.784946C -69.25572 -36.78987 -68.518196 -36.632996 -66.70215 -39.8489C -65.459076 -42.05204 -60.12764 -49.04763 -56.929565 -46.65721C -54.604507 -44.91947 -54.124207 -39.29602 -53.51656 -36.722153C -51.428516 -27.878996 -48.713207 -18.217838 -42.936256 -9.687618C -37.04482 -0.98969805 -27.534695 4.3527484 -17.795427 7.633543C -9.102539 10.561407 13.876 10.766 23.615 5.028C 27.57 2.698 30.777 -0.893 33.918 -4.173C 38.447 -8.9 43.559 -12.587 49.919 -14.446C 58.47 -16.944 68.079 -10.611 72.256 -3.535C 77.933 6.084 75.54 18.452 72.137 28.368C 66.6 44.5 56.23 57.471 41.144 65.493C 26.331 73.369 16.617113 75.965225 0.3760428 75.775375C -12.067133 75.63058 -19.63963 72.21617 -30.865398 69.00828C -45.83825 64.72939 -60.526447 59.28768 -73.3817 50.35012C -75.1094 49.148495 -76.9968 51.81453 -75.26362 53.019196z" stroke="none" fill="#563118" fill-rule="nonzero" />
				</g>
				<g transform="matrix(1 0 0 1 213.937 284.823)">
                    <path d="M19.84342 12.968048C 6.070616 3.6293263 -12.993953 7.8519416 -29.503662 9.010804C -41.49322 9.853315 -65.57106 15.935554 -63.47247 32.383514C -62.685307 38.55181 -49.034588 40.53669 -44.83547 41.714153C -36.92707 43.762505 -40.12992 51.83561 -37.460308 56.566147C -33.753407 63.135105 -25.108412 63.350063 -21.158659 69.21048C -16.884357 75.5539 -6.565812 75.85461 0.11435132 75.46104C 2.2196906 75.33643 1.6769172 72.11398 -0.40240884 72.23625C -4.8496733 72.49752 -9.178607 72.212975 -13.408725 70.73751C -16.633451 69.61222 -17.90393 67.39985 -20.183739 65.23081C -25.041094 60.60638 -32.33795 60.21415 -35.3703 53.476326C -37.03075 49.78502 -35.340443 45.909237 -37.904083 42.406403C -40.782093 38.472622 -50.586334 37.12649 -55.11621 36.352802C -63.4244 34.935028 -59.32455 25.343283 -55.296597 21.614174C -48.582508 15.399837 -38.35492 13.244713 -29.560717 12.494139C -20.121315 11.688798 -12.140015 10.395517 -3.2627718 10.491906C 3.9300165 10.569973 11.874051 11.513171 17.96099 15.639628C 19.701828 16.819334 21.591724 14.153808 19.84342 12.968048z" stroke="none" fill="#563118" fill-rule="nonzero" />
				</g>
				<g transform="matrix(1 0 0 1 315.858 306.84)">
                    <path d="M8.933 -7.636C 1.6 -1.636 -15.084858 15.697829 -28.952974 9.272654C -36.998726 5.5446815 -57.610294 3.3466187 -64.282646 -1.4524338C -54.69076 10.786285 -16.012753 16.482296 -1.3977534 7.8862963C 11.751246 0.27329648 18.95 -17.475 38.424 -12.226C 35.301 -14.197 31.727 -15.426 27.888 -15.824C 22.542 -16.376 11.513 -9.747 8.933 -7.636z" stroke="none" fill="#EDB546" fill-rule="nonzero" />
				</g>
				<g transform="matrix(1 0 0 1 208.023 251.087)">
                    <path d="M11.6923485 42.549232C 9.166952 42.353756 -5.97383 42.56627 -22.154457 44.28079C -39.659584 46.13572 -53.074852 50.93034 -56.287724 60.41884C -57.01971 62.57983 -57.178795 64.19231 -56.962982 65.404564C -38.48713 41.81823 -10.873615 47.792194 11.6923485 42.549232z" stroke="none" fill="#EDB546" fill-rule="nonzero" />
				</g>
				<g transform="matrix(1 0 0 1 275.252 329.532)">
                    <path d="M89.16 -17.85C 86.16 -10.85 82.746 -3.302 76.16 3.15C 34.902 43.572 -16.194407 38.74205 -56.917072 19.421356C -66.909386 15.003976 -77.4235 13.816022 -87.41582 9.398642C -93.590416 7.092228 -95.42685 -0.11379066 -101.43499 -2.0861733C -99.89246 -0.040150225 -99.23908 2.6769602 -98.4936 5.622639C -97.66365 8.9008465 -95.32738 15.480906 -91.596176 17.102823C -87.86497 18.724743 -83.7505 19.734482 -81.73554 22.691439C -79.72108 25.647888 -79.66818 27.949804 -75.511734 29.045807C -71.35529 30.14181 -60.518616 29.853188 -60.518616 29.853188C -46.682632 39.08229 -35.411057 41.179417 -21.238888 47.359974C -12.928776 50.984016 4.0326514 61.28722 28.713388 55.739803C 49.242996 51.232265 71.091 39.446 81.827 20.152C 90.813 4.004 92.556 -9.665 89.821 -19.755C 89.609 -19.121 89.391 -18.485 89.16 -17.85z" stroke="none" fill="#925423" fill-rule="nonzero" />
				</g>
				<g transform="matrix(1 0 0 1 213.937 284.823)">
                    <path d="M19.84342 12.968048C 6.070616 3.6293263 -12.993953 7.8519416 -29.503662 9.010804C -41.49322 9.853315 -65.57106 15.935554 -63.47247 32.383514C -62.685307 38.55181 -49.554623 39.725555 -44.7437 40.979496C -36.838753 43.12307 -40.12992 51.83561 -37.460308 56.566147C -33.753407 63.135105 -25.108412 63.350063 -21.158659 69.21048C -16.884357 75.5539 -6.565812 75.85461 0.11435132 75.46104C 2.2196906 75.33643 1.6769172 72.11398 -0.40240884 72.23625C -4.8496733 72.49752 -9.178607 72.212975 -13.408725 70.73751C -16.633451 69.61222 -17.90393 67.39985 -20.183739 65.23081C -25.041094 60.60638 -32.33795 60.21415 -35.3703 53.476326C -37.03075 49.78502 -35.152954 45.460743 -37.904083 42.406403C -40.88028 39.01042 -50.861645 37.340622 -55.39152 36.566933C -63.69971 35.149162 -59.32455 25.343283 -55.296597 21.614174C -48.582508 15.399837 -38.35492 13.244713 -29.560717 12.494139C -20.121315 11.688798 -12.140015 10.395517 -3.2627718 10.491906C 3.9300165 10.569973 11.874051 11.513171 17.96099 15.639628C 19.701828 16.819334 21.591724 14.153808 19.84342 12.968048z" stroke="none" fill="#563118" fill-rule="nonzero" />
				</g>
				<g transform="matrix(1 0 0 1 279.961 334.711)">
                    <path d="M-4.361816 0.7793216C -7.9952483 1.915346 -9.736678 5.147031 -8.251227 7.995821C -6.7637763 10.847611 -2.6175845 12.231429 1.0178479 11.094404C 4.6512804 9.95938 6.3902345 6.727758 4.9028463 3.8747299C 3.421808 1.0247018 -0.7283838 -0.36005265 -4.361816 0.7793216z" stroke="none" fill="#925423" fill-rule="nonzero" />
				</g>
				<g transform="matrix(1 0 0 1 347.54 304.022)">
                    <path d="M11.038 -4.622C 8.521 -9.826 1.524 -11.969 -4.575 -9.412C -10.675 -6.862 -13.572 -0.579 -11.046 4.62C -8.514 9.827 -1.526 11.969 4.575 9.417C 10.678 6.867 13.572 0.585 11.038 -4.622z" stroke="none" fill="#925423" fill-rule="nonzero" />
				</g>
				<g transform="matrix(1 0 0 1 309.066 332.906)">
                    <path d="M-2.784 -8.03C -8.199 -6.568 -11.343 -1.791 -9.805 2.649C -8.263 7.083 -2.626 9.488 2.791 8.033C 8.207 6.572 11.343 1.79 9.809 -2.645C 8.27 -7.078 2.634 -9.488 -2.784 -8.03z" stroke="none" fill="#925423" fill-rule="nonzero" />
				</g>
				<g transform="matrix(1 0 0 1 326.46 315.615)">
                    <path d="M-2.546 -6.382C -6.809 -5.268 -9.132 -1.493 -7.725 2.028C -6.32 5.552 -1.721 7.505 2.54 6.385C 6.81 5.261 9.133 1.495 7.724 -2.027C 6.318 -5.549 1.722 -7.505 -2.546 -6.382z" stroke="none" fill="#925423" fill-rule="nonzero" />
				</g>
				<g transform="matrix(1 0 0 1 289.115 307.684)">
                    <path d="M-75.322334 53.03597C -65.859276 59.614193 -55.544415 64.37935 -44.6772 68.21222C -35.166367 71.419304 -33.21473 74.630936 -23.019892 76.67031C 0.47304928 81.47495 15.713 80.481 38.996 70.499C 61.287 60.944 76.328 38.529 78.99 14.648C 80.827 -1.838 71.417 -16.246 54.631 -18.468C 46.364 -19.562 37.575 -13.062 32.159 -7.534C 24.977 -0.203 9.890649 10.541063 -1.7483102 6.9431324C -12.172796 4.056515 -29.048761 0.25446984 -36.1177 -6.572094C -43.42425 -13.627618 -47.262024 -23.886183 -49.560616 -32.45428C -50.837055 -37.209545 -51.111732 -44.837757 -54.799217 -48.53383C -58.267723 -52.01034 -63.859295 -47.96293 -66.429886 -45.285576C -74.75968 -36.611195 -80.061676 -21.457336 -67.18468 -12.315633C -65.469574 -11.097579 -63.581173 -13.764613 -65.30225 -14.9862C -70.372406 -18.583899 -72.00974 -26.944235 -70.41301 -32.768173C -69.314926 -36.773098 -68.6144 -36.58612 -66.79836 -39.80203C -65.55529 -42.00517 -60.22385 -49.00076 -57.02578 -46.61034C -54.700718 -44.872597 -54.220913 -39.248657 -53.613262 -36.674786C -51.525223 -27.83163 -48.771923 -18.201061 -42.994972 -9.670843C -37.10353 -0.97292274 -27.593407 4.3695235 -17.854141 7.650318C -9.161253 10.578182 13.876 10.766 23.615 5.028C 27.57 2.698 30.777 -0.893 33.918 -4.173C 38.447 -8.9 43.559 -12.587 49.919 -14.446C 58.47 -16.944 68.079 -10.611 72.256 -3.535C 77.933 6.084 75.54 18.452 72.137 28.368C 66.6 44.5 56.23 57.471 41.144 65.493C 26.331 73.369 16.366964 75.71063 0.12589338 75.52079C -12.317283 75.375984 -19.911982 72.95181 -31.13775 69.74393C -46.110603 65.46504 -60.58516 59.304455 -73.44041 50.366898C -75.16811 49.16527 -77.05552 51.831303 -75.322334 53.03597z" stroke="none" fill="#563118" fill-rule="nonzero" />
				</g>
			</g>
			<g transform="matrix(1 0 0 1 0 0)">
				<g transform="matrix(1 0 0 1 203.858 247.378)">
                    <path d="M-2.402 -13.673C 1.273 -5.589 -1.162 6.23 -3.671 14.306C -4.246 16.159 -1.35 16.945 -0.778 15.103C 2.015 6.114 4.246 -6.26 0.189 -15.186C -0.611 -16.945 -3.196 -15.42 -2.402 -13.673z" stroke="none" fill="#F5B71C" fill-rule="nonzero" />
				</g>
				<g transform="matrix(1 0 0 1 218.327 244.846)">
                    <path d="M-3.002 -12.721C 0.934 -5.391 0.255 5.778 -2.451 13.337C -3.105 15.162 -0.205 15.941 0.442 14.133C 3.439 5.762 3.917 -6.174 -0.411 -14.235C -1.327 -15.94 -3.917 -14.425 -3.002 -12.721z" stroke="none" fill="#F5B71C" fill-rule="nonzero" />
				</g>
				<g transform="matrix(1 0 0 1 186.107 249.443)">
                    <path d="M4.347 -14.923C -3.153 -6.221 -5.968 3.12 -7.471 14.478C -7.724 16.391 -4.721 16.367 -4.471 14.478C -3.085 4.005 -0.461 -4.759 6.468 -12.801C 7.724 -14.258 5.612 -16.391 4.347 -14.923z" stroke="none" fill="#F5B71C" fill-rule="nonzero" />
				</g>
				<g transform="matrix(1 0 0 1 256.895 246.675)">
                    <path d="M-6.383 -11.22C 1.939 -6.866 4.816 3.487 2.08 12.073C 1.491 13.922 4.388 14.706 4.972 12.87C 8.098 3.063 4.589 -8.861 -4.869 -13.81C -6.581 -14.705 -8.098 -12.117 -6.383 -11.22z" stroke="none" fill="#F5B71C" fill-rule="nonzero" />
				</g>
				<g transform="matrix(1 0 0 1 241.002 243.525)">
                    <path d="M-5.603 -11.798C 1.152 -5.563 3.969 4.326 3.262 13.301C 3.11 15.23 6.111 15.216 6.262 13.301C 7.027 3.59 3.809 -7.19 -3.482 -13.919C -4.901 -15.229 -7.027 -13.112 -5.603 -11.798z" stroke="none" fill="#F5B71C" fill-rule="nonzero" />
				</g>
			</g>
			<g transform="matrix(1 0.00013743006 -0.00013743006 1 0.032569885 -0.06752014)" clip-path="url(#4)" >
				<g transform="matrix(1 5.608436E-06 -5.608436E-06 1 -4.795105 -3.6955795)">
					<g transform="matrix(1 0 0 1 165.241 125.286)">
                        <path d="M63.743 -8.783C 58.892 -43.987 26.422 -68.596 -8.786 -63.744C -43.989 -58.892 -68.595 -26.42 -63.745 8.785C -58.895 43.989 -26.425 68.595 8.781 63.745C 43.986 58.895 68.595 26.424 63.743 -8.783z" stroke="none" fill="#B9772B" fill-rule="nonzero" />
					</g>
					<g transform="matrix(1 0 0 1 148.301 102.661)">
                        <path d="M-14.968 28.673C -14.093 27.437 -15.968 27.34 -9.301 26.006C -4.314 25.008 -5.777 24.834 -2.301 25.006C -8.968 -11.66 17.635 -28.672 16.914 -28.512C -4.968 -23.66 -17.635 2.006 -14.968 28.673z" stroke="none" fill="#F8CD74" fill-rule="nonzero" />
					</g>
					<g transform="matrix(1 0 0 1 123.246 146.784)">
                        <path d="M-10.189 -16.586C -13.608 -9.615 -13.991 -1.167 -11.027 6.031C -7.267 15.163 1.71 18.944 11.087 19.133C 13.991 19.191 13.985 14.691 11.087 14.633C 2.869 14.468 -4.411 11.239 -7.345 3.138C -9.337 -2.365 -8.871 -9.081 -6.303 -14.315C -5.03 -16.909 -8.911 -19.191 -10.189 -16.586z" stroke="none" fill="#563118" fill-rule="nonzero" />
					</g>
					<g transform="matrix(1 0 0 1 177.653 126.894)">
                        <path d="M45.239 9.577C 48.622 -0.076 45.001 -1.991 39.253 -8.384C 25.664 -12.158 -1.16 -20.733 -42.653 -15.569C -44.092 -12.563 -44.627 -14.041 -45.591 -10.69C -47.783 -3.043 -48.622 4.949 -46.437 13.319C -23.973 12.211 2.208 7.332 38.451 20.733C 39.893 17.703 43.939 13.289 45.239 9.577z" stroke="none" fill="#FFFFFF" fill-rule="nonzero" />
					</g>
					<g transform="matrix(1 0 0 1 177.09 118.198)">
                        <path d="M47.095 12.037C 47.117 7.307 44.049 5.02 39.816 0.312C 26.227 -3.462 -0.597 -12.037 -42.09 -6.873C -43.529 -3.867 -44.064 -5.345 -45.028 -1.994C -46.184 2.039 -46.958 6.17 -47.116 10.4C -14.975 5.084 16.569 4.084 47.095 12.037z" stroke="none" fill="#DFE0EB" fill-rule="nonzero" />
					</g>
					<g transform="matrix(1 0 0 1 173.208 124.243)">
                        <path d="M-15.799 -13.965C -19.79 -10.319 -20.405 -6.934 -21.031 -0.97C -21.542 3.92 -19.036 9.425 -16.922 13.35C -5.795 12.275 3.486 14.182 14.51 15.223C 17.681 11.712 20.296 8.386 20.839 3.203C 21.541 -3.5 19.01 -7.959 15.051 -12.493C 5.342 -12.96 -4.512 -15.223 -15.799 -13.965z" stroke="none" fill="#221F1F" fill-rule="nonzero" />
					</g>
					<g transform="matrix(1 0 0 1 179.816 123.935)">
                        <path d="M2.986 2.595C 1.552 4.243 -0.949 4.424 -2.595 2.99C -4.248 1.553 -4.421 -0.947 -2.986 -2.595C -1.55 -4.247 0.946 -4.424 2.594 -2.983C 4.247 -1.553 4.421 0.947 2.986 2.595z" stroke="none" fill="#FFFFFF" fill-rule="nonzero" />
					</g>
					<g transform="matrix(1 0 0 1 148.481 116.933)">
                        <path d="M-15.802 -6.216C -15.802 -6.216 0.641 -5.612 19.164 3.701C 18.575 4.211 18.408 5.591 18.408 5.591C 18.408 5.591 -1.884 -0.206 -18.271 6.216C -19.164 1.653 -18.224 -4.309 -15.802 -6.216z" stroke="none" fill="#FFFFFF" fill-rule="nonzero" />
					</g>
					<g transform="matrix(1 0 0 1 176.035 128.814)">
                        <path d="M39.064 20.466C 44.496 21.181 48.248 12.126 49.511 8.149C 51.255 2.659 49.314 -5.303 45.278 -9.408C 41.369 -13.387 33.597 -14.831 28.46 -16.213C 19.565 -18.605 10.312 -19.712 1.143 -20.351C -12.555 -21.306 -26.412 -20.863 -40.065 -19.451C -43.582 -19.087 -44.851 -19.138 -46.732 -15.725C -51.255 -7.517 -49.923 4.867 -47.872 13.518C -47.582 14.742 -46.264 15.364 -45.104 15.089C -18.102 8.674 12.446 11.723 38.466 20.385C 41.227 21.305 42.401 16.959 39.662 16.048C 12.867 7.127 -18.527 4.153 -46.301 10.751C -45.378 11.274 -44.456 11.797 -43.533 12.321C -45.678 3.274 -46.074 -7.206 -41.666 -15.654C -42.313 -15.283 -42.961 -14.911 -43.609 -14.54C -27.978 -16.64 -11.879 -16.86 3.822 -15.654C 16.157 -14.706 28.768 -12.516 40.109 -7.399C 43.376 -5.925 44.492 -2.812 45.159 0.589C 45.836 4.037 45.367 7.06 43.88 10.16C 43.178 11.626 41.065 16.229 39.064 15.966C 36.193 15.588 36.23 20.093 39.064 20.466z" stroke="none" fill="#563118" fill-rule="nonzero" />
					</g>
				</g>
				<g transform="matrix(1 0 0 1 0 0)">
					<g transform="matrix(1 0 0 1 66.538 252.368)">
                        <path d="M52.743 -50.104C 52.743 -50.104 -17.493 56.608 -17.493 56.608C -23.251 65.544 -35.159 68.122 -44.094 62.364C -53.028 56.608 -55.606 44.702 -49.849 35.765C -49.331 34.964 -48.691 34.132 -48.081 33.433C -48.081 33.433 35.454 -63.203 35.454 -63.203C 39.438 -67.701 46.309 -68.122 50.809 -64.137C 54.884 -60.53 55.606 -54.54 52.743 -50.104z" stroke="none" fill="#8F371F" fill-rule="nonzero" />
					</g>
					<g transform="matrix(1 0 0 1 77.312 241.324)">
                        <path d="M40.036 -53.093C 35.536 -57.077 28.664 -56.655 24.68 -52.157C 24.68 -52.157 -44.831 28.374 -44.831 28.374C -39.637 39.415 -32.149 49.19 -22.993 57.076C -22.993 57.076 41.969 -39.059 41.969 -39.059C 44.832 -43.494 44.11 -49.486 40.036 -53.093z" stroke="none" fill="#6E2C1C" fill-rule="nonzero" />
					</g>
					<g transform="matrix(1 0 0 1 68.04 251.605)">
                        <path d="M49.687 -50.249C 37.249 -31.353 24.811 -12.456 12.374 6.44C 4.27 18.753 -3.834 31.065 -11.938 43.379C -16.939 50.976 -21.605 61.193 -30.958 63.878C -45.793 68.136 -56.927 51.374 -50.499 38.618C -49.218 36.075 -46.859 33.79 -45.002 31.642C -37.089 22.488 -29.178 13.336 -21.266 4.184C -21.266 4.184 32.932 -58.515 32.932 -58.515C 33.676 -59.375 34.42 -60.235 35.165 -61.096C 42.552 -69.642 54.938 -59.697 49.687 -50.249C 48.558 -48.218 51.666 -46.403 52.794 -48.432C 57.695 -57.248 52.123 -67.337 42.079 -67.907C 37.502 -68.167 34.008 -65.248 31.229 -62.035C 24.3 -54.018 17.369 -46.001 10.439 -37.984C -8.496 -16.081 -27.43 5.824 -46.365 27.728C -47.853 29.449 -49.341 31.171 -50.829 32.893C -56.851 39.858 -57.695 49.238 -53.484 57.329C -48.863 66.21 -37.986 69.642 -28.766 66.995C -23.446 65.468 -19.599 61.56 -16.652 57.082C -2.31 35.291 12.032 13.5 26.374 -8.291C 35.181 -21.671 43.988 -35.052 52.794 -48.432C 54.075 -50.377 50.957 -52.179 49.687 -50.249z" stroke="none" fill="#6E2C1C" fill-rule="nonzero" />
					</g>
					<g transform="matrix(1 0 0 1 114.878 189.216)">
                        <path d="M-5.252 -20.046C -5.252 -20.046 -20.661 0.407 -20.661 0.407C -22.485 2.813 -22.009 6.277 -19.603 8.101C -19.603 8.101 -2.441 21.102 -2.441 21.102C -0.034 22.927 3.429 22.452 5.251 20.044C 5.251 20.044 20.659 -0.408 20.659 -0.408C 22.484 -2.815 22.006 -6.276 19.598 -8.101C 19.598 -8.101 2.439 -21.105 2.439 -21.105C 0.032 -22.928 -3.429 -22.451 -5.252 -20.046z" stroke="none" fill="#C5BDBD" fill-rule="nonzero" />
					</g>
					<g transform="matrix(1 0 0 1 122.033 192.255)">
                        <path d="M12.443 -11.139C 12.443 -11.139 0.898 -19.889 0.898 -19.889C 4.063 -8.01 -5.373 5.73 -15.329 13.721C -15.329 13.721 -9.596 18.064 -9.596 18.064C -7.189 19.888 -3.728 19.414 -1.906 17.006C -1.906 17.006 13.505 -3.446 13.505 -3.446C 15.33 -5.852 14.851 -9.315 12.443 -11.139z" stroke="none" fill="#A19394" fill-rule="nonzero" />
					</g>
					<g transform="matrix(1 0 0 1 180.71 134.032)">
                        <path d="M29.562 -62.307C 24.684 -66.004 19.484 -68.977 14.093 -71.255C 39.863 -51.459 56.283 -13.018 40.956 17.635C 37.956 24.635 32.29 31.969 25.29 36.969C 0.29 54.969 -26.044 57.301 -53.044 45.301C -55.869 43.889 -64.48 39.087 -67.377 37.635C -66.71 40.635 -62.46 45.217 -59.71 47.301C -28.104 71.254 19.472 69.9 43.424 38.294C 67.377 6.688 61.171 -38.356 29.562 -62.307z" stroke="none" fill="#524744" fill-rule="nonzero" />
					</g>
					<g transform="matrix(1 0 0 1 114.929 189.218)">
                        <path d="M-6.598 -20.804C -6.598 -20.804 -16.923 -7.1 -16.923 -7.1C -19.533 -3.636 -25.684 2.113 -22.531 6.955C -19.558 11.519 -13.392 14.712 -9.141 17.933C -4.509 21.443 0.846 26.759 6.26 21.102C 10.003 17.192 12.998 12.169 16.251 7.851C 18.921 4.307 25.683 -1.957 22.424 -6.956C 19.449 -11.519 13.288 -14.715 9.036 -17.937C 4.403 -21.448 -0.947 -26.759 -6.364 -21.107C -7.703 -19.711 -5.584 -17.587 -4.243 -18.986C -0.069 -23.34 6.498 -16.122 9.821 -13.604C 12.803 -11.344 22.984 -6.038 19.283 -1.127C 14.167 5.664 9.05 12.454 3.934 19.245C 0.595 23.677 -7.348 15.554 -9.926 13.601C -12.91 11.341 -23.089 6.038 -19.387 1.123C -14.26 -5.681 -9.135 -12.486 -4.008 -19.29C -2.843 -20.837 -5.449 -22.329 -6.598 -20.804z" stroke="none" fill="#524744" fill-rule="nonzero" />
					</g>
					<g transform="matrix(1 0 0 1 126.459 175.678)">
                        <path d="M30.78 18.831C 31.149 21.521 29.137 23.97 26.423 24.097C 13.827 24.69 0.963 21.041 -9.874 12.826C -20.71 4.616 -27.704 -6.785 -30.537 -19.07C -31.148 -21.72 -29.339 -24.318 -26.647 -24.689C -23.125 -18.677 -21.459 -9.677 -5.125 1.989C 11.208 13.656 27.019 18.673 30.78 18.831z" stroke="none" fill="#524744" fill-rule="nonzero" />
					</g>
					<g transform="matrix(1 0 0 1 165.861 125.34)">
                        <path d="M37.099 -52.199C 7.194 -74.861 -29.891 -69.114 -52.555 -39.207C -75.218 -9.302 -68.819 29.533 -38.911 52.197C -9.006 74.861 29.89 65.388 52.554 35.483C 75.218 5.578 67.007 -29.536 37.099 -52.199zM11.598 62.59C -20.913 67.07 -50.901 44.345 -55.38 11.832C -59.861 -20.681 -37.137 -50.667 -4.623 -55.146C 27.549 -59.578 58.217 -34.424 62.356 -4.388C 66.837 28.123 44.108 58.111 11.598 62.59z" stroke="none" fill="#524744" fill-rule="nonzero" />
					</g>
					<g transform="matrix(1 0 0 1 164.572 123.289)">
                        <path d="M43.367 -57.23C 11.762 -81.181 -33.277 -74.978 -57.231 -43.369C -81.183 -11.763 -74.98 33.276 -43.371 57.23C -11.765 81.182 33.277 74.976 57.23 43.37C 81.183 11.764 74.977 -33.278 43.367 -57.23zM8.358 58.826C -24.214 63.315 -54.258 40.548 -58.746 7.973C -63.236 -24.6 -40.468 -54.644 -7.893 -59.131C 24.68 -63.619 54.722 -40.85 59.211 -8.278C 63.7 24.294 40.929 54.338 8.358 58.826z" stroke="none" fill="#B1A6A2" fill-rule="nonzero" />
					</g>
					<g transform="matrix(1 0 0 1 144.365 107.125)">
                        <path d="M-15.783 -40.065C 14.39 -58.962 41.159 -49.815 58.193 -44.759C 27.033 -64.237 -14.398 -57.062 -37.024 -27.207C -58.193 0.729 -55.791 39.147 -33.127 64.237C -54.843 30.641 -52.336 -17.173 -15.783 -40.065z" stroke="none" fill="#EBE8EA" fill-rule="nonzero" />
					</g>
					<g transform="matrix(1 0 0 1 167.445 125.053)">
                        <path d="M41.252 -60.29C 23.537 -73.445 1.221 -77.986 -20.25 -72.984C -41.821 -67.958 -59.894 -52.551 -69.344 -32.696C -78.52 -13.417 -78.143 9.175 -69.618 28.566C -60.682 48.895 -41.957 63.863 -20.63 69.378C 12.655 77.986 47.805 60.82 63.005 30.415C 78.521 -0.622 68.704 -39.062 41.555 -60.054C 40.045 -61.222 37.906 -59.115 39.435 -57.933C 58.504 -43.188 68.822 -20.361 67.234 3.699C 65.613 28.263 50.093 50.196 28.367 61.242C 6.907 72.153 -19.189 70.46 -39.635 58.171C -60.568 45.59 -72.99 22.301 -73.184 -1.902C -73.397 -28.43 -57.534 -52.863 -34.113 -64.77C -10.357 -76.848 18.588 -73.405 39.738 -57.699C 41.294 -56.544 42.787 -59.15 41.252 -60.29z" stroke="none" fill="#524744" fill-rule="nonzero" />
					</g>
					<g transform="matrix(1 0 0 1 164.694 123.35)">
                        <path d="M8.236 57.265C -15.724 60.285 -38.86 48.801 -50.764 27.745C -62.879 6.32 -59.048 -20.953 -42.947 -39.133C -26.801 -57.364 -0.323 -62.759 22.058 -53.961C 44.919 -44.974 58.962 -21.478 58.086 2.694C 57.075 30.569 34.91 53.268 7.837 57.319C 5.929 57.604 6.743 60.494 8.635 60.211C 29.536 57.084 48.018 43.377 56.243 23.742C 64.745 3.444 61.789 -19.87 48.5 -37.41C 35.664 -54.351 14.366 -63.02 -6.621 -60.867C -27.837 -58.692 -46.313 -44.862 -55.338 -25.728C -64.745 -5.786 -61.89 18.215 -49.073 35.934C -36.054 53.933 -13.622 63.02 8.236 60.265C 10.129 60.026 10.152 57.023 8.236 57.265z" stroke="none" fill="#524744" fill-rule="nonzero" />
					</g>
					<g transform="matrix(1 0 0 1 182.659 79.518)">
                        <path d="M-20.99 -9.397C -18.592 -14.75 -7.251 -14.886 4.341 -9.695C 15.932 -4.503 23.385 4.042 20.987 9.401C 18.586 14.753 7.248 14.886 -4.341 9.699C -15.933 4.51 -23.385 -4.039 -20.99 -9.397z" stroke="none" fill="#FFFFFF" fill-rule="nonzero" />
					</g>
					<g transform="matrix(1 0 0 1 210.434 98.922)">
                        <path d="M5.19 0C 5.19 2.867 2.867 5.19 0 5.19C -2.866 5.19 -5.19 2.867 -5.19 0C -5.19 -2.866 -2.866 -5.19 0 -5.19C 2.867 -5.19 5.19 -2.866 5.19 0z" stroke="none" fill="#FFFFFF" fill-rule="nonzero" />
					</g>
				</g>
				<g transform="matrix(1 0 0 1 0 0)">
					<g transform="matrix(1 0 0 1 86.174 229.263)">
                        <path d="M-31.541 -37.619C -35.93 -30.609 -36.904 -18.11 -42.502 -11.416C -47.229 -5.252 -50.791 -2.26 -53.346 5.226C -55.904 12.712 -58.411 22.089 -54.313 29.265C -49.537 38.304 -41.703 48.768 -34.09 55.723C -26.738 62.559 -20.02 60.108 -11.686 56.862C -5.594 54.426 2.604 55.454 7.098 49.799C 11.354 44.651 12.418 37.712 15.772 31.835C 20.941 23.397 28.191 26.455 36.149 23.347C 58.411 14.808 45.524 -10.099 35.109 -23.005C 28.329 -31.743 19.785 -40.445 9.834 -45.929C -1.016 -51.913 -15.895 -62.56 -31.541 -37.619z" stroke="none" fill="#A86728" fill-rule="nonzero" />
					</g>
					<g transform="matrix(1 0 0 1 93.163 245.715)">
                        <path d="M28.12 -39.457C 26.384 -41.694 24.531 -43.927 22.569 -46.107C 25.934 -35.751 25.163 -24.184 19.837 -14.715C 15.837 -6.715 4.837 -7.715 -2.163 -2.715C -15.163 6.285 -20.163 24.285 -35.163 29.285C -40.48 31.057 -46.189 30.274 -51.422 27.898C -48.14 32.112 -44.588 36.066 -41.079 39.271C -33.728 46.107 -27.009 43.656 -18.675 40.41C -12.583 37.974 -4.386 39.001 0.108 33.347C 4.364 28.199 5.429 21.259 8.783 15.382C 13.952 6.944 21.202 10.003 29.16 6.895C 51.422 -1.644 38.535 -26.552 28.12 -39.457z" stroke="none" fill="#925423" fill-rule="nonzero" />
					</g>
					<g transform="matrix(1 0 0 1 56.917 215.534)">
                        <path d="M-0.583 -15.868C 4.084 -29.868 17.613 -37.368 27.806 -37.533C 18.994 -40.662 8.861 -39.927 -1.617 -23.223C -6.006 -16.213 -6.98 -3.715 -12.578 2.979C -17.305 9.143 -20.867 12.136 -23.422 19.622C -25.638 26.104 -27.806 34.001 -25.689 40.662C -23.14 23.739 -17.671 17.647 -6.583 1.8C -3.607 -2.218 -2.583 -9.868 -0.583 -15.868z" stroke="none" fill="#EDB546" fill-rule="nonzero" />
					</g>
					<g transform="matrix(1 0 0 1 86.406 230.676)">
                        <path d="M-32.992 -40.191C -35.589 -35.744 -36.911 -30.74 -38.419 -25.854C -40.524 -19.034 -43.847 -14.103 -48.301 -8.617C -54.734 -0.692 -59.874 11.976 -57.885 22.344C -56.749 28.259 -53.097 33.406 -49.766 38.309C -45.867 44.05 -41.367 49.414 -36.408 54.264C -32.807 57.784 -28.887 60.017 -23.796 60.225C -18.018 60.461 -12.712 57.096 -7.245 55.805C -2.656 54.72 2.721 54.558 6.49 51.335C 11.025 47.456 12.913 41.685 15.004 36.288C 16.429 32.608 18.083 29.117 21.543 26.973C 23.895 25.515 27.162 25.38 29.812 25.024C 34.54 24.39 39.273 22.964 43.094 19.998C 57.957 8.459 46.652 -12.845 37.719 -24.372C 27.743 -37.245 15.422 -48.618 0.081 -54.716C -14.369 -60.46 -25.207 -52.227 -32.992 -40.191C -34.257 -38.235 -31.14 -36.431 -29.885 -38.373C -23.463 -48.301 -14.877 -56.002 -2.616 -51.91C 7.66 -48.48 17.434 -41.132 24.978 -33.662C 35.974 -22.775 59.875 7.29 37.803 19.049C 32.966 21.626 27.43 21.28 22.29 22.766C 17.102 24.266 14.317 28.802 12.296 33.462C 9.618 39.637 8.085 47.354 1.207 50.201C -1.316 51.245 -4.187 51.56 -6.851 52.058C -10.161 52.675 -13.182 53.93 -16.338 55.058C -24.011 57.802 -29.239 56.238 -35.005 50.6C -40.577 45.15 -45.284 38.808 -49.451 32.243C -53.81 25.376 -55.389 19.544 -53.693 11.484C -52.223 4.501 -49.384 -1.603 -44.9 -7.126C -41.335 -11.517 -38.339 -15.495 -36.312 -20.816C -34.09 -26.648 -33.062 -32.931 -29.885 -38.373C -28.712 -40.382 -31.823 -42.194 -32.992 -40.191z" stroke="none" fill="#563118" fill-rule="nonzero" />
					</g>
				</g>
			</g>
		</g>
	</g>
</g>
</svg>